<?xml version="1.0" encoding="utf-8"?>
<!DOCTYPE svg PUBLIC "-//W3C//DTD SVG 1.0//EN" "http://www.w3.org/TR/2001/REC-SVG-20010904/DTD/svg10.dtd">
<svg version="1.0" xmlns="http://www.w3.org/2000/svg" width="46px" height="44px" viewBox="0 0 46 44" preserveAspectRatio="xMidYMid meet">
 <g fill="#000000">
  <path d="M15.08 40.95 c-3.48 -0.08 -6.57 -0.23 -7.17 -0.35 -1.47 -0.29 -2.77 -1.56 -3.17 -3.10 -0.23 -0.90 -0.32 -4.91 -0.34 -16.62 -0.03 -9.46 -0.01 -11.38 0.10 -11.79 0.42 -1.65 1.53 -2.89 2.99 -3.34 0.30 -0.09 0.67 -0.17 0.81 -0.17 0.29 0 0.44 -0.21 0.44 -0.59 0 -0.53 0.57 -1.31 1.20 -1.62 0.40 -0.20 0.58 -0.23 1.31 -0.23 1 0 1.41 0.14 1.93 0.67 0.39 0.39 0.56 0.69 0.64 1.17 l0.07 0.35 3.56 -0.05 c1.96 -0.04 5.64 -0.09 8.17 -0.12 l4.59 -0.06 0.16 -0.46 c0.22 -0.60 0.86 -1.24 1.42 -1.40 0.25 -0.07 0.74 -0.11 1.22 -0.09 0.75 0.04 0.84 0.06 1.27 0.35 0.55 0.37 0.98 0.99 1.07 1.54 l0.06 0.39 0.63 0.14 c0.94 0.22 1.60 0.59 2.21 1.24 0.59 0.63 0.95 1.31 1.12 2.18 0.09 0.44 0.14 3.46 0.23 12.51 0.11 12.02 0.09 14.54 -0.10 15.53 -0.23 1.20 -0.97 2.37 -1.84 2.94 -1.17 0.76 -1.73 0.81 -9.83 0.97 -5.17 0.10 -8.29 0.10 -12.77 -0.01z m13.41 -1.62 c6.08 -0.11 6.92 -0.16 7.63 -0.48 1.10 -0.49 1.71 -1.44 1.88 -2.95 0.11 -0.90 -0.02 -20.44 -0.13 -20.55 -0.04 -0.04 -2.44 -0.02 -5.36 0.04 -2.91 0.05 -8.16 0.10 -11.68 0.10 -5.78 0 -8.70 0.05 -13.36 0.23 l-1.56 0.06 0.05 7.71 c0.05 8.49 0.16 12.85 0.32 13.33 0.40 1.24 1.07 1.88 2.32 2.21 0.74 0.19 9.68 0.49 13.08 0.43 0.82 -0.02 3.88 -0.07 6.80 -0.13z m-19.22 -25.29 c1.16 -0.05 8.07 -0.14 15.35 -0.18 7.27 -0.05 13.24 -0.11 13.25 -0.13 0.02 -0.02 0.05 -0.87 0.05 -1.91 0.02 -1.95 -0.03 -2.25 -0.41 -3.08 -0.23 -0.53 -0.82 -1.09 -1.43 -1.40 -0.28 -0.14 -0.55 -0.24 -0.60 -0.24 -0.06 0 -0.10 0.53 -0.13 1.56 -0.03 1.44 -0.05 1.58 -0.25 1.99 -0.48 0.93 -1.38 1.38 -2.57 1.29 -0.34 -0.03 -0.78 -0.12 -0.97 -0.20 -0.46 -0.19 -1.08 -0.84 -1.22 -1.27 -0.07 -0.22 -0.14 -1.01 -0.16 -2.05 l-0.05 -1.70 -6.72 0.06 c-3.69 0.03 -7.35 0.08 -8.12 0.11 l-1.41 0.06 -0.04 1.63 c-0.03 1.48 -0.05 1.67 -0.23 2.05 -0.23 0.48 -0.66 0.88 -1.21 1.16 -0.32 0.16 -0.50 0.18 -1.29 0.15 -0.88 -0.03 -0.94 -0.04 -1.40 -0.35 -0.34 -0.23 -0.57 -0.47 -0.76 -0.81 -0.27 -0.48 -0.27 -0.50 -0.30 -2.07 l-0.04 -1.59 -0.32 0.09 c-0.81 0.23 -1.48 0.75 -1.83 1.45 -0.41 0.77 -0.46 1.19 -0.50 3.41 l-0.05 2.13 0.61 -0.05 c0.34 -0.03 1.58 -0.08 2.74 -0.13z m2.30 -3.74 c0.57 -0.27 0.62 -0.47 0.65 -2.69 0.03 -2.26 -0.02 -2.48 -0.63 -2.77 -0.30 -0.14 -0.36 -0.15 -0.65 -0.03 -0.18 0.07 -0.41 0.27 -0.50 0.43 -0.17 0.28 -0.18 0.41 -0.16 2.39 l0.03 2.09 0.27 0.28 c0.23 0.23 0.49 0.41 0.66 0.44 0.02 0.01 0.17 -0.05 0.34 -0.14z m21.80 -0.25 l0.33 -0.31 0 -2.22 0 -2.22 -0.30 -0.26 c-0.42 -0.38 -0.85 -0.36 -1.23 0.05 l-0.29 0.31 -0.05 1.93 c-0.03 1.05 -0.03 2.03 0 2.17 0.03 0.14 0.18 0.40 0.34 0.57 0.40 0.41 0.74 0.41 1.20 0z"/>
  <path d="M19.98 37.85 c-3.30 -0.32 -5.70 -1.55 -6.53 -3.35 -0.45 -0.99 -0.54 -1.43 -0.53 -2.68 0.01 -1 0.05 -1.29 0.25 -1.98 0.29 -0.95 0.80 -1.89 1.48 -2.72 l0.49 -0.59 -0.28 -0.41 c-0.50 -0.74 -1.25 -2.39 -1.47 -3.18 -0.27 -0.99 -0.30 -2.75 -0.05 -3.47 0.21 -0.59 0.73 -1.18 1.29 -1.47 0.39 -0.20 0.56 -0.23 1.39 -0.23 0.88 0 0.99 0.02 1.53 0.29 0.64 0.32 1.57 1.18 2.10 1.97 0.47 0.68 1.10 2.04 1.39 2.98 l0.25 0.84 0.73 0 0.74 0 0.24 -0.78 c0.54 -1.73 1.64 -3.56 2.65 -4.37 1.01 -0.82 2.38 -1.15 3.61 -0.86 0.56 0.13 1.31 0.71 1.57 1.23 0.45 0.89 0.52 2.26 0.19 3.57 -0.18 0.72 -0.95 2.29 -1.50 3.05 l-0.45 0.61 0.50 0.51 c0.57 0.59 1.13 1.40 1.39 2.03 0.32 0.77 0.41 1.40 0.41 2.66 0 1.97 -0.37 2.93 -1.60 4.19 -0.60 0.62 -0.86 0.80 -1.58 1.15 -2.04 0.99 -4.77 1.32 -8.18 1z m4.19 -1.58 c3.47 -0.40 5.63 -2.23 5.63 -4.80 0 -1.39 -0.85 -3.05 -2 -3.92 -0.79 -0.60 -0.79 -0.60 -0.79 -1.09 0 -0.40 0.05 -0.49 0.41 -0.89 1.17 -1.32 2.21 -3.49 2.21 -4.60 -0.01 -0.86 -0.60 -1.62 -1.29 -1.62 -1.36 0 -2.92 1.83 -3.79 4.43 -0.13 0.38 -0.23 0.78 -0.23 0.89 0 0.11 -0.05 0.34 -0.11 0.50 -0.14 0.39 -0.37 0.44 -1.22 0.32 -0.47 -0.07 -0.95 -0.07 -1.65 0 -1.35 0.13 -1.34 0.14 -1.63 -1.05 -0.41 -1.64 -1.40 -3.55 -2.25 -4.34 -0.16 -0.15 -0.46 -0.39 -0.66 -0.52 -1.13 -0.74 -2.27 0.35 -2.02 1.93 0.21 1.31 1.23 3.42 2.03 4.19 0.36 0.35 0.39 0.41 0.39 0.85 0 0.46 -0.01 0.48 -0.62 1.09 -0.98 0.96 -1.39 1.59 -1.78 2.74 -0.32 0.94 -0.36 1.68 -0.13 2.46 0.61 2.02 2.37 3.05 5.91 3.47 0.61 0.08 2.84 0.05 3.60 -0.03z"/>
  <path d="M20.07 35.37 c-0.29 -0.12 -0.61 -0.42 -0.77 -0.73 -0.15 -0.30 -0.16 -1.17 -0.02 -1.31 0.16 -0.16 1.11 -0.14 1.28 0.04 0.08 0.07 0.14 0.19 0.14 0.25 0 0.07 0.05 0.17 0.13 0.23 0.11 0.09 0.17 0.07 0.32 -0.07 0.28 -0.28 0.24 -0.60 -0.13 -0.95 -0.25 -0.24 -0.32 -0.37 -0.32 -0.65 0 -0.20 0.06 -0.44 0.14 -0.55 0.14 -0.19 0.22 -0.20 1.23 -0.20 0.66 0 1.14 0.04 1.22 0.10 0.07 0.05 0.12 0.29 0.12 0.59 0 0.43 -0.04 0.52 -0.27 0.73 -0.21 0.19 -0.27 0.32 -0.27 0.58 0 0.54 0.43 0.67 0.59 0.16 0.12 -0.39 0.23 -0.45 0.77 -0.45 0.68 0 0.75 0.09 0.70 0.87 -0.04 0.72 -0.21 1.02 -0.76 1.29 -0.42 0.21 -1.25 0.23 -1.75 0.05 -0.26 -0.09 -0.37 -0.09 -0.59 0 -0.32 0.14 -1.43 0.15 -1.76 0.03z"/>
  <path d="M17.67 32.25 c-0.24 -0.18 -0.39 -0.62 -0.39 -1.15 0 -0.86 0.35 -1.21 1.20 -1.21 0.70 0 1.02 0.27 1.10 0.93 0.07 0.56 -0.06 1.16 -0.32 1.42 -0.23 0.23 -1.29 0.24 -1.58 0.01z"/>
  <path d="M24.84 32.15 c-0.23 -0.21 -0.28 -0.32 -0.32 -0.78 -0.05 -0.61 0.12 -1.12 0.44 -1.34 0.24 -0.17 1.22 -0.19 1.42 -0.03 0.33 0.26 0.45 0.56 0.45 1.13 0 0.61 -0.16 1.04 -0.44 1.19 -0.10 0.05 -0.42 0.09 -0.72 0.09 -0.47 0 -0.59 -0.04 -0.83 -0.25z"/>
 </g>
 <g fill="#ffffff">
  <path d="M0 21.96 l0 -21.96 23 0 23 0 0 21.96 0 21.96 -23 0 -23 0 0 -21.96z m27.58 18.72 c8.10 -0.16 8.66 -0.22 9.83 -0.97 0.87 -0.58 1.60 -1.75 1.84 -2.94 0.20 -1.02 0.21 -3.18 0.10 -15.03 -0.09 -9.02 -0.14 -12.03 -0.23 -12.47 -0.17 -0.86 -0.52 -1.55 -1.12 -2.18 -0.61 -0.66 -1.28 -1.03 -2.21 -1.24 l-0.63 -0.14 -0.06 -0.39 c-0.09 -0.55 -0.52 -1.17 -1.06 -1.53 -0.54 -0.37 -1.26 -0.47 -1.95 -0.27 -0.58 0.15 -1.22 0.78 -1.43 1.40 l-0.16 0.46 -4.50 0.05 c-2.48 0.04 -6.28 0.09 -8.44 0.13 l-3.92 0.05 -0.07 -0.35 c-0.08 -0.48 -0.25 -0.78 -0.64 -1.17 -0.70 -0.70 -1.81 -0.88 -2.70 -0.44 -0.63 0.32 -1.20 1.09 -1.20 1.62 0 0.38 -0.15 0.59 -0.44 0.59 -0.14 0 -0.51 0.08 -0.81 0.17 -1.46 0.45 -2.57 1.69 -2.99 3.34 -0.11 0.41 -0.13 2.29 -0.10 11.52 0.03 11.47 0.11 15.46 0.34 16.35 0.40 1.54 1.70 2.81 3.17 3.10 0.93 0.18 7.25 0.41 12.43 0.43 1.26 0.01 4.39 -0.03 6.98 -0.07z"/>
  <path d="M17.15 39.69 c-5.67 -0.14 -8.28 -0.26 -8.80 -0.40 -1.25 -0.32 -1.93 -0.96 -2.32 -2.21 -0.16 -0.49 -0.26 -4.89 -0.32 -13.60 l-0.05 -7.98 1.56 -0.06 c4.65 -0.18 7.56 -0.23 13.22 -0.23 3.44 0 8.82 -0.05 11.95 -0.10 3.13 -0.05 5.73 -0.07 5.76 -0.05 0.11 0.12 0.23 20.08 0.14 21.05 -0.23 2.13 -1.22 3.12 -3.30 3.31 -0.77 0.06 -5.29 0.17 -13.20 0.30 -1.02 0.02 -3.10 0 -4.64 -0.04z m6.85 -2.07 c1.37 -0.14 2.86 -0.53 3.90 -1.04 0.73 -0.35 0.98 -0.53 1.58 -1.15 1.20 -1.22 1.58 -2.18 1.58 -3.92 0.01 -1.05 -0.13 -1.82 -0.44 -2.50 -0.27 -0.60 -0.98 -1.58 -1.53 -2.12 l-0.54 -0.52 0.56 -0.78 c1.73 -2.39 2.25 -4.65 1.44 -6.24 -0.30 -0.59 -1.02 -1.12 -1.70 -1.26 -0.91 -0.18 -2.05 0.17 -2.93 0.89 -1.02 0.83 -2.13 2.69 -2.66 4.41 l-0.24 0.79 -0.98 -0.01 -0.98 -0.02 -0.36 -1.05 c-0.58 -1.73 -1.21 -2.83 -2.22 -3.85 -0.84 -0.86 -1.53 -1.19 -2.45 -1.19 -0.53 0.01 -0.77 0.05 -1.12 0.23 -0.56 0.29 -1.08 0.87 -1.29 1.47 -0.23 0.68 -0.22 1.96 0.05 2.93 0.32 1.20 1.20 2.93 1.85 3.68 l0.18 0.20 -0.52 0.57 c-1.66 1.83 -2.35 4.19 -1.80 6.16 0.58 2.05 2.12 3.31 4.92 4.01 1.46 0.36 3.99 0.51 5.72 0.34z"/>
  <path d="M20.93 36.62 c-2.48 -0.18 -4.23 -0.72 -5.40 -1.67 -0.43 -0.35 -0.93 -1.15 -1.13 -1.84 -0.36 -1.17 -0.13 -2.77 0.59 -4.08 0.35 -0.64 0.60 -0.95 1.31 -1.66 0.39 -0.39 0.62 -0.69 0.62 -0.82 0 -0.12 -0.16 -0.36 -0.39 -0.58 -0.62 -0.59 -1.47 -2.16 -1.85 -3.42 -0.36 -1.17 -0.32 -2.28 0.11 -2.91 0.30 -0.44 0.65 -0.60 1.30 -0.59 0.47 0 0.63 0.05 1.01 0.29 0.50 0.32 0.99 0.83 1.44 1.48 0.48 0.70 1.18 2.34 1.43 3.36 0.15 0.63 0.29 0.97 0.39 1.04 0.10 0.05 0.51 0.05 1.10 -0.02 0.70 -0.07 1.11 -0.07 1.53 0 0.32 0.05 0.64 0.08 0.71 0.05 0.14 -0.05 0.34 -0.54 0.34 -0.85 0 -0.28 0.41 -1.46 0.74 -2.17 0.63 -1.34 1.56 -2.49 2.30 -2.87 1.61 -0.82 2.84 -0.11 2.83 1.66 -0.01 0.35 -0.08 0.89 -0.18 1.22 -0.32 1.08 -1.23 2.69 -2.04 3.61 -0.59 0.66 -0.58 0.71 0.39 1.44 0.50 0.39 1.16 1.21 1.50 1.89 0.49 0.95 0.64 2.54 0.36 3.64 -0.43 1.65 -1.80 2.85 -3.91 3.43 -1.24 0.34 -3.39 0.50 -5.10 0.38z m0.86 -1.68 l0.27 -0.20 0.30 0.18 c0.94 0.59 2.14 0.11 2.28 -0.90 0.06 -0.42 -0.08 -0.62 -0.42 -0.62 -0.27 0 -0.40 0.11 -0.50 0.45 -0.09 0.28 -0.20 0.36 -0.52 0.36 -0.50 0 -0.60 -0.13 -0.60 -0.79 0 -0.57 0.02 -0.63 0.27 -0.85 0.28 -0.24 0.35 -0.59 0.16 -0.77 -0.13 -0.13 -0.56 -0.14 -0.77 -0.03 -0.10 0.05 -0.31 0.05 -0.55 -0.02 -0.36 -0.10 -0.40 -0.09 -0.56 0.11 -0.23 0.29 -0.22 0.35 0.14 0.69 0.29 0.26 0.32 0.34 0.32 0.77 0 0.59 -0.13 0.77 -0.56 0.87 -0.27 0.06 -0.36 0.05 -0.48 -0.07 -0.07 -0.09 -0.14 -0.21 -0.14 -0.26 0 -0.31 -0.65 -0.50 -0.88 -0.27 -0.33 0.33 0.14 1.23 0.79 1.50 0.36 0.15 1.13 0.06 1.45 -0.16z m-2.81 -2.97 c0.42 -0.42 0.41 -1.23 -0.01 -1.58 -0.32 -0.26 -0.62 -0.29 -0.98 -0.07 -0.50 0.30 -0.56 1.20 -0.10 1.62 0.29 0.27 0.85 0.28 1.09 0.04z m7.13 0.08 c0.09 -0.05 0.23 -0.22 0.31 -0.36 0.35 -0.68 -0.05 -1.52 -0.72 -1.53 -0.56 0 -1.01 0.62 -0.89 1.23 0.11 0.57 0.81 0.92 1.31 0.66z"/>
  <path d="M5.70 12.09 c0.04 -2.53 0.09 -2.89 0.50 -3.69 0.41 -0.81 1.31 -1.41 2.24 -1.53 l0.45 -0.05 0.04 1.61 c0.03 1.59 0.03 1.62 0.30 2.10 0.19 0.34 0.41 0.59 0.76 0.81 0.42 0.28 0.57 0.32 1.13 0.35 0.52 0.03 0.72 0 1.02 -0.15 0.55 -0.28 0.97 -0.68 1.21 -1.16 0.18 -0.39 0.21 -0.58 0.23 -2.05 l0.04 -1.64 1.64 -0.05 c0.89 -0.04 4.68 -0.07 8.42 -0.08 l6.78 -0.02 0.02 1.62 c0.02 1.89 0.09 2.22 0.65 2.80 1.13 1.17 2.99 0.89 3.73 -0.56 0.21 -0.41 0.23 -0.54 0.25 -2.04 l0.04 -1.60 0.37 0.05 c0.92 0.14 1.94 0.90 2.30 1.68 0.40 0.86 0.42 1.11 0.41 3.35 -0.01 1.18 -0.03 2.16 -0.05 2.18 -0.02 0.02 -6 0.07 -13.30 0.13 -12.13 0.09 -15.41 0.14 -18.21 0.32 l-0.98 0.06 0.05 -2.42z"/>
  <path d="M10.76 10.62 c-0.10 -0.04 -0.30 -0.20 -0.45 -0.36 l-0.27 -0.28 -0.03 -2.36 c-0.02 -2.24 -0.01 -2.38 0.16 -2.66 0.34 -0.55 1.27 -0.72 1.85 -0.33 0.46 0.30 0.50 0.58 0.47 3.01 -0.03 1.88 -0.05 2.26 -0.18 2.49 -0.25 0.47 -1.03 0.71 -1.56 0.49z"/>
  <path d="M31.91 10.32 c-0.16 -0.17 -0.32 -0.44 -0.35 -0.60 -0.03 -0.16 -0.03 -1.25 0 -2.42 0.05 -2.03 0.06 -2.12 0.27 -2.40 0.52 -0.69 1.82 -0.55 2.12 0.23 0.11 0.30 0.11 4.49 -0.01 4.80 -0.05 0.12 -0.22 0.33 -0.37 0.46 -0.24 0.21 -0.37 0.24 -0.83 0.24 -0.50 0 -0.57 -0.03 -0.84 -0.31z"/>
 </g>
</svg>