<?xml version="1.0" encoding="utf-8"?>
<!DOCTYPE svg PUBLIC "-//W3C//DTD SVG 1.0//EN" "http://www.w3.org/TR/2001/REC-SVG-20010904/DTD/svg10.dtd">
<svg version="1.0" xmlns="http://www.w3.org/2000/svg" width="50px" height="50px" viewBox="0 0 50 50" preserveAspectRatio="xMidYMid meet">
 <g fill="#010101">
  <path d="M9.58 41.41 c-0.49 -0.10 -0.72 -0.32 -0.87 -0.83 -0.19 -0.60 -0.05 -1.09 0.74 -2.71 0.87 -1.78 3.04 -5.23 5.58 -8.87 1.89 -2.72 4.38 -5.74 6.36 -7.71 1.49 -1.49 2.34 -2.04 3.81 -2.47 0.08 -0.03 0.56 -0.05 1.05 -0.06 0.69 -0.01 1.07 0.04 1.63 0.23 0.40 0.12 0.75 0.21 0.78 0.19 0.02 -0.03 -0.12 -0.51 -0.31 -1.07 -0.36 -1.05 -0.69 -2.32 -0.81 -3.11 -0.03 -0.25 -0.08 -0.54 -0.11 -0.65 -0.12 -0.58 -0.14 -2.50 -0.04 -3.29 0.15 -1.13 0.43 -1.74 0.87 -1.92 0.46 -0.19 0.47 -0.19 0.92 0.24 0.46 0.42 0.89 1.28 1.27 2.50 0.14 0.45 0.29 0.82 0.33 0.82 0.04 0 0.20 -0.35 0.36 -0.78 0.49 -1.31 0.98 -2.22 1.53 -2.78 0.49 -0.51 0.54 -0.54 1.02 -0.54 0.46 0 0.52 0.03 0.66 0.30 0.08 0.16 0.15 0.47 0.15 0.68 0 0.58 -0.28 1.82 -0.60 2.73 -0.20 0.55 -0.25 0.79 -0.16 0.79 0.07 0 0.46 -0.23 0.87 -0.51 0.73 -0.51 1.95 -1.18 2.74 -1.51 1.41 -0.58 2.35 -0.39 2.35 0.47 0 0.40 -0.17 0.74 -0.64 1.26 -0.34 0.38 -0.59 0.60 -1.52 1.34 -0.20 0.17 -0.49 0.40 -0.63 0.52 l-0.26 0.22 1.25 -0.05 c1.15 -0.04 1.29 -0.02 1.70 0.18 0.40 0.21 0.45 0.27 0.48 0.62 0.03 0.31 -0.03 0.46 -0.28 0.77 l-0.31 0.39 0.26 0.10 c0.15 0.06 0.37 0.10 0.49 0.10 0.31 0 0.83 0.27 1.01 0.53 0.34 0.48 0.11 0.96 -0.66 1.37 -0.73 0.39 -1.58 0.69 -2.28 0.80 -0.67 0.12 -0.80 0.23 -0.58 0.48 0.09 0.10 0.22 0.32 0.28 0.50 0.09 0.25 0.07 0.37 -0.07 0.60 -0.20 0.34 -0.77 0.57 -1.21 0.49 -0.54 -0.10 -1.58 -0.37 -1.78 -0.46 -0.11 -0.05 -0.42 -0.16 -0.70 -0.24 -0.27 -0.08 -0.69 -0.20 -0.93 -0.28 -0.42 -0.12 -2.46 -0.18 -2.57 -0.07 -0.04 0.03 0.19 0.42 0.49 0.87 0.59 0.87 0.83 1.51 0.93 2.46 0.07 0.75 -0.11 1.91 -0.43 2.68 -0.56 1.40 -2.65 3.81 -4.93 5.69 -0.59 0.49 -2.01 1.58 -2.06 1.58 -0.03 0 -0.16 0.09 -0.28 0.21 -0.28 0.27 -2.83 1.96 -3.67 2.43 -0.36 0.21 -1.08 0.64 -1.60 0.97 -0.52 0.32 -1.31 0.77 -1.75 0.98 -1.55 0.75 -3.11 1.48 -3.55 1.66 -0.25 0.10 -0.64 0.26 -0.87 0.36 -0.24 0.11 -0.49 0.19 -0.56 0.19 -0.07 0 -0.17 0.04 -0.23 0.10 -0.05 0.05 -0.19 0.11 -0.31 0.13 -0.13 0.02 -0.26 0.06 -0.29 0.10 -0.04 0.04 -0.17 0.07 -0.29 0.07 -0.12 0 -0.25 0.03 -0.29 0.07 -0.03 0.04 -0.13 0.08 -0.21 0.09 -0.69 0.10 -0.95 0.11 -1.27 0.05z m1.24 -1.41 c0.34 -0.11 0.73 -0.20 0.85 -0.20 0.12 0 0.28 -0.07 0.37 -0.15 0.08 -0.08 0.24 -0.15 0.35 -0.15 0.12 0 0.21 -0.04 0.21 -0.10 0 -0.05 0.11 -0.10 0.24 -0.10 0.13 0 0.29 -0.07 0.36 -0.15 0.07 -0.08 0.26 -0.15 0.42 -0.15 0.16 0 0.31 -0.06 0.34 -0.15 0.04 -0.08 0.17 -0.15 0.30 -0.15 0.13 0 0.24 -0.04 0.24 -0.10 0 -0.05 0.07 -0.10 0.16 -0.10 0.08 0 0.22 -0.07 0.30 -0.15 0.09 -0.08 0.28 -0.15 0.44 -0.15 0.17 0 0.34 -0.08 0.42 -0.19 0.15 -0.21 0.69 -0.51 0.93 -0.51 0.08 0 0.15 -0.03 0.15 -0.08 0 -0.04 0.21 -0.18 0.46 -0.32 0.26 -0.13 0.41 -0.26 0.35 -0.28 -0.06 -0.02 -0.11 -0.10 -0.11 -0.17 0 -0.08 -0.06 -0.20 -0.13 -0.27 -0.06 -0.08 -0.29 -0.47 -0.50 -0.88 -0.35 -0.71 -0.48 -1.30 -0.28 -1.30 0.05 0 0.13 -0.09 0.16 -0.20 0.05 -0.16 0.15 -0.20 0.53 -0.20 0.54 0.01 0.73 0.12 0.91 0.58 0.07 0.17 0.17 0.32 0.22 0.32 0.05 0 0.11 0.11 0.15 0.25 0.03 0.14 0.10 0.25 0.14 0.25 0.04 0 0.10 0.10 0.14 0.23 0.03 0.13 0.14 0.33 0.24 0.45 0.18 0.21 0.19 0.21 0.35 0.01 0.09 -0.10 0.24 -0.19 0.32 -0.19 0.08 0 0.15 -0.04 0.15 -0.10 0 -0.05 0.09 -0.10 0.20 -0.10 0.10 0 0.30 -0.11 0.44 -0.25 0.14 -0.14 0.30 -0.25 0.36 -0.25 0.05 0 0.10 -0.04 0.10 -0.10 0 -0.05 0.07 -0.10 0.15 -0.10 0.08 0 0.15 -0.04 0.15 -0.10 0 -0.05 0.11 -0.12 0.25 -0.16 0.14 -0.03 0.25 -0.10 0.25 -0.15 0 -0.05 0.07 -0.09 0.15 -0.09 0.08 0 0.15 -0.04 0.15 -0.10 0 -0.05 0.07 -0.10 0.15 -0.10 0.08 0 0.15 -0.04 0.15 -0.10 0 -0.05 0.07 -0.10 0.15 -0.10 0.21 0 0.20 -0.06 -0.25 -0.72 -0.32 -0.48 -0.40 -0.70 -0.40 -1.05 0 -0.67 0.13 -0.83 0.64 -0.83 0.35 0 0.51 0.06 0.80 0.32 0.20 0.17 0.36 0.37 0.36 0.43 0 0.06 0.09 0.17 0.20 0.25 0.11 0.08 0.20 0.20 0.20 0.26 0 0.16 0.50 0.05 0.57 -0.12 0.03 -0.08 0.12 -0.14 0.19 -0.14 0.08 0 0.19 -0.11 0.24 -0.25 0.05 -0.14 0.15 -0.25 0.23 -0.25 0.07 0 0.19 -0.09 0.27 -0.20 0.08 -0.11 0.23 -0.20 0.32 -0.20 0.11 0 0.23 -0.11 0.28 -0.25 0.05 -0.14 0.16 -0.28 0.24 -0.31 0.11 -0.04 0.11 -0.10 0.02 -0.30 -0.06 -0.13 -0.14 -0.24 -0.18 -0.24 -0.05 0 -0.08 -0.07 -0.08 -0.15 0 -0.08 -0.04 -0.15 -0.08 -0.15 -0.13 0 -0.52 -0.97 -0.52 -1.28 0 -0.38 0.32 -0.54 0.95 -0.50 0.44 0.03 0.52 0.07 0.73 0.38 0.61 0.92 0.77 1.05 0.89 0.73 0.03 -0.10 0.26 -0.36 0.49 -0.59 0.24 -0.22 0.44 -0.45 0.44 -0.50 0 -0.05 0.09 -0.15 0.20 -0.22 0.11 -0.07 0.20 -0.19 0.20 -0.27 0 -0.08 0.06 -0.18 0.13 -0.22 0.06 -0.04 0.21 -0.25 0.31 -0.45 0.11 -0.21 0.25 -0.38 0.33 -0.38 0.07 0 0.13 -0.11 0.13 -0.25 0 -0.14 0.04 -0.25 0.09 -0.25 0.04 0 0.14 -0.34 0.22 -0.75 0.07 -0.41 0.17 -0.75 0.21 -0.75 0.12 0 0.10 -0.58 -0.02 -0.65 -0.05 -0.03 -0.10 -0.16 -0.10 -0.27 0 -0.36 -0.61 -1.56 -1.04 -2.04 -0.88 -0.99 -1.99 -1.66 -3.04 -1.86 -0.72 -0.13 -2.01 0.05 -2.32 0.34 -0.10 0.10 -0.24 0.18 -0.30 0.18 -0.05 0 -0.10 0.05 -0.10 0.10 0 0.06 -0.09 0.10 -0.20 0.10 -0.11 0 -0.20 0.05 -0.20 0.10 0 0.06 -0.08 0.14 -0.17 0.17 -0.10 0.04 -0.26 0.17 -0.36 0.30 -0.10 0.13 -0.23 0.23 -0.28 0.23 -0.10 0 -0.99 0.85 -0.99 0.95 0 0.03 -0.11 0.18 -0.25 0.33 -0.24 0.26 -0.24 0.26 -0.05 0.47 0.10 0.11 0.55 0.49 0.99 0.85 l0.80 0.65 0.01 0.61 c0 0.70 -0.04 0.74 -0.74 0.74 -0.38 0 -0.51 -0.08 -1.45 -0.87 l-1.04 -0.88 -0.21 0.30 c-0.12 0.16 -0.32 0.41 -0.46 0.55 -0.14 0.15 -0.38 0.44 -0.54 0.66 -0.17 0.21 -0.33 0.41 -0.36 0.44 -0.09 0.08 -0.76 0.93 -0.84 1.07 -0.04 0.07 0.31 0.41 0.89 0.88 l0.95 0.77 0 0.53 c0 0.62 -0.13 0.75 -0.75 0.75 -0.39 0 -0.63 -0.14 -1.58 -0.92 -0.32 -0.26 -0.61 -0.48 -0.65 -0.48 -0.11 0 -2.45 3.39 -3.48 5.03 l-0.21 0.34 0.54 0.62 c0.45 0.52 0.53 0.69 0.53 1.02 0 0.95 -1.04 1.08 -1.73 0.22 -0.10 -0.13 -0.23 -0.23 -0.28 -0.23 -0.05 0 -0.20 0.21 -0.34 0.48 -0.15 0.26 -0.37 0.65 -0.50 0.87 -0.61 1.04 -1.35 2.66 -1.35 2.96 0 0.14 0.33 0.11 1.02 -0.11z m25.48 -19.58 c-0.15 -0.12 -0.24 -0.33 -0.27 -0.62 -0.08 -0.69 0.12 -0.86 1.28 -1.04 0.95 -0.15 2.11 -0.47 2.39 -0.66 0.20 -0.13 -1.33 -0.14 -1.58 -0.01 -0.30 0.16 -1.25 0.49 -2.02 0.71 -1.18 0.32 -1.40 0.38 -2.22 0.56 -0.43 0.09 -0.75 0.21 -0.72 0.25 0.03 0.05 0.14 0.09 0.24 0.09 0.11 0 0.73 0.18 1.38 0.39 1.71 0.56 1.84 0.59 1.52 0.33z m-1.70 -2.86 c1.56 -0.37 3.31 -1.06 4 -1.56 0.22 -0.16 -1.32 -0.03 -2.44 0.21 -0.95 0.20 -1.05 0.25 -2.06 1.02 -0.81 0.62 -0.89 0.70 -0.70 0.63 0.08 -0.02 0.62 -0.16 1.20 -0.30z m-4.86 -1.39 c0.18 -0.96 0.20 -1.72 0.05 -2.37 -0.17 -0.78 -0.71 -2.43 -0.92 -2.85 -0.19 -0.39 -0.20 -0.39 -0.29 -0.16 -0.32 0.87 -0.16 3.39 0.33 5.23 0.17 0.62 0.33 1.24 0.36 1.37 0.06 0.23 0.06 0.23 0.19 -0.07 0.07 -0.17 0.20 -0.69 0.28 -1.15z m5.36 -1.72 c1.59 -1.11 2.69 -1.96 2.83 -2.22 0.23 -0.39 -1.99 0.82 -3.33 1.82 -1.09 0.81 -2.41 2.09 -2.74 2.65 -0.16 0.28 -0.05 0.22 0.75 -0.42 0.52 -0.41 1.64 -1.24 2.49 -1.83z m-2.64 -1.62 c0.20 -0.54 0.39 -1.07 0.44 -1.18 0.15 -0.36 0.28 -0.79 0.34 -1.10 0.06 -0.29 0.06 -0.29 -0.10 -0.10 -0.21 0.25 -0.87 1.67 -1.02 2.20 -0.27 0.92 -0.42 1.49 -0.42 1.58 0 0.29 0.46 -0.55 0.76 -1.40z"/>
 </g>
 <g fill="#2e372f">
  <path d="M9.62 40.58 c-0.16 -0.16 -0.15 -0.77 0.03 -1.28 0.08 -0.23 0.12 -0.46 0.09 -0.51 -0.03 -0.05 0 -0.09 0.05 -0.09 0.10 0 0.44 -0.64 0.45 -0.85 0.01 -0.05 0.08 -0.15 0.16 -0.22 0.08 -0.06 0.12 -0.15 0.08 -0.18 -0.04 -0.04 0.02 -0.15 0.13 -0.24 0.11 -0.09 0.21 -0.26 0.22 -0.38 0 -0.12 0.07 -0.25 0.14 -0.27 0.07 -0.03 0.23 -0.27 0.37 -0.53 0.13 -0.27 0.32 -0.59 0.43 -0.72 l0.19 -0.23 0.42 0.46 c0.23 0.25 0.53 0.53 0.66 0.61 0.23 0.15 0.26 0.15 0.44 -0.03 0.10 -0.10 0.18 -0.26 0.16 -0.35 -0.03 -0.20 -1.03 -1.37 -1.17 -1.37 -0.05 0 -0.06 -0.08 -0.02 -0.17 0.03 -0.10 0.07 -0.22 0.08 -0.28 0.01 -0.05 0.09 -0.16 0.18 -0.25 0.17 -0.16 0.73 -1.10 0.65 -1.10 -0.02 0 0.09 -0.14 0.25 -0.31 0.16 -0.17 0.27 -0.35 0.24 -0.39 -0.03 -0.04 0.02 -0.11 0.11 -0.14 0.08 -0.03 0.13 -0.10 0.10 -0.15 -0.03 -0.05 0.01 -0.12 0.10 -0.15 0.08 -0.03 0.13 -0.10 0.10 -0.15 -0.03 -0.05 0.01 -0.12 0.10 -0.15 0.08 -0.03 0.13 -0.10 0.10 -0.15 -0.03 -0.05 0.01 -0.12 0.10 -0.15 0.08 -0.03 0.13 -0.10 0.10 -0.15 -0.03 -0.05 0.01 -0.12 0.10 -0.15 0.09 -0.04 0.14 -0.09 0.11 -0.12 -0.03 -0.04 0.04 -0.15 0.16 -0.25 0.12 -0.10 0.19 -0.18 0.15 -0.19 -0.03 0 0.07 -0.14 0.23 -0.31 0.16 -0.17 0.27 -0.35 0.24 -0.39 -0.03 -0.04 0.02 -0.11 0.11 -0.14 0.09 -0.04 0.14 -0.09 0.10 -0.13 -0.03 -0.03 0.03 -0.13 0.14 -0.20 0.11 -0.08 0.18 -0.17 0.16 -0.21 -0.02 -0.04 0.07 -0.15 0.20 -0.25 0.23 -0.17 0.24 -0.17 1.01 0.46 1.31 1.05 1.41 1.11 1.69 0.98 0.45 -0.20 0.32 -0.53 -0.48 -1.17 -0.40 -0.32 -0.90 -0.73 -1.10 -0.92 l-0.37 -0.35 0.36 -0.43 c0.19 -0.24 0.33 -0.44 0.30 -0.44 -0.03 0 0.09 -0.15 0.27 -0.32 0.46 -0.47 0.87 -1.04 0.79 -1.11 -0.03 -0.04 0.01 -0.07 0.10 -0.07 0.15 0 0.63 -0.55 0.61 -0.69 -0.01 -0.03 0.13 -0.18 0.31 -0.34 l0.33 -0.27 1.18 1 c0.65 0.55 1.25 1 1.33 1 0.27 0 0.39 -0.14 0.37 -0.45 -0.01 -0.24 -0.15 -0.41 -0.71 -0.88 -0.38 -0.33 -0.89 -0.76 -1.13 -0.97 l-0.43 -0.38 0.30 -0.35 c0.17 -0.19 0.28 -0.37 0.24 -0.41 -0.03 -0.03 0.01 -0.06 0.10 -0.06 0.10 0 0.16 -0.03 0.15 -0.08 -0.04 -0.09 0.88 -1.02 1.01 -1.02 0.05 0 0.18 -0.10 0.28 -0.23 0.10 -0.13 0.26 -0.26 0.36 -0.30 0.09 -0.03 0.17 -0.11 0.17 -0.17 0 -0.05 0.09 -0.10 0.21 -0.10 0.11 0 0.17 -0.05 0.14 -0.10 -0.03 -0.06 0.04 -0.10 0.16 -0.10 0.12 0 0.19 -0.03 0.16 -0.07 -0.09 -0.09 0.41 -0.33 0.69 -0.33 0.13 0 0.24 -0.04 0.24 -0.10 0 -0.05 0.10 -0.10 0.23 -0.10 0.12 0 0.54 0 0.92 -0.01 0.39 0 0.77 0.01 0.85 0.04 0.08 0.03 0.29 0.08 0.45 0.12 0.48 0.10 1.16 0.45 1.75 0.91 0.56 0.42 1.40 1.30 1.40 1.46 0 0.04 0.05 0.08 0.11 0.08 0.05 0 0.07 0.04 0.04 0.10 -0.03 0.05 -0.01 0.10 0.05 0.10 0.06 0 0.08 0.04 0.05 0.10 -0.03 0.05 -0.01 0.10 0.05 0.10 0.06 0 0.08 0.04 0.05 0.10 -0.03 0.06 -0.01 0.10 0.05 0.10 0.06 0 0.09 0.04 0.05 0.09 -0.03 0.05 -0.01 0.12 0.05 0.16 0.06 0.04 0.08 0.10 0.05 0.15 -0.03 0.05 -0.01 0.12 0.05 0.15 0.06 0.04 0.08 0.15 0.05 0.25 -0.03 0.10 -0.01 0.21 0.05 0.25 0.14 0.08 0.13 1.25 -0.01 1.25 -0.07 0 -0.08 0.11 -0.04 0.30 0.04 0.18 0.02 0.30 -0.03 0.30 -0.06 0 -0.08 0.09 -0.05 0.20 0.03 0.11 0 0.20 -0.06 0.20 -0.05 0 -0.08 0.06 -0.05 0.14 0.03 0.07 -0.01 0.20 -0.08 0.27 -0.07 0.08 -0.13 0.20 -0.14 0.27 -0.02 0.28 -0.05 0.32 -0.20 0.32 -0.08 0 -0.13 0.04 -0.10 0.09 0.03 0.05 -0.01 0.12 -0.10 0.15 -0.08 0.03 -0.12 0.10 -0.09 0.16 0.03 0.05 0.02 0.10 -0.04 0.10 -0.06 0 -0.08 0.06 -0.05 0.14 0.03 0.08 -0.03 0.16 -0.16 0.19 -0.12 0.03 -0.19 0.10 -0.16 0.16 0.03 0.05 -0.05 0.18 -0.19 0.29 -0.13 0.11 -0.22 0.22 -0.19 0.24 0.03 0.03 -0.13 0.20 -0.36 0.38 -0.22 0.17 -0.38 0.36 -0.34 0.41 0.03 0.05 -0.03 0.09 -0.12 0.09 -0.10 0 -0.14 0.03 -0.11 0.07 0.11 0.10 -0.44 0.63 -0.65 0.63 -0.10 0 -0.18 -0.06 -0.18 -0.13 0 -0.07 -0.08 -0.22 -0.18 -0.33 -0.10 -0.10 -0.31 -0.39 -0.48 -0.64 -0.32 -0.48 -0.61 -0.60 -0.93 -0.38 -0.19 0.13 -0.19 0.16 -0.03 0.48 0.09 0.19 0.20 0.37 0.24 0.38 0.05 0.02 0.06 0.08 0.02 0.13 -0.03 0.05 0 0.09 0.05 0.09 0.06 0 0.11 0.07 0.11 0.15 0 0.08 0.05 0.15 0.10 0.15 0.06 0 0.10 0.05 0.10 0.12 0 0.06 0.12 0.27 0.26 0.45 0.27 0.35 0.24 0.48 -0.11 0.55 -0.11 0.02 -0.26 0.16 -0.33 0.31 -0.07 0.15 -0.20 0.27 -0.28 0.27 -0.18 0 -0.46 0.25 -0.37 0.34 0.04 0.03 -0.04 0.06 -0.16 0.06 -0.14 0 -0.25 0.09 -0.31 0.25 -0.05 0.14 -0.16 0.25 -0.24 0.25 -0.07 0 -0.16 0.07 -0.20 0.15 -0.03 0.08 -0.15 0.15 -0.26 0.15 -0.12 0 -0.19 0.04 -0.16 0.09 0.03 0.05 -0.07 0.11 -0.22 0.14 -0.28 0.05 -0.52 -0.07 -0.52 -0.27 0 -0.06 -0.09 -0.18 -0.20 -0.26 -0.11 -0.08 -0.20 -0.19 -0.20 -0.25 0 -0.16 -0.69 -0.75 -0.86 -0.75 -0.08 0 -0.20 0.12 -0.26 0.26 -0.10 0.22 -0.09 0.32 0.10 0.67 0.12 0.23 0.36 0.57 0.52 0.76 0.17 0.18 0.30 0.39 0.30 0.45 -0.01 0.17 -0.26 0.46 -0.39 0.46 -0.07 0 -0.09 0.05 -0.06 0.10 0.03 0.06 -0.03 0.10 -0.15 0.10 -0.12 0 -0.18 0.05 -0.15 0.10 0.03 0.06 -0.03 0.10 -0.15 0.10 -0.12 0 -0.18 0.05 -0.15 0.10 0.03 0.05 -0.03 0.10 -0.14 0.10 -0.11 0 -0.26 0.07 -0.35 0.15 -0.08 0.08 -0.20 0.15 -0.26 0.15 -0.06 0 -0.08 0.05 -0.05 0.10 0.03 0.06 -0.03 0.10 -0.15 0.10 -0.12 0 -0.18 0.05 -0.15 0.10 0.03 0.06 0.01 0.10 -0.05 0.10 -0.06 0 -0.18 0.07 -0.26 0.15 -0.09 0.08 -0.24 0.15 -0.35 0.15 -0.11 0 -0.18 0.04 -0.15 0.09 0.03 0.05 -0.08 0.11 -0.25 0.15 -0.17 0.03 -0.28 0.10 -0.25 0.15 0.03 0.05 -0.14 0.15 -0.39 0.23 -0.43 0.15 -0.50 0.12 -0.46 -0.14 0 -0.05 -0.03 -0.08 -0.08 -0.08 -0.05 0 -0.15 -0.16 -0.22 -0.35 -0.07 -0.19 -0.16 -0.35 -0.20 -0.35 -0.04 0 -0.10 -0.11 -0.13 -0.25 -0.04 -0.14 -0.10 -0.25 -0.15 -0.25 -0.05 0 -0.15 -0.15 -0.22 -0.32 -0.22 -0.56 -0.71 -0.78 -0.84 -0.38 -0.03 0.11 -0.10 0.20 -0.15 0.20 -0.10 0 0.57 1.35 0.77 1.58 0.07 0.07 0.13 0.19 0.13 0.27 0 0.07 0.04 0.15 0.09 0.17 0.05 0.02 0.12 0.15 0.16 0.30 0.06 0.23 0.02 0.29 -0.42 0.54 -0.26 0.16 -0.49 0.32 -0.51 0.36 -0.02 0.04 -0.11 0.08 -0.20 0.08 -0.18 0.01 -0.93 0.39 -0.78 0.40 0.22 0.01 -0.31 0.29 -0.56 0.30 -0.15 0 -0.33 0.07 -0.42 0.15 -0.08 0.08 -0.22 0.15 -0.30 0.15 -0.09 0 -0.16 0.05 -0.16 0.10 0 0.06 -0.11 0.10 -0.24 0.10 -0.13 0 -0.26 0.07 -0.30 0.15 -0.03 0.09 -0.18 0.15 -0.34 0.15 -0.16 0 -0.35 0.07 -0.42 0.15 -0.07 0.08 -0.23 0.15 -0.36 0.15 -0.13 0 -0.24 0.05 -0.24 0.10 0 0.06 -0.11 0.10 -0.25 0.10 -0.14 0 -0.25 0.04 -0.25 0.10 0 0.05 -0.12 0.12 -0.27 0.15 -0.70 0.15 -1.13 0.28 -1.13 0.35 0 0.05 -0.09 0.06 -0.20 0.03 -0.11 -0.03 -0.20 0 -0.20 0.06 0 0.07 -0.09 0.09 -0.25 0.05 -0.15 -0.04 -0.25 -0.02 -0.25 0.05 0 0.15 -0.33 0.14 -0.48 -0.01z"/>
 </g>
 <g fill="#90bc89">
  <path d="M36 20.85 c-0.30 -0.07 -1.03 -0.29 -1.61 -0.48 -1.28 -0.42 -2.31 -0.59 -3.13 -0.52 l-0.61 0.05 0.65 -0.21 c0.36 -0.11 1.19 -0.34 1.85 -0.51 1.58 -0.39 1.77 -0.44 2.65 -0.68 0.77 -0.22 1.72 -0.55 2.02 -0.71 0.26 -0.13 2.18 -0.10 2.52 0.04 l0.29 0.13 -0.27 0.22 c-0.50 0.39 -1.73 0.75 -3.29 0.97 -0.26 0.03 -0.45 0.10 -0.42 0.16 0.04 0.05 0 0.09 -0.09 0.09 -0.08 0 -0.16 0.06 -0.19 0.13 -0.08 0.23 0.05 0.45 0.44 0.77 0.50 0.40 0.53 0.70 0.07 0.69 -0.18 -0.01 -0.58 -0.07 -0.88 -0.14z"/>
  <path d="M29.07 17.93 c-0.76 -2.34 -1.11 -4.72 -0.95 -6.35 0.09 -0.91 0.33 -1.68 0.52 -1.68 0.28 0 1.09 2 1.45 3.60 0.15 0.66 0.13 2.03 -0.04 2.92 -0.16 0.83 -0.52 2.07 -0.65 2.21 -0.04 0.05 -0.19 -0.26 -0.33 -0.70z"/>
  <path d="M30.40 18.60 c0 -0.23 0.63 -1.45 1.09 -2.10 1.31 -1.84 4.02 -3.87 6.34 -4.75 1.16 -0.43 1.35 -0.29 0.67 0.50 -0.57 0.66 -1.31 1.26 -3.10 2.50 -1.75 1.22 -3.57 2.63 -4.42 3.44 -0.32 0.30 -0.58 0.48 -0.58 0.41z"/>
  <path d="M32.47 18.02 c0.74 -0.63 1.83 -1.48 2.24 -1.75 0.76 -0.50 4.59 -0.89 4.59 -0.47 0 0.18 -0.53 0.61 -1.13 0.92 -0.95 0.48 -2.08 0.86 -3.67 1.24 -0.80 0.19 -1.70 0.41 -2.01 0.49 -0.30 0.08 -0.59 0.15 -0.62 0.15 -0.04 0 0.23 -0.26 0.60 -0.58z"/>
  <path d="M31.10 15.40 c0 -0.24 0.55 -2.54 0.76 -3.20 0.40 -1.22 1.36 -2.80 1.70 -2.80 0.29 0 0.08 1.49 -0.36 2.55 -0.05 0.11 -0.25 0.65 -0.45 1.21 -0.26 0.73 -0.47 1.12 -0.74 1.41 -0.20 0.23 -0.49 0.55 -0.64 0.73 -0.24 0.28 -0.27 0.29 -0.27 0.10z"/>
 </g>
</svg>