<?xml version="1.0" encoding="utf-8"?>
<!DOCTYPE svg PUBLIC "-//W3C//DTD SVG 1.0//EN" "http://www.w3.org/TR/2001/REC-SVG-20010904/DTD/svg10.dtd">
<svg version="1.0" xmlns="http://www.w3.org/2000/svg" width="50px" height="50px" viewBox="0 0 50 50" preserveAspectRatio="xMidYMid meet">
 <g fill="#020101">
  <path d="M9.52 41.40 c-0.44 -0.10 -0.66 -0.32 -0.82 -0.80 -0.17 -0.52 -0.05 -1.06 0.54 -2.35 0.55 -1.20 2.07 -3.79 3.28 -5.57 0.21 -0.31 0.38 -0.61 0.38 -0.66 0 -0.06 0.04 -0.12 0.08 -0.14 0.04 -0.01 0.50 -0.65 1.02 -1.41 0.80 -1.17 1.62 -2.32 2.73 -3.82 0.12 -0.16 0.36 -0.45 0.52 -0.65 0.17 -0.19 0.48 -0.57 0.70 -0.85 2.15 -2.73 4.74 -5.31 5.85 -5.82 1.11 -0.51 1.56 -0.63 2.45 -0.63 0.64 0.01 1.45 0.16 1.70 0.31 0.14 0.09 0.75 0.22 0.75 0.15 0 -0.02 -0.14 -0.42 -0.31 -0.88 -1.51 -4.09 -1.41 -9.28 0.17 -9.28 0.60 0 1.37 1.15 1.89 2.83 0.15 0.48 0.31 0.87 0.36 0.87 0.04 0 0.12 -0.15 0.17 -0.33 0.14 -0.48 0.67 -1.76 0.94 -2.26 0.12 -0.24 0.46 -0.68 0.75 -0.97 0.49 -0.51 0.54 -0.54 1.02 -0.54 0.47 0 0.52 0.02 0.67 0.32 0.25 0.47 0.13 1.59 -0.29 2.83 -0.18 0.55 -0.37 1.08 -0.41 1.18 -0.11 0.24 0.22 0.22 0.54 -0.04 1.30 -1.06 3.65 -2.19 4.55 -2.19 0.33 0 0.81 0.24 0.89 0.45 0.30 0.78 -0.37 1.73 -2.16 3.07 -0.38 0.28 -0.68 0.54 -0.68 0.58 0 0.04 0.47 0.05 1.05 0.03 1.11 -0.06 1.83 0.06 2.08 0.36 0.34 0.39 0.25 0.92 -0.22 1.35 -0.28 0.25 -0.19 0.34 0.39 0.42 1.18 0.16 1.66 1 0.95 1.66 -0.50 0.47 -1.67 0.92 -2.90 1.13 -0.22 0.04 -0.43 0.09 -0.47 0.11 -0.04 0.03 0.05 0.27 0.19 0.54 0.23 0.44 0.24 0.53 0.13 0.80 -0.32 0.76 -1.06 0.76 -3.46 0 -1.51 -0.48 -1.65 -0.51 -2.68 -0.51 -0.60 0 -1.11 0.02 -1.13 0.05 -0.03 0.03 0.08 0.22 0.24 0.43 0.82 1.03 1.23 2.13 1.23 3.28 0 0.73 -0.29 2.02 -0.59 2.59 -0.92 1.75 -2.80 3.81 -5.28 5.77 -0.48 0.39 -0.95 0.75 -1.03 0.82 -1.14 0.92 -5 3.42 -6.85 4.43 -1.62 0.89 -3.73 1.88 -5.30 2.49 -0.38 0.15 -0.79 0.31 -0.90 0.36 -0.11 0.04 -0.38 0.13 -0.60 0.20 -0.22 0.06 -0.49 0.15 -0.60 0.20 -0.32 0.13 -1.17 0.18 -1.53 0.09z m2.13 -1.53 c1.86 -0.68 6.15 -2.68 6.15 -2.86 0 -0.05 -0.19 -0.42 -0.43 -0.83 -0.24 -0.40 -0.49 -0.88 -0.56 -1.06 -0.15 -0.36 -0.09 -1.01 0.11 -1.14 0.18 -0.11 0.71 -0.10 1.02 0.01 0.24 0.10 0.33 0.22 0.77 1.11 0.13 0.25 0.27 0.47 0.31 0.48 0.04 0.02 0.08 0.09 0.08 0.17 0 0.07 0.07 0.18 0.15 0.25 0.17 0.14 0.37 0.03 2.53 -1.38 l1.14 -0.73 -0.18 -0.27 c-0.10 -0.15 -0.30 -0.45 -0.46 -0.66 -0.31 -0.43 -0.38 -1.08 -0.15 -1.41 0.11 -0.15 0.23 -0.17 0.66 -0.13 0.56 0.06 0.64 0.12 1.20 0.91 0.19 0.26 0.37 0.47 0.39 0.47 0.05 0 0.58 -0.42 1.56 -1.23 0.21 -0.18 0.49 -0.41 0.63 -0.52 l0.24 -0.20 -0.26 -0.35 c-0.41 -0.54 -0.75 -1.30 -0.75 -1.66 0 -0.52 0.49 -0.76 1.17 -0.58 0.12 0.03 0.37 0.29 0.54 0.56 0.51 0.79 0.57 0.83 0.86 0.56 0.14 -0.13 0.58 -0.63 0.98 -1.13 1.72 -2.13 2.12 -3.71 1.34 -5.33 -0.41 -0.87 -1.61 -2.05 -2.54 -2.54 -2.04 -1.05 -3.40 -0.66 -5.81 1.64 l-0.96 0.92 0.49 0.46 c0.27 0.25 0.74 0.68 1.06 0.96 0.50 0.44 0.57 0.55 0.57 0.88 0 0.63 -0.13 0.76 -0.76 0.76 -0.48 0 -0.59 -0.04 -0.92 -0.34 -0.20 -0.19 -0.64 -0.57 -0.97 -0.85 l-0.60 -0.51 -0.34 0.37 c-0.18 0.21 -0.68 0.81 -1.10 1.33 -0.42 0.52 -0.84 1.04 -0.94 1.15 -0.18 0.20 -0.17 0.21 0.26 0.60 0.25 0.22 0.68 0.58 0.96 0.80 0.50 0.39 0.51 0.41 0.51 0.92 0 0.60 -0.14 0.73 -0.78 0.73 -0.34 0 -0.52 -0.10 -1.27 -0.70 -0.49 -0.39 -0.92 -0.67 -0.95 -0.63 -0.22 0.24 -1.59 2.20 -2.57 3.68 l-1.13 1.69 0.55 0.56 c0.52 0.53 0.55 0.58 0.55 1.06 0 0.27 -0.05 0.55 -0.12 0.62 -0.07 0.07 -0.32 0.12 -0.57 0.12 -0.40 0 -0.51 -0.05 -0.88 -0.42 -0.23 -0.23 -0.45 -0.40 -0.47 -0.37 -0.20 0.20 -1.79 3.22 -2.01 3.81 -0.26 0.69 -0.19 0.79 0.47 0.63 0.29 -0.07 0.85 -0.24 1.23 -0.38z m24.65 -19.45 c-0.15 -0.12 -0.24 -0.33 -0.27 -0.62 -0.08 -0.69 0.12 -0.86 1.28 -1.04 0.95 -0.15 2.11 -0.47 2.39 -0.66 0.11 -0.07 -0.07 -0.10 -0.61 -0.10 -0.55 0 -0.86 0.05 -1.16 0.20 -0.35 0.17 -1.30 0.46 -2.93 0.90 -0.19 0.05 -0.70 0.17 -1.12 0.26 -0.72 0.16 -0.95 0.34 -0.45 0.34 0.12 0 0.74 0.18 1.37 0.39 1.64 0.55 1.83 0.59 1.50 0.33z m-1.48 -2.91 c1.37 -0.35 2.52 -0.79 3.33 -1.26 l0.60 -0.36 -0.85 0.07 c-0.84 0.06 -2.50 0.37 -2.73 0.50 -0.26 0.15 -1.56 1.15 -1.62 1.24 -0.09 0.15 0.04 0.13 1.27 -0.19z m-5.08 -1.34 c0.18 -0.96 0.20 -1.72 0.05 -2.37 -0.17 -0.78 -0.61 -2.13 -0.86 -2.70 -0.24 -0.52 -0.26 -0.53 -0.34 -0.31 -0.33 0.86 -0.17 3.39 0.32 5.23 0.17 0.62 0.33 1.24 0.36 1.37 0.06 0.23 0.06 0.23 0.19 -0.07 0.07 -0.17 0.20 -0.69 0.28 -1.15z m5.36 -1.72 c2.20 -1.53 3.37 -2.52 2.64 -2.25 -1.16 0.44 -3.33 1.87 -4.58 3.01 -0.35 0.31 -1.21 1.35 -1.41 1.68 -0.04 0.08 0.34 -0.20 0.86 -0.61 0.52 -0.41 1.64 -1.24 2.49 -1.83z m-2.65 -1.58 c0.20 -0.56 0.40 -1.11 0.45 -1.22 0.14 -0.35 0.28 -0.79 0.34 -1.10 0.06 -0.29 0.06 -0.29 -0.10 -0.10 -0.34 0.42 -0.99 1.96 -1.24 2.95 -0.06 0.25 -0.14 0.54 -0.17 0.65 -0.06 0.19 -0.05 0.20 0.15 0.02 0.11 -0.10 0.37 -0.64 0.57 -1.20z"/>
 </g>
 <g fill="#7e4b3e">
  <path d="M9.53 40.55 c-0.15 -0.40 0.06 -1.17 0.61 -2.27 0.56 -1.13 1.10 -2.10 1.55 -2.82 l0.24 -0.38 0.61 0.61 c0.62 0.62 0.82 0.71 1.04 0.49 0.24 -0.24 0.11 -0.53 -0.54 -1.19 l-0.66 -0.67 0.53 -0.83 c0.82 -1.28 1.72 -2.61 2.73 -4.01 l0.91 -1.26 0.30 0.21 c0.16 0.12 0.65 0.49 1.08 0.84 0.84 0.67 0.88 0.69 1.18 0.53 0.34 -0.19 0.23 -0.52 -0.32 -0.95 -0.28 -0.22 -0.63 -0.50 -0.77 -0.63 -0.15 -0.13 -0.42 -0.35 -0.60 -0.49 l-0.32 -0.26 0.27 -0.36 c0.15 -0.20 0.29 -0.38 0.33 -0.41 0.03 -0.03 0.42 -0.51 0.88 -1.08 0.45 -0.56 0.91 -1.12 1.01 -1.25 0.11 -0.12 0.28 -0.33 0.39 -0.46 l0.19 -0.25 1.09 0.95 c0.60 0.51 1.11 0.97 1.12 1.01 0.02 0.05 0.17 0.08 0.32 0.08 0.31 0 0.54 -0.27 0.45 -0.52 -0.03 -0.08 -0.57 -0.59 -1.20 -1.13 l-1.14 -0.99 0.30 -0.37 c0.45 -0.57 1.85 -1.86 2.50 -2.30 0.87 -0.59 1.44 -0.80 2.30 -0.86 1.48 -0.11 2.75 0.43 4.01 1.69 1.03 1.03 1.39 1.76 1.46 2.96 0.10 1.83 -0.63 3.31 -2.72 5.49 -0.46 0.49 -0.62 0.60 -0.73 0.52 -0.07 -0.06 -0.13 -0.18 -0.13 -0.25 0 -0.08 -0.03 -0.14 -0.07 -0.14 -0.05 0 -0.25 -0.27 -0.46 -0.59 -0.41 -0.64 -0.66 -0.78 -0.97 -0.53 l-0.21 0.17 0.22 0.45 c0.12 0.25 0.40 0.71 0.63 1.04 l0.41 0.58 -0.40 0.35 c-0.85 0.74 -2.29 1.89 -2.54 2.03 -0.15 0.08 -0.24 0 -0.55 -0.45 -0.56 -0.80 -0.78 -1.03 -1.08 -1.10 -0.23 -0.06 -0.29 -0.03 -0.39 0.19 -0.13 0.28 -0.09 0.37 0.68 1.39 0.23 0.31 0.43 0.59 0.43 0.62 0 0.10 -4.17 2.75 -4.33 2.75 -0.03 0 -0.14 -0.17 -0.24 -0.37 -0.09 -0.21 -0.20 -0.40 -0.23 -0.43 -0.03 -0.03 -0.16 -0.25 -0.29 -0.50 -0.44 -0.88 -0.53 -1.01 -0.77 -1.10 -0.46 -0.18 -0.70 0.11 -0.50 0.60 0.06 0.14 0.30 0.58 0.53 0.98 0.24 0.41 0.43 0.76 0.43 0.80 0 0.03 0.08 0.14 0.17 0.25 0.17 0.18 0.17 0.20 -0.02 0.34 -0.31 0.23 -3.27 1.67 -4.50 2.18 -2.63 1.11 -4.07 1.48 -4.22 1.10z"/>
 </g>
 <g fill="#9cbe7b">
  <path d="M36 20.85 c-0.30 -0.07 -1.02 -0.29 -1.60 -0.48 -1.25 -0.42 -2.31 -0.60 -3.14 -0.52 l-0.61 0.05 0.65 -0.21 c0.36 -0.11 1.19 -0.34 1.85 -0.50 2.55 -0.64 3.98 -1.05 4.48 -1.29 0.33 -0.16 0.61 -0.20 1.41 -0.20 0.57 0.01 1.14 0.06 1.30 0.13 l0.29 0.13 -0.27 0.22 c-0.50 0.39 -1.73 0.75 -3.29 0.97 -0.26 0.03 -0.45 0.10 -0.42 0.16 0.04 0.05 0 0.09 -0.09 0.09 -0.08 0 -0.16 0.06 -0.19 0.13 -0.08 0.23 0.05 0.45 0.44 0.77 0.50 0.40 0.53 0.70 0.07 0.69 -0.18 -0.01 -0.58 -0.07 -0.88 -0.14z"/>
  <path d="M29.07 17.93 c-0.76 -2.34 -1.12 -4.72 -0.95 -6.33 0.09 -0.94 0.33 -1.70 0.52 -1.70 0.28 0 1.11 2.06 1.45 3.60 0.15 0.66 0.13 2.03 -0.04 2.92 -0.16 0.83 -0.52 2.07 -0.65 2.21 -0.04 0.05 -0.19 -0.26 -0.33 -0.70z"/>
  <path d="M30.40 18.61 c0 -0.55 1.47 -2.79 2.39 -3.64 1.42 -1.31 3.50 -2.64 5.06 -3.22 1.14 -0.43 1.33 -0.29 0.65 0.50 -0.57 0.66 -1.31 1.26 -3.10 2.50 -1.75 1.22 -3.57 2.63 -4.42 3.44 -0.32 0.30 -0.58 0.49 -0.58 0.42z"/>
  <path d="M32.72 17.82 c0.89 -0.74 1.89 -1.51 2.15 -1.66 0.49 -0.28 3.59 -0.67 4.17 -0.52 0.31 0.08 0.32 0.16 0.08 0.43 -0.51 0.59 -2.40 1.36 -4.61 1.89 -0.80 0.19 -1.71 0.41 -2.02 0.49 -0.30 0.08 -0.59 0.15 -0.63 0.15 -0.04 0 0.35 -0.35 0.86 -0.78z"/>
  <path d="M31.10 15.41 c0 -0.25 0.56 -2.61 0.76 -3.20 0.43 -1.26 1.36 -2.81 1.70 -2.81 0.29 0 0.08 1.49 -0.36 2.55 -0.05 0.11 -0.25 0.65 -0.45 1.20 -0.25 0.71 -0.46 1.12 -0.73 1.40 -0.20 0.23 -0.49 0.56 -0.64 0.74 -0.24 0.28 -0.28 0.29 -0.28 0.12z"/>
 </g>
</svg>