<?xml version="1.0" encoding="utf-8"?>
<!DOCTYPE svg PUBLIC "-//W3C//DTD SVG 1.0//EN" "http://www.w3.org/TR/2001/REC-SVG-20010904/DTD/svg10.dtd">
<svg version="1.0" xmlns="http://www.w3.org/2000/svg" width="47px" height="45px" viewBox="0 0 47 45" preserveAspectRatio="xMidYMid meet">
 <g fill="#ffffff">
  <path d="M0 22.44 l0 -22.44 23.50 0 23.50 0 0 22.44 0 22.44 -23.50 0 -23.50 0 0 -22.44z m27.29 19 c1.32 -0.03 2.57 -0.06 2.78 -0.07 0.22 -0.01 1.44 -0.05 2.72 -0.07 3.46 -0.07 4.07 -0.16 5.10 -0.75 0.83 -0.48 1.47 -1.31 1.87 -2.44 0.31 -0.88 0.35 -1.43 0.35 -5.33 0 -3.87 -0.10 -14.25 -0.15 -15.87 -0.02 -0.59 -0.03 -2.18 -0.01 -3.52 0.03 -2.69 -0.01 -3.38 -0.20 -4.11 -0.31 -1.16 -1.04 -2.13 -2.01 -2.67 -0.47 -0.27 -0.80 -0.39 -1.42 -0.51 -0.27 -0.06 -0.51 -0.11 -0.53 -0.11 -0.03 -0 -0.07 -0.18 -0.11 -0.39 -0.11 -0.70 -0.52 -1.28 -1.15 -1.65 -0.42 -0.25 -0.62 -0.30 -1.04 -0.30 -0.60 0 -1.10 0.23 -1.55 0.70 -0.27 0.29 -0.39 0.51 -0.52 0.97 -0.04 0.14 -0.09 0.29 -0.11 0.31 -0.03 0.03 -1.27 0.06 -4.09 0.08 -3.65 0.03 -7.24 0.07 -11.89 0.15 l-1.61 0.02 -0.03 -0.31 c-0.06 -0.60 -0.55 -1.32 -1.10 -1.65 -0.26 -0.15 -0.77 -0.30 -1.04 -0.30 -1.15 0 -2.05 0.81 -2.21 1.99 -0.03 0.21 -0.07 0.40 -0.09 0.43 -0.02 0.03 -0.19 0.06 -0.37 0.08 -0.40 0.04 -1.17 0.26 -1.55 0.45 -0.49 0.25 -1 0.67 -1.39 1.15 -0.17 0.21 -0.55 0.84 -0.55 0.92 0 0.02 -0.05 0.15 -0.11 0.27 -0.33 0.65 -0.40 1.74 -0.41 5.96 -0 4.28 0.09 18.77 0.13 18.82 0.01 0.02 0.05 0.82 0.07 1.76 0.06 2.23 0.14 2.60 0.69 3.61 0.54 0.97 1.54 1.72 2.66 1.97 0.63 0.14 2.30 0.24 5.24 0.30 2.53 0.06 5.68 0.14 6.07 0.15 0.67 0.02 5.32 -0.01 7.57 -0.06z"/>
  <path d="M16.83 40.70 c-0.54 -0.02 -2.18 -0.07 -3.63 -0.11 -3.12 -0.09 -4.10 -0.13 -4.51 -0.21 -0.46 -0.09 -0.93 -0.23 -1.05 -0.33 -0.06 -0.05 -0.14 -0.09 -0.18 -0.09 -0.11 0 -0.53 -0.35 -0.79 -0.64 -0.12 -0.14 -0.30 -0.41 -0.40 -0.60 -0.39 -0.78 -0.48 -1.49 -0.48 -3.77 0 -0.77 -0.03 -2.26 -0.06 -3.31 -0.05 -1.32 -0.07 -4.08 -0.08 -8.92 l-0.01 -7.01 0.32 -0.03 c0.18 -0.02 1.07 -0.06 1.98 -0.08 0.91 -0.03 2.46 -0.08 3.45 -0.12 1.38 -0.06 3.82 -0.08 10.46 -0.11 4.77 -0.02 9.91 -0.06 11.43 -0.08 1.52 -0.03 3.45 -0.05 4.30 -0.05 l1.55 -0 0.03 0.12 c0.02 0.07 0.05 2.60 0.07 5.62 0.02 3.02 0.06 6.40 0.09 7.50 0.07 2.46 0.04 8.24 -0.05 8.71 -0.15 0.92 -0.45 1.66 -0.85 2.15 -0.41 0.51 -1.11 0.90 -1.85 1.05 -0.44 0.09 -0.52 0.09 -6.20 0.23 -1.11 0.02 -2.78 0.06 -3.70 0.09 -1.91 0.06 -8.35 0.05 -9.84 -0z m7.61 -2.41 c0.43 -0.04 0.87 -0.09 0.99 -0.11 0.74 -0.16 1.60 -0.38 1.76 -0.46 0.05 -0.02 0.11 -0.04 0.14 -0.04 0.03 0 0.30 -0.10 0.59 -0.23 0.83 -0.35 1.19 -0.57 1.76 -1.06 0.22 -0.18 0.40 -0.35 0.40 -0.38 0 -0.02 0.11 -0.15 0.23 -0.28 0.24 -0.24 0.62 -0.78 0.77 -1.09 0.39 -0.76 0.59 -1.98 0.51 -2.99 -0.07 -0.82 -0.39 -1.89 -0.69 -2.35 -0.04 -0.06 -0.19 -0.29 -0.34 -0.52 -0.31 -0.49 -0.84 -1.09 -1.24 -1.42 -0.29 -0.23 -0.30 -0.26 -0.30 -0.43 0 -0.12 0.03 -0.22 0.09 -0.28 0.29 -0.30 1.17 -1.59 1.27 -1.86 0.01 -0.04 0.05 -0.12 0.09 -0.18 0.29 -0.52 0.47 -0.92 0.71 -1.61 0.14 -0.40 0.24 -1.01 0.25 -1.54 0 -0.63 -0.10 -1.08 -0.37 -1.58 -0.27 -0.51 -0.24 -0.47 -0.90 -0.96 -0.07 -0.06 -0.27 -0.15 -0.44 -0.21 -0.25 -0.09 -0.40 -0.11 -0.79 -0.11 -0.43 0 -0.54 0.02 -0.97 0.17 -0.52 0.18 -0.82 0.34 -1.26 0.68 -0.58 0.46 -1.29 1.30 -1.60 1.91 -0.09 0.17 -0.22 0.42 -0.30 0.55 -0.42 0.71 -1.07 2.45 -1.07 2.87 0 0.08 -0.03 0.09 -0.29 0.09 -0.16 0 -0.35 -0.02 -0.42 -0.04 -0.08 -0.02 -0.46 -0.02 -0.86 0 -0.77 0.05 -0.86 0.03 -0.86 -0.15 0 -0.09 -0.40 -1.32 -0.62 -1.89 -0.27 -0.71 -0.96 -1.91 -1.45 -2.52 -0.33 -0.41 -1.14 -1.13 -1.45 -1.29 -0.75 -0.40 -1.47 -0.50 -2.07 -0.29 -0.66 0.22 -1.27 0.76 -1.55 1.38 -0.10 0.22 -0.25 0.84 -0.29 1.20 -0.04 0.35 0.11 1.40 0.26 1.82 0.04 0.11 0.13 0.38 0.20 0.60 0.21 0.64 0.75 1.78 1.07 2.24 0.05 0.07 0.18 0.27 0.30 0.45 0.12 0.17 0.27 0.38 0.33 0.45 0.08 0.08 0.11 0.17 0.11 0.29 0 0.17 -0.16 0.39 -0.64 0.90 -0.23 0.25 -0.64 0.81 -0.89 1.22 -0.60 1 -0.97 2.23 -0.97 3.29 -0 0.91 0.16 1.57 0.59 2.41 0.29 0.57 0.50 0.83 1 1.29 0.55 0.50 1.02 0.79 2 1.20 1.16 0.49 2.36 0.76 3.84 0.84 0.41 0.03 0.76 0.06 0.78 0.07 0.05 0.06 1.86 0.02 2.61 -0.04z"/>
  <path d="M21.98 37.64 c-1.99 -0.10 -3.58 -0.38 -4.54 -0.80 -0.11 -0.05 -0.23 -0.09 -0.26 -0.09 -0.03 0 -0.13 -0.05 -0.22 -0.11 -0.09 -0.06 -0.19 -0.11 -0.23 -0.11 -0.05 0 -0.10 -0.02 -0.11 -0.05 -0.02 -0.03 -0.12 -0.10 -0.24 -0.16 -1.08 -0.55 -1.84 -1.75 -2 -3.13 -0.06 -0.55 0 -1.60 0.12 -2 0.27 -0.87 0.55 -1.55 0.80 -1.93 0.05 -0.06 0.16 -0.24 0.25 -0.39 0.10 -0.15 0.48 -0.58 0.86 -0.96 0.37 -0.38 0.68 -0.72 0.68 -0.76 0 -0.09 -0.41 -0.52 -0.49 -0.52 -0.03 0 -0.11 -0.10 -0.17 -0.22 -0.07 -0.12 -0.17 -0.26 -0.21 -0.31 -0.05 -0.05 -0.16 -0.23 -0.25 -0.41 -0.10 -0.17 -0.20 -0.35 -0.23 -0.39 -0.03 -0.04 -0.11 -0.19 -0.18 -0.34 -0.07 -0.15 -0.17 -0.38 -0.23 -0.51 -0.53 -1.16 -0.76 -2.06 -0.76 -3.04 0 -0.39 0.13 -1.08 0.25 -1.28 0.11 -0.21 0.38 -0.52 0.49 -0.57 0.06 -0.03 0.20 -0.10 0.30 -0.15 0.16 -0.09 0.26 -0.10 0.80 -0.10 l0.61 0 0.39 0.20 c0.21 0.11 0.52 0.32 0.68 0.46 0.58 0.52 1.19 1.35 1.52 2.06 0.35 0.76 0.39 0.86 0.49 1.10 0.06 0.14 0.13 0.32 0.16 0.39 0.09 0.20 0.33 1.09 0.42 1.52 0.13 0.64 0.13 0.64 0.97 0.55 0.81 -0.09 1.49 -0.09 2.01 0 0.24 0.04 0.44 0.05 0.48 0.02 0.09 -0.05 0.22 -0.43 0.29 -0.85 0.02 -0.17 0.07 -0.41 0.10 -0.53 0.07 -0.29 0.62 -1.68 0.75 -1.88 0.06 -0.09 0.17 -0.30 0.25 -0.46 0.19 -0.38 0.43 -0.74 0.69 -1.06 0.11 -0.14 0.27 -0.33 0.34 -0.43 0.07 -0.10 0.28 -0.29 0.46 -0.42 0.76 -0.57 1.09 -0.69 1.98 -0.69 l0.64 -0 0.26 0.17 c0.28 0.17 0.42 0.34 0.59 0.68 0.18 0.36 0.23 0.63 0.23 1.31 -0 0.64 -0.01 0.67 -0.25 1.62 -0.09 0.34 -0.64 1.48 -1.06 2.15 -0.36 0.59 -0.81 1.18 -1.12 1.47 -0.35 0.33 -0.32 0.45 0.24 0.81 0.21 0.14 0.53 0.41 0.74 0.64 0.77 0.80 1.22 1.60 1.49 2.60 0.11 0.42 0.12 0.53 0.11 1.36 -0 1.36 -0.16 1.99 -0.69 2.81 -0.18 0.28 -0.27 0.39 -0.61 0.76 -0.58 0.64 -1.90 1.31 -3.18 1.61 -0.71 0.17 -1.64 0.29 -2.45 0.32 -1.20 0.04 -1.72 0.05 -1.98 0.04z m-0.20 -1.90 c0.15 -0.05 0.35 -0.16 0.44 -0.23 0.20 -0.16 0.53 -0.19 0.64 -0.06 0.08 0.09 0.44 0.28 0.63 0.32 0.28 0.06 0.46 0.03 0.77 -0.11 0.35 -0.17 0.54 -0.35 0.70 -0.69 0.10 -0.22 0.11 -0.28 0.06 -0.42 -0.06 -0.18 -0.23 -0.29 -0.38 -0.25 -0.11 0.04 -0.21 0.22 -0.25 0.45 -0.05 0.27 -0.16 0.33 -0.59 0.35 -0.21 0.01 -0.46 -0 -0.57 -0.03 -0.28 -0.07 -0.33 -0.24 -0.33 -1.01 l0 -0.61 0.21 -0.19 c0.40 -0.36 0.43 -0.49 0.17 -0.66 -0.11 -0.07 -0.13 -0.06 -0.41 0.03 l-0.30 0.11 -0.35 -0.09 c-0.38 -0.09 -0.44 -0.08 -0.57 0.11 -0.06 0.09 -0.06 0.11 0.09 0.25 0.08 0.08 0.23 0.22 0.33 0.30 l0.17 0.15 -0.03 0.63 c-0.02 0.39 -0.06 0.68 -0.10 0.75 -0.11 0.21 -0.37 0.31 -0.79 0.31 -0.20 0 -0.38 -0.02 -0.41 -0.04 -0.08 -0.05 -0.25 -0.34 -0.25 -0.43 0 -0.10 -0.24 -0.32 -0.35 -0.32 -0.11 0 -0.29 0.20 -0.29 0.33 0 0.11 0.16 0.42 0.31 0.62 0.14 0.18 0.79 0.52 1 0.52 0.08 0 0.27 -0.04 0.42 -0.09z m-2.65 -4.16 c0 -0.08 -0.40 -0.46 -0.58 -0.55 -0.26 -0.13 -0.20 -0 0.16 0.32 0.34 0.32 0.43 0.36 0.43 0.23z m7.04 -0.29 c0.06 -0.07 0.14 -0.17 0.17 -0.21 0.14 -0.16 0.02 -0.08 -0.17 0.12 -0.11 0.11 -0.18 0.21 -0.16 0.21 0.03 0 0.10 -0.06 0.16 -0.12z"/>
 </g>
 <g fill="#050403">
  <path d="M19.59 41.63 c-0.36 -0.01 -3.34 -0.09 -6.07 -0.15 -2.94 -0.06 -4.61 -0.16 -5.24 -0.30 -1.12 -0.25 -2.12 -0.99 -2.66 -1.97 -0.56 -1.01 -0.63 -1.38 -0.69 -3.61 -0.03 -0.94 -0.06 -1.74 -0.07 -1.76 -0.04 -0.06 -0.13 -14.55 -0.13 -18.96 0 -4.36 0.08 -5.44 0.41 -6.09 0.06 -0.12 0.11 -0.25 0.11 -0.27 0 -0.08 0.38 -0.71 0.55 -0.92 0.39 -0.48 0.90 -0.91 1.39 -1.15 0.38 -0.19 1.15 -0.41 1.55 -0.45 0.18 -0.01 0.35 -0.05 0.37 -0.08 0.02 -0.03 0.06 -0.22 0.09 -0.43 0.14 -0.99 0.84 -1.77 1.75 -1.94 0.61 -0.11 1.33 -0.01 1.78 0.25 0.56 0.33 1.03 1.05 1.10 1.65 l0.03 0.32 0.90 -0.03 c0.50 -0.01 2.14 -0.04 3.64 -0.06 1.50 -0.02 2.90 -0.04 3.10 -0.04 0.20 -0 2.45 -0.03 5 -0.05 3.27 -0.03 4.64 -0.05 4.67 -0.09 0.02 -0.03 0.07 -0.17 0.11 -0.31 0.13 -0.46 0.25 -0.68 0.52 -0.97 0.29 -0.30 0.50 -0.44 0.91 -0.60 0.23 -0.08 0.36 -0.10 0.78 -0.10 0.57 0 0.73 0.04 1.18 0.30 0.63 0.36 1.04 0.94 1.15 1.65 0.03 0.21 0.08 0.39 0.11 0.39 0.02 0.01 0.26 0.06 0.53 0.11 0.62 0.12 0.94 0.24 1.42 0.51 0.97 0.54 1.69 1.51 2 2.67 0.19 0.72 0.22 1.28 0.21 4.87 -0 2.07 0.01 3.64 0.04 4.14 0.11 1.68 0.17 17.76 0.06 18.60 -0.12 1.03 -0.25 1.52 -0.57 2.16 -0.60 1.19 -1.42 1.85 -2.79 2.25 -0.49 0.14 -1.54 0.21 -3.90 0.26 -1.28 0.02 -2.51 0.06 -2.72 0.07 -1.15 0.07 -9.51 0.17 -10.62 0.13z m6.94 -1.07 c0.92 -0.03 2.59 -0.07 3.70 -0.09 5.68 -0.13 5.76 -0.14 6.20 -0.23 0.50 -0.10 0.94 -0.29 1.35 -0.58 0.69 -0.50 1.14 -1.36 1.35 -2.62 0.08 -0.48 0.11 -6 0.05 -8.44 -0.03 -1.10 -0.07 -4.47 -0.09 -7.50 -0.02 -3.02 -0.06 -5.55 -0.07 -5.62 l-0.03 -0.13 -1.41 0 c-0.77 0 -2.65 0.02 -4.17 0.05 -1.52 0.03 -6.69 0.06 -11.50 0.09 -4.81 0.02 -8.91 0.05 -9.13 0.06 -0.43 0.03 -2.24 0.09 -4.76 0.17 -0.88 0.02 -1.75 0.06 -1.93 0.08 l-0.32 0.03 0.01 6.88 c0.01 4.69 0.04 7.48 0.08 8.78 0.03 1.05 0.06 2.58 0.07 3.40 0 0.82 0.02 1.73 0.05 2.02 0.09 1.20 0.53 2.12 1.30 2.71 0.14 0.10 0.28 0.19 0.32 0.19 0.04 0 0.12 0.04 0.18 0.09 0.12 0.09 0.59 0.24 1.05 0.33 0.40 0.08 1.38 0.12 4.51 0.21 1.45 0.04 3.09 0.09 3.63 0.11 1.49 0.06 7.66 0.06 9.57 0z m-18.17 -26.03 c0.77 -0.03 1.90 -0.07 2.52 -0.09 2.42 -0.11 5.97 -0.14 11.92 -0.13 4.14 0.01 6.88 -0 8.19 -0.04 1.08 -0.03 3.28 -0.07 4.90 -0.09 l2.95 -0.03 0.03 -1.68 c0.03 -1.42 0.02 -1.77 -0.04 -2.26 -0.12 -0.98 -0.34 -1.52 -0.88 -2.12 -0.21 -0.24 -0.73 -0.63 -0.90 -0.68 -0.06 -0.01 -0.19 -0.06 -0.28 -0.11 -0.09 -0.05 -0.29 -0.11 -0.45 -0.15 l-0.29 -0.06 0 1.31 c0 1.53 -0.04 1.82 -0.33 2.40 -0.22 0.45 -0.61 0.84 -1.03 1.04 -0.35 0.17 -0.55 0.22 -1.06 0.24 -0.44 0.02 -0.99 -0.06 -1.19 -0.19 -0.05 -0.03 -0.14 -0.07 -0.21 -0.09 -0.19 -0.05 -0.63 -0.43 -0.82 -0.71 -0.40 -0.60 -0.44 -0.84 -0.43 -2.79 l0.01 -1.56 -3.95 0.03 c-5.23 0.04 -10.84 0.11 -12.05 0.15 l-0.97 0.03 -0.03 0.30 c-0.02 0.17 -0.02 0.75 -0 1.30 0.03 1.05 -0.01 1.68 -0.13 2.02 -0.15 0.44 -0.53 0.90 -0.99 1.19 -0.41 0.26 -0.65 0.34 -1.25 0.36 -0.47 0.02 -0.57 0.01 -0.90 -0.08 -0.42 -0.12 -0.93 -0.44 -1.19 -0.74 -0.10 -0.11 -0.24 -0.34 -0.32 -0.52 -0.25 -0.53 -0.30 -0.92 -0.30 -2.35 0 -1.12 -0.01 -1.26 -0.07 -1.26 -0.18 0 -0.85 0.21 -1.11 0.34 -0.96 0.51 -1.45 1.28 -1.70 2.67 -0.06 0.32 -0.08 0.85 -0.09 2.43 l-0.02 2.02 0.52 -0.03 c0.29 -0.02 1.15 -0.05 1.93 -0.08z m3.45 -3.73 c0.13 0 0.61 -0.43 0.70 -0.63 0.04 -0.08 0.06 -0.65 0.09 -1.76 0.02 -0.90 0.05 -1.94 0.06 -2.32 0.03 -0.68 0.03 -0.69 -0.09 -0.90 -0.17 -0.31 -0.26 -0.37 -0.70 -0.46 -0.53 -0.11 -0.61 -0.11 -0.87 0.04 -0.29 0.16 -0.45 0.34 -0.58 0.68 -0.11 0.26 -0.14 0.40 -0.26 1.06 -0.03 0.16 -0.05 0.88 -0.05 1.69 0 1.35 0 1.42 0.09 1.53 0.05 0.06 0.09 0.18 0.09 0.26 0 0.11 0.06 0.19 0.33 0.45 0.30 0.28 0.35 0.31 0.61 0.35 0.15 0.02 0.32 0.04 0.37 0.03 0.05 -0.01 0.14 -0.02 0.21 -0.02z m22.28 -0.23 c0.45 -0.23 0.47 -0.24 0.56 -0.45 0.06 -0.13 0.07 -0.40 0.09 -1.34 0.01 -0.64 0.02 -1.42 0.02 -1.72 0 -0.30 -0 -0.81 -0.03 -1.14 l-0.04 -0.59 -0.23 -0.21 c-0.26 -0.24 -0.63 -0.42 -0.97 -0.46 -0.21 -0.02 -0.27 -0.01 -0.49 0.11 -0.20 0.11 -0.29 0.20 -0.43 0.41 l-0.17 0.28 -0.02 0.98 c-0.01 0.54 -0.05 1.22 -0.07 1.51 -0.06 0.60 -0.03 1.79 0.06 2.13 0.05 0.19 0.08 0.23 0.24 0.31 0.10 0.05 0.27 0.14 0.37 0.19 0.10 0.06 0.29 0.11 0.41 0.13 0.13 0.01 0.25 0.03 0.28 0.04 0.03 0 0.21 -0.08 0.41 -0.18z"/>
  <path d="M21.70 38.46 c-0.01 -0.01 -0.36 -0.04 -0.78 -0.07 -1.09 -0.06 -1.92 -0.20 -2.78 -0.46 -0.85 -0.26 -1.65 -0.61 -2.25 -0.97 -0.43 -0.25 -1.15 -0.90 -1.41 -1.25 -0.40 -0.54 -0.80 -1.47 -0.92 -2.15 -0.09 -0.49 -0.08 -1.67 0.02 -2.12 0.22 -0.99 0.48 -1.68 0.89 -2.37 0.25 -0.41 0.66 -0.97 0.89 -1.22 0.23 -0.24 0.64 -0.73 0.64 -0.76 0 -0.01 -0.05 -0.08 -0.11 -0.15 -0.06 -0.07 -0.21 -0.27 -0.33 -0.45 -0.12 -0.18 -0.27 -0.41 -0.34 -0.51 -0.20 -0.31 -0.34 -0.57 -0.62 -1.16 -0.62 -1.35 -0.96 -2.72 -0.88 -3.61 0.04 -0.43 0.17 -1.04 0.29 -1.30 0.28 -0.61 0.89 -1.16 1.55 -1.38 0.38 -0.12 1.26 -0.13 1.63 -0.01 0.22 0.07 0.54 0.21 0.72 0.30 0.31 0.17 1.12 0.88 1.45 1.29 0.49 0.60 1.18 1.80 1.45 2.52 0.21 0.57 0.62 1.81 0.62 1.89 0 0.17 0.09 0.19 0.82 0.14 0.47 -0.03 0.76 -0.03 0.87 0 0.09 0.02 0.23 0.05 0.32 0.05 0.11 0 0.15 -0.02 0.15 -0.09 0 -0.42 0.65 -2.16 1.07 -2.87 0.08 -0.12 0.21 -0.37 0.30 -0.55 0.31 -0.61 1.01 -1.45 1.60 -1.91 0.43 -0.34 0.73 -0.50 1.26 -0.68 0.47 -0.16 0.52 -0.17 1.11 -0.17 0.54 -0 0.66 0.01 0.93 0.11 0.17 0.06 0.37 0.15 0.44 0.21 0.48 0.35 0.61 0.46 0.67 0.55 0.19 0.30 0.40 0.73 0.49 1.06 0.19 0.65 0.12 1.97 -0.15 2.74 -0.24 0.69 -0.42 1.09 -0.71 1.61 -0.04 0.06 -0.07 0.15 -0.09 0.18 -0.10 0.28 -0.97 1.56 -1.27 1.86 -0.05 0.06 -0.09 0.11 -0.09 0.14 0 0.03 0.13 0.16 0.30 0.29 0.40 0.33 0.93 0.92 1.24 1.42 0.14 0.22 0.29 0.45 0.34 0.52 0.15 0.22 0.42 0.91 0.53 1.36 0.34 1.37 0.20 3.18 -0.34 4.25 -0.15 0.31 -0.53 0.85 -0.77 1.09 -0.13 0.13 -0.23 0.26 -0.23 0.28 0 0.02 -0.18 0.19 -0.40 0.38 -0.57 0.49 -0.93 0.71 -1.76 1.06 -0.29 0.12 -0.56 0.23 -0.59 0.23 -0.03 0 -0.10 0.02 -0.14 0.04 -0.15 0.08 -1.02 0.31 -1.76 0.46 -0.45 0.10 -1.83 0.18 -2.81 0.18 -0.57 0 -1.05 -0.01 -1.06 -0.03z m1.92 -1.01 c0.82 -0.02 1.20 -0.06 2.09 -0.20 1.46 -0.24 3.06 -0.97 3.74 -1.72 0.34 -0.37 0.43 -0.49 0.61 -0.76 0.51 -0.79 0.68 -1.45 0.69 -2.67 0 -0.68 -0.01 -0.81 -0.12 -1.22 -0.26 -1 -0.71 -1.79 -1.48 -2.60 -0.21 -0.23 -0.53 -0.50 -0.74 -0.64 -0.60 -0.39 -0.67 -0.69 -0.23 -1.09 0.30 -0.28 0.75 -0.87 1.11 -1.46 0.41 -0.68 0.97 -1.81 1.06 -2.15 0.24 -0.91 0.25 -0.99 0.25 -1.48 0 -0.54 -0.06 -0.84 -0.23 -1.17 -0.17 -0.34 -0.32 -0.51 -0.59 -0.68 l-0.26 -0.17 -0.51 0 c-0.74 0.01 -1.12 0.15 -1.84 0.69 -0.18 0.13 -0.38 0.32 -0.46 0.42 -0.07 0.10 -0.23 0.29 -0.34 0.43 -0.27 0.32 -0.50 0.68 -0.69 1.06 -0.08 0.17 -0.20 0.37 -0.25 0.46 -0.12 0.20 -0.68 1.59 -0.75 1.88 -0.03 0.11 -0.07 0.35 -0.10 0.53 -0.07 0.49 -0.19 0.81 -0.32 0.86 -0.08 0.04 -0.25 0.03 -0.64 -0.03 -0.29 -0.04 -0.68 -0.08 -0.84 -0.08 -0.38 0 -1.18 0.07 -1.52 0.14 -0.22 0.04 -0.28 0.04 -0.40 -0.02 -0.18 -0.10 -0.22 -0.16 -0.30 -0.60 -0.09 -0.43 -0.33 -1.32 -0.42 -1.52 -0.03 -0.07 -0.11 -0.25 -0.16 -0.39 -0.10 -0.25 -0.14 -0.34 -0.49 -1.10 -0.49 -1.07 -1.40 -2.12 -2.19 -2.52 -0.37 -0.19 -0.39 -0.20 -0.86 -0.20 -0.40 0 -0.51 0.01 -0.66 0.10 -0.10 0.05 -0.23 0.12 -0.30 0.15 -0.11 0.05 -0.37 0.36 -0.49 0.57 -0.09 0.17 -0.25 0.88 -0.25 1.15 0 0.37 0.13 1.18 0.26 1.63 0.10 0.36 0.23 0.70 0.50 1.27 0.06 0.13 0.16 0.35 0.23 0.51 0.07 0.15 0.15 0.31 0.18 0.34 0.03 0.04 0.13 0.22 0.23 0.39 0.09 0.18 0.21 0.36 0.25 0.41 0.04 0.05 0.14 0.19 0.21 0.31 0.07 0.12 0.15 0.22 0.17 0.22 0.03 0 0.15 0.10 0.27 0.22 0.20 0.20 0.22 0.23 0.22 0.44 l0 0.22 -0.68 0.69 c-0.38 0.38 -0.76 0.81 -0.86 0.96 -0.10 0.15 -0.21 0.32 -0.25 0.39 -0.25 0.38 -0.54 1.08 -0.80 1.93 -0.12 0.40 -0.18 1.32 -0.12 1.80 0.17 1.34 0.94 2.51 1.99 3.05 0.12 0.06 0.23 0.13 0.24 0.16 0.01 0.02 0.06 0.05 0.11 0.05 0.04 0 0.15 0.05 0.23 0.11 0.09 0.06 0.18 0.11 0.22 0.11 0.03 0 0.15 0.04 0.26 0.09 0.57 0.25 1.56 0.51 2.45 0.62 0.86 0.11 2.14 0.20 2.51 0.18 0.09 -0 0.57 -0.02 1.08 -0.04z"/>
  <path d="M21.19 35.96 c-0.29 -0.05 -0.83 -0.34 -0.97 -0.52 -0.32 -0.42 -0.40 -0.87 -0.20 -1.11 0.09 -0.10 0.14 -0.12 0.33 -0.12 0.17 0 0.25 0.03 0.35 0.13 0.07 0.07 0.13 0.16 0.13 0.19 0 0.08 0.17 0.38 0.25 0.43 0.10 0.07 0.49 0.04 0.67 -0.06 0.25 -0.13 0.30 -0.27 0.34 -0.85 l0.03 -0.50 -0.17 -0.14 c-0.40 -0.34 -0.47 -0.43 -0.47 -0.59 0 -0.11 0.04 -0.21 0.11 -0.29 0.09 -0.11 0.14 -0.12 0.33 -0.12 0.13 0 0.32 0.03 0.44 0.07 0.19 0.06 0.23 0.06 0.43 -0.02 0.33 -0.13 0.56 -0.11 0.73 0.05 0.24 0.24 0.17 0.49 -0.23 0.86 l-0.20 0.18 -0.01 0.48 c-0.01 0.79 0.08 0.91 0.70 0.90 0.28 -0 0.47 -0.10 0.47 -0.23 0 -0.13 0.11 -0.41 0.19 -0.49 0.10 -0.10 0.38 -0.12 0.57 -0.04 0.33 0.15 0.25 0.89 -0.15 1.32 -0.16 0.17 -0.51 0.35 -0.80 0.43 -0.37 0.09 -1.12 -0.11 -1.32 -0.34 -0.09 -0.11 -0.17 -0.09 -0.36 0.06 -0.29 0.23 -0.81 0.38 -1.17 0.32z"/>
  <path d="M18.58 31.50 c-0.23 -0.20 -0.42 -0.40 -0.44 -0.44 -0.03 -0.08 0.14 -0.29 0.23 -0.29 0.12 0 0.44 0.19 0.66 0.40 0.20 0.19 0.23 0.23 0.23 0.40 0 0.21 -0.06 0.30 -0.19 0.30 -0.04 0 -0.27 -0.17 -0.49 -0.37z"/>
  <path d="M25.67 31.71 c-0.07 -0.09 0.02 -0.27 0.31 -0.59 0.37 -0.40 0.69 -0.52 0.69 -0.25 0 0.11 -0.10 0.25 -0.39 0.56 -0.12 0.13 -0.43 0.34 -0.51 0.34 -0.03 0 -0.08 -0.03 -0.11 -0.06z"/>
 </g>
 <g fill="#f5c05e">
  <path d="M5.81 12.61 c0.01 -1.71 0.04 -2.24 0.09 -2.57 0.26 -1.43 0.77 -2.21 1.78 -2.70 0.35 -0.17 1.19 -0.39 1.31 -0.34 0.06 0.02 0.07 0.20 0.07 1.29 0 1.43 0.05 1.82 0.30 2.35 0.19 0.41 0.41 0.66 0.82 0.94 0.80 0.54 1.77 0.55 2.56 0.04 0.32 -0.21 0.55 -0.43 0.75 -0.74 0.34 -0.52 0.36 -0.67 0.35 -2.45 0 -0.83 0.01 -1.54 0.03 -1.57 0.06 -0.10 4.11 -0.17 13.18 -0.23 l4.08 -0.03 0 1.60 c0 2 0.04 2.23 0.48 2.84 0.17 0.23 0.67 0.63 0.79 0.63 0.04 0 0.11 0.03 0.17 0.06 0.29 0.19 1.01 0.25 1.53 0.13 0.61 -0.14 1.19 -0.62 1.49 -1.21 0.29 -0.59 0.33 -0.87 0.33 -2.43 0 -0.73 0.01 -1.33 0.04 -1.33 0.11 0 0.94 0.23 1.03 0.29 0.06 0.04 0.16 0.08 0.22 0.09 0.16 0.04 0.69 0.43 0.90 0.68 0.52 0.59 0.75 1.15 0.87 2.06 0.07 0.55 0.08 1.21 0.04 3.03 l-0.03 1.24 -2.95 0.03 c-1.62 0.01 -3.83 0.06 -4.90 0.09 -1.30 0.04 -4.05 0.05 -8.19 0.04 -6 -0.01 -9.35 0.02 -11.98 0.13 -3.07 0.12 -4.80 0.18 -4.98 0.18 l-0.20 0 0.02 -2.15z"/>
 </g>
 <g fill="#7fc8ff">
  <path d="M11.35 10.97 c-0.01 -0.01 -0.13 -0.03 -0.26 -0.05 -0.21 -0.02 -0.28 -0.05 -0.54 -0.29 -0.33 -0.29 -0.39 -0.37 -0.39 -0.54 0 -0.06 -0.04 -0.17 -0.09 -0.23 -0.09 -0.11 -0.09 -0.18 -0.09 -1.67 0 -0.91 0.02 -1.67 0.05 -1.83 0.11 -0.67 0.15 -0.80 0.26 -1.06 0.13 -0.34 0.29 -0.52 0.59 -0.69 0.27 -0.16 0.52 -0.17 1.14 -0.03 0.45 0.09 0.53 0.15 0.71 0.48 l0.13 0.23 -0.04 0.80 c-0.02 0.44 -0.05 1.51 -0.06 2.38 -0.01 1.81 -0.01 1.79 -0.41 2.18 -0.23 0.22 -0.29 0.25 -0.50 0.28 -0.28 0.03 -0.47 0.04 -0.50 0.01z"/>
  <path d="M33.59 10.90 c-0.07 -0.02 -0.22 -0.04 -0.32 -0.04 -0.10 -0 -0.28 -0.06 -0.39 -0.12 -0.11 -0.06 -0.29 -0.15 -0.40 -0.20 -0.17 -0.08 -0.20 -0.13 -0.25 -0.31 -0.08 -0.33 -0.11 -1.76 -0.05 -2.41 0.03 -0.31 0.06 -0.99 0.07 -1.52 l0.01 -0.95 0.18 -0.29 c0.14 -0.22 0.23 -0.31 0.43 -0.42 0.23 -0.13 0.28 -0.14 0.62 -0.11 0.46 0.03 0.80 0.17 1.12 0.46 l0.23 0.21 0.04 0.59 c0.02 0.32 0.04 0.90 0.03 1.27 -0 0.38 -0.01 1.22 -0.02 1.86 -0.01 0.97 -0.03 1.20 -0.09 1.34 -0.04 0.09 -0.11 0.18 -0.14 0.21 -0.08 0.07 -0.87 0.47 -0.91 0.47 -0.01 -0 -0.09 -0.02 -0.17 -0.04z"/>
 </g>
</svg>