<?xml version="1.0" encoding="utf-8"?>
<!DOCTYPE svg PUBLIC "-//W3C//DTD SVG 1.0//EN" "http://www.w3.org/TR/2001/REC-SVG-20010904/DTD/svg10.dtd">
<svg version="1.0" xmlns="http://www.w3.org/2000/svg" width="500px" height="500px" viewBox="0 0 500 500" preserveAspectRatio="xMidYMid meet">
 <g fill="#000000">
  <path d="M95.2 414 c-4.5 -1.1 -6.7 -3.3 -8.1 -8.2 -2.3 -7.5 1.6 -18.1 15.7 -42.6 4.3 -7.3 8.2 -14.1 8.7 -15.1 9.3 -16.2 51.7 -77.4 60.3 -87 1.3 -1.4 3.7 -4.3 5.3 -6.5 18.4 -24.6 49.4 -55.9 60.9 -61.3 10.6 -5 15.8 -6.3 25 -6.2 5.9 0 14 1.5 16.5 3 1.3 0.8 7.5 2.2 7.5 1.7 0 -0.3 -1.5 -4.8 -3.4 -10.2 -10.7 -30.3 -13.5 -62.9 -7 -82.8 1.6 -5 5.6 -8.8 9.3 -8.8 5.7 0 13.5 11.8 18.6 28.3 1.5 4.8 3.1 8.7 3.6 8.7 0.4 0 1.2 -1.5 1.7 -3.3 1.3 -4.7 7.1 -18.3 10 -23.4 1.3 -2.4 4.6 -6.6 7.2 -9.3 4.6 -4.7 5.2 -5 10 -5 5 0 5.1 0.1 6.7 3.7 2.2 5.3 1 16.1 -3.1 28.1 -1.8 5.4 -3.6 10.5 -4 11.5 -1.1 2.4 2.2 2.2 5.4 -0.4 12.9 -10.5 36.6 -21.9 45.5 -21.9 3.3 0 8.1 2.4 8.9 4.5 1.8 4.9 -0.1 10.4 -5.6 16.6 -3.6 3.9 -14.4 13.2 -19.5 16.8 -1.8 1.2 -3.3 2.6 -3.3 3.1 0 0.5 4.5 0.6 9.9 0.3 10.6 -0.6 18.2 0.6 21.4 3.4 2.8 2.6 2.2 8.2 -1.4 12.6 -3.4 4.1 -3.3 4.2 4.3 5.6 14.3 2.6 15.7 13.8 2.6 20.2 -7.4 3.6 -14.4 5.8 -23.3 7.4 -2.2 0.4 -4.3 0.9 -4.7 1.1 -0.4 0.3 0.5 2.6 1.9 5.3 2.4 4.8 2.4 5 0.8 8.5 -3.3 6.9 -11 7.1 -29.5 1 -17.6 -5.8 -20.9 -6.5 -31.9 -6.5 -5.7 0 -10.6 0.2 -10.9 0.5 -0.2 0.3 1.3 2.9 3.5 5.8 10.3 13.5 13.1 26 9.8 43.6 -1.6 8.5 -4.6 15 -11.3 24.9 -9.5 14 -30.4 34.7 -50.4 49.9 -3.5 2.6 -6.5 5.1 -6.8 5.4 -0.6 0.7 -17.7 12.8 -25.5 18 -7.1 4.7 -35.9 22.2 -43.6 26.5 -7.9 4.3 -33 16.5 -42.4 20.4 -6.9 3 -13 5.3 -20 7.6 -4.4 1.5 -8.9 3 -10 3.5 -3.1 1.4 -11.7 1.9 -15.3 1z m22.8 -15.8 c21.9 -8.5 60 -26.2 60 -28 0 -0.4 -2.1 -4.3 -4.7 -8.7 -4 -6.8 -4.7 -9 -5.1 -14.7 l-0.4 -6.7 3.7 -0.7 c4.6 -0.8 9.7 0.6 11 3.1 6.1 11.4 10 17.8 11.1 18.2 0.9 0.3 8.5 -4.3 27.2 -16.4 4.5 -2.9 8.2 -5.5 8.2 -5.8 0 -0.3 -2 -3.2 -4.5 -6.6 -3.7 -5 -4.5 -6.9 -4.5 -10.4 0 -5.6 1.9 -7.5 7.3 -7.5 4.9 0.1 5.9 0.7 11.2 7.5 2.1 2.8 4.2 5.4 4.6 5.8 0.6 0.8 11.9 -7.5 21.2 -15.5 l3.8 -3.3 -2.9 -4.1 c-9.3 -12.8 -9.4 -22.4 -0.2 -22.4 5.1 0 7 1.3 11.1 7.6 2.3 3.5 4.5 6.4 4.9 6.4 0.4 0 2.2 -1.7 3.9 -3.7 1.8 -2.1 4.4 -5.1 6 -6.8 12.1 -12.9 20.1 -28.8 20.1 -40 0 -2.2 -0.7 -6.4 -1.4 -9.3 -5.4 -20.2 -31.7 -40 -50.3 -37.8 -10.5 1.2 -21 7.6 -35.8 21.8 -5.2 5 -9.5 9.3 -9.4 9.7 0 0.3 4.5 4.4 10 9.1 5.7 4.9 10.2 9.5 10.6 10.9 0.3 1.3 0.2 4 -0.3 6 -0.9 3.5 -1 3.6 -6.4 3.9 l-5.5 0.2 -10 -8.5 -10 -8.5 -5.5 6.2 c-3 3.4 -6.6 7.6 -8 9.4 -1.4 1.8 -4.7 6 -7.4 9.4 -4.1 5.3 -4.6 6.3 -3.3 7.3 0.8 0.7 5.2 4.1 9.6 7.7 l8.1 6.4 0 5.1 c0 2.8 -0.5 5.6 -1.2 6.3 -0.7 0.7 -3.3 1.2 -5.9 1.2 -4.3 0 -5.4 -0.6 -13.4 -7 -4.9 -3.9 -9.1 -6.7 -9.5 -6.3 -2.4 2.8 -13.7 18.9 -24.5 34.9 l-12.6 18.7 5.5 5.6 c5.3 5.4 5.6 5.9 5.6 10.7 0 2.7 -0.5 5.5 -1.2 6.2 -0.7 0.7 -3.2 1.2 -5.7 1.2 -4 0 -5.1 -0.5 -8.8 -4.2 -2.3 -2.3 -4.4 -4 -4.7 -3.7 -2.7 2.8 -18.6 33.2 -20.6 39.2 -1.9 6.1 -1.2 6.8 5.7 5.2 3.2 -0.8 9.2 -2.7 13.3 -4.3z m245 -194 c-1.5 -1.2 -2.4 -3.3 -2.7 -6.2 -0.8 -6.9 1.2 -8.6 12.8 -10.4 9.5 -1.5 21.1 -4.7 23.9 -6.6 1.1 -0.7 -0.7 -1 -6.1 -1 -5.5 0 -8.6 0.5 -11.6 2 -3.5 1.7 -13 4.6 -29.3 9 -1.9 0.5 -7 1.7 -11.2 2.6 -7.2 1.6 -9.5 3.4 -4.5 3.4 1.2 0 7.4 1.8 13.7 3.9 16.4 5.5 18.3 5.9 15 3.3z m-14.8 -29.1 c13.7 -3.5 25.2 -7.9 33.3 -12.6 l6 -3.6 -8.5 0.7 c-8.4 0.6 -25 3.7 -27.3 5 -2.6 1.5 -15.6 11.5 -16.2 12.4 -0.9 1.5 0.4 1.3 12.7 -1.9z m-50.8 -13.4 c1.8 -9.6 2 -17.2 0.5 -23.7 -1.7 -7.8 -6.1 -21.3 -8.6 -27 -2.4 -5.2 -2.6 -5.3 -3.4 -3.1 -3.3 8.6 -1.7 33.9 3.2 52.3 1.7 6.2 3.3 12.4 3.6 13.7 0.6 2.3 0.6 2.3 1.9 -0.7 0.7 -1.7 2 -6.9 2.8 -11.5z m53.6 -17.2 c22 -15.3 33.7 -25.2 26.4 -22.5 -11.6 4.4 -33.3 18.7 -45.8 30.1 -3.5 3.1 -12.1 13.5 -14.1 16.8 -0.4 0.8 3.4 -2 8.6 -6.1 5.2 -4.1 16.4 -12.4 24.9 -18.3z m-26.5 -15.8 c2 -5.6 4 -11.1 4.5 -12.2 1.4 -3.5 2.8 -7.9 3.4 -11 0.6 -2.9 0.6 -2.9 -1 -1 -3.4 4.2 -9.9 19.6 -12.4 29.5 -0.6 2.5 -1.4 5.4 -1.7 6.5 -0.6 1.9 -0.5 2 1.5 0.2 1.1 -1 3.7 -6.4 5.7 -12z"/>
 </g>
 <g fill="#4e2921">
  <path d="M95.4 405.6 c-1.3 -3.4 0.4 -11.6 4 -19.3 4.2 -8.8 18.3 -34 19.5 -34.7 0.4 -0.3 3.4 2.2 6.6 5.4 6 6 8.1 7 10.3 4.8 2.4 -2.4 1.1 -5.3 -5.4 -11.9 -6.2 -6.2 -6.5 -6.8 -5.2 -8.9 5.6 -9.8 34.5 -51.6 39.1 -56.7 l1.9 -2.2 10.5 8.5 c10.5 8.4 12.8 9.5 15.1 7.2 2.9 -2.9 1.2 -5.3 -9.8 -14.2 -7.5 -5.9 -10.8 -9.2 -10.2 -10 0.5 -0.6 3.5 -4.4 6.8 -8.5 3.2 -4 6.8 -8.5 7.8 -10 1.1 -1.4 3.8 -4.6 6 -7.1 2.3 -2.5 5.3 -6.1 6.7 -7.9 l2.5 -3.5 12 10.2 c12.4 10.7 15.7 12.2 17.3 8 0.5 -1.3 0.6 -2.8 0.4 -3.4 -0.2 -0.6 -5.5 -5.5 -11.8 -10.9 l-11.4 -9.8 1.9 -2.7 c3.2 -4.5 19.7 -19.7 26 -24 9 -6.1 14.5 -8.1 23.5 -8.7 14.3 -0.9 26.3 3.9 38.8 15.7 7.2 6.7 12.2 14.6 14.3 22.2 1.8 6.8 1.8 17.8 0 24.6 -1.7 6.1 -7.4 16.9 -12.4 23.2 -3.5 4.5 -4.3 5.4 -14.5 16.4 l-5.4 6 -5.8 -8.6 c-6 -9.1 -8.2 -10.6 -11.6 -8 -1.9 1.6 -1.9 1.8 -0.3 5.2 0.9 1.9 3.7 6.6 6.3 10.4 l4.6 6.8 -5 4.5 c-5.3 4.7 -19.7 16.1 -23.7 18.7 -2.4 1.6 -2.5 1.5 -6.1 -3.7 -4.5 -6.5 -9.5 -11.7 -11.2 -11.7 -1.8 0 -4.5 2.8 -4.5 4.5 0 0.7 2.7 5 6 9.4 3.3 4.5 6 8.3 6 8.5 0 1.1 -41.7 27.6 -43.4 27.6 -0.3 0 -1.3 -1.7 -2.2 -3.7 -1 -2.1 -2.5 -4.9 -3.5 -6.3 -0.9 -1.4 -2.9 -4.9 -4.4 -7.8 -2.8 -5.5 -5.4 -7.3 -8.8 -6.4 -1.6 0.4 -1.8 1.1 -1.4 4.1 0.5 3.3 8.4 18.6 11.7 22.6 1.9 2.3 1.1 2.9 -19.5 13 -28 13.7 -51.4 22.9 -61.8 24.1 -4.8 0.6 -5.8 0.4 -6.3 -1z"/>
 </g>
 <g fill="#9ebe7d">
  <path d="M360 208.5 c-3 -0.7 -10.2 -2.9 -16 -4.8 -12.5 -4.2 -23.1 -6 -31.4 -5.2 l-6.1 0.5 6.5 -2.1 c3.6 -1.1 11.9 -3.4 18.5 -5 25.5 -6.4 39.8 -10.5 44.8 -12.9 3.3 -1.6 6.1 -2 14.1 -2 5.7 0.1 11.4 0.6 13 1.3 l2.9 1.3 -2.7 2.2 c-5 3.9 -17.3 7.5 -32.9 9.7 -2.6 0.3 -4.5 1 -4.2 1.6 0.4 0.5 0 0.9 -0.9 0.9 -0.8 0 -1.6 0.6 -1.9 1.3 -0.8 2.3 0.5 4.5 4.4 7.7 5 4 5.3 7 0.7 6.9 -1.8 -0.1 -5.8 -0.7 -8.8 -1.4z"/>
  <path d="M290.7 179.3 c-7.6 -23.4 -11.1 -47.2 -9.5 -63.5 0.9 -9.2 3.3 -16.8 5.2 -16.8 2.8 0 11.1 20.6 14.5 36 1.5 6.6 1.3 20.3 -0.4 29.2 -1.6 8.3 -5.2 20.7 -6.5 22.1 -0.4 0.5 -1.9 -2.6 -3.3 -7z"/>
  <path d="M304 186.1 c0 -5.5 14.7 -27.9 23.9 -36.4 14.2 -13.1 35 -26.4 50.6 -32.2 11.4 -4.3 13.3 -2.9 6.5 5 -5.7 6.6 -13.1 12.6 -31 25 -17.5 12.2 -35.7 26.3 -44.2 34.4 -3.2 3 -5.8 4.9 -5.8 4.2z"/>
  <path d="M327.2 178.2 c8.9 -7.4 18.9 -15.1 21.5 -16.6 4.9 -2.8 35.9 -6.7 41.7 -5.2 3.1 0.8 3.2 1.6 0.8 4.3 -5.1 5.9 -24 13.6 -46.1 18.9 -8 1.9 -17.1 4.1 -20.2 4.9 -3 0.8 -5.9 1.5 -6.3 1.5 -0.4 0 3.5 -3.5 8.6 -7.8z"/>
  <path d="M311 154.1 c0 -2.5 5.6 -26.1 7.6 -32 4.3 -12.6 13.6 -28.1 17 -28.1 2.9 0 0.8 14.9 -3.6 25.5 -0.5 1.1 -2.5 6.5 -4.5 12 -2.5 7.1 -4.6 11.2 -7.3 14 -2 2.3 -4.9 5.6 -6.4 7.4 -2.4 2.8 -2.8 2.9 -2.8 1.2z"/>
 </g>
</svg>