<?xml version="1.0" encoding="utf-8"?>
<!DOCTYPE svg PUBLIC "-//W3C//DTD SVG 1.0//EN" "http://www.w3.org/TR/2001/REC-SVG-20010904/DTD/svg10.dtd">
<svg version="1.0" xmlns="http://www.w3.org/2000/svg" width="50px" height="50px" viewBox="0 0 50 50" preserveAspectRatio="xMidYMid meet">
 <g fill="#060201">
  <path d="M22.17 33.64 c-0.13 -0.14 -0.07 -0.55 0.17 -1.07 0.66 -1.46 1.18 -3.53 1.20 -4.82 0.01 -0.88 -0.02 -0.98 -1.04 -2.80 -0.46 -0.84 -0.64 -1.29 -0.90 -2.30 -0.14 -0.57 -0.12 -2.46 0.05 -3.40 0.20 -1.16 0.55 -2.85 0.65 -3.20 0.87 -2.86 1.10 -3.50 1.99 -5.56 0.22 -0.53 0.47 -1.25 0.54 -1.60 0.15 -0.75 0.32 -0.86 0.41 -0.26 0.08 0.50 0.52 1.48 0.97 2.13 0.17 0.25 0.72 0.92 1.21 1.47 1.48 1.67 1.98 2.60 2.17 4.02 0.25 1.91 -0.44 4.51 -1.76 6.64 -0.09 0.14 -0.44 0.69 -0.78 1.21 -1.21 1.88 -1.44 2.26 -1.87 3.15 -0.60 1.21 -1.67 3.24 -1.88 3.55 -0.16 0.24 -0.90 2.07 -0.90 2.23 0 0.27 0.50 -0.16 2.20 -1.90 1.06 -1.09 1.99 -2.08 2.07 -2.20 0.14 -0.22 0.29 -0.85 0.53 -2.33 0.31 -1.88 1.25 -3.45 4.63 -7.70 1.81 -2.28 2.64 -2.92 5.34 -4.10 0.78 -0.34 1.53 -0.73 1.67 -0.86 0.35 -0.36 0.38 -0.17 0.05 0.49 -0.45 0.93 -0.52 1.49 -0.46 3.69 0.08 2.62 -0.07 3.55 -0.82 5.09 -0.81 1.67 -2.61 3.46 -4.35 4.32 -1.10 0.55 -1.79 0.74 -3.81 1.07 -0.38 0.07 -0.83 0.16 -1 0.20 -0.16 0.05 -0.50 0.14 -0.75 0.20 -1.11 0.28 -1.08 0.26 -3.30 2.52 -1.18 1.21 -2.19 2.16 -2.23 2.12z m7.23 -5.64 c0.79 -0.12 2.34 -0.48 2.60 -0.60 0.08 -0.04 0.37 -0.17 0.65 -0.30 1.10 -0.49 2.70 -1.76 3.45 -2.75 0.65 -0.85 1.19 -1.89 1.43 -2.75 0.31 -1.11 0.38 -1.87 0.31 -3.40 l-0.07 -1.50 -0.35 0.52 c-0.20 0.29 -0.38 0.55 -0.42 0.58 -0.03 0.03 -0.17 0.21 -0.30 0.40 -0.13 0.19 -0.27 0.37 -0.30 0.40 -0.03 0.03 -0.25 0.32 -0.49 0.65 -0.25 0.33 -0.47 0.62 -0.50 0.65 -0.03 0.03 -0.12 0.13 -0.20 0.22 -0.13 0.17 -0.08 0.18 0.78 0.11 l0.91 -0.06 0 0.41 c0 0.54 -0.12 0.60 -1.52 0.71 l-1.13 0.09 -0.42 0.49 c-0.23 0.26 -0.37 0.49 -0.30 0.50 0.07 0.01 0.56 0.05 1.10 0.08 l0.97 0.07 0 0.33 c0 0.68 0.03 0.67 -1.59 0.59 l-1.47 -0.07 -0.27 0.29 c-0.72 0.77 -1.27 1.39 -1.27 1.44 0 0.03 0.47 0.04 1.05 0.02 l1.05 -0.03 0 0.45 c0 0.55 0.07 0.53 -1.82 0.62 l-1.38 0.06 -0.47 0.56 c-0.27 0.30 -0.57 0.65 -0.68 0.77 -0.11 0.11 -0.29 0.31 -0.40 0.44 l-0.19 0.22 0.24 -0.05 c0.14 -0.03 0.59 -0.10 1 -0.16z m-3.90 -2.65 c0.26 -0.44 0.64 -1.06 0.84 -1.39 0.21 -0.32 0.34 -0.57 0.30 -0.55 -0.05 0.02 -0.52 0.31 -1.05 0.63 l-0.96 0.60 -0.12 0.60 c-0.10 0.59 -0.31 2.19 -0.31 2.41 0 0.05 0.19 -0.26 0.41 -0.70 0.23 -0.44 0.63 -1.16 0.89 -1.60z m3.13 -0.17 c0.04 -0.43 0.05 -0.78 0.02 -0.78 -0.07 0 -0.53 1.05 -0.63 1.46 -0.25 1.01 -0.26 0.98 0.16 0.51 0.36 -0.39 0.40 -0.47 0.45 -1.19z m2.13 -1.63 c0.38 -0.44 0.71 -0.82 0.75 -0.85 0.35 -0.32 0.58 -0.82 0.63 -1.40 0.04 -0.36 0.12 -0.95 0.18 -1.32 l0.11 -0.68 0.44 0 0.43 0 0 0.66 0 0.66 0.37 -0.49 c0.20 -0.26 0.49 -0.64 0.64 -0.83 0.24 -0.31 0.29 -0.48 0.37 -1.40 0.06 -0.58 0.09 -1.06 0.08 -1.08 -0.02 -0.01 -0.23 0.14 -0.47 0.32 -0.36 0.29 -1.20 1.21 -1.89 2.10 -0.08 0.10 -0.29 0.35 -0.46 0.55 -0.17 0.20 -0.48 0.61 -0.69 0.91 -0.21 0.30 -0.41 0.57 -0.45 0.60 -0.03 0.03 -0.17 0.21 -0.30 0.40 -0.13 0.19 -0.27 0.37 -0.30 0.40 -0.03 0.03 -0.27 0.37 -0.53 0.75 -0.47 0.68 -0.47 0.70 -0.25 0.75 0.20 0.05 0.23 0.13 0.26 0.60 0.04 0.62 -0.08 0.69 1.08 -0.65z m-6.72 -1.08 c0.23 -0.97 0.21 -1.12 -0.24 -1.83 -0.31 -0.50 -0.40 -0.73 -0.40 -1.09 l0 -0.45 0.45 0 c0.42 0 0.47 0.03 0.59 0.31 l0.13 0.31 0.07 -0.52 c0.08 -0.57 0.03 -0.68 -0.56 -1.30 -0.18 -0.20 -0.51 -0.59 -0.73 -0.88 -0.21 -0.29 -0.41 -0.52 -0.42 -0.52 -0.11 0 -0.46 1.44 -0.63 2.60 -0.04 0.30 -0.11 0.67 -0.15 0.83 -0.06 0.23 -0.04 0.27 0.13 0.27 0.16 0 0.25 0.14 0.42 0.68 0.36 1.12 1.02 2.56 1.11 2.40 0.04 -0.07 0.15 -0.44 0.23 -0.81z m2.06 -0.17 c0.22 -0.26 1.06 -0.70 1.35 -0.70 0.31 0 0.37 -0.05 0.59 -0.47 0.31 -0.64 0.82 -2.30 0.96 -3.21 0.09 -0.55 0.09 -0.89 0 -1.40 -0.11 -0.62 -0.55 -1.91 -0.69 -2.02 -0.04 -0.03 -0.19 -0.26 -0.33 -0.51 -0.15 -0.25 -0.34 -0.51 -0.42 -0.59 -0.14 -0.11 -0.16 -0.09 -0.16 0.09 0 0.40 -0.67 1.66 -1.17 2.19 -0.07 0.07 -0.13 0.14 -0.13 0.15 -0.01 0.01 -0.05 0.47 -0.10 1.02 -0.06 0.55 -0.13 1.15 -0.16 1.33 l-0.06 0.33 0.76 -0.57 c0.42 -0.31 0.76 -0.60 0.76 -0.65 0 -0.05 0.06 -0.09 0.14 -0.09 0.08 0 0.17 -0.07 0.20 -0.16 0.04 -0.11 0.17 -0.14 0.48 -0.12 0.43 0.03 0.43 0.03 0.46 0.44 0.03 0.38 0 0.44 -0.43 0.80 -0.26 0.22 -0.52 0.44 -0.58 0.49 -0.07 0.06 -0.54 0.41 -1.04 0.79 -0.51 0.38 -0.95 0.76 -0.97 0.85 -0.03 0.09 -0.10 0.43 -0.16 0.76 -0.13 0.77 -0.29 1.55 -0.36 1.78 -0.04 0.14 0.05 0.11 0.48 -0.15 0.29 -0.17 0.55 -0.35 0.58 -0.38z m10.60 -6.12 c0.22 -0.32 0.38 -0.58 0.35 -0.58 -0.02 0 -0.48 0.21 -1.02 0.47 -0.90 0.43 -0.95 0.47 -0.65 0.51 0.30 0.03 0.32 0.05 0.32 0.45 l0.01 0.42 0.29 -0.35 c0.16 -0.19 0.48 -0.61 0.70 -0.92z m-11.97 -1.90 c-0.22 -0.29 -0.48 -0.66 -0.58 -0.81 -0.10 -0.15 -0.21 -0.24 -0.26 -0.20 -0.15 0.16 -0.60 1.66 -0.51 1.72 0.05 0.03 0.28 0.35 0.52 0.71 0.24 0.36 0.58 0.80 0.75 0.99 l0.30 0.33 0.09 -1.11 0.09 -1.11 -0.40 -0.52z m2.14 -1.26 l0.41 0.03 -0.51 -0.55 c-0.28 -0.30 -0.54 -0.59 -0.59 -0.64 -0.04 -0.06 -0.08 0.35 -0.07 0.90 l0.01 0.99 0.16 -0.38 c0.16 -0.37 0.19 -0.38 0.59 -0.35z m-1.87 -1.25 c-0.04 -0.43 -0.10 -0.80 -0.12 -0.83 -0.03 -0.02 -0.15 0.18 -0.26 0.46 -0.11 0.27 -0.17 0.50 -0.12 0.50 0.04 0 0.18 0.16 0.30 0.36 0.12 0.19 0.24 0.34 0.25 0.32 0.02 -0.02 0 -0.38 -0.05 -0.81z"/>
 </g>
 <g fill="#d89898">
  <path d="M27.30 28.73 c0 -0.13 0.49 -0.78 0.97 -1.29 0.21 -0.23 0.59 -0.66 0.85 -0.96 l0.48 -0.56 1.27 -0.08 c0.71 -0.04 1.37 -0.09 1.48 -0.09 0.40 -0.03 0.45 -0.05 0.45 -0.21 0 -0.15 -0.14 -0.16 -1.30 -0.09 -0.71 0.04 -1.30 0.04 -1.30 0 0 -0.07 0.83 -1.09 1.24 -1.52 0.12 -0.12 0.36 -0.37 0.54 -0.56 l0.33 -0.35 1.02 0.05 c0.56 0.03 1.04 0.10 1.05 0.14 0.02 0.05 0.19 0.09 0.38 0.09 0.34 0 0.34 0 0.34 0.45 l0 0.45 -0.40 0 c-0.39 0 -0.40 -0.01 -0.40 -0.35 0 -0.19 -0.04 -0.35 -0.10 -0.35 -0.05 0 -0.10 0.05 -0.10 0.10 0 0.06 -0.15 0.10 -0.32 0.10 -0.40 0.01 -0.68 0.20 -0.68 0.48 0 0.11 -0.05 0.22 -0.11 0.24 -0.20 0.07 0 0.68 0.22 0.68 0.10 0 0.19 0.05 0.19 0.10 0 0.06 0.11 0.10 0.25 0.10 0.20 0 0.25 -0.05 0.25 -0.25 0 -0.22 0.04 -0.25 0.35 -0.25 0.34 0 0.35 0.01 0.35 0.40 0 0.39 -0.01 0.40 -0.36 0.40 -0.29 0 -0.35 0.03 -0.30 0.16 0.03 0.09 0.06 0.22 0.06 0.30 0 0.08 0.10 0.14 0.25 0.14 0.16 0 0.25 0.06 0.25 0.15 0 0.17 -0.82 0.73 -1.56 1.06 -0.27 0.12 -0.56 0.25 -0.64 0.29 -0.26 0.12 -1.82 0.48 -2.80 0.64 -1.15 0.19 -1.79 0.32 -2.02 0.41 -0.10 0.04 -0.18 0.03 -0.18 -0.02z"/>
  <path d="M27.58 26.99 c-0.09 -1.24 0.23 -2.11 1.46 -3.94 0.94 -1.40 1.06 -1.55 1.23 -1.55 0.18 0 0.17 0.68 -0.01 0.86 -0.09 0.08 -0.12 0.22 -0.08 0.36 l0.07 0.23 0.03 -0.24 c0.02 -0.13 0.12 -0.26 0.23 -0.28 0.10 -0.03 0.21 -0.14 0.24 -0.24 0.04 -0.10 0.13 -0.19 0.21 -0.19 0.08 0 0.14 -0.09 0.14 -0.20 0 -0.16 0.07 -0.20 0.35 -0.20 0.30 0 0.36 0.04 0.44 0.33 0.05 0.17 0.10 0.24 0.10 0.15 0.01 -0.23 0.41 -0.24 0.41 -0.01 0 0.13 -0.39 0.75 -0.60 0.93 -0.03 0.03 -0.49 0.55 -1.01 1.15 -0.53 0.61 -1.06 1.19 -1.18 1.29 l-0.21 0.19 0 -0.81 c0 -0.44 -0.04 -0.83 -0.09 -0.87 -0.18 -0.11 -0.29 0.29 -0.36 1.30 l-0.07 1 -0.63 0.69 -0.62 0.70 -0.05 -0.65z"/>
  <path d="M23.98 26.75 c-0.05 -0.05 -0.01 -0.38 0.23 -1.76 0.11 -0.63 0.14 -0.68 0.51 -0.89 0.22 -0.12 0.93 -0.58 1.59 -1.01 0.87 -0.57 1.19 -0.84 1.19 -0.99 0 -0.26 -0.01 -0.26 -0.53 0.10 -0.72 0.48 -0.74 0.46 -0.79 -0.82 -0.03 -0.62 -0.03 -1.38 0 -1.70 0.04 -0.54 0.07 -0.58 0.51 -0.89 0.61 -0.44 0.77 -0.57 1.25 -1.01 0.34 -0.30 0.39 -0.39 0.28 -0.50 -0.11 -0.11 -0.16 -0.10 -0.26 0.05 -0.07 0.09 -0.18 0.17 -0.24 0.17 -0.06 0 -0.13 0.06 -0.15 0.13 -0.03 0.07 -0.06 0.05 -0.06 -0.05 -0.01 -0.14 -0.10 -0.18 -0.43 -0.18 -0.27 -0.01 -0.51 -0.08 -0.65 -0.19 -0.20 -0.17 -0.23 -0.29 -0.23 -0.95 0 -0.74 0.01 -0.76 0.25 -0.76 0.22 0 0.25 -0.04 0.25 -0.39 0 -0.22 -0.04 -0.41 -0.10 -0.43 -0.05 -0.01 0.04 -0.30 0.21 -0.62 0.26 -0.53 0.28 -0.61 0.14 -0.69 -0.09 -0.05 -0.17 -0.07 -0.18 -0.05 -0.01 0.01 -0.13 0.24 -0.26 0.51 -0.18 0.35 -0.29 0.47 -0.46 0.47 -0.22 0 -0.23 -0.03 -0.24 -1.15 -0.01 -0.64 -0.04 -1.22 -0.08 -1.30 -0.03 -0.08 0 -0.15 0.06 -0.15 0.06 0 0.11 -0.07 0.11 -0.15 0 -0.09 0.09 -0.15 0.23 -0.15 0.26 0 1.17 0.97 1.17 1.26 0 0.09 0.16 0.41 0.35 0.70 0.40 0.61 0.75 1.37 0.75 1.65 0 0.11 0.08 0.36 0.19 0.57 0.10 0.20 0.21 0.54 0.25 0.74 0.04 0.21 0.19 0.51 0.33 0.68 l0.26 0.31 -0.13 0.86 c-0.21 1.40 -1.11 3.90 -1.63 4.52 -0.15 0.18 -1.43 2.21 -2 3.17 -0.33 0.55 -0.41 0.62 -0.77 0.68 -0.22 0.03 -0.40 0.11 -0.40 0.16 0 0.10 -0.43 0.14 -0.52 0.05z"/>
  <path d="M22.76 24.90 c-0.45 -0.84 -0.46 -1.25 -0.04 -1.25 0.24 0 0.32 0.10 0.66 0.79 0.44 0.88 0.44 1.16 0.02 1.16 -0.24 0 -0.32 -0.09 -0.64 -0.70z"/>
  <path d="M23.71 24.21 c-0.15 -0.27 -0.14 -0.31 0.09 -0.31 0.13 0 0.20 0.07 0.20 0.19 0 0.28 -0.17 0.35 -0.29 0.12z"/>
  <path d="M23.05 22.87 c-0.18 -0.41 -0.45 -1.10 -0.60 -1.55 -0.26 -0.79 -0.40 -0.97 -0.51 -0.69 -0.05 0.13 0.50 1.90 0.66 2.12 0.04 0.06 0.12 0.25 0.18 0.43 0.10 0.30 0.10 0.32 -0.14 0.32 -0.13 0 -0.24 -0.04 -0.24 -0.10 0 -0.05 -0.07 -0.10 -0.15 -0.10 -0.33 0 -0.47 -0.72 -0.46 -2.38 0 -0.65 0.06 -1.39 0.14 -1.67 0.13 -0.48 0.15 -0.50 0.58 -0.58 0.24 -0.04 0.64 -0.05 0.88 -0.02 l0.44 0.07 -0.06 0.51 c-0.04 0.28 -0.03 0.55 0.02 0.61 0.11 0.13 0.15 2.51 0.06 3.24 -0.06 0.43 -0.10 0.52 -0.27 0.52 -0.14 0 -0.28 -0.19 -0.53 -0.73z"/>
  <path d="M32.83 22.62 c-0.09 -0.06 -0.04 -0.17 0.17 -0.42 l0.29 -0.34 0.20 0.25 c0.33 0.39 0.27 0.59 -0.16 0.59 -0.21 0 -0.43 -0.04 -0.50 -0.08z"/>
  <path d="M35.62 21.13 c0.02 -0.12 0.14 -0.19 0.36 -0.21 0.27 -0.03 0.32 0 0.32 0.17 0 0.17 -0.06 0.21 -0.36 0.21 -0.28 0 -0.35 -0.03 -0.32 -0.17z"/>
  <path d="M34.57 20.62 c-0.22 -0.05 -0.21 -0.11 0.09 -0.47 0.17 -0.19 0.28 -0.26 0.31 -0.17 0.03 0.07 0.22 0.12 0.46 0.12 0.57 0 0.87 0.09 0.87 0.26 0 0.08 -0.01 0.14 -0.02 0.15 -0.16 0.04 -1.58 0.13 -1.71 0.11z"/>
  <path d="M26.30 18.30 c0 -0.28 0.02 -0.30 0.40 -0.30 0.22 0 0.40 0.02 0.40 0.04 0 0.02 -0.18 0.15 -0.40 0.30 l-0.40 0.26 0 -0.30z"/>
  <path d="M22.75 17.91 c-0.03 -0.06 -0.17 -0.11 -0.31 -0.11 -0.28 0 -0.28 -0.06 -0.11 -0.75 0.13 -0.47 0.15 -0.50 0.49 -0.53 0.31 -0.03 0.37 0 0.40 0.19 0.04 0.26 0.28 0.39 0.28 0.15 0 -0.22 0.17 -0.20 0.30 0.03 0.05 0.11 0.17 0.27 0.26 0.35 0.14 0.15 0.14 0.16 -0.05 0.16 -0.14 0 -0.21 0.08 -0.23 0.28 -0.03 0.25 -0.07 0.27 -0.50 0.30 -0.25 0.02 -0.49 -0.02 -0.53 -0.07z"/>
  <path d="M22.73 16.18 c-0.10 -0.22 -0.05 -0.45 0.43 -2.03 0.37 -1.23 0.84 -2.21 0.84 -1.76 0 0.06 0.24 0.45 0.53 0.89 0.43 0.64 0.49 0.78 0.32 0.75 -0.16 -0.03 -0.24 0.06 -0.41 0.44 -0.11 0.26 -0.26 0.67 -0.33 0.89 -0.06 0.23 -0.18 0.48 -0.27 0.55 -0.14 0.12 -0.20 0.09 -0.40 -0.16 -0.13 -0.17 -0.24 -0.33 -0.24 -0.37 0 -0.05 -0.07 -0.08 -0.15 -0.08 -0.21 0 -0.19 0.18 0.10 0.68 l0.24 0.42 -0.28 0 c-0.19 0 -0.31 -0.07 -0.38 -0.22z"/>
  <path d="M24.82 13.03 l-0.53 -0.78 0.28 -0.03 c0.15 -0.02 0.29 0.01 0.31 0.07 0.02 0.06 0.15 0.11 0.28 0.11 0.23 0 0.24 0.03 0.24 0.70 0 0.39 -0.01 0.70 -0.03 0.70 -0.01 0 -0.26 -0.35 -0.55 -0.77z"/>
 </g>
 <g fill="#e1a9aa">
  <path d="M27.30 28.71 c0 -0.11 0.56 -0.87 0.69 -0.96 0.06 -0.03 0.11 0.01 0.11 0.09 0 0.09 0.05 0.16 0.11 0.16 0.05 0 0.07 0.05 0.04 0.10 -0.04 0.06 -0.10 0.08 -0.14 0.06 -0.04 -0.03 -0.15 0.08 -0.24 0.23 -0.15 0.26 -0.57 0.49 -0.57 0.32z"/>
  <path d="M27.36 27.43 c0.11 -0.83 0.27 -1.52 0.35 -1.47 0.04 0.02 0.11 0.21 0.15 0.40 0.04 0.20 0.13 0.38 0.20 0.41 0.08 0.03 0.14 0.10 0.14 0.15 0 0.12 -0.71 0.88 -0.81 0.88 -0.04 0 -0.06 -0.17 -0.03 -0.37z"/>
  <path d="M23.93 27.02 c0.03 -0.40 0.18 -0.63 0.50 -0.75 0.09 -0.03 0.17 -0.12 0.17 -0.18 0 -0.08 0.04 -0.08 0.15 0.01 0.13 0.10 0.19 0.08 0.36 -0.14 0.21 -0.27 0.49 -0.35 0.49 -0.13 0 0.06 -0.17 0.44 -0.38 0.82 l-0.37 0.70 -0.48 0.03 -0.48 0.03 0.04 -0.39z"/>
  <path d="M33.63 26.84 c-0.10 -0.09 -0.10 -0.20 -0.03 -0.40 0.06 -0.15 0.09 -0.28 0.08 -0.29 -0.02 -0.01 -0.17 -0.07 -0.34 -0.14 -0.17 -0.07 -0.36 -0.23 -0.42 -0.37 -0.07 -0.13 -0.20 -0.24 -0.29 -0.24 -0.14 0 -0.15 -0.02 -0.04 -0.09 0.09 -0.06 0.10 -0.14 0.03 -0.27 -0.11 -0.22 -0.04 -0.94 0.09 -0.94 0.05 0 0.09 -0.04 0.09 -0.10 0 -0.05 -0.07 -0.07 -0.15 -0.04 -0.08 0.04 -0.15 0.12 -0.15 0.19 0 0.08 -0.09 0.17 -0.20 0.20 -0.11 0.03 -0.20 0.10 -0.20 0.15 0 0.05 -0.10 0.14 -0.21 0.21 -0.18 0.09 -0.24 0.08 -0.33 -0.07 -0.10 -0.18 -0.17 -0.78 -0.07 -0.68 0.02 0.02 0.21 -0.14 0.41 -0.36 0.40 -0.44 0.69 -0.49 0.94 -0.15 0.13 0.18 0.14 0.18 0.27 -0.03 0.08 -0.12 0.22 -0.22 0.32 -0.22 0.10 0 0.15 0.05 0.12 0.10 -0.03 0.06 0.01 0.10 0.09 0.10 0.09 0 0.13 -0.06 0.10 -0.14 -0.05 -0.12 0.07 -0.14 0.67 -0.10 0.69 0.04 0.88 -0.02 0.89 -0.27 0 -0.04 -0.42 -0.10 -0.92 -0.14 -1.38 -0.11 -1.56 -0.34 -0.88 -1.16 0.45 -0.52 0.50 -0.54 1.96 -0.63 0.72 -0.04 1.14 -0.18 1.14 -0.38 0 -0.07 -0.16 -0.09 -0.45 -0.06 -0.25 0.03 -0.45 0.02 -0.45 -0.03 0 -0.05 -0.09 -0.09 -0.20 -0.09 -0.11 0 -0.20 0.06 -0.20 0.13 0 0.08 -0.04 0.07 -0.10 -0.03 -0.08 -0.12 -0.12 -0.12 -0.18 -0.02 -0.11 0.17 -0.50 0.24 -0.58 0.10 -0.04 -0.06 0 -0.16 0.09 -0.23 0.10 -0.07 0.17 -0.16 0.17 -0.21 0 -0.05 0.10 -0.20 0.23 -0.34 0.13 -0.14 0.43 -0.52 0.67 -0.85 0.25 -0.33 0.47 -0.62 0.50 -0.65 0.03 -0.03 0.17 -0.21 0.30 -0.40 0.13 -0.19 0.27 -0.37 0.30 -0.40 0.03 -0.03 0.16 -0.20 0.29 -0.38 0.18 -0.26 0.29 -0.32 0.50 -0.30 0.23 0.03 0.26 0.08 0.29 0.46 0.02 0.31 -0.01 0.44 -0.12 0.48 -0.09 0.03 -0.16 0.15 -0.16 0.25 0 0.11 -0.07 0.22 -0.15 0.25 -0.24 0.10 -0.17 0.22 0.13 0.26 0.19 0.02 0.28 0.09 0.30 0.26 0.02 0.14 0.10 0.22 0.23 0.22 0.16 0 0.19 0.07 0.19 0.53 0 0.54 -0.21 1.83 -0.41 2.52 -0.14 0.49 -0.70 1.65 -1.01 2.08 -0.41 0.58 -0.52 0.71 -1.23 1.42 -0.84 0.84 -1.32 1.20 -1.37 1.03 -0.02 -0.06 -0.12 -0.09 -0.21 -0.05 -0.09 0.03 -0.14 0.13 -0.11 0.21 0.07 0.19 -0.08 0.27 -0.23 0.10z m1.17 -3.09 c0 -0.08 -0.04 -0.15 -0.10 -0.15 -0.05 0 -0.10 0.07 -0.10 0.15 0 0.08 0.05 0.15 0.10 0.15 0.06 0 0.10 -0.07 0.10 -0.15z m1.78 -1.57 c0.03 -0.34 0.02 -0.36 -0.42 -0.47 -0.62 -0.15 -0.63 -0.15 -0.68 0.19 -0.04 0.29 -0.03 0.30 0.33 0.30 0.29 0 0.39 0.05 0.44 0.21 0.10 0.31 0.30 0.17 0.33 -0.23z"/>
  <path d="M23.18 25.63 c-0.71 -1.16 -1.19 -2.21 -1.20 -2.65 -0.01 -0.24 -0.06 -0.46 -0.11 -0.49 -0.17 -0.12 0.02 -0.26 0.27 -0.22 0.27 0.06 0.43 0.32 0.25 0.44 -0.14 0.08 -0.03 0.29 0.15 0.29 0.10 0 0.26 0.25 0.54 0.83 0.02 0.04 -0.04 0.07 -0.12 0.07 -0.09 0 -0.19 0.06 -0.22 0.14 -0.07 0.17 0.65 1.26 0.83 1.26 0.15 0 0.18 0.57 0.05 0.78 -0.06 0.09 -0.19 -0.05 -0.44 -0.45z"/>
  <path d="M27.83 25.93 c-0.09 -0.19 -0.09 -0.22 0 -0.15 0.07 0.06 0.16 0.10 0.22 0.10 0.15 0.01 0.17 0.19 0.03 0.25 -0.08 0.02 -0.19 -0.06 -0.25 -0.20z"/>
  <path d="M24.70 25.80 c0 -0.05 0.07 -0.10 0.15 -0.10 0.08 0 0.15 0.05 0.15 0.10 0 0.06 -0.07 0.10 -0.15 0.10 -0.08 0 -0.15 -0.04 -0.15 -0.10z"/>
  <path d="M26.03 24.93 c-0.07 -0.03 -0.13 -0.17 -0.13 -0.33 0 -0.20 0.06 -0.29 0.23 -0.34 0.33 -0.09 0.37 -0.08 0.37 0.12 -0.01 0.23 -0.32 0.61 -0.47 0.55z"/>
  <path d="M29.72 23.64 c-0.07 -0.14 -0.08 -0.23 -0.03 -0.20 0.05 0.03 0.12 -0.01 0.15 -0.10 0.08 -0.20 -0.03 -0.82 -0.15 -0.90 -0.05 -0.03 0.03 -0.16 0.17 -0.29 0.14 -0.13 0.23 -0.29 0.19 -0.35 -0.05 -0.09 0.26 -0.65 0.45 -0.80 0.04 -0.03 0.24 -0.30 0.45 -0.60 0.21 -0.30 0.53 -0.71 0.70 -0.91 0.18 -0.20 0.36 -0.43 0.41 -0.51 0.05 -0.09 0.32 -0.27 0.59 -0.41 0.28 -0.14 0.62 -0.36 0.76 -0.49 0.29 -0.25 0.44 -0.58 0.28 -0.58 -0.22 0 -0.03 -0.42 0.26 -0.58 0.17 -0.09 0.32 -0.20 0.33 -0.24 0.02 -0.05 0.21 -0.08 0.43 -0.08 0.36 0 0.40 -0.03 0.46 -0.31 0.04 -0.24 0.15 -0.35 0.44 -0.48 0.42 -0.19 1.09 -0.16 1.09 0.04 0 0.07 0.11 0.16 0.25 0.19 0.23 0.06 0.24 0.08 0.13 0.30 -0.17 0.32 -1.61 2.15 -1.70 2.16 -0.03 0 -0.04 -0.37 -0.01 -0.81 0.05 -0.67 0.04 -0.81 -0.08 -0.77 -0.16 0.05 -0.26 0.51 -0.34 1.59 -0.06 0.72 -0.09 0.78 -0.58 1.41 -0.29 0.36 -0.63 0.80 -0.77 0.98 -0.69 0.91 -0.78 0.91 -0.69 0.03 0.12 -1.03 0.11 -1.33 -0.04 -1.33 -0.14 0 -0.29 0.68 -0.43 1.95 -0.06 0.60 -0.34 1.31 -0.41 1.08 -0.03 -0.07 -0.12 -0.13 -0.21 -0.12 -0.11 0 -0.12 0.02 -0.04 0.06 0.06 0.02 0.12 0.14 0.12 0.25 0 0.14 -0.05 0.18 -0.16 0.14 -0.09 -0.03 -0.18 -0.06 -0.20 -0.06 -0.02 0 -0.04 -0.11 -0.04 -0.25 0 -0.29 -0.28 -0.45 -0.40 -0.24 -0.11 0.17 -0.02 0.32 0.17 0.25 0.08 -0.03 0.11 -0.01 0.08 0.05 -0.04 0.05 -0.21 0.09 -0.38 0.07 -0.27 -0.02 -0.33 0.01 -0.35 0.20 -0.02 0.12 -0.08 0.22 -0.13 0.22 -0.05 0 -0.19 0.16 -0.30 0.35 -0.25 0.42 -0.32 0.43 -0.47 0.09z"/>
  <path d="M23.51 21.73 c0 -0.10 0.04 -0.27 0.09 -0.38 0.07 -0.16 0.09 -0.13 0.09 0.18 0.01 0.20 -0.03 0.37 -0.09 0.37 -0.05 0 -0.10 -0.08 -0.09 -0.17z"/>
  <path d="M28.20 20.56 c0 -0.08 0.05 -0.18 0.11 -0.21 0.06 -0.04 0.08 -0.13 0.05 -0.20 -0.04 -0.12 0.39 -0.43 0.48 -0.34 0.03 0.03 0 0.24 -0.06 0.47 -0.09 0.35 -0.15 0.42 -0.34 0.42 -0.14 0 -0.24 -0.06 -0.24 -0.14z"/>
  <path d="M28.88 17.33 c-0.21 -0.25 -0.52 -0.92 -0.45 -1 0.03 -0.03 -0.03 -0.23 -0.13 -0.44 -0.11 -0.21 -0.20 -0.47 -0.20 -0.58 0 -0.50 -0.97 -2.20 -1.13 -1.98 -0.05 0.07 -0.06 -0.05 -0.03 -0.29 0.04 -0.32 0.02 -0.45 -0.11 -0.55 -0.09 -0.08 -0.22 -0.29 -0.30 -0.46 -0.15 -0.37 -0.33 -0.44 -0.33 -0.12 0 0.11 -0.04 0.17 -0.10 0.14 -0.05 -0.03 -0.10 0.01 -0.10 0.09 0 0.09 -0.04 0.16 -0.09 0.16 -0.11 0 -0.21 -0.50 -0.21 -1.01 0 -0.31 0.04 -0.39 0.18 -0.39 0.10 0 0.25 0.12 0.34 0.28 0.09 0.15 0.49 0.63 0.88 1.06 0.39 0.44 0.83 1.01 0.98 1.28 0.15 0.26 0.30 0.48 0.35 0.48 0.04 0 0.07 0.07 0.07 0.15 0 0.19 0.30 0.85 0.50 1.09 0.08 0.10 0.18 0.48 0.22 0.85 0.04 0.36 0.10 0.83 0.14 1.04 0.05 0.32 0.04 0.37 -0.13 0.37 -0.11 0 -0.27 -0.08 -0.35 -0.17z"/>
  <path d="M28.22 16.98 c-0.14 -0.14 -0.16 -0.42 -0.03 -0.34 0.07 0.05 0.23 0.46 0.17 0.46 -0.01 0 -0.07 -0.05 -0.14 -0.12z"/>
  <path d="M23.71 12.70 c0 -0.08 0.17 -0.55 0.37 -1.04 0.37 -0.88 0.62 -1.19 0.62 -0.77 0 0.16 0.06 0.21 0.29 0.21 0.28 0 0.28 0.01 0.35 0.76 0.04 0.42 0.05 0.78 0.03 0.81 -0.03 0.02 -0.19 0.05 -0.36 0.05 -0.22 0.01 -0.38 -0.07 -0.54 -0.25 -0.27 -0.32 -0.52 -0.36 -0.44 -0.07 0.03 0.13 0 0.20 -0.08 0.20 -0.07 0 -0.16 0.06 -0.18 0.13 -0.04 0.08 -0.06 0.07 -0.06 -0.03z"/>
 </g>
 <g fill="#d58685">
  <path d="M30.67 28.04 c0.03 -0.08 0.11 -0.14 0.19 -0.14 0.21 0 0.17 0.17 -0.05 0.23 -0.14 0.03 -0.18 0.01 -0.14 -0.09z"/>
  <path d="M28.79 27.27 c-0.01 -0.09 -0.02 -0.22 -0.03 -0.29 -0.01 -0.06 0.07 -0.12 0.17 -0.14 0.21 -0.03 0.22 0.14 0.02 0.40 -0.13 0.18 -0.15 0.18 -0.16 0.03z"/>
  <path d="M31 27.22 c0 -0.14 0.24 -0.32 0.43 -0.32 0.13 0 0.17 -0.05 0.13 -0.15 -0.08 -0.22 0.12 -0.18 0.24 0.05 0.10 0.18 0.07 0.22 -0.24 0.35 -0.40 0.17 -0.56 0.19 -0.56 0.07z"/>
  <path d="M31.80 26.51 c0 -0.17 0.12 -0.41 0.21 -0.41 0.05 0 0.09 0.11 0.09 0.25 0 0.16 -0.06 0.25 -0.15 0.25 -0.08 0 -0.15 -0.04 -0.15 -0.09z"/>
  <path d="M29.40 25.35 c0 -0.08 0.08 -0.15 0.18 -0.15 0.10 0 0.24 -0.06 0.32 -0.12 0.08 -0.07 0.04 -0.01 -0.09 0.15 -0.27 0.30 -0.41 0.34 -0.41 0.12z"/>
  <path d="M30.20 25.41 c0 -0.17 0.18 -0.21 0.24 -0.06 0.03 0.09 0 0.15 -0.09 0.15 -0.08 0 -0.15 -0.04 -0.15 -0.09z"/>
  <path d="M24.30 24.55 c0 -0.07 0.39 -0.45 0.45 -0.45 0.03 0 0.18 -0.08 0.33 -0.19 1.45 -0.99 2.05 -1.34 2.38 -1.38 0.34 -0.05 0.37 -0.04 0.25 0.11 -0.07 0.09 -0.22 0.16 -0.32 0.16 -0.25 0 -0.99 0.30 -0.99 0.40 0 0.05 0.04 0.11 0.10 0.15 0.06 0.03 0.05 0.15 -0.02 0.31 -0.08 0.17 -0.15 0.21 -0.22 0.14 -0.17 -0.17 -0.30 -0.11 -0.50 0.23 -0.11 0.18 -0.21 0.27 -0.23 0.20 -0.06 -0.16 -0.33 -0.17 -0.33 -0.02 0 0.05 -0.16 0.17 -0.35 0.25 -0.35 0.14 -0.55 0.18 -0.55 0.09z"/>
  <path d="M23.72 24.18 c-0.05 -0.07 -0.19 -0.32 -0.31 -0.55 -0.16 -0.33 -0.18 -0.41 -0.06 -0.37 0.12 0.05 0.15 -0.02 0.15 -0.34 0 -0.23 0.05 -0.53 0.12 -0.67 0.08 -0.19 0.09 -0.28 0.01 -0.33 -0.06 -0.04 -0.10 -0.39 -0.08 -0.87 0.03 -1.10 -0.03 -1.37 -0.26 -1.30 -0.19 0.06 -0.24 -0.12 -0.20 -0.70 0.01 -0.15 -0.01 -0.16 -0.07 -0.07 -0.06 0.08 -0.18 0.11 -0.34 0.07 -0.15 -0.04 -0.29 -0.02 -0.32 0.04 -0.15 0.24 -0.36 0.11 -0.35 -0.21 0.01 -0.60 0.23 -1.45 0.37 -1.41 0.06 0.03 0.12 0 0.12 -0.06 0 -0.17 0.19 -0.13 0.43 0.09 0.24 0.23 0.52 0.23 0.52 0 0 -0.08 -0.06 -0.14 -0.14 -0.12 -0.19 0.04 -0.41 -0.17 -0.41 -0.39 0 -0.26 -0.19 -0.24 -0.29 0.04 -0.08 0.20 -0.10 0.20 -0.16 0.04 -0.09 -0.22 0.20 -1.27 0.37 -1.38 0.08 -0.05 0.16 -0.01 0.21 0.13 0.04 0.12 0.23 0.41 0.42 0.64 0.19 0.23 0.35 0.45 0.35 0.48 0 0.03 0.19 0.24 0.41 0.48 0.89 0.93 0.93 1 0.81 1.70 -0.06 0.35 -0.14 0.80 -0.17 1.01 -0.03 0.20 -0.10 0.37 -0.15 0.37 -0.06 0 -0.10 -0.04 -0.10 -0.08 0 -0.05 -0.08 -0.17 -0.18 -0.28 -0.09 -0.10 -0.23 -0.31 -0.29 -0.46 -0.13 -0.30 -0.43 -0.38 -0.43 -0.13 0 0.08 0.22 0.51 0.49 0.94 0.45 0.71 0.49 0.82 0.41 1.12 -0.05 0.19 -0.21 0.87 -0.36 1.52 -0.15 0.64 -0.31 1.17 -0.35 1.17 -0.03 0 -0.11 -0.06 -0.17 -0.12z"/>
  <path d="M24.55 23.43 c0.15 -0.62 0.46 -2.12 0.56 -2.73 0.06 -0.36 0.14 -0.71 0.18 -0.78 0.10 -0.19 1.63 -1.33 1.70 -1.27 0.02 0.03 -0.08 0.18 -0.23 0.34 -0.20 0.21 -0.26 0.35 -0.21 0.50 0.03 0.11 0.02 0.36 -0.04 0.56 -0.05 0.19 -0.06 0.35 -0.01 0.35 0.13 0 0.21 0.31 0.11 0.44 -0.11 0.15 -0.08 0.53 0.07 0.68 0.17 0.17 0.15 0.29 -0.05 0.44 -0.16 0.12 -0.16 0.15 -0.03 0.23 0.13 0.09 0.12 0.13 -0.05 0.28 -0.22 0.21 -1.89 1.23 -2 1.23 -0.04 0 -0.04 -0.12 0 -0.27z"/>
  <path d="M27.26 21.74 c-0.04 -0.10 -0.01 -0.14 0.06 -0.12 0.15 0.05 0.23 0.28 0.10 0.28 -0.05 0 -0.13 -0.07 -0.16 -0.16z"/>
  <path d="M25.47 18.53 c0.03 -0.38 0.09 -0.84 0.14 -1.03 0.05 -0.19 0.09 -0.60 0.09 -0.90 0 -0.59 0.12 -1.11 0.29 -1.32 0.06 -0.07 0.25 -0.32 0.41 -0.55 0.39 -0.55 0.59 -0.49 0.62 0.18 0.01 0.27 0.02 0.57 0.02 0.67 0.01 0.11 -0.08 0.18 -0.26 0.20 -0.29 0.03 -0.35 0.20 -0.19 0.51 0.05 0.09 0.06 0.23 0.01 0.31 -0.06 0.09 -0.01 0.19 0.15 0.32 0.43 0.33 0.73 0.17 0.52 -0.30 -0.12 -0.27 0 -0.43 0.16 -0.21 0.07 0.09 0.22 0.14 0.38 0.12 0.30 -0.04 0.46 0.11 0.53 0.49 0.03 0.20 0.01 0.25 -0.12 0.21 -0.10 -0.02 -0.35 0.13 -0.59 0.36 -0.23 0.22 -0.59 0.52 -0.80 0.66 -0.21 0.14 -0.58 0.41 -0.83 0.60 -0.25 0.19 -0.48 0.35 -0.51 0.35 -0.04 0 -0.05 -0.30 -0.02 -0.67z"/>
  <path d="M27.15 18.79 c-0.06 -0.19 0.01 -0.31 0.46 -0.71 0.30 -0.26 0.57 -0.48 0.60 -0.48 0.03 0 0.16 0.11 0.28 0.24 l0.22 0.23 -0.23 -0.01 c-0.27 -0.02 -0.38 0.10 -0.38 0.40 0 0.23 -0.25 0.40 -0.35 0.24 -0.10 -0.17 -0.36 -0.11 -0.33 0.06 0.05 0.26 -0.19 0.28 -0.27 0.03z"/>
  <path d="M24.87 17.60 c-0.08 -0.11 -0.30 -0.37 -0.49 -0.58 -0.18 -0.20 -0.48 -0.57 -0.65 -0.82 l-0.31 -0.45 0.20 -0.24 c0.10 -0.14 0.17 -0.30 0.14 -0.38 -0.03 -0.07 -0.01 -0.13 0.04 -0.13 0.06 0 0.10 -0.08 0.10 -0.17 0 -0.23 0.41 -1.06 0.59 -1.19 0.12 -0.09 0.22 -0.03 0.54 0.35 l0.39 0.46 -0.06 1.37 c-0.09 1.95 -0.17 2.24 -0.49 1.78z"/>
  <path d="M25.82 14.33 c0.02 -0.40 0.06 -0.49 0.18 -0.46 0.08 0.03 0.21 0.07 0.28 0.09 0.10 0.03 0.09 0.11 -0.05 0.35 -0.34 0.57 -0.44 0.58 -0.41 0.02z"/>
  <path d="M23.08 14.44 c0.04 -0.22 0.06 -0.24 0.14 -0.10 0.09 0.16 0.03 0.36 -0.11 0.36 -0.05 0 -0.06 -0.12 -0.03 -0.26z"/>
 </g>
 <g fill="#e8bdbb">
  <path d="M23.63 29.40 c0.03 -0.14 0.08 -0.45 0.12 -0.70 0.03 -0.25 0.08 -0.54 0.10 -0.65 0.02 -0.11 0.04 -0.42 0.04 -0.70 0.01 -0.38 0.04 -0.46 0.13 -0.37 0.16 0.16 0.43 0.15 0.57 -0.02 0.06 -0.08 0.23 -0.16 0.36 -0.18 0.23 -0.05 0.20 0.03 -0.41 1.20 -0.36 0.69 -0.72 1.35 -0.81 1.46 -0.15 0.21 -0.15 0.21 -0.10 -0.04z"/>
  <path d="M22.66 24.71 c-0.21 -0.40 -0.35 -0.75 -0.33 -0.78 0.07 -0.07 0.78 1.28 0.74 1.41 -0.02 0.06 -0.21 -0.22 -0.41 -0.63z"/>
  <path d="M36.38 24.13 c-0.16 -0.02 -0.28 -0.11 -0.28 -0.18 0 -0.18 0.17 -0.28 0.25 -0.15 0.03 0.05 0.15 0.10 0.26 0.10 0.10 0 0.19 0.07 0.19 0.15 0 0.08 -0.03 0.14 -0.07 0.14 -0.05 -0.01 -0.20 -0.04 -0.35 -0.06z"/>
  <path d="M36.90 23.83 c0 -0.07 -0.06 -0.13 -0.14 -0.13 -0.08 0 -0.14 -0.08 -0.13 -0.19 0.01 -0.16 0.04 -0.17 0.22 -0.07 0.11 0.06 0.22 0.12 0.23 0.13 0.02 0.01 -0.01 0.10 -0.07 0.20 -0.06 0.10 -0.11 0.12 -0.11 0.06z"/>
  <path d="M35.92 23.39 c0.10 -0.22 0.23 -0.37 0.28 -0.34 0.11 0.07 0.02 0.35 -0.11 0.35 -0.05 0 -0.09 0.06 -0.09 0.14 0 0.08 -0.06 0.16 -0.14 0.19 -0.10 0.04 -0.08 -0.05 0.06 -0.34z"/>
  <path d="M36.30 23.01 c-0.08 -0.06 -0.17 -0.08 -0.21 -0.05 -0.04 0.02 -0.10 -0.07 -0.13 -0.21 -0.06 -0.22 -0.12 -0.25 -0.39 -0.23 -0.40 0.02 -0.57 -0.07 -0.57 -0.32 0 -0.10 -0.07 -0.25 -0.15 -0.34 -0.24 -0.24 -0.18 -0.39 0.26 -0.64 0.36 -0.21 0.43 -0.22 0.57 -0.09 0.10 0.08 0.41 0.20 0.70 0.27 0.50 0.12 0.52 0.13 0.52 0.45 0 0.19 0.04 0.36 0.09 0.39 0.10 0.07 0.24 -0.22 0.16 -0.34 -0.03 -0.05 0.02 -0.27 0.11 -0.49 0.09 -0.23 0.14 -0.47 0.11 -0.55 -0.03 -0.07 0 -0.19 0.06 -0.26 0.09 -0.10 0.09 -0.14 0 -0.17 -0.17 -0.06 -0.17 -0.48 0 -0.61 0.21 -0.18 0.39 0.02 0.35 0.39 -0.02 0.19 -0.06 0.36 -0.09 0.39 -0.03 0.03 -0.09 0.17 -0.13 0.33 -0.05 0.22 -0.03 0.27 0.13 0.27 0.10 0 0.21 0.06 0.23 0.13 0.08 0.21 -0.17 0.80 -0.38 0.88 -0.10 0.04 -0.13 0.08 -0.06 0.08 0.15 0.01 0.15 0.22 0.01 0.55 -0.10 0.22 -0.14 0.23 -0.26 0.10 -0.19 -0.18 -0.42 -0.18 -0.49 0.01 -0.07 0.17 -0.22 0.19 -0.44 0.06z m1.50 -1.31 c0 -0.05 -0.07 -0.10 -0.15 -0.10 -0.08 0 -0.15 0.05 -0.15 0.10 0 0.06 0.07 0.10 0.15 0.10 0.08 0 0.15 -0.04 0.15 -0.10z"/>
  <path d="M30.83 21.53 c-0.17 -0.06 -0.16 -0.33 0.01 -0.33 0.07 0 0.16 -0.10 0.20 -0.22 0.09 -0.34 0.07 -0.50 -0.04 -0.43 -0.17 0.11 -0.11 -0.11 0.12 -0.41 0.43 -0.57 0.86 -1.02 0.92 -0.96 0.03 0.03 0.06 -0.04 0.06 -0.15 0 -0.12 0.03 -0.23 0.08 -0.25 0.04 -0.01 0.36 -0.38 0.72 -0.81 0.86 -1.03 1.87 -1.78 3.18 -2.37 1.53 -0.67 1.92 -0.81 1.92 -0.69 0 0.05 -0.24 0.45 -0.53 0.88 -0.43 0.63 -0.55 0.75 -0.65 0.64 -0.18 -0.18 -0.30 -0.16 -0.42 0.07 -0.11 0.20 -0.12 0.20 -0.35 -0.09 -0.14 -0.16 -0.25 -0.34 -0.25 -0.41 0 -0.23 -0.25 -0.03 -0.26 0.21 -0.01 0.50 -0.14 0.69 -0.45 0.69 -0.16 0 -0.31 -0.01 -0.34 -0.02 -0.05 -0.03 -0.75 1.10 -0.75 1.20 0 0.11 -0.54 0.53 -0.92 0.73 -0.21 0.11 -0.38 0.24 -0.38 0.29 0 0.06 -0.07 0.10 -0.15 0.10 -0.08 0 -0.15 0.08 -0.15 0.18 0 0.14 0.02 0.15 0.10 0.02 0.08 -0.13 0.11 -0.13 0.27 0.03 0.11 0.10 0.13 0.17 0.05 0.17 -0.07 0 -0.12 0.11 -0.12 0.25 0 0.22 -0.03 0.23 -0.24 0.15 -0.29 -0.11 -0.46 0.04 -0.46 0.41 0 0.19 -0.14 0.43 -0.43 0.73 -0.42 0.45 -0.50 0.49 -0.74 0.39z m0.86 -1.52 c0.09 -0.06 0.10 -0.11 0.02 -0.15 -0.13 -0.08 -0.31 0.01 -0.31 0.15 0 0.11 0.11 0.11 0.29 0z"/>
  <path d="M30.45 21.21 c-0.03 -0.06 0.01 -0.18 0.10 -0.27 0.21 -0.21 0.25 -0.15 0.09 0.14 -0.07 0.15 -0.14 0.20 -0.19 0.13z"/>
  <path d="M36.70 19.62 c0 -0.08 -0.07 -0.20 -0.15 -0.28 -0.16 -0.17 -0.21 -0.99 -0.06 -0.89 0.06 0.03 0.16 -0.02 0.23 -0.10 0.07 -0.09 0.21 -0.24 0.31 -0.33 0.09 -0.09 0.17 -0.23 0.17 -0.31 0 -0.07 0.07 -0.19 0.17 -0.26 0.18 -0.13 0.10 -0.35 -0.12 -0.35 -0.09 0 -0.12 0.06 -0.08 0.17 0.04 0.11 0.03 0.14 -0.05 0.09 -0.07 -0.04 -0.12 -0.13 -0.12 -0.19 0 -0.09 0.96 -1.47 1.13 -1.64 0.02 -0.02 0.01 3.68 -0.01 3.83 -0.03 0.18 -0.52 0.27 -0.69 0.12 -0.24 -0.19 -0.42 -0.18 -0.58 0.05 -0.08 0.12 -0.15 0.16 -0.15 0.09z"/>
  <path d="M35.41 17.65 c-0.01 -0.21 0.15 -0.52 0.23 -0.45 0.02 0.03 -0.02 0.19 -0.09 0.35 -0.10 0.23 -0.14 0.25 -0.14 0.10z"/>
  <path d="M29.32 17.38 c-0.01 -0.10 -0.08 -0.18 -0.16 -0.18 -0.21 0 -0.38 -0.53 -0.31 -0.94 0.06 -0.27 0.03 -0.43 -0.11 -0.64 -0.25 -0.36 -0.54 -1.01 -0.54 -1.18 0 -0.08 -0.03 -0.14 -0.08 -0.14 -0.04 0 -0.19 -0.21 -0.32 -0.47 -0.14 -0.27 -0.36 -0.65 -0.49 -0.86 -0.16 -0.25 -0.21 -0.41 -0.14 -0.48 0.11 -0.11 0.78 0.63 1.15 1.27 0.12 0.22 0.25 0.41 0.29 0.44 0.03 0.03 0.18 0.34 0.32 0.70 0.30 0.75 0.50 1.82 0.44 2.31 -0.02 0.19 -0.05 0.26 -0.05 0.17z"/>
  <path d="M24 11.82 c0 -0.04 0.07 -0.17 0.15 -0.28 0.08 -0.12 0.21 -0.39 0.28 -0.60 0.58 -1.57 0.55 -1.50 0.61 -1.24 0.09 0.42 0.26 1.43 0.26 1.57 0 0.07 -0.08 0.13 -0.17 0.14 -0.15 0 -0.15 0.02 0.02 0.09 0.19 0.08 0.19 0.09 -0.02 0.09 -0.13 0.01 -0.23 0.06 -0.23 0.11 0 0.16 -0.32 0.11 -0.46 -0.07 -0.13 -0.17 -0.14 -0.17 -0.20 0.05 -0.06 0.20 -0.24 0.32 -0.24 0.14z"/>
  <path d="M26 11.36 c-0.07 -0.09 -0.16 -0.14 -0.20 -0.11 -0.08 0.05 -0.25 -0.73 -0.18 -0.81 0.03 -0.02 0.19 0.17 0.38 0.42 0.21 0.29 0.29 0.49 0.23 0.55 -0.06 0.06 -0.14 0.04 -0.23 -0.05z"/>
 </g>
</svg>