<?xml version="1.0" encoding="utf-8"?>
<!DOCTYPE svg PUBLIC "-//W3C//DTD SVG 1.0//EN" "http://www.w3.org/TR/2001/REC-SVG-20010904/DTD/svg10.dtd">
<svg version="1.0" xmlns="http://www.w3.org/2000/svg" width="30px" height="30px" viewBox="0 0 30 30" preserveAspectRatio="xMidYMid meet">
 <g fill="#040200">
  <path d="M15.37 18.09 c0.71 -0.76 0.75 -0.82 0.86 -1.53 0.26 -1.60 0.52 -2.15 1.85 -3.90 1.94 -2.54 2.35 -2.92 4.01 -3.67 1.09 -0.49 1.08 -0.49 1.24 -0.62 0.17 -0.15 0.17 -0.13 -0.05 0.33 -0.23 0.52 -0.26 0.74 -0.27 2.45 0 0.81 -0.02 1.51 -0.04 1.56 -0.02 0.05 -0.05 0.20 -0.08 0.33 -0.13 0.67 -0.75 1.69 -1.44 2.38 -0.88 0.88 -2.15 1.51 -3.31 1.63 -0.43 0.05 -0.93 0.15 -1.58 0.33 -0.25 0.07 -0.47 0.13 -0.50 0.13 -0.03 0 -0.30 0.23 -0.60 0.53 l-0.55 0.52 0.46 -0.48z m2.24 -1.29 c0.26 -0.04 0.56 -0.09 0.66 -0.11 0.10 -0.02 0.28 -0.02 0.40 0.01 0.32 0.08 1.24 -0.22 1.79 -0.59 0.49 -0.33 1.07 -0.86 0.94 -0.86 -0.15 0 -0.11 -0.19 0.09 -0.42 0.29 -0.33 0.50 -0.65 0.73 -1.11 0.42 -0.84 0.55 -1.57 0.49 -2.80 l-0.04 -0.89 -0.21 0.31 c-0.12 0.17 -0.23 0.33 -0.25 0.35 -0.02 0.02 -0.10 0.13 -0.18 0.24 -0.08 0.11 -0.16 0.22 -0.18 0.24 -0.02 0.02 -0.15 0.19 -0.29 0.39 -0.15 0.20 -0.28 0.37 -0.30 0.39 -0.02 0.02 -0.07 0.08 -0.12 0.14 -0.08 0.10 -0.06 0.11 0.46 0.07 l0.55 -0.04 0 0.25 c0 0.32 -0.07 0.36 -0.90 0.43 -0.55 0.05 -0.70 0.08 -0.80 0.18 -0.16 0.15 -0.28 0.16 -0.28 0.02 0 -0.08 -0.01 -0.08 -0.13 0.02 -0.11 0.10 -0.11 0.11 -0.02 0.13 0.07 0.02 0.10 0.07 0.08 0.16 -0.03 0.13 -0.01 0.13 0.57 0.17 0.33 0.02 0.62 0.05 0.65 0.07 0.06 0.04 0.07 0.33 0.02 0.47 -0.05 0.13 -0.80 0.14 -0.80 0.01 0 -0.05 0.05 -0.10 0.11 -0.11 0.09 -0.02 -0.26 -0.07 -0.99 -0.13 -0.25 -0.02 -0.27 -0.01 -0.67 0.41 -0.23 0.23 -0.48 0.51 -0.56 0.61 -0.07 0.10 -0.19 0.23 -0.24 0.30 -0.06 0.06 -0.10 0.14 -0.09 0.18 0.02 0.07 0.58 0.08 1.14 0.01 0.34 -0.04 0.40 -0.04 0.40 0.04 0 0.07 -0.17 0.10 -0.91 0.13 -0.82 0.04 -0.93 0.05 -1.06 0.17 -0.08 0.07 -0.17 0.17 -0.20 0.23 -0.04 0.08 -0.03 0.09 0.06 0.07 0.21 -0.05 0.07 0.25 -0.30 0.64 -0.26 0.28 -0.32 0.37 -0.22 0.34 0.07 -0.02 0.35 -0.07 0.61 -0.10z m-0.57 -1.04 c0.10 -0.05 0.18 -0.06 0.18 -0.02 0 0.03 0.04 0.05 0.08 0.03 0.04 -0.01 0.07 -0.05 0.06 -0.09 -0.01 -0.03 0.01 -0.22 0.04 -0.41 0.08 -0.56 0.09 -0.95 0.01 -0.94 -0.04 0.01 -0.07 -0.05 -0.08 -0.15 0 -0.15 -0.01 -0.16 -0.05 -0.03 -0.03 0.07 -0.11 0.16 -0.17 0.19 -0.19 0.11 -0.32 0.43 -0.25 0.61 0.05 0.13 0.04 0.25 -0.05 0.61 -0.15 0.53 -0.16 0.60 -0.04 0.43 0.05 -0.07 0.17 -0.17 0.27 -0.22z m0.94 -0.65 c0.62 -0.67 0.82 -0.94 0.59 -0.86 -0.14 0.05 -0.11 -0.15 0.06 -0.34 0.08 -0.10 0.17 -0.17 0.19 -0.17 0.02 0 0.13 -0.13 0.23 -0.29 0.14 -0.21 0.20 -0.38 0.23 -0.67 0.02 -0.21 0.07 -0.56 0.11 -0.79 l0.07 -0.41 0.26 0 0.26 0 0 0.40 0 0.40 0.22 -0.29 c0.12 -0.16 0.29 -0.38 0.38 -0.50 0.14 -0.19 0.17 -0.29 0.22 -0.84 0.04 -0.35 0.05 -0.64 0.04 -0.65 -0.01 -0.01 -0.15 0.10 -0.31 0.24 -0.29 0.25 -0.54 0.52 -0.98 1.06 -0.11 0.14 -0.34 0.41 -0.49 0.60 -0.16 0.19 -0.29 0.35 -0.29 0.38 0 0.09 -0.17 0.04 -0.21 -0.06 -0.04 -0.12 -0.09 -0.07 -0.51 0.53 -0.27 0.38 -0.28 0.41 -0.15 0.41 0.10 0 0.12 0.15 0.03 0.21 -0.03 0.02 -0.06 -0.01 -0.06 -0.06 0 -0.05 -0.03 -0.08 -0.06 -0.06 -0.05 0.03 -0.04 0.07 0.01 0.13 0.05 0.07 0.03 0.14 -0.12 0.37 -0.14 0.22 -0.16 0.29 -0.10 0.31 0.08 0.02 0.10 0.05 0.08 0.18 -0.01 0.02 -0.03 0.04 -0.06 0.03 -0.07 -0.02 -0.07 0.02 0.01 0.17 0.04 0.08 0.04 0.11 0 0.11 -0.04 0 -0.06 0.16 -0.06 0.39 0 0.22 0.02 0.39 0.05 0.39 0.02 0 0.18 -0.14 0.34 -0.32z m2.36 -1.48 c0 -0.03 -0.04 -0.06 -0.09 -0.06 -0.05 0 -0.09 0.03 -0.09 0.06 0 0.04 0.04 0.06 0.09 0.06 0.05 0 0.09 -0.02 0.09 -0.06z m1.68 -3.91 c0.13 -0.19 0.22 -0.35 0.21 -0.35 -0.02 0 -0.29 0.13 -0.62 0.28 -0.54 0.26 -0.57 0.28 -0.38 0.31 0.18 0.02 0.19 0.03 0.19 0.27 l0.01 0.25 0.17 -0.21 c0.10 -0.11 0.29 -0.37 0.42 -0.55z"/>
 </g>
 <g fill="#e1a9aa">
  <path d="M16.38 17.24 c0 -0.16 1.01 -1.31 1.20 -1.36 0.10 -0.02 0.10 -0.01 0.05 0.08 -0.13 0.21 -0.02 0.30 0.37 0.30 0.23 0 0.35 0.02 0.33 0.06 -0.09 0.14 0.04 0.30 0.32 0.37 l0.28 0.07 -0.36 0.07 c-0.20 0.04 -0.60 0.12 -0.90 0.17 -0.68 0.12 -1.05 0.20 -1.18 0.25 -0.06 0.02 -0.11 0.02 -0.11 -0.01z"/>
  <path d="M16.42 16.43 c0.04 -0.40 0.20 -1.14 0.30 -1.37 0.11 -0.29 0.20 -0.14 0.19 0.32 -0.01 0.37 0.05 0.47 0.22 0.34 0.07 -0.06 0.09 -0.05 0.09 0.04 0 0.11 -0.68 0.92 -0.78 0.92 -0.02 0 -0.04 -0.11 -0.02 -0.25z"/>
  <path d="M20.12 15.25 c-0.04 -0.02 -0.08 -0.09 -0.10 -0.14 -0.02 -0.06 -0.08 -0.11 -0.13 -0.11 -0.05 0 -0.09 -0.02 -0.10 -0.04 0 -0.03 -0.01 -0.13 -0.02 -0.22 -0.02 -0.14 0.01 -0.19 0.19 -0.29 0.13 -0.08 0.22 -0.19 0.25 -0.29 0.04 -0.19 0.19 -0.24 0.65 -0.24 0.17 0 0.27 -0.03 0.29 -0.09 0.02 -0.05 0 -0.11 -0.04 -0.12 -0.17 -0.05 -0.81 -0.11 -1.04 -0.10 -0.14 0.01 -0.29 -0.01 -0.34 -0.04 -0.08 -0.04 -0.07 -0.08 0.07 -0.23 0.09 -0.10 0.21 -0.20 0.27 -0.22 0.05 -0.02 0.10 -0.09 0.10 -0.15 0 -0.24 0.20 -0.32 0.90 -0.38 0.65 -0.05 0.90 -0.12 0.90 -0.23 0 -0.05 -0.36 -0.04 -1.07 0.03 -0.11 0.01 -0.21 -0.01 -0.23 -0.04 -0.02 -0.05 0.26 -0.48 0.40 -0.59 0.02 -0.02 0.16 -0.19 0.31 -0.39 0.14 -0.20 0.28 -0.37 0.29 -0.39 0.02 -0.02 0.10 -0.13 0.18 -0.24 0.08 -0.11 0.16 -0.22 0.18 -0.24 0.02 -0.02 0.13 -0.16 0.24 -0.33 0.16 -0.23 0.56 -0.77 0.62 -0.85 0.05 -0.05 0.02 2.75 -0.03 3.07 -0.16 1.04 -0.56 1.91 -1.22 2.63 -0.20 0.23 -0.22 0.23 -0.37 0.16 -0.13 -0.08 -0.17 -0.07 -0.23 0 -0.07 0.10 -0.79 0.15 -0.91 0.07z"/>
  <path d="M17.54 14.33 c-0.08 -0.03 -0.14 -0.03 -0.14 -0.01 -0.01 0.02 -0.02 -0.04 -0.05 -0.14 -0.04 -0.15 0 -0.24 0.19 -0.53 0.13 -0.19 0.29 -0.37 0.36 -0.40 0.16 -0.07 0.34 -0.21 0.34 -0.26 0 -0.02 0.08 -0.15 0.19 -0.29 0.10 -0.14 0.17 -0.30 0.16 -0.36 -0.03 -0.11 0.05 -0.25 0.40 -0.65 0.10 -0.12 0.28 -0.33 0.40 -0.47 1 -1.24 1.44 -1.56 3.11 -2.21 0.17 -0.07 0.31 -0.10 0.31 -0.06 0 0.14 -1.46 2.15 -1.57 2.15 -0.02 0 -0.02 -0.22 -0.01 -0.49 0.03 -0.40 0.02 -0.49 -0.05 -0.46 -0.10 0.03 -0.16 0.31 -0.20 0.95 -0.04 0.43 -0.05 0.47 -0.35 0.85 -0.17 0.22 -0.38 0.48 -0.46 0.59 -0.41 0.55 -0.47 0.55 -0.41 0.02 0.07 -0.62 0.07 -0.80 -0.02 -0.80 -0.08 0 -0.18 0.44 -0.26 1.20 -0.04 0.40 -0.26 0.83 -0.43 0.84 -0.04 0 -0.08 0.05 -0.11 0.11 -0.05 0.17 -0.22 0.29 -0.50 0.36 l-0.26 0.05 0.04 -0.18 c0.02 -0.14 0.01 -0.20 -0.07 -0.26 -0.10 -0.07 -0.11 -0.06 -0.14 0.05 -0.03 0.12 -0.04 0.12 -0.13 0.03 -0.14 -0.14 -0.25 0 -0.17 0.22 0.07 0.19 0.03 0.23 -0.16 0.16z"/>
 </g>
</svg>