<?xml version="1.0" encoding="utf-8"?>
<!DOCTYPE svg PUBLIC "-//W3C//DTD SVG 1.0//EN" "http://www.w3.org/TR/2001/REC-SVG-20010904/DTD/svg10.dtd">
<svg version="1.0" xmlns="http://www.w3.org/2000/svg" width="45px" height="48px" viewBox="0 0 45 48" preserveAspectRatio="xMidYMid meet">
 <g fill="#010301">
  <path d="M12.89 42.33 c-0.10 -0.03 -0.17 -0.08 -0.16 -0.11 0.02 -0.03 -0.02 -0.08 -0.10 -0.11 -0.25 -0.09 -0.50 -0.53 -0.43 -0.76 0.02 -0.06 0.01 -0.12 -0.02 -0.12 -0.12 0 -0.04 -0.38 0.15 -0.81 0.11 -0.25 0.20 -0.48 0.20 -0.52 0 -0.03 0.05 -0.11 0.10 -0.17 0.05 -0.05 0.14 -0.17 0.20 -0.26 l0.10 -0.16 -0.34 -0.09 c-0.18 -0.05 -0.48 -0.17 -0.66 -0.27 -0.18 -0.09 -0.39 -0.17 -0.48 -0.17 -0.19 0 -0.57 -0.20 -0.68 -0.34 -0.05 -0.06 -0.16 -0.14 -0.25 -0.19 -0.26 -0.11 -1.08 -0.65 -1.26 -0.82 -0.09 -0.08 -0.19 -0.15 -0.22 -0.15 -0.03 0 -0.10 -0.08 -0.16 -0.17 -0.06 -0.09 -0.17 -0.24 -0.26 -0.34 -0.41 -0.42 -0.52 -0.57 -0.62 -0.85 -0.06 -0.16 -0.17 -0.36 -0.25 -0.44 -0.08 -0.08 -0.17 -0.30 -0.21 -0.47 -0.04 -0.17 -0.14 -0.52 -0.24 -0.78 -0.09 -0.25 -0.15 -0.48 -0.14 -0.50 0.02 -0.02 0 -0.06 -0.03 -0.08 -0.05 -0.03 -0.05 -0.55 -0.03 -1.79 0.03 -1.48 0.05 -1.82 0.14 -2.20 0.06 -0.25 0.14 -0.49 0.18 -0.52 0.03 -0.04 0.09 -0.20 0.12 -0.36 0.03 -0.16 0.10 -0.32 0.14 -0.38 0.04 -0.05 0.16 -0.26 0.26 -0.48 0.10 -0.22 0.20 -0.39 0.23 -0.39 0.03 0 0.12 -0.14 0.20 -0.33 0.09 -0.18 0.25 -0.45 0.35 -0.61 0.11 -0.16 0.23 -0.35 0.26 -0.43 0.03 -0.08 0.08 -0.14 0.12 -0.14 0.03 0 0.13 -0.16 0.23 -0.36 0.09 -0.20 0.23 -0.44 0.28 -0.54 0.06 -0.09 0.17 -0.38 0.24 -0.64 0.10 -0.38 0.16 -0.49 0.35 -0.67 0.23 -0.21 0.23 -0.20 0.26 -0.81 0 -0.09 -0.04 -0.17 -0.11 -0.20 -0.07 -0.03 -0.16 -0.19 -0.21 -0.38 -0.06 -0.17 -0.24 -0.70 -0.40 -1.16 -0.30 -0.85 -0.46 -1.33 -0.49 -1.51 -0.01 -0.05 -0.09 -0.31 -0.17 -0.57 -0.08 -0.26 -0.15 -0.56 -0.15 -0.66 0 -0.10 -0.04 -0.39 -0.09 -0.65 -0.16 -0.84 -0.21 -1.72 -0.19 -2.93 0.03 -1.27 0.02 -1.17 0.47 -2.70 0.08 -0.26 0.17 -0.66 0.21 -0.90 0.13 -0.76 0.28 -1.33 0.40 -1.53 0.07 -0.10 0.12 -0.23 0.12 -0.26 0 -0.04 0.12 -0.20 0.28 -0.37 0.63 -0.68 0.89 -0.92 0.99 -0.90 0.06 0.01 0.09 -0.02 0.08 -0.08 -0.01 -0.05 0.05 -0.13 0.12 -0.18 0.85 -0.51 0.96 -0.56 1.24 -0.56 0.22 0 0.35 -0.04 0.56 -0.17 0.27 -0.17 0.28 -0.17 0.99 -0.15 0.40 0.01 0.75 0.03 0.77 0.05 0.02 0.02 0.10 0.04 0.16 0.04 0.21 0 0.86 0.27 1.01 0.41 0.08 0.08 0.19 0.14 0.25 0.15 0.19 0.03 0.66 0.39 0.66 0.52 0 0.06 0.04 0.11 0.09 0.12 0.19 0.01 0.21 0.03 0.29 0.21 0.04 0.10 0.13 0.24 0.19 0.30 0.06 0.06 0.10 0.14 0.10 0.17 0 0.03 0.04 0.09 0.09 0.12 0.05 0.03 0.10 0.13 0.11 0.21 0.02 0.18 0.19 0.57 0.29 0.70 0.05 0.05 0.14 0.26 0.20 0.46 0.07 0.20 0.18 0.49 0.25 0.63 0.06 0.14 0.13 0.38 0.14 0.53 0.01 0.14 0.03 0.32 0.06 0.38 0.03 0.06 0.05 0.26 0.05 0.42 0 0.17 0.02 0.31 0.05 0.31 0.03 0 0.04 0.10 0.03 0.22 -0.01 0.12 0.02 0.27 0.06 0.35 0.05 0.09 0.06 0.36 0.05 0.93 -0.02 0.43 -0.03 0.82 -0.03 0.85 0 0.03 0.01 0.31 0.03 0.62 0.02 0.35 0.01 0.57 -0.03 0.57 -0.03 0 -0.05 0.10 -0.03 0.23 0.02 0.13 0.01 0.23 -0.02 0.23 -0.03 0 -0.05 0.22 -0.06 0.49 l-0.01 0.49 0.18 0.01 c0.10 0.01 0.43 0 0.73 -0.01 1.06 -0.02 1.88 0 1.90 0.06 0.03 0.08 0.19 0.08 0.19 0.01 0 -0.03 0.14 -0.02 0.31 0.03 0.46 0.13 0.56 0.08 0.78 -0.50 0.10 -0.27 0.19 -0.56 0.19 -0.65 0 -0.16 0.24 -0.70 0.35 -0.77 0.03 -0.02 0.06 -0.14 0.06 -0.27 0 -0.22 0.16 -0.66 0.31 -0.85 0.06 -0.08 0.06 -0.08 0.14 -0.44 0.06 -0.27 0.39 -0.90 0.52 -0.97 0.05 -0.03 0.06 -0.09 0.05 -0.15 -0.02 -0.06 0.02 -0.17 0.08 -0.25 0.06 -0.08 0.13 -0.21 0.15 -0.30 0.02 -0.09 0.12 -0.23 0.20 -0.31 0.09 -0.09 0.22 -0.28 0.30 -0.43 0.14 -0.27 1.28 -1.39 1.41 -1.39 0.04 0 0.12 -0.05 0.18 -0.12 0.13 -0.14 0.42 -0.31 0.47 -0.26 0.02 0.02 0.09 -0.03 0.16 -0.10 0.12 -0.13 0.61 -0.36 0.61 -0.29 0 0.02 0.03 0.01 0.08 -0.02 0.03 -0.03 0.11 -0.05 0.16 -0.05 0.05 0 0.12 -0.03 0.15 -0.08 0.09 -0.11 0.60 -0.13 0.60 -0.02 0 0.04 0.05 0.08 0.12 0.08 0.08 0 0.12 -0.04 0.12 -0.11 0 -0.10 0.05 -0.11 0.53 -0.12 0.37 -0.01 0.57 0.02 0.66 0.07 0.07 0.05 0.28 0.09 0.48 0.11 0.30 0.03 0.41 0.08 0.72 0.30 0.20 0.14 0.43 0.31 0.50 0.35 0.07 0.05 0.13 0.15 0.14 0.22 0.01 0.09 0.05 0.13 0.12 0.13 0.13 -0.01 0.45 0.35 0.45 0.50 0 0.06 0.05 0.14 0.10 0.19 0.06 0.04 0.22 0.31 0.36 0.60 0.20 0.41 0.26 0.59 0.26 0.83 0 0.16 0.02 0.30 0.05 0.30 0.08 0 -0.01 2.20 -0.10 2.46 -0.05 0.13 -0.10 0.22 -0.12 0.20 -0.06 -0.04 -0.18 0.46 -0.23 0.93 -0.04 0.41 -0.19 0.87 -0.27 0.87 -0.03 0 -0.04 0.02 -0.02 0.05 0.06 0.11 -0.32 1.18 -0.56 1.53 -0.06 0.09 -0.09 0.19 -0.06 0.23 0.02 0.05 0.02 0.05 -0.02 0.03 -0.04 -0.02 -0.08 0.02 -0.10 0.12 -0.02 0.09 -0.07 0.20 -0.11 0.25 -0.04 0.05 -0.09 0.15 -0.12 0.23 -0.02 0.08 -0.09 0.19 -0.15 0.25 -0.06 0.06 -0.11 0.14 -0.11 0.19 0 0.05 -0.02 0.09 -0.05 0.09 -0.03 0 -0.10 0.12 -0.15 0.26 -0.06 0.14 -0.13 0.27 -0.18 0.29 -0.05 0.02 -0.08 0.06 -0.08 0.10 0 0.05 -0.05 0.12 -0.12 0.18 -0.19 0.16 -0.14 0.25 0.10 0.22 0.04 -0.01 0.19 0.10 0.32 0.24 0.13 0.14 0.31 0.28 0.39 0.30 0.08 0.02 0.22 0.10 0.31 0.18 0.09 0.08 0.19 0.13 0.22 0.10 0.03 -0.02 0.05 -0.01 0.05 0.03 0 0.03 0.03 0.05 0.08 0.03 0.05 -0.02 0.13 0.04 0.20 0.14 0.07 0.09 0.17 0.19 0.24 0.21 0.06 0.02 0.14 0.13 0.17 0.24 0.05 0.14 0.13 0.23 0.28 0.30 0.28 0.13 0.61 0.51 0.63 0.71 0.01 0.09 0.06 0.21 0.13 0.28 0.07 0.07 0.12 0.14 0.10 0.17 -0.02 0.02 0.11 0.19 0.28 0.35 0.17 0.17 0.32 0.34 0.32 0.37 0 0.02 0.06 0.12 0.14 0.20 0.08 0.09 0.14 0.19 0.14 0.22 0 0.03 0.05 0.11 0.11 0.16 0.06 0.06 0.14 0.23 0.19 0.39 0.04 0.16 0.09 0.28 0.12 0.28 0.02 0 0.05 0.04 0.05 0.09 0 0.05 0.03 0.16 0.08 0.24 0.17 0.33 0.46 1.15 0.46 1.33 0.01 0.10 0.03 0.21 0.08 0.23 0.09 0.06 0.20 0.50 0.19 0.73 -0.01 0.10 0 0.21 0.02 0.24 0.03 0.05 0.02 0.64 -0.01 0.80 -0.02 0.09 -0.23 0.03 -0.27 -0.08 -0.02 -0.06 -0.05 -0.10 -0.07 -0.09 -0.02 0.02 -0.01 0.09 0.01 0.15 0.02 0.08 0.09 0.12 0.18 0.12 l0.15 0 -0.03 0.80 c-0.02 0.43 -0.06 0.90 -0.09 1.03 -0.03 0.13 -0.09 0.37 -0.13 0.52 -0.03 0.16 -0.10 0.31 -0.14 0.34 -0.05 0.02 -0.08 0.10 -0.08 0.16 0 0.06 -0.04 0.21 -0.09 0.33 -0.05 0.12 -0.10 0.30 -0.12 0.39 -0.01 0.10 -0.07 0.21 -0.12 0.25 -0.05 0.04 -0.09 0.13 -0.08 0.19 0.01 0.08 -0.01 0.12 -0.07 0.12 -0.05 0 -0.10 0.06 -0.13 0.14 -0.02 0.08 -0.11 0.21 -0.20 0.30 -0.09 0.09 -0.19 0.24 -0.23 0.34 -0.03 0.10 -0.13 0.23 -0.23 0.29 -0.09 0.06 -0.16 0.14 -0.14 0.19 0.01 0.04 -0.08 0.14 -0.21 0.22 -0.13 0.08 -0.39 0.31 -0.59 0.51 -0.20 0.20 -0.39 0.36 -0.43 0.35 -0.04 -0.01 -0.09 0.06 -0.11 0.14 -0.05 0.24 -0.34 0.52 -0.57 0.56 -0.11 0.02 -0.24 0.08 -0.28 0.13 -0.04 0.05 -0.20 0.15 -0.34 0.23 -0.23 0.12 -0.29 0.13 -0.41 0.06 -0.12 -0.06 -0.14 -0.10 -0.14 -0.40 0.01 -0.38 0.06 -0.45 0.37 -0.45 0.36 0 0.56 -0.17 0.81 -0.70 0.08 -0.17 0.16 -0.22 0.44 -0.31 l0.34 -0.11 -0.03 -0.39 c-0.04 -0.38 -0.03 -0.39 0.17 -0.68 0.12 -0.16 0.25 -0.30 0.29 -0.30 0.04 0 0.15 -0.12 0.24 -0.27 0.17 -0.30 0.28 -0.42 0.35 -0.42 0.02 0 0.04 -0.11 0.03 -0.24 -0.02 -0.32 0.23 -0.92 0.39 -0.92 0.14 0 0.21 -0.10 0.26 -0.35 0.02 -0.11 0.06 -0.33 0.09 -0.49 0.03 -0.16 0.08 -0.41 0.10 -0.55 0.03 -0.14 0.09 -0.32 0.13 -0.39 0.06 -0.10 0.06 -0.16 0.01 -0.28 -0.04 -0.08 -0.07 -0.30 -0.07 -0.49 0 -0.28 -0.02 -0.34 -0.11 -0.37 -0.09 -0.02 -0.12 -0.10 -0.15 -0.39 -0.02 -0.20 -0.08 -0.40 -0.12 -0.44 -0.05 -0.04 -0.11 -0.23 -0.14 -0.41 -0.03 -0.18 -0.13 -0.49 -0.22 -0.68 -0.12 -0.28 -0.16 -0.45 -0.17 -0.82 -0.01 -0.27 -0.02 -0.50 -0.03 -0.52 -0.01 -0.03 -0.04 -0.14 -0.06 -0.26 -0.02 -0.12 -0.06 -0.22 -0.09 -0.22 -0.03 0 -0.06 -0.04 -0.06 -0.09 0 -0.11 -0.18 -0.20 -0.41 -0.20 -0.15 0 -0.19 -0.03 -0.27 -0.21 -0.06 -0.14 -0.08 -0.30 -0.05 -0.46 0.02 -0.19 0.01 -0.26 -0.05 -0.28 -0.05 -0.02 -0.09 -0.10 -0.09 -0.20 0 -0.09 -0.04 -0.21 -0.09 -0.28 -0.05 -0.06 -0.09 -0.18 -0.09 -0.26 0 -0.13 -0.03 -0.16 -0.20 -0.19 -0.11 -0.02 -0.22 -0.07 -0.24 -0.11 -0.03 -0.04 -0.10 -0.10 -0.16 -0.13 -0.10 -0.06 -0.14 -0.05 -0.28 0.08 -0.13 0.12 -0.23 0.16 -0.54 0.17 -0.34 0.02 -0.39 0.01 -0.47 -0.10 -0.05 -0.07 -0.18 -0.16 -0.28 -0.21 -0.11 -0.05 -0.20 -0.12 -0.20 -0.16 0 -0.04 -0.07 -0.14 -0.16 -0.23 -0.09 -0.09 -0.23 -0.22 -0.30 -0.30 -0.13 -0.13 -0.17 -0.14 -0.50 -0.11 -0.31 0.03 -0.39 0.01 -0.67 -0.13 -0.48 -0.24 -0.59 -0.33 -1.25 -0.96 -0.56 -0.52 -0.71 -0.64 -0.92 -0.64 -0.18 0 -0.53 -0.17 -1.05 -0.48 -0.14 -0.09 -0.44 -0.20 -0.66 -0.24 -0.74 -0.15 -1.13 -0.27 -1.19 -0.38 -0.04 -0.06 -0.14 -0.10 -0.25 -0.10 -0.12 0 -0.23 -0.05 -0.31 -0.14 -0.08 -0.08 -0.18 -0.14 -0.23 -0.14 -0.05 0 -0.12 -0.02 -0.14 -0.04 -0.02 -0.02 -0.16 -0.03 -0.30 -0.02 -0.16 0.01 -0.31 -0.02 -0.40 -0.08 -0.08 -0.05 -0.27 -0.09 -0.42 -0.09 -0.15 0 -0.39 -0.06 -0.54 -0.12 -0.24 -0.11 -0.30 -0.11 -0.81 -0.05 -0.41 0.05 -0.56 0.05 -0.57 0 -0.03 -0.09 -0.26 -0.08 -0.48 0.03 -0.20 0.10 -0.82 0.08 -0.86 -0.03 -0.01 -0.03 -0.05 -0.06 -0.09 -0.06 -0.09 0 -0.67 0.59 -0.67 0.68 0 0.04 -0.03 0.07 -0.06 0.07 -0.03 0 -0.16 0.08 -0.28 0.17 -0.12 0.09 -0.32 0.22 -0.47 0.30 -0.14 0.07 -0.31 0.18 -0.38 0.24 -0.06 0.06 -0.24 0.17 -0.38 0.24 -0.14 0.07 -0.28 0.19 -0.31 0.26 -0.03 0.07 -0.18 0.18 -0.33 0.24 -0.27 0.13 -1.22 0.97 -1.95 1.75 -0.60 0.64 -1.49 1.31 -1.87 1.41 -0.08 0.02 -0.31 0.20 -0.52 0.39 -0.39 0.37 -0.64 0.52 -0.90 0.52 -0.10 0 -0.14 0.03 -0.14 0.11 0 0.14 -0.32 0.41 -0.49 0.41 -0.07 0 -0.19 0.06 -0.27 0.14 -0.14 0.14 -0.17 0.30 -0.27 1.13 -0.03 0.22 -0.08 0.35 -0.17 0.43 -0.09 0.09 -0.18 0.33 -0.32 0.88 -0.10 0.42 -0.21 0.83 -0.25 0.92 -0.03 0.09 -0.06 0.28 -0.05 0.42 0.01 0.24 -0.12 0.60 -0.21 0.60 -0.02 0 -0.05 0.21 -0.05 0.48 -0.04 2.09 0.01 2.82 0.25 3.33 0.08 0.16 0.14 0.32 0.14 0.34 0 0.02 0.08 0.21 0.18 0.41 0.12 0.24 0.24 0.40 0.35 0.45 0.10 0.05 0.17 0.14 0.17 0.20 0 0.06 0.07 0.20 0.16 0.30 0.13 0.14 0.16 0.25 0.16 0.45 l0 0.27 0.28 -0.02 c0.24 -0.02 0.27 -0.01 0.27 0.10 0 0.10 0.03 0.12 0.18 0.12 0.27 0 0.40 0.09 0.40 0.28 0 0.12 0.04 0.18 0.16 0.24 0.09 0.05 0.17 0.10 0.19 0.12 0.02 0.02 0.19 0.06 0.39 0.10 0.33 0.06 0.60 0.21 0.60 0.35 0 0.03 0.09 0.08 0.19 0.12 0.10 0.05 0.23 0.12 0.28 0.16 0.05 0.05 0.29 0.09 0.52 0.11 0.24 0.02 0.51 0.07 0.60 0.11 0.10 0.04 0.31 0.09 0.46 0.12 0.16 0.02 0.43 0.08 0.61 0.12 0.17 0.05 0.46 0.08 0.64 0.08 0.17 0 0.46 0.04 0.64 0.09 0.17 0.05 0.45 0.09 0.60 0.09 0.22 0 0.29 0.02 0.31 0.10 0.02 0.09 0.12 0.10 0.82 0.12 0.43 0.01 0.80 0.03 0.81 0.06 0.01 0.02 0.13 0.03 0.27 0.02 0.21 -0.02 0.28 0 0.37 0.10 0.12 0.14 0.34 0.11 0.39 -0.06 0.03 -0.09 0.09 -0.11 0.44 -0.11 0.23 0 0.40 -0.02 0.40 -0.06 0 -0.07 0.62 -0.08 0.66 -0.01 0.02 0.03 0.13 0.02 0.25 -0.03 0.12 -0.04 0.30 -0.08 0.38 -0.08 0.09 0 0.32 -0.03 0.52 -0.08 0.34 -0.08 1.53 -0.18 2.82 -0.24 0.39 -0.02 0.57 -0.05 0.61 -0.11 0.09 -0.13 0.90 -0.19 1.01 -0.08 0.07 0.07 0.13 0.06 0.49 -0.03 0.23 -0.07 0.42 -0.14 0.43 -0.16 0.01 -0.03 0.13 -0.05 0.27 -0.05 0.19 0 0.34 -0.05 0.56 -0.19 0.33 -0.20 0.62 -0.27 1.19 -0.32 0.30 -0.02 0.38 -0.01 0.44 0.07 0.06 0.08 0.10 0.09 0.20 0.03 0.16 -0.09 0.45 -0.08 0.55 0.01 0.04 0.04 0.12 0.09 0.18 0.12 0.06 0.02 0.10 0.10 0.10 0.19 0 0.11 -0.02 0.14 -0.09 0.12 -0.05 -0.02 -0.09 -0.01 -0.09 0.02 0 0.03 -0.12 0.09 -0.27 0.15 -0.16 0.06 -0.32 0.14 -0.37 0.18 -0.05 0.04 -0.15 0.08 -0.23 0.09 -0.08 0.01 -0.17 0.03 -0.20 0.06 -0.03 0.02 -0.15 0.05 -0.26 0.08 -0.11 0.02 -0.32 0.10 -0.46 0.19 -0.21 0.12 -0.24 0.16 -0.16 0.20 0.13 0.08 0.35 0.53 0.44 0.93 0.14 0.61 -0.03 1.26 -0.38 1.44 -0.09 0.05 -0.21 0.13 -0.27 0.19 -0.08 0.08 -0.18 0.09 -0.60 0.08 l-0.52 -0.02 -0.24 -0.27 c-0.14 -0.15 -0.24 -0.30 -0.21 -0.32 0.02 -0.03 -0.03 -0.11 -0.11 -0.17 -0.19 -0.15 -0.32 -0.50 -0.37 -0.98 l-0.04 -0.41 -0.50 0.03 c-0.27 0.02 -0.59 0.07 -0.70 0.11 -0.10 0.05 -0.39 0.08 -0.62 0.08 -0.41 0 -0.43 0.01 -0.46 0.14 -0.02 0.08 -0.06 0.14 -0.09 0.14 -0.03 0 -0.04 -0.02 -0.03 -0.04 0.04 -0.06 -0.67 -0.06 -0.76 0 -0.04 0.03 -0.37 0.05 -0.72 0.04 -1.14 -0.02 -2.22 0.04 -2.37 0.12 -0.08 0.04 -0.16 0.07 -0.18 0.06 -0.03 -0.01 -0.05 0.01 -0.05 0.03 0 0.07 -2.04 0.08 -2.12 0.01 -0.04 -0.03 -0.09 -0.05 -0.12 -0.04 -0.03 0.01 -0.13 -0.03 -0.21 -0.09 -0.12 -0.08 -0.31 -0.12 -0.63 -0.14 -0.39 -0.02 -0.46 -0.04 -0.46 -0.13 0 -0.18 -0.06 -0.28 -0.15 -0.25 -0.05 0.02 -0.08 0.06 -0.08 0.11 0 0.05 -0.01 0.08 -0.01 0.08 -0.01 0.01 -0.24 0.02 -0.51 0.03 -0.61 0.03 -0.62 0.03 -0.67 0.24 -0.02 0.10 -0.10 0.25 -0.17 0.34 -0.08 0.09 -0.12 0.19 -0.11 0.23 0.03 0.08 -0.27 0.48 -0.82 1.06 -0.35 0.37 -0.45 0.44 -0.67 0.49 -0.33 0.06 -0.61 0.06 -0.86 -0.01z m-1.07 -19.13 c0.03 -0.12 0.37 -0.35 0.50 -0.35 0.06 0 0.08 -0.03 0.06 -0.08 -0.02 -0.05 0.05 -0.14 0.19 -0.25 0.21 -0.16 0.30 -0.23 0.82 -0.71 0.13 -0.13 0.27 -0.23 0.30 -0.23 0.03 0 0.23 -0.17 0.45 -0.38 0.22 -0.20 0.55 -0.48 0.75 -0.62 0.66 -0.46 0.83 -0.60 0.84 -0.64 0 -0.08 0.31 -0.33 0.72 -0.57 0.23 -0.13 0.48 -0.30 0.57 -0.38 0.09 -0.07 0.19 -0.13 0.23 -0.13 0.03 0 0.17 -0.12 0.31 -0.26 l0.26 -0.25 -0.03 -0.52 c-0.05 -0.82 -0.04 -0.98 0.10 -1.28 0.11 -0.21 0.12 -0.29 0.07 -0.38 -0.09 -0.13 -0.09 -0.57 -0.01 -0.57 0.08 0 0.08 -0.39 0.01 -0.43 -0.03 -0.02 -0.05 -0.43 -0.05 -0.90 0.01 -0.48 -0.01 -0.87 -0.02 -0.87 -0.06 0 -0.18 -1.03 -0.14 -1.21 0.02 -0.13 0.01 -0.18 -0.05 -0.20 -0.06 -0.02 -0.09 -0.11 -0.09 -0.23 0 -0.24 -0.13 -0.71 -0.25 -0.95 -0.05 -0.10 -0.08 -0.20 -0.06 -0.22 0.02 -0.02 -0.01 -0.09 -0.08 -0.16 -0.06 -0.06 -0.11 -0.18 -0.11 -0.25 -0.01 -0.08 -0.07 -0.22 -0.15 -0.33 -0.08 -0.11 -0.13 -0.20 -0.12 -0.21 0.05 -0.05 -0.01 -0.12 -0.11 -0.15 -0.09 -0.02 -0.12 -0.06 -0.09 -0.12 0.02 -0.05 0.02 -0.09 -0.01 -0.09 -0.03 0 -0.15 -0.09 -0.28 -0.21 -0.12 -0.12 -0.31 -0.24 -0.41 -0.29 -0.10 -0.04 -0.21 -0.11 -0.26 -0.15 -0.04 -0.04 -0.20 -0.14 -0.36 -0.22 -0.24 -0.12 -0.35 -0.14 -0.77 -0.12 -0.28 0.01 -0.52 -0.01 -0.56 -0.05 -0.05 -0.04 -0.14 -0.04 -0.30 0 -0.12 0.03 -0.31 0.05 -0.42 0.03 -0.11 -0.02 -0.19 -0.01 -0.16 0.01 0.04 0.04 -0.40 0.32 -0.80 0.52 -0.38 0.18 -0.66 0.38 -0.88 0.63 -0.10 0.11 -0.21 0.20 -0.26 0.20 -0.03 0 -0.06 0.02 -0.04 0.05 0.02 0.03 -0.03 0.12 -0.12 0.19 -0.09 0.08 -0.17 0.19 -0.18 0.25 -0.02 0.14 -0.40 0.82 -0.48 0.87 -0.03 0.02 -0.06 0.14 -0.06 0.27 0 0.12 -0.02 0.23 -0.05 0.23 -0.03 0 -0.05 0.10 -0.06 0.24 -0.01 0.13 -0.05 0.32 -0.09 0.42 -0.04 0.10 -0.11 0.41 -0.14 0.68 -0.04 0.27 -0.09 0.56 -0.10 0.64 -0.02 0.08 -0.03 0.35 -0.02 0.59 0.02 0.37 0 0.46 -0.08 0.49 -0.07 0.03 -0.09 0.10 -0.07 0.32 0.01 0.16 0.04 0.30 0.06 0.32 0.06 0.06 0.04 0.53 -0.02 0.57 -0.09 0.06 -0.07 0.43 0.03 0.47 0.10 0.04 0.12 0.34 0.02 0.40 -0.06 0.05 -0.02 0.48 0.07 0.58 0.02 0.03 0.05 0.25 0.06 0.48 0.01 0.23 0.03 0.42 0.05 0.42 0.05 0 0.19 0.65 0.17 0.76 -0.01 0.05 0.02 0.16 0.05 0.24 0.04 0.09 0.06 0.19 0.03 0.22 -0.02 0.03 0 0.05 0.03 0.05 0.04 0 0.06 0.09 0.05 0.22 -0.02 0.40 0.01 0.51 0.18 0.71 0.10 0.10 0.17 0.25 0.17 0.31 0 0.14 0.23 0.88 0.38 1.22 0.05 0.13 0.10 0.32 0.11 0.45 0.01 0.12 0.07 0.27 0.14 0.34 0.07 0.08 0.16 0.23 0.19 0.34 0.03 0.12 0.09 0.24 0.12 0.27 0.08 0.09 0.24 0.08 0.27 -0.03z m18.46 -2.25 c0.08 -0.12 0.20 -0.28 0.27 -0.35 0.08 -0.07 0.14 -0.16 0.15 -0.20 0.01 -0.04 0.03 -0.10 0.05 -0.14 0.03 -0.04 0.03 -0.10 0.01 -0.13 -0.06 -0.09 0.20 -0.52 0.31 -0.52 0.07 0 0.10 -0.05 0.10 -0.17 0.01 -0.19 0.28 -0.70 0.38 -0.70 0.03 0 0.05 -0.05 0.03 -0.10 -0.02 -0.06 0.02 -0.23 0.08 -0.38 0.25 -0.56 0.86 -2.30 0.93 -2.63 0.03 -0.19 0.09 -0.48 0.13 -0.66 0.03 -0.17 0.09 -0.34 0.12 -0.36 0.08 -0.05 -0.04 -1.21 -0.16 -1.57 -0.05 -0.15 -0.09 -0.32 -0.08 -0.38 0.01 -0.06 -0.03 -0.15 -0.08 -0.20 -0.06 -0.06 -0.10 -0.18 -0.10 -0.28 0 -0.12 -0.02 -0.16 -0.08 -0.14 -0.05 0.02 -0.13 -0.03 -0.19 -0.13 -0.17 -0.26 -0.78 -0.89 -0.83 -0.86 -0.05 0.03 -0.68 -0.17 -0.78 -0.26 -0.12 -0.10 -1.48 -0.04 -1.83 0.08 -0.17 0.06 -0.39 0.10 -0.48 0.11 -0.09 0.01 -0.16 0.02 -0.16 0.05 0 0.02 -0.03 0.04 -0.06 0.04 -0.06 0 -0.25 0.12 -0.70 0.43 -0.11 0.08 -0.24 0.14 -0.30 0.14 -0.06 0.01 -0.11 0.08 -0.13 0.18 -0.03 0.13 -0.07 0.17 -0.16 0.17 -0.06 0 -0.13 0.04 -0.15 0.09 -0.02 0.05 -0.07 0.09 -0.12 0.09 -0.04 0 -0.06 0.03 -0.05 0.08 0.02 0.05 -0.05 0.14 -0.17 0.24 -0.12 0.09 -0.21 0.21 -0.21 0.27 0 0.06 -0.02 0.11 -0.05 0.11 -0.03 0 -0.07 0.05 -0.09 0.11 -0.02 0.06 -0.10 0.19 -0.19 0.27 -0.09 0.09 -0.17 0.21 -0.17 0.27 -0.02 0.14 -0.11 0.30 -0.23 0.42 -0.06 0.06 -0.10 0.13 -0.11 0.16 -0.01 0.19 -0.21 0.67 -0.29 0.67 -0.05 0 -0.08 0.03 -0.07 0.08 0.01 0.03 -0.03 0.19 -0.08 0.33 -0.05 0.14 -0.13 0.37 -0.16 0.50 -0.04 0.14 -0.13 0.31 -0.20 0.39 -0.10 0.10 -0.14 0.25 -0.17 0.50 -0.02 0.20 -0.12 0.52 -0.21 0.71 -0.16 0.37 -0.31 0.93 -0.26 1.02 0.02 0.02 0.10 0.06 0.19 0.08 0.14 0.03 0.66 0.23 1.06 0.40 0.08 0.03 0.21 0.07 0.29 0.08 0.34 0.05 0.75 0.16 1.04 0.28 0.17 0.08 0.34 0.14 0.38 0.14 0.03 0 0.21 0.10 0.38 0.23 0.17 0.13 0.40 0.27 0.49 0.32 0.24 0.13 0.38 0.26 0.34 0.32 -0.02 0.03 0.01 0.03 0.05 0.02 0.07 -0.03 0.39 0.17 0.62 0.40 0.05 0.05 0.14 0.08 0.20 0.08 0.17 -0.01 0.61 0.20 0.61 0.29 0 0.04 0.02 0.06 0.06 0.04 0.03 -0.02 0.13 0.01 0.21 0.05 0.28 0.16 0.46 0.12 0.60 -0.12z"/>
  <path d="M18.50 37.08 c-0.53 -0.04 -1.50 -0.08 -2.17 -0.08 -1.21 -0.01 -1.81 -0.07 -2.62 -0.27 -0.20 -0.05 -0.37 -0.11 -0.37 -0.14 0 -0.03 -0.03 -0.05 -0.08 -0.05 -0.05 0 -0.10 -0.05 -0.12 -0.12 -0.02 -0.07 -0.09 -0.12 -0.16 -0.12 -0.20 0 -0.81 -0.24 -1.05 -0.41 -0.13 -0.09 -0.26 -0.17 -0.30 -0.17 -0.12 0 -0.82 -0.73 -0.95 -1.01 -0.10 -0.22 -0.13 -0.34 -0.10 -0.53 0.03 -0.22 0.02 -0.26 -0.08 -0.26 -0.15 0 -0.24 -0.34 -0.28 -1.06 -0.03 -0.50 -0.05 -0.63 -0.12 -0.63 -0.15 0 -0.04 -0.63 0.28 -1.58 0.45 -1.35 0.60 -1.69 0.95 -2.15 0.55 -0.72 1.08 -1.40 1.18 -1.53 0.16 -0.19 0.30 -0.42 0.30 -0.50 0 -0.13 0.48 -0.75 0.97 -1.25 0.26 -0.27 0.48 -0.51 0.48 -0.54 0 -0.03 0.08 -0.10 0.17 -0.16 0.10 -0.05 0.17 -0.13 0.17 -0.17 0 -0.03 0.06 -0.10 0.13 -0.16 0.07 -0.05 0.18 -0.18 0.24 -0.29 0.06 -0.12 0.16 -0.21 0.23 -0.23 0.07 -0.01 0.13 -0.08 0.15 -0.16 0.02 -0.08 0.14 -0.22 0.27 -0.32 0.13 -0.09 0.24 -0.20 0.24 -0.24 0.01 -0.09 0.20 -0.26 0.30 -0.26 0.05 0 0.21 -0.08 0.37 -0.18 0.63 -0.39 2.06 -0.55 2.06 -0.22 0 0.13 0.04 0.14 0.15 0.02 0.05 -0.05 0.18 -0.09 0.28 -0.09 0.16 0 0.20 -0.02 0.21 -0.13 0.02 -0.17 0.35 -0.34 0.66 -0.34 0.13 0 0.34 -0.04 0.46 -0.09 0.26 -0.11 0.83 -0.19 1.70 -0.23 0.48 -0.02 0.77 -0.01 1.30 0.09 0.38 0.07 0.84 0.14 1.01 0.17 0.17 0.03 0.34 0.08 0.37 0.11 0.03 0.03 0.14 0.06 0.23 0.06 0.09 0 0.27 0.05 0.38 0.12 0.12 0.06 0.50 0.16 0.86 0.23 0.38 0.06 0.82 0.19 1.04 0.28 0.22 0.10 0.44 0.19 0.50 0.21 0.06 0.02 0.10 0.09 0.10 0.21 l0 0.17 0.42 0 c0.29 0 0.47 0.03 0.60 0.10 0.39 0.21 0.72 0.47 1.07 0.81 0.21 0.21 0.45 0.38 0.59 0.43 0.53 0.18 1.35 0.89 1.61 1.42 0.10 0.20 0.21 0.37 0.24 0.39 0.03 0.02 0.13 0.17 0.21 0.34 0.09 0.17 0.20 0.35 0.26 0.42 0.06 0.06 0.14 0.22 0.20 0.35 0.05 0.13 0.14 0.28 0.20 0.35 0.13 0.14 0.49 1.10 0.58 1.57 0.09 0.44 -0.03 1.31 -0.28 2.08 -0.20 0.61 -0.68 1.65 -0.76 1.65 -0.03 0 -0.13 0.12 -0.21 0.26 -0.08 0.14 -0.17 0.26 -0.20 0.26 -0.02 0 -0.13 0.13 -0.23 0.29 -0.29 0.46 -1.39 1.39 -1.63 1.39 -0.06 0 -0.31 0.11 -0.57 0.24 -0.47 0.24 -0.48 0.25 -1.06 0.25 -0.57 0 -0.60 0.01 -0.75 0.16 -0.09 0.09 -0.22 0.16 -0.29 0.16 -0.24 0.01 -0.77 0.10 -1.14 0.20 -0.21 0.05 -0.53 0.12 -0.72 0.14 -0.69 0.09 -2.09 0.35 -2.38 0.45 -0.16 0.05 -0.60 0.11 -0.99 0.13 -0.38 0.03 -0.86 0.08 -1.07 0.11 -0.49 0.08 -1.86 0.07 -3.07 -0.03z m0.87 -1.47 c0 -0.03 0.31 -0.05 0.68 -0.05 0.37 0 0.72 -0.01 0.77 -0.03 0.05 -0.02 0.19 -0.03 0.32 -0.02 0.26 0.01 0.57 -0.03 1.28 -0.16 0.26 -0.05 0.75 -0.13 1.11 -0.17 0.35 -0.05 0.84 -0.16 1.07 -0.24 0.26 -0.09 0.67 -0.17 1.03 -0.20 0.34 -0.03 0.92 -0.13 1.30 -0.23 0.39 -0.09 0.91 -0.20 1.17 -0.24 0.57 -0.08 0.76 -0.13 1.29 -0.38 0.71 -0.35 1.29 -0.84 1.80 -1.53 1.04 -1.40 1.28 -2.86 0.61 -3.75 -0.08 -0.10 -0.13 -0.22 -0.13 -0.27 0 -0.05 -0.11 -0.23 -0.24 -0.39 -0.22 -0.28 -0.26 -0.37 -0.27 -0.62 -0.01 -0.04 -0.03 -0.06 -0.06 -0.04 -0.06 0.04 -0.23 -0.26 -0.19 -0.36 0.01 -0.03 -0.03 -0.08 -0.10 -0.10 -0.08 -0.02 -0.12 -0.08 -0.10 -0.14 0.01 -0.05 -0.01 -0.13 -0.05 -0.17 -0.04 -0.04 -0.06 -0.11 -0.05 -0.16 0.03 -0.09 -0.08 -0.16 -0.29 -0.17 -0.18 -0.01 -0.96 -0.39 -0.96 -0.46 0 -0.03 -0.09 -0.10 -0.20 -0.13 -0.11 -0.04 -0.27 -0.16 -0.35 -0.27 -0.08 -0.10 -0.20 -0.21 -0.26 -0.23 -0.06 -0.02 -0.19 -0.14 -0.28 -0.27 -0.11 -0.15 -0.20 -0.22 -0.27 -0.20 -0.05 0.02 -0.11 0 -0.13 -0.03 -0.02 -0.03 -0.06 -0.05 -0.09 -0.02 -0.03 0.02 -0.20 -0.05 -0.39 -0.14 -0.42 -0.21 -1.68 -0.63 -2.10 -0.68 -0.17 -0.02 -0.48 -0.12 -0.67 -0.20 -0.19 -0.09 -0.47 -0.18 -0.62 -0.20 -0.16 -0.02 -0.28 -0.06 -0.28 -0.08 0 -0.08 -3.11 -0.08 -3.19 -0.01 -0.09 0.09 -0.89 0.41 -1.17 0.46 -0.33 0.06 -0.65 0.19 -0.71 0.29 -0.02 0.03 -0.16 0.10 -0.31 0.16 -0.15 0.05 -0.35 0.16 -0.45 0.23 -0.10 0.07 -0.32 0.19 -0.49 0.27 -0.17 0.08 -0.39 0.21 -0.48 0.30 -0.08 0.09 -0.20 0.16 -0.27 0.16 -0.07 0 -0.13 0.05 -0.15 0.13 -0.02 0.07 -0.10 0.17 -0.20 0.23 -0.10 0.05 -0.19 0.16 -0.21 0.24 -0.02 0.08 -0.07 0.14 -0.11 0.14 -0.04 0 -0.16 0.10 -0.27 0.22 -0.21 0.24 -0.75 0.60 -0.82 0.56 -0.03 -0.02 -0.05 0.01 -0.05 0.06 0 0.05 -0.07 0.12 -0.15 0.14 -0.08 0.03 -0.14 0.09 -0.12 0.13 0.02 0.06 -0.31 0.60 -0.41 0.68 -0.05 0.04 -0.15 0.20 -0.33 0.54 -0.09 0.16 -0.23 0.32 -0.32 0.38 -0.09 0.05 -0.17 0.13 -0.16 0.16 0.01 0.04 -0.11 0.20 -0.26 0.36 -0.16 0.16 -0.28 0.31 -0.28 0.33 0 0.02 -0.05 0.10 -0.12 0.19 -0.06 0.08 -0.17 0.31 -0.23 0.50 -0.06 0.19 -0.20 0.54 -0.30 0.76 -0.28 0.61 -0.39 1.40 -0.27 1.90 0.06 0.24 0.07 0.34 0.02 0.35 -0.04 0.02 -0.03 0.06 0.03 0.13 0.09 0.09 0.12 0.09 0.28 0.03 0.10 -0.05 0.27 -0.17 0.38 -0.27 0.10 -0.11 0.22 -0.18 0.25 -0.16 0.03 0.02 0.08 -0.02 0.11 -0.10 0.08 -0.20 0.34 -0.21 0.42 -0.02 0.03 0.08 0.10 0.14 0.14 0.12 0.11 -0.04 0.20 0.09 0.20 0.30 0 0.28 -0.37 0.65 -0.65 0.65 -0.14 0 -0.26 0.05 -0.36 0.14 -0.09 0.08 -0.18 0.13 -0.20 0.12 -0.02 -0.02 -0.04 0.02 -0.05 0.08 -0.01 0.07 0.04 0.13 0.12 0.15 0.07 0.02 0.20 0.10 0.29 0.17 0.09 0.08 0.27 0.16 0.39 0.20 0.13 0.03 0.33 0.16 0.45 0.27 0.13 0.12 0.28 0.20 0.38 0.20 0.08 0 0.15 0.02 0.15 0.05 0 0.02 0.20 0.05 0.45 0.05 3.19 0.08 3.62 0.11 3.98 0.26 0.35 0.15 0.67 0.20 0.67 0.11z"/>
  <path d="M21.68 34.79 c-0.01 -0.03 -0.08 -0.06 -0.16 -0.08 -0.21 -0.03 -0.34 -0.23 -0.38 -0.59 -0.03 -0.23 -0.02 -0.36 0.05 -0.49 0.10 -0.20 0.20 -0.24 0.47 -0.24 0.15 0 0.20 0.03 0.24 0.13 0.03 0.07 0.04 0.14 0.03 0.17 -0.01 0.02 0.02 0.04 0.05 0.04 0.04 0 0.04 0.03 0.01 0.10 -0.03 0.05 -0.03 0.15 -0.01 0.21 0.06 0.16 0.06 0.50 0 0.60 -0.02 0.04 -0.08 0.07 -0.13 0.06 -0.05 -0.01 -0.08 0.02 -0.06 0.06 0.01 0.08 -0.09 0.10 -0.12 0.01z"/>
  <path d="M17.65 34.41 c-0.09 -0.09 -0.12 -0.18 -0.11 -0.56 0 -0.34 0.02 -0.46 0.09 -0.50 0.10 -0.07 0.46 -0.08 0.56 -0.01 0.08 0.05 0.30 0.52 0.31 0.64 0 0.13 -0.45 0.53 -0.60 0.53 -0.08 0 -0.19 -0.05 -0.25 -0.10z"/>
  <path d="M27.39 32.96 c-0.13 -0.17 -0.15 -0.23 -0.10 -0.36 0.13 -0.37 0.66 -0.27 0.66 0.13 0 0.21 -0.16 0.43 -0.31 0.43 -0.05 0 -0.16 -0.09 -0.24 -0.21z"/>
  <path d="M20.50 31.44 c-0.33 -0.14 -0.63 -0.78 -0.63 -1.36 0 -0.37 0.02 -0.46 0.22 -0.86 0.25 -0.50 0.54 -0.84 0.78 -0.89 0.33 -0.08 0.59 -0.26 0.63 -0.42 0.02 -0.09 0.05 -0.20 0.06 -0.24 0.06 -0.18 0.07 -1.09 0.02 -1.54 -0.05 -0.39 -0.04 -0.51 0.03 -0.68 0.13 -0.32 0.22 -0.32 0.66 0 0.01 0.01 0.05 0.20 0.09 0.41 0.08 0.41 0.09 1.95 0.01 2.03 -0.05 0.05 0.27 0.19 0.43 0.19 0.09 0 0.11 -0.04 0.11 -0.23 0 -0.17 0.03 -0.27 0.14 -0.37 0.53 -0.49 0.73 -0.68 0.79 -0.79 0.04 -0.07 0.20 -0.25 0.35 -0.40 0.16 -0.14 0.44 -0.42 0.63 -0.61 0.19 -0.19 0.46 -0.46 0.59 -0.60 0.26 -0.26 0.72 -0.53 0.90 -0.53 0.12 0 0.36 0.29 0.36 0.42 0 0.05 -0.07 0.15 -0.16 0.23 -0.09 0.08 -0.41 0.39 -0.72 0.69 -0.31 0.30 -0.67 0.64 -0.80 0.77 -0.24 0.22 -0.50 0.55 -0.45 0.55 0.01 0 -0.05 0.08 -0.13 0.17 -0.09 0.09 -0.26 0.28 -0.37 0.42 -0.12 0.14 -0.32 0.38 -0.46 0.53 l-0.25 0.28 0.16 0.31 c0.09 0.17 0.15 0.35 0.13 0.40 -0.02 0.05 -0.01 0.09 0.02 0.09 0.06 0 0.08 0.25 0.02 0.31 -0.02 0.02 -0.05 0.08 -0.06 0.12 -0.03 0.16 -0.06 0.23 -0.17 0.49 -0.06 0.14 -0.13 0.32 -0.16 0.39 -0.02 0.07 -0.16 0.21 -0.31 0.32 -0.51 0.38 -0.59 0.39 -1.51 0.42 -0.47 0.01 -0.90 0 -0.97 -0.03z m1.35 -0.99 c0.32 -0.09 0.38 -0.12 0.53 -0.35 0.33 -0.50 0.33 -0.54 0.06 -0.82 -0.16 -0.16 -0.29 -0.24 -0.36 -0.23 -0.14 0.02 -0.96 0.50 -1.13 0.67 -0.18 0.16 -0.20 0.68 -0.03 0.68 0.06 0 0.16 0.05 0.21 0.12 0.08 0.08 0.14 0.10 0.23 0.08 0.07 -0.02 0.28 -0.08 0.49 -0.13z"/>
  <path d="M14.21 29.73 c-0.11 -0.05 -0.14 -0.13 -0.16 -0.33 -0.01 -0.14 -0.03 -0.33 -0.05 -0.42 -0.03 -0.21 0.09 -0.29 0.42 -0.27 0.24 0.02 0.29 0.04 0.35 0.18 0.06 0.13 0.06 0.21 0.01 0.46 -0.08 0.34 -0.14 0.45 -0.27 0.45 -0.05 0 -0.06 -0.03 -0.04 -0.07 0.03 -0.06 0.03 -0.06 -0.04 -0.01 -0.06 0.05 -0.12 0.05 -0.22 0z"/>
  <path d="M29.82 29.66 c-0.19 -0.13 -0.19 -0.49 0.01 -0.70 0.12 -0.12 0.21 -0.14 0.43 -0.14 0.35 0 0.46 0.10 0.46 0.43 0 0.32 -0.14 0.45 -0.50 0.48 -0.20 0.02 -0.32 0 -0.41 -0.07z"/>
  <path d="M17.42 26.25 c-0.28 -0.10 -0.35 -0.19 -0.39 -0.47 -0.06 -0.35 0.02 -0.49 0.27 -0.45 0.10 0.01 0.26 0.09 0.34 0.17 0.08 0.08 0.17 0.14 0.21 0.14 0.11 0 0.26 0.41 0.18 0.50 -0.03 0.04 -0.05 0.10 -0.02 0.14 0.05 0.08 -0.35 0.06 -0.59 -0.02z"/>
  <path d="M27.20 25.58 c0 -0.03 -0.05 -0.04 -0.11 -0.02 -0.23 0.06 -0.36 -0.43 -0.17 -0.66 0.12 -0.15 0.35 -0.13 0.52 0.04 0.17 0.17 0.23 0.46 0.09 0.46 -0.04 0 -0.11 0.05 -0.16 0.12 -0.09 0.12 -0.17 0.15 -0.17 0.06z"/>
  <path d="M21.52 24.13 c-0.11 -0.07 -0.19 -0.53 -0.11 -0.67 0.13 -0.26 0.40 -0.27 0.64 -0.05 0.19 0.17 0.20 0.30 0.08 0.53 -0.12 0.23 -0.40 0.31 -0.60 0.19z"/>
 </g>
 <g fill="#e4c86e">
  <path d="M19.99 39.05 c-0.02 -0.02 -0.77 -0.06 -1.67 -0.08 -1.07 -0.02 -1.64 -0.06 -1.66 -0.10 -0.04 -0.06 -0.92 -0.22 -1.72 -0.30 -0.39 -0.05 -0.73 -0.17 -0.81 -0.30 -0.02 -0.03 -0.16 -0.06 -0.31 -0.06 -0.15 0 -0.30 -0.03 -0.34 -0.06 -0.03 -0.03 -0.26 -0.11 -0.49 -0.16 -0.40 -0.09 -0.43 -0.11 -0.55 -0.32 l-0.12 -0.23 -0.38 0.02 c-0.38 0.02 -0.38 0.02 -0.82 -0.30 -0.24 -0.17 -0.59 -0.37 -0.76 -0.45 -0.33 -0.13 -0.39 -0.21 -0.84 -1.02 -0.04 -0.07 -0.14 -0.19 -0.21 -0.24 -0.08 -0.06 -0.14 -0.13 -0.14 -0.16 0 -0.03 -0.06 -0.13 -0.14 -0.24 -0.08 -0.10 -0.14 -0.21 -0.14 -0.24 0 -0.03 -0.03 -0.09 -0.08 -0.12 -0.05 -0.04 -0.10 -0.24 -0.12 -0.49 -0.02 -0.23 -0.07 -0.57 -0.12 -0.77 -0.09 -0.41 -0.08 -1.88 0.02 -2.29 0.03 -0.14 0.09 -0.58 0.13 -0.97 0.03 -0.38 0.10 -0.83 0.14 -0.99 0.05 -0.15 0.13 -0.44 0.17 -0.64 0.05 -0.20 0.12 -0.42 0.17 -0.49 0.05 -0.07 0.10 -0.29 0.12 -0.49 0.03 -0.27 0.07 -0.38 0.15 -0.42 0.06 -0.03 0.11 -0.09 0.11 -0.13 0 -0.05 0.04 -0.11 0.09 -0.15 0.05 -0.05 0.12 -0.16 0.17 -0.27 0.04 -0.10 0.13 -0.21 0.19 -0.25 0.07 -0.03 0.16 -0.20 0.22 -0.39 0.09 -0.29 0.14 -0.35 0.42 -0.53 0.18 -0.12 0.35 -0.25 0.37 -0.28 0.02 -0.04 0.09 -0.08 0.13 -0.08 0.05 0 0.09 -0.02 0.09 -0.04 0 -0.03 0.10 -0.11 0.22 -0.19 0.12 -0.08 0.23 -0.16 0.24 -0.18 0.02 -0.02 0.17 -0.10 0.36 -0.19 0.30 -0.14 0.63 -0.41 0.63 -0.52 0 -0.07 0.45 -0.46 0.74 -0.64 0.14 -0.09 0.27 -0.20 0.29 -0.26 0.02 -0.05 0.08 -0.13 0.12 -0.18 0.04 -0.05 0.12 -0.14 0.17 -0.21 0.05 -0.08 0.20 -0.17 0.33 -0.21 0.28 -0.08 0.42 -0.19 0.46 -0.36 0.04 -0.16 0.69 -0.79 1.01 -0.97 0.13 -0.08 0.27 -0.20 0.30 -0.27 0.03 -0.08 0.17 -0.19 0.31 -0.24 0.14 -0.06 0.28 -0.16 0.33 -0.21 0.04 -0.05 0.21 -0.16 0.37 -0.24 0.16 -0.08 0.41 -0.23 0.53 -0.34 0.13 -0.10 0.26 -0.17 0.28 -0.15 0.03 0.02 0.03 0.01 0.01 -0.02 -0.05 -0.08 0.09 -0.21 0.20 -0.19 0.17 0.02 0.21 -0.01 0.23 -0.16 0.02 -0.21 0.42 -0.34 0.78 -0.25 0.13 0.03 0.43 0.06 0.65 0.06 0.35 0 0.41 0.01 0.41 0.10 0 0.10 0.25 0.22 0.61 0.28 0.10 0.02 0.20 0.05 0.23 0.08 0.03 0.02 0.16 0.06 0.29 0.09 0.13 0.02 0.26 0.06 0.29 0.09 0.09 0.07 0.52 0.12 1.28 0.14 0.38 0.01 0.88 0.06 1.10 0.12 0.23 0.05 0.68 0.16 1.01 0.23 0.34 0.08 0.74 0.19 0.90 0.26 0.48 0.19 1.27 0.60 1.32 0.68 0.02 0.05 0.09 0.08 0.13 0.08 0.05 0 0.10 0.03 0.12 0.08 0.02 0.05 0.14 0.12 0.28 0.18 0.14 0.05 0.33 0.18 0.42 0.28 0.19 0.21 0.56 0.48 0.75 0.53 0.07 0.02 0.20 0.13 0.30 0.24 0.10 0.11 0.22 0.20 0.28 0.20 0.05 0 0.15 0.05 0.22 0.12 0.07 0.06 0.26 0.16 0.41 0.22 0.37 0.13 0.55 0.25 0.55 0.37 0 0.05 0.10 0.18 0.22 0.29 0.42 0.38 0.41 0.37 0.56 0.28 0.17 -0.09 0.61 -0.04 0.70 0.08 0.04 0.06 0.15 0.09 0.30 0.09 0.15 0 0.27 0.03 0.32 0.10 0.13 0.14 0.13 0.63 0.01 0.77 -0.14 0.16 0.03 0.34 0.38 0.38 0.23 0.03 0.29 0.06 0.29 0.14 0 0.06 0.02 0.11 0.06 0.11 0.03 0 0.14 0.18 0.26 0.40 0.11 0.22 0.23 0.42 0.27 0.44 0.13 0.08 0.28 0.56 0.28 0.88 0 0.24 0.03 0.35 0.13 0.46 0.07 0.08 0.16 0.14 0.20 0.14 0.05 0 0.08 0.11 0.08 0.41 0 0.34 0.02 0.45 0.13 0.59 0.12 0.16 0.13 0.24 0.12 0.79 -0.01 0.45 -0.03 0.63 -0.09 0.67 -0.05 0.03 -0.11 0.17 -0.14 0.31 -0.05 0.20 -0.05 0.24 0.02 0.24 0.15 0 0.27 0.39 0.22 0.75 -0.02 0.18 -0.06 0.35 -0.09 0.38 -0.10 0.13 -0.29 0.82 -0.29 1.08 0 0.24 -0.03 0.30 -0.23 0.51 -0.13 0.13 -0.23 0.27 -0.23 0.32 0 0.14 -0.16 0.43 -0.40 0.72 -0.12 0.14 -0.32 0.41 -0.46 0.60 -0.14 0.18 -0.28 0.33 -0.32 0.33 -0.03 0 -0.10 0.07 -0.14 0.15 -0.05 0.08 -0.15 0.19 -0.23 0.23 -0.08 0.04 -0.25 0.19 -0.38 0.31 -0.19 0.20 -0.27 0.24 -0.45 0.24 -0.17 0 -0.22 0.02 -0.22 0.11 0 0.06 -0.09 0.16 -0.26 0.24 -0.14 0.08 -0.26 0.16 -0.26 0.18 0 0.03 -0.08 0.05 -0.17 0.05 -0.09 0 -0.32 0.08 -0.50 0.17 -0.18 0.10 -0.37 0.17 -0.41 0.17 -0.05 0 -0.08 0.06 -0.08 0.14 0 0.09 -0.03 0.14 -0.09 0.14 -0.05 0 -0.08 0.02 -0.06 0.05 0.02 0.02 -0.04 0.05 -0.13 0.05 -0.29 0.02 -0.47 0.07 -0.60 0.16 -0.18 0.13 -0.32 0.12 -0.35 -0.03 -0.03 -0.12 -0.06 -0.12 -0.32 -0.09 -0.16 0.02 -0.40 0.08 -0.54 0.13 -0.17 0.06 -0.46 0.09 -0.93 0.10 l-0.68 0.01 0 0.20 0 0.20 -0.43 -0.03 c-0.32 -0.02 -0.46 -0.01 -0.54 0.05 -0.06 0.04 -0.15 0.08 -0.20 0.08 -0.06 0 -0.10 0.02 -0.10 0.05 0 0.05 -0.56 0.11 -1.42 0.16 -0.29 0.01 -0.61 0.05 -0.72 0.08 -0.11 0.03 -0.21 0.05 -0.23 0.03 -0.06 -0.03 -1.74 -0.03 -2.15 0.01 -0.21 0.02 -0.39 0.02 -0.42 -0.01z m2.48 -1.70 c0.15 -0.09 0.17 -0.13 0.16 -0.31 -0.02 -0.20 -0.01 -0.21 0.14 -0.21 0.09 0 0.30 -0.04 0.46 -0.08 0.17 -0.05 0.32 -0.06 0.33 -0.04 0.05 0.07 1.56 -0.05 1.74 -0.14 0.09 -0.05 0.23 -0.08 0.31 -0.08 0.09 0 0.16 -0.04 0.17 -0.11 0.02 -0.07 0.10 -0.12 0.21 -0.14 0.32 -0.06 0.90 -0.20 0.96 -0.24 0.03 -0.02 0.05 -0.06 0.03 -0.09 -0.05 -0.07 0.16 -0.07 0.24 0.01 0.11 0.11 0.60 -0.01 0.77 -0.18 0.16 -0.16 0.19 -0.16 0.71 -0.15 0.44 0.01 0.62 -0.02 0.93 -0.13 0.21 -0.08 0.43 -0.19 0.49 -0.24 0.05 -0.06 0.16 -0.11 0.23 -0.11 0.26 0 1.35 -0.91 1.65 -1.39 0.10 -0.16 0.21 -0.29 0.24 -0.29 0.03 0 0.09 -0.08 0.13 -0.16 0.05 -0.09 0.19 -0.27 0.31 -0.39 0.12 -0.12 0.23 -0.28 0.23 -0.35 0.01 -0.08 0.09 -0.28 0.18 -0.47 0.09 -0.19 0.24 -0.57 0.33 -0.86 0.09 -0.28 0.18 -0.55 0.21 -0.59 0.03 -0.03 0.05 -0.31 0.06 -0.61 0.01 -0.49 -0.01 -0.61 -0.20 -1.18 -0.12 -0.35 -0.27 -0.71 -0.33 -0.79 -0.06 -0.09 -0.11 -0.21 -0.11 -0.27 0 -0.06 -0.05 -0.16 -0.12 -0.21 -0.06 -0.06 -0.14 -0.20 -0.17 -0.32 -0.03 -0.12 -0.09 -0.26 -0.13 -0.30 -0.04 -0.04 -0.16 -0.23 -0.27 -0.42 -0.10 -0.19 -0.23 -0.38 -0.27 -0.43 -0.05 -0.04 -0.14 -0.22 -0.23 -0.39 -0.08 -0.17 -0.17 -0.31 -0.21 -0.31 -0.03 0 -0.26 -0.14 -0.50 -0.32 -0.24 -0.17 -0.49 -0.32 -0.55 -0.32 -0.22 0 -0.49 -0.17 -0.87 -0.55 -0.21 -0.21 -0.41 -0.38 -0.43 -0.38 -0.02 0 -0.14 -0.08 -0.25 -0.17 -0.25 -0.21 -0.53 -0.31 -0.76 -0.27 -0.22 0.04 -0.45 -0.07 -0.49 -0.24 -0.03 -0.10 -0.17 -0.20 -0.66 -0.43 -0.58 -0.27 -0.64 -0.29 -1.13 -0.30 -0.50 -0.01 -0.52 -0.02 -0.67 -0.19 -0.09 -0.10 -0.19 -0.23 -0.22 -0.28 -0.06 -0.10 -0.08 -0.10 -0.35 -0.02 -0.30 0.10 -0.27 0.10 -1.53 -0.12 -0.71 -0.13 -1.65 -0.16 -1.71 -0.06 -0.02 0.03 -0.16 0.06 -0.32 0.06 -0.16 0 -0.42 0.05 -0.59 0.12 -0.35 0.13 -0.49 0.14 -0.52 0.05 -0.02 -0.06 -0.12 -0.06 -0.43 0.01 -0.22 0.04 -0.56 0.08 -0.76 0.07 -0.35 -0.01 -0.37 0.01 -0.37 0.13 0 0.12 -0.03 0.13 -0.33 0.17 -0.71 0.09 -1.26 0.26 -1.77 0.55 -0.05 0.03 -0.14 0.08 -0.20 0.10 -0.05 0.03 -0.12 0.10 -0.15 0.16 -0.03 0.06 -0.16 0.19 -0.29 0.28 -0.13 0.10 -0.28 0.26 -0.32 0.36 -0.06 0.13 -0.12 0.18 -0.17 0.16 -0.05 -0.02 -0.07 -0.01 -0.05 0.01 0.04 0.04 -0.08 0.20 -0.31 0.44 -0.09 0.09 -0.16 0.18 -0.16 0.21 0 0.03 -0.08 0.10 -0.17 0.15 -0.09 0.06 -0.17 0.13 -0.17 0.16 0 0.09 -0.86 0.92 -1.05 1.01 -0.13 0.07 -0.16 0.11 -0.12 0.17 0.05 0.06 0.02 0.13 -0.11 0.30 -0.09 0.12 -0.17 0.26 -0.17 0.30 0 0.08 -0.16 0.36 -0.24 0.42 -0.02 0.02 -0.19 0.24 -0.37 0.49 -0.19 0.26 -0.46 0.60 -0.61 0.77 -0.16 0.17 -0.32 0.39 -0.37 0.49 -0.05 0.09 -0.12 0.17 -0.14 0.17 -0.03 0 -0.07 0.06 -0.09 0.13 -0.06 0.18 -0.26 0.39 -0.38 0.39 -0.16 0 -0.19 0.09 -0.17 0.62 0.01 0.48 -0.12 1.12 -0.23 1.12 -0.12 0 -0.23 -0.08 -0.23 -0.17 0 -0.05 -0.02 -0.13 -0.05 -0.17 -0.03 -0.05 -0.04 0.26 -0.03 0.72 0.01 0.45 0.02 0.84 0.02 0.88 0 0.03 0.06 0.07 0.14 0.07 0.13 0 0.14 0.02 0.14 0.22 0 0.12 0.03 0.36 0.08 0.53 0.05 0.19 0.06 0.33 0.03 0.35 -0.08 0.05 0.08 0.40 0.39 0.89 0.26 0.41 0.75 0.90 1 0.98 0.07 0.02 0.13 0.06 0.13 0.09 0 0.03 0.11 0.11 0.25 0.17 0.13 0.06 0.33 0.17 0.43 0.23 0.14 0.08 0.26 0.10 0.43 0.08 0.17 -0.02 0.23 -0.01 0.20 0.03 -0.02 0.04 -0.01 0.07 0.02 0.07 0.03 0 0.05 0.03 0.03 0.06 -0.02 0.03 0 0.06 0.05 0.06 0.05 0 0.09 0.03 0.10 0.06 0.02 0.06 0.53 0.18 1.53 0.37 0.29 0.05 0.64 0.13 0.78 0.18 0.26 0.08 0.45 0.09 5.04 0.17 0.75 0.01 1.08 0.03 1.10 0.08 0.01 0.04 0.06 0.07 0.10 0.07 0.05 0 0.10 0.04 0.12 0.09 0.04 0.10 0.06 0.10 0.28 -0.02z"/>
  <path d="M20.99 30.70 c-0.04 -0.05 -0.13 -0.12 -0.21 -0.14 -0.12 -0.05 -0.13 -0.09 -0.13 -0.48 0 -0.41 0.01 -0.44 0.17 -0.57 0.09 -0.08 0.34 -0.24 0.55 -0.35 0.32 -0.18 0.43 -0.21 0.75 -0.21 0.35 0 0.38 0.01 0.50 0.18 0.12 0.16 0.13 0.22 0.09 0.52 -0.03 0.31 -0.07 0.37 -0.35 0.66 -0.24 0.25 -0.38 0.34 -0.63 0.41 -0.41 0.12 -0.64 0.12 -0.74 0z m0.24 -0.67 c0 -0.06 -0.02 -0.10 -0.06 -0.08 -0.03 0.02 -0.06 0.09 -0.06 0.15 0 0.06 0.03 0.10 0.06 0.08 0.03 -0.02 0.06 -0.09 0.06 -0.15z"/>
 </g>
 <g fill="#dbc279">
  <path d="M16.95 39.29 c0 -0.05 0.02 -0.09 0.05 -0.09 0.03 0 0.03 -0.02 0.02 -0.06 -0.02 -0.03 -0.16 -0.06 -0.31 -0.06 -0.15 0 -0.42 -0.04 -0.59 -0.09 -0.17 -0.05 -0.46 -0.09 -0.64 -0.09 -0.18 0 -0.48 -0.04 -0.66 -0.09 -0.19 -0.05 -0.40 -0.09 -0.48 -0.09 -0.13 0 -0.14 -0.03 -0.14 -0.20 0 -0.29 0.12 -0.35 0.42 -0.25 0.14 0.05 0.43 0.10 0.66 0.13 0.44 0.03 0.68 0.07 0.87 0.11 0.06 0.01 0.26 0.04 0.42 0.06 0.17 0.02 0.29 0.06 0.27 0.09 -0.02 0.03 -0.02 0.05 -0.01 0.06 0.03 0.01 3.33 0.12 3.50 0.11 1.98 -0.05 2.52 -0.02 2.52 0.12 0 0.03 -0.15 0.08 -0.33 0.12 -0.19 0.03 -0.45 0.09 -0.60 0.12 -0.45 0.10 -0.68 0.12 -0.72 0.06 -0.02 -0.03 -0.10 -0.06 -0.19 -0.06 -0.09 0 -0.13 0.02 -0.10 0.06 0.02 0.05 -0.17 0.06 -0.68 0.05 -0.39 -0.01 -0.76 0 -0.81 0.02 -0.05 0.02 -0.42 0.02 -0.81 0 -0.82 -0.05 -1.02 -0.04 -1.39 0.01 -0.22 0.03 -0.27 0.02 -0.27 -0.05z"/>
  <path d="M25.31 38.92 c0.03 -0.05 -0.07 -0.06 -0.31 -0.06 l-0.35 0 0.07 -0.14 c0.03 -0.08 0.10 -0.14 0.16 -0.14 0.05 0 0.14 -0.04 0.20 -0.09 0.06 -0.05 0.18 -0.09 0.26 -0.09 l0.15 -0.01 -0.14 -0.05 c-0.14 -0.05 -0.14 -0.05 -0.01 -0.05 0.08 -0.01 0.21 0.03 0.31 0.09 0.10 0.05 0.24 0.08 0.31 0.06 0.12 -0.02 0.14 -0.01 0.14 0.17 0 0.21 0.01 0.20 -0.43 0.22 -0.06 0.01 -0.18 0.04 -0.26 0.09 -0.08 0.04 -0.12 0.05 -0.10 0.01z"/>
  <path d="M13.33 38.52 c-0.05 -0.01 -0.10 -0.07 -0.12 -0.13 -0.02 -0.09 -0.08 -0.11 -0.38 -0.11 -0.36 0 -0.70 -0.10 -0.67 -0.20 0.02 -0.08 -0.32 -0.28 -0.57 -0.32 -0.50 -0.10 -0.99 -0.46 -0.79 -0.58 0.09 -0.06 -0.17 -0.17 -0.38 -0.16 -0.17 0.02 -0.19 0.01 -0.17 -0.12 0.02 -0.12 0 -0.13 -0.11 -0.10 -0.13 0.03 -0.53 -0.13 -0.61 -0.26 -0.04 -0.07 0.09 -0.18 0.16 -0.13 0.08 0.05 -0.03 -0.17 -0.17 -0.34 -0.08 -0.09 -0.13 -0.21 -0.13 -0.28 0 -0.06 -0.07 -0.14 -0.17 -0.20 -0.11 -0.05 -0.23 -0.21 -0.35 -0.45 -0.10 -0.20 -0.18 -0.39 -0.18 -0.41 0 -0.02 -0.06 -0.18 -0.14 -0.34 -0.08 -0.17 -0.17 -0.52 -0.21 -0.79 -0.08 -0.62 -0.10 -1.99 -0.03 -2.53 0.04 -0.34 0.03 -0.42 -0.05 -0.50 -0.05 -0.05 -0.09 -0.16 -0.09 -0.25 0 -0.13 0.02 -0.14 0.11 -0.12 0.16 0.05 0.33 -0.27 0.23 -0.43 -0.06 -0.09 -0.05 -0.16 0.03 -0.36 0.13 -0.32 0.44 -1.51 0.41 -1.57 -0.01 -0.02 0 -0.05 0.03 -0.08 0.03 -0.02 0.06 -0.09 0.06 -0.14 0 -0.06 0.07 -0.16 0.16 -0.24 0.10 -0.08 0.13 -0.13 0.09 -0.15 -0.10 -0.04 -0.10 -0.08 0.13 -0.67 0.23 -0.57 0.51 -1.03 0.56 -0.90 0.02 0.05 0.12 -0.02 0.28 -0.19 0.16 -0.16 0.34 -0.28 0.49 -0.33 0.16 -0.05 0.38 -0.20 0.64 -0.45 0.22 -0.21 0.46 -0.39 0.55 -0.41 0.39 -0.10 1.27 -0.77 1.87 -1.41 0.74 -0.78 1.66 -1.61 1.97 -1.76 0.17 -0.08 0.31 -0.13 0.32 -0.12 0.01 0.01 0 0.09 -0.02 0.17 -0.02 0.08 -0.05 0.14 -0.07 0.12 -0.08 -0.07 -0.93 0.74 -1.06 1 -0.08 0.15 -0.17 0.23 -0.39 0.32 -0.28 0.11 -0.54 0.35 -0.70 0.64 -0.03 0.06 -0.19 0.18 -0.33 0.27 -0.33 0.18 -0.68 0.48 -0.68 0.59 0 0.13 -0.28 0.39 -0.57 0.52 -0.15 0.07 -0.29 0.16 -0.31 0.19 -0.03 0.04 -0.05 0.04 -0.05 0.01 0 -0.04 -0.02 -0.04 -0.05 0 -0.02 0.03 -0.14 0.12 -0.26 0.20 -0.12 0.08 -0.22 0.16 -0.22 0.19 0 0.02 -0.04 0.04 -0.09 0.04 -0.04 0 -0.10 0.03 -0.13 0.08 -0.02 0.03 -0.19 0.16 -0.37 0.28 -0.28 0.19 -0.34 0.26 -0.42 0.52 -0.05 0.17 -0.17 0.37 -0.27 0.46 -0.16 0.15 -0.23 0.35 -0.13 0.35 0.02 0 0.08 0.06 0.12 0.13 l0.08 0.13 -0.14 -0.13 c-0.14 -0.13 -0.14 -0.13 -0.24 -0.02 -0.05 0.06 -0.10 0.14 -0.10 0.17 0 0.03 -0.05 0.09 -0.11 0.12 -0.08 0.05 -0.12 0.16 -0.15 0.42 -0.02 0.20 -0.08 0.42 -0.12 0.49 -0.04 0.06 -0.10 0.25 -0.14 0.41 -0.03 0.15 -0.10 0.39 -0.14 0.54 -0.10 0.36 -0.13 0.53 -0.17 1.07 -0.02 0.26 -0.08 0.66 -0.12 0.90 -0.10 0.48 -0.13 1.71 -0.06 2.03 0.05 0.20 0.14 0.79 0.17 1.12 0.01 0.09 0.05 0.19 0.09 0.23 0.04 0.04 0.07 0.09 0.07 0.12 0 0.02 0.06 0.13 0.14 0.24 0.08 0.10 0.14 0.21 0.14 0.23 0 0.02 0.09 0.12 0.20 0.21 0.11 0.10 0.19 0.20 0.17 0.23 -0.02 0.03 -0.01 0.06 0.03 0.09 0.03 0.02 0.14 0.20 0.26 0.40 0.19 0.33 0.24 0.38 0.53 0.50 0.17 0.08 0.51 0.27 0.75 0.44 0.42 0.30 0.63 0.38 0.68 0.25 0.03 -0.08 0.22 0 0.22 0.09 0 0.12 0.17 0.26 0.31 0.26 0.08 0 0.17 0.03 0.20 0.08 0.03 0.04 0.23 0.11 0.43 0.15 0.20 0.03 0.42 0.10 0.49 0.15 0.09 0.06 0.17 0.06 0.28 0.02 0.13 -0.05 0.14 -0.04 0.14 0.08 0 0.24 -0.07 0.38 -0.19 0.42 -0.15 0.05 -0.39 0.06 -0.52 0.04z"/>
  <path d="M27.20 38.31 c0 -0.24 0.01 -0.26 0.19 -0.29 0.10 -0.02 0.33 -0.08 0.50 -0.12 0.39 -0.11 0.89 -0.12 0.98 -0.01 0.03 0.05 0.05 0.10 0.02 0.12 -0.02 0.02 0 0.02 0.06 0 0.06 -0.02 0.10 -0.01 0.10 0.05 0 0.13 -0.28 0.24 -0.61 0.25 -0.21 0.01 -0.34 0.04 -0.46 0.13 -0.12 0.09 -0.24 0.13 -0.47 0.13 l-0.31 0 0 -0.26z"/>
  <path d="M30.03 37.88 c-0.13 -0.02 -0.16 -0.06 -0.20 -0.23 -0.02 -0.12 -0.01 -0.23 0.02 -0.27 0.03 -0.03 0.06 -0.05 0.06 -0.03 0 0.02 0.14 -0.03 0.32 -0.13 0.18 -0.09 0.40 -0.17 0.49 -0.17 0.09 0 0.17 -0.02 0.17 -0.05 0 -0.02 0.12 -0.10 0.26 -0.18 0.17 -0.09 0.26 -0.18 0.26 -0.24 0 -0.08 0.04 -0.11 0.17 -0.11 0.10 0 0.19 0 0.22 -0.01 0.02 0 0.17 -0.13 0.34 -0.29 0.16 -0.16 0.32 -0.28 0.36 -0.28 0.03 0 0.10 -0.08 0.16 -0.17 0.05 -0.09 0.13 -0.17 0.17 -0.17 0.03 0 0.18 -0.15 0.32 -0.33 0.14 -0.19 0.36 -0.47 0.49 -0.63 0.30 -0.37 0.43 -0.66 0.32 -0.72 -0.04 -0.02 -0.05 -0.08 -0.03 -0.11 0.02 -0.03 0.07 -0.05 0.10 -0.03 0.09 0.06 0.45 -0.36 0.39 -0.46 -0.02 -0.05 -0.02 -0.14 0.01 -0.22 0.03 -0.08 0.09 -0.26 0.13 -0.42 0.03 -0.16 0.12 -0.39 0.17 -0.51 0.06 -0.12 0.09 -0.26 0.07 -0.31 -0.02 -0.05 -0.01 -0.12 0.03 -0.16 0.04 -0.05 0.03 -0.13 -0.03 -0.27 -0.08 -0.17 -0.09 -0.19 -0.13 -0.09 -0.02 0.06 -0.06 0.09 -0.08 0.06 -0.06 -0.10 -0.06 -0.46 0.01 -0.62 0.03 -0.09 0.06 -0.23 0.06 -0.31 0 -0.08 0.03 -0.13 0.07 -0.12 0.09 0.02 0.18 -0.55 0.13 -0.81 -0.02 -0.10 -0.09 -0.26 -0.17 -0.37 -0.12 -0.17 -0.13 -0.23 -0.10 -0.56 0.03 -0.31 0.02 -0.37 -0.06 -0.37 -0.05 0 -0.13 -0.06 -0.18 -0.13 -0.05 -0.08 -0.09 -0.10 -0.09 -0.05 0 0.06 -0.02 0.06 -0.09 0.01 -0.05 -0.04 -0.07 -0.10 -0.05 -0.13 0.02 -0.03 0.05 -0.18 0.06 -0.33 0.02 -0.27 -0.13 -0.75 -0.27 -0.84 -0.04 -0.02 -0.16 -0.22 -0.27 -0.44 -0.12 -0.22 -0.23 -0.40 -0.26 -0.40 -0.03 0 -0.07 -0.06 -0.08 -0.13 -0.02 -0.09 -0.03 -0.05 -0.04 0.10 l-0.01 0.23 -0.06 -0.21 c-0.06 -0.21 -0.26 -0.34 -0.35 -0.20 -0.02 0.03 -0.05 0.05 -0.06 0.04 -0.24 -0.38 -0.29 -0.63 -0.15 -0.79 0.11 -0.13 0.12 -0.31 0.01 -0.43 -0.11 -0.12 -0.35 -0.14 -0.38 -0.03 -0.02 0.05 -0.08 0.02 -0.17 -0.08 -0.21 -0.23 -0.35 -0.25 -0.53 -0.09 -0.08 0.08 -0.17 0.12 -0.19 0.10 -0.02 -0.02 -0.06 0 -0.09 0.05 -0.04 0.06 -0.06 0.05 -0.10 -0.06 -0.03 -0.08 -0.19 -0.26 -0.35 -0.40 -0.16 -0.14 -0.30 -0.30 -0.30 -0.36 0 -0.06 -0.02 -0.11 -0.06 -0.11 -0.03 0 -0.06 -0.02 -0.06 -0.06 0 -0.03 0.10 -0.06 0.22 -0.06 0.17 0 0.23 0.03 0.27 0.13 0.09 0.20 0.39 0.28 0.89 0.24 0.38 -0.03 0.44 -0.02 0.61 0.10 0.10 0.08 0.30 0.15 0.45 0.17 l0.26 0.03 0.03 0.35 c0.03 0.32 0.20 0.72 0.30 0.72 0.02 0 0.14 0.10 0.27 0.23 0.17 0.17 0.25 0.21 0.30 0.16 0.03 -0.03 0.07 -0.05 0.08 -0.03 0.01 0.01 0.07 0.10 0.14 0.20 0.06 0.10 0.15 0.27 0.20 0.38 0.04 0.11 0.13 0.27 0.19 0.36 0.07 0.10 0.10 0.26 0.10 0.49 0 0.23 0.05 0.45 0.15 0.68 0.08 0.19 0.19 0.51 0.23 0.71 0.05 0.20 0.12 0.43 0.16 0.52 0.04 0.09 0.10 0.34 0.12 0.56 0.03 0.30 0.07 0.43 0.16 0.52 0.11 0.10 0.12 0.16 0.09 0.87 -0.02 0.60 -0.06 0.89 -0.21 1.42 -0.21 0.75 -0.22 0.78 -0.33 0.74 -0.04 -0.02 -0.09 0 -0.12 0.03 -0.03 0.04 -0.01 0.05 0.04 0.02 0.06 -0.03 0.06 -0.02 -0.01 0.03 -0.17 0.15 -0.30 0.52 -0.24 0.72 0.04 0.13 0.03 0.21 -0.03 0.29 -0.04 0.06 -0.08 0.08 -0.08 0.05 0 -0.09 -0.29 0.27 -0.38 0.48 -0.05 0.10 -0.12 0.19 -0.17 0.19 -0.05 0 -0.17 0.13 -0.28 0.28 -0.14 0.20 -0.19 0.31 -0.15 0.39 0.03 0.10 -0.05 0.21 -0.46 0.62 -0.28 0.28 -0.52 0.50 -0.54 0.50 -0.02 0 -0.14 0.10 -0.27 0.22 -0.46 0.42 -0.66 0.55 -1.01 0.64 -0.20 0.05 -0.41 0.13 -0.48 0.18 -0.17 0.14 -0.59 0.35 -0.67 0.35 -0.05 -0.01 -0.15 -0.02 -0.23 -0.03z"/>
  <path d="M21.79 37.39 c-0.01 -0.03 -0.47 -0.06 -1.18 -0.08 -4.60 -0.06 -5 -0.09 -5.50 -0.36 -0.09 -0.05 -0.23 -0.07 -0.31 -0.05 -0.08 0.02 -0.31 -0.01 -0.53 -0.08 -0.21 -0.06 -0.46 -0.12 -0.56 -0.12 -0.10 0 -0.23 -0.01 -0.28 -0.01 -0.11 -0.01 -0.19 -0.19 -0.13 -0.28 0.05 -0.07 0.20 -0.08 0.20 -0.01 0 0.06 0.56 0.20 1.27 0.32 0.37 0.06 0.51 0.07 0.57 0.02 0.06 -0.05 0.13 -0.05 0.30 0.01 0.12 0.03 0.60 0.06 1.07 0.06 0.46 0 1.41 0.04 2.11 0.09 1.39 0.10 2.49 0.08 3.06 -0.06 0.38 -0.09 0.96 -0.06 0.95 0.05 -0.02 0.12 0.08 0.27 0.16 0.27 0.08 0 0.08 0.02 0.02 0.09 -0.05 0.06 -0.19 0.09 -0.43 0.09 -0.19 0 -0.45 0.02 -0.57 0.05 -0.14 0.03 -0.22 0.03 -0.23 -0.01z"/>
  <path d="M23.40 36.89 c-0.03 -0.03 -0.11 -0.06 -0.17 -0.08 -0.18 -0.03 0.41 -0.19 1.36 -0.36 0.46 -0.08 0.91 -0.17 1 -0.19 0.14 -0.03 0.16 -0.02 0.16 0.16 0 0.17 -0.03 0.21 -0.24 0.30 -0.13 0.06 -0.42 0.12 -0.65 0.13 -0.23 0.02 -0.64 0.04 -0.91 0.06 -0.28 0.02 -0.52 0.01 -0.55 -0.02z"/>
  <path d="M12.68 36.32 c-0.16 -0.08 -0.34 -0.19 -0.41 -0.26 -0.07 -0.06 -0.18 -0.12 -0.24 -0.12 -0.06 0 -0.16 -0.06 -0.21 -0.14 -0.05 -0.08 -0.14 -0.15 -0.21 -0.16 -0.08 -0.01 -0.15 -0.09 -0.20 -0.21 l-0.08 -0.19 0.16 0.10 c0.09 0.06 0.24 0.14 0.34 0.19 0.10 0.05 0.26 0.14 0.35 0.21 0.21 0.16 0.83 0.38 0.87 0.32 0.02 -0.03 0.06 -0.04 0.10 -0.03 0.12 0.02 0.22 0.10 0.19 0.16 -0.02 0.03 -0.01 0.05 0.03 0.05 0.03 0 0.05 0.03 0.03 0.06 -0.02 0.03 -0.08 0.05 -0.12 0.03 -0.04 -0.02 -0.12 0.01 -0.16 0.05 -0.10 0.10 -0.06 0.11 -0.41 -0.06z"/>
  <path d="M29.20 35.64 c-0.11 -0.09 -0.11 -0.09 0.04 -0.09 0.09 0 0.35 -0.10 0.60 -0.23 0.24 -0.13 0.51 -0.23 0.60 -0.23 l0.16 0 -0.21 0.20 c-0.19 0.19 -0.41 0.28 -0.95 0.41 -0.06 0.02 -0.17 -0.01 -0.23 -0.06z"/>
  <path d="M11.08 35.17 c-0.04 -0.05 -0.05 -0.09 -0.02 -0.09 0.03 0 -0.03 -0.05 -0.13 -0.11 -0.10 -0.06 -0.20 -0.18 -0.22 -0.26 -0.02 -0.08 -0.06 -0.15 -0.10 -0.15 -0.08 0 -0.34 -0.59 -0.40 -0.87 -0.03 -0.20 -0.03 -0.21 0.11 -0.20 0.10 0 0.17 0.05 0.21 0.13 0.04 0.09 0.09 0.12 0.16 0.10 0.09 -0.03 0.10 0.01 0.09 0.34 -0.01 0.34 0.01 0.41 0.20 0.70 0.11 0.18 0.23 0.34 0.27 0.37 0.07 0.04 0.03 0.14 -0.05 0.14 -0.03 0 -0.08 -0.04 -0.12 -0.09z"/>
  <path d="M32.46 33.11 c0.06 -0.10 0.14 -0.20 0.18 -0.21 0.04 -0.02 0.14 -0.15 0.21 -0.30 0.32 -0.61 0.55 -0.72 0.38 -0.17 -0.09 0.29 -0.38 0.68 -0.49 0.68 -0.02 0 -0.08 0.04 -0.12 0.09 -0.05 0.05 -0.13 0.09 -0.17 0.09 -0.08 0 -0.07 -0.03 0.02 -0.18z"/>
  <path d="M9.93 32.96 c-0.01 -0.60 -0.06 -1.80 -0.09 -1.93 -0.17 -0.86 -0.18 -1.59 -0.03 -1.69 0.20 -0.13 0.25 -0.03 0.28 0.56 0.02 0.40 0.06 0.64 0.13 0.77 0.05 0.10 0.10 0.23 0.10 0.28 0 0.05 0.03 0.09 0.06 0.09 0.09 0 0.14 -0.17 0.06 -0.25 -0.03 -0.03 -0.06 -0.12 -0.06 -0.18 0 -0.09 0.02 -0.07 0.09 0.08 0.06 0.14 0.07 0.23 0.02 0.32 -0.06 0.12 -0.19 0.56 -0.26 0.92 -0.03 0.12 -0.02 0.16 0.06 0.16 0.09 0 0.10 0.05 0.08 0.45 -0.02 0.28 -0.06 0.45 -0.10 0.47 -0.05 0.01 -0.08 -0.03 -0.08 -0.11 0 -0.10 -0.02 -0.12 -0.06 -0.07 -0.03 0.03 -0.06 0.13 -0.06 0.21 0 0.08 -0.03 0.15 -0.08 0.15 -0.05 0 -0.08 -0.08 -0.08 -0.21z"/>
  <path d="M33.55 30.91 c-0.02 -0.03 -0.02 -0.09 0.01 -0.14 0.02 -0.05 0.06 -0.31 0.10 -0.60 0.08 -0.53 0.05 -0.81 -0.16 -1.40 -0.05 -0.16 -0.06 -0.25 -0.03 -0.25 0.03 0 0.08 0.05 0.09 0.12 0.02 0.08 0.05 0.10 0.08 0.05 0.08 -0.12 0.15 -0.02 0.16 0.23 0.01 0.17 0 0.23 -0.05 0.20 -0.03 -0.02 -0.01 0.04 0.06 0.14 0.09 0.12 0.12 0.21 0.09 0.28 -0.02 0.06 -0.03 0.34 -0.03 0.63 0.01 0.49 0 0.53 -0.14 0.65 -0.08 0.07 -0.16 0.10 -0.18 0.08z"/>
  <path d="M20.92 30.65 c-0.16 -0.14 -0.21 -0.26 -0.10 -0.26 0.03 0 0.06 0.04 0.06 0.09 0 0.06 0.03 0.09 0.12 0.06 0.06 -0.02 0.12 -0.01 0.12 0.02 0 0.02 0.08 0.06 0.17 0.08 0.23 0.05 0.22 0.15 -0.01 0.15 -0.12 -0.01 -0.26 -0.06 -0.35 -0.14z"/>
  <path d="M21.75 30.58 c0.05 -0.06 0.23 -0.26 0.42 -0.45 0.22 -0.23 0.33 -0.39 0.34 -0.49 0 -0.08 0.01 -0.21 0.03 -0.27 0.03 -0.18 -0.24 -0.28 -0.60 -0.23 -0.15 0.02 -0.32 0.05 -0.39 0.06 -0.06 0.01 -0.15 0.03 -0.20 0.06 -0.05 0.03 -0.06 0.02 -0.03 -0.02 0.09 -0.14 0.51 -0.36 0.76 -0.39 0.26 -0.03 0.27 -0.02 0.52 0.24 0.34 0.35 0.35 0.56 0.04 1.08 -0.20 0.34 -0.25 0.37 -0.51 0.44 -0.41 0.11 -0.46 0.10 -0.37 -0.02z"/>
  <path d="M20.96 30.38 c-0.02 -0.03 0.05 -0.05 0.15 -0.05 0.20 0 0.20 0.05 0.01 0.09 -0.07 0.01 -0.14 0 -0.16 -0.03z"/>
  <path d="M10.61 29.99 c0 -0.09 -0.02 -0.19 -0.06 -0.21 -0.03 -0.02 -0.06 -0.13 -0.06 -0.24 0 -0.15 0.02 -0.20 0.10 -0.20 0.12 0 0.36 -0.23 0.36 -0.33 0 -0.03 0.06 -0.13 0.14 -0.21 l0.14 -0.16 0 0.16 c0 0.24 -0.44 1.32 -0.55 1.34 -0.07 0.02 -0.09 -0.03 -0.09 -0.16z"/>
  <path d="M11.48 28.33 c0 -0.01 0.13 -0.14 0.28 -0.28 0.16 -0.14 0.32 -0.34 0.36 -0.42 0.05 -0.09 0.15 -0.24 0.24 -0.35 0.09 -0.10 0.20 -0.26 0.26 -0.35 0.05 -0.10 0.16 -0.20 0.24 -0.24 l0.13 -0.06 -0.09 0.21 c-0.05 0.12 -0.11 0.23 -0.14 0.25 -0.02 0.02 -0.16 0.19 -0.30 0.38 -0.52 0.70 -0.70 0.90 -0.85 0.90 -0.08 0 -0.14 -0.01 -0.14 -0.03z"/>
  <path d="M33.56 28.22 c-0.03 -0.08 -0.06 -0.09 -0.12 -0.04 -0.06 0.05 -0.12 0.01 -0.26 -0.17 -0.10 -0.13 -0.23 -0.33 -0.28 -0.45 -0.05 -0.12 -0.13 -0.27 -0.19 -0.33 -0.06 -0.06 -0.17 -0.25 -0.26 -0.42 -0.08 -0.17 -0.17 -0.32 -0.21 -0.34 -0.03 -0.02 -0.13 -0.20 -0.24 -0.39 -0.25 -0.50 -1.07 -1.25 -1.54 -1.40 -0.21 -0.07 -0.30 -0.14 -0.30 -0.27 0 -0.06 -0.03 -0.12 -0.07 -0.13 -0.04 -0.02 0 -0.03 0.09 -0.03 0.11 -0.01 0.20 0.04 0.28 0.14 0.06 0.08 0.14 0.14 0.18 0.14 0.18 -0.02 0.29 0.03 0.70 0.32 0.24 0.17 0.46 0.32 0.50 0.32 0.03 0 0.13 0.14 0.21 0.31 0.08 0.17 0.18 0.35 0.23 0.39 0.04 0.05 0.17 0.24 0.27 0.43 0.10 0.19 0.21 0.35 0.23 0.37 0.10 0.09 0.23 0.36 0.20 0.41 -0.02 0.03 0.03 0.14 0.12 0.23 0.10 0.11 0.17 0.24 0.17 0.38 0.02 0.26 0.06 0.31 0.16 0.18 0.07 -0.09 0.08 -0.09 0.15 -0.02 0.04 0.05 0.06 0.18 0.05 0.28 -0.01 0.15 -0.03 0.17 -0.06 0.08z"/>
  <path d="M13.04 26.15 c-0.10 -0.19 0.02 -0.38 0.28 -0.45 0.36 -0.10 0.37 -0.08 0.14 0.26 -0.23 0.34 -0.32 0.38 -0.42 0.20z"/>
  <path d="M15.12 24.03 c-0.02 -0.01 0.03 -0.16 0.11 -0.31 0.13 -0.25 0.17 -0.28 0.32 -0.28 0.17 0 0.18 0 0.08 0.12 -0.08 0.08 -0.08 0.12 -0.03 0.12 0.05 0 0.03 0.06 -0.06 0.14 -0.08 0.08 -0.17 0.13 -0.22 0.12 -0.04 -0.01 -0.06 -0.01 -0.05 0.02 0.03 0.06 -0.11 0.13 -0.16 0.08z"/>
  <path d="M29.23 23.72 c-0.43 -0.31 -0.68 -0.42 -0.88 -0.39 -0.11 0.02 -0.16 0 -0.16 -0.05 0 -0.05 -0.08 -0.08 -0.26 -0.08 -0.14 0 -0.28 -0.02 -0.30 -0.06 -0.02 -0.03 -0.01 -0.06 0.02 -0.06 0.10 0 0.07 -0.12 -0.03 -0.15 -0.06 -0.02 -0.28 -0.11 -0.50 -0.21 -0.23 -0.10 -0.66 -0.22 -1.04 -0.28 -0.35 -0.06 -0.75 -0.17 -0.87 -0.23 -0.13 -0.07 -0.27 -0.11 -0.35 -0.09 -0.07 0.02 -0.16 -0.01 -0.22 -0.06 -0.06 -0.05 -0.24 -0.11 -0.41 -0.14 -0.82 -0.13 -1.26 -0.23 -1.35 -0.28 -0.09 -0.05 -0.08 -0.06 0.05 -0.09 0.09 -0.02 0.20 -0.01 0.28 0.05 0.07 0.04 0.34 0.11 0.60 0.15 0.41 0.06 0.50 0.06 0.74 -0.02 0.15 -0.05 0.37 -0.10 0.48 -0.12 0.17 -0.02 0.21 0 0.35 0.22 0.23 0.33 0.37 0.39 0.89 0.36 0.24 -0.01 0.46 0 0.50 0.03 0.04 0.03 0.38 0.20 0.76 0.38 0.38 0.17 0.63 0.31 0.56 0.31 -0.17 0 -0.12 0.12 0.10 0.24 0.10 0.06 0.17 0.07 0.19 0.03 0.01 -0.03 0.17 -0.01 0.41 0.06 0.40 0.12 0.79 0.43 0.79 0.61 0 0.11 0.02 0.12 -0.35 -0.14z"/>
  <path d="M30.10 23.31 c-0.08 -0.06 -0.17 -0.11 -0.21 -0.11 -0.04 0 -0.14 -0.06 -0.23 -0.13 -0.09 -0.07 -0.21 -0.14 -0.27 -0.14 -0.06 -0.01 -0.19 -0.11 -0.28 -0.22 -0.10 -0.11 -0.23 -0.21 -0.30 -0.24 -0.19 -0.05 -0.57 -0.32 -0.75 -0.53 -0.09 -0.10 -0.28 -0.23 -0.42 -0.28 -0.14 -0.06 -0.27 -0.13 -0.28 -0.18 -0.02 -0.05 -0.07 -0.08 -0.12 -0.08 -0.05 0 -0.11 -0.03 -0.13 -0.08 -0.09 -0.16 -1.50 -0.79 -1.90 -0.86 -0.10 -0.02 -0.45 -0.10 -0.79 -0.18 -0.81 -0.20 -1.41 -0.28 -1.53 -0.21 -0.05 0.03 -0.26 0.02 -1.07 -0.08 -0.14 -0.02 -0.29 -0.06 -0.33 -0.10 -0.05 -0.03 -0.12 -0.05 -0.17 -0.03 -0.05 0.02 -0.09 0.01 -0.09 -0.03 0 -0.03 -0.04 -0.05 -0.09 -0.03 -0.05 0.02 -0.13 0.01 -0.19 -0.03 -0.05 -0.04 -0.13 -0.08 -0.18 -0.08 -0.16 0 -0.64 -0.23 -0.64 -0.30 0 -0.04 0.06 -0.09 0.13 -0.10 0.11 -0.03 0.13 -0.07 0.12 -0.19 -0.03 -0.21 0.13 -0.30 0.61 -0.33 0.21 -0.01 0.32 -0.01 0.23 0.01 -0.28 0.05 -0.18 0.15 0.13 0.13 0.16 -0.01 0.29 0 0.29 0.02 0 0.08 0.48 0.23 0.73 0.23 0.14 0 0.32 0.04 0.40 0.09 0.08 0.05 0.19 0.08 0.23 0.06 0.06 -0.02 0.09 0.01 0.09 0.08 0 0.15 0.07 0.14 0.20 0 0.08 -0.08 0.13 -0.10 0.17 -0.06 0.03 0.03 0.10 0.06 0.15 0.06 0.05 0 0.16 0.06 0.23 0.14 0.09 0.10 0.16 0.13 0.20 0.09 0.10 -0.10 0.24 -0.06 0.33 0.10 0.10 0.17 0.34 0.26 1.22 0.44 0.21 0.04 0.51 0.15 0.66 0.24 0.47 0.29 0.86 0.47 0.96 0.45 0.16 -0.05 0.41 0.12 0.92 0.60 0.68 0.64 0.84 0.77 1.41 1.08 0.21 0.12 0.46 0.21 0.55 0.21 0.24 0.01 0.36 0.13 0.36 0.37 0 0.14 -0.03 0.21 -0.08 0.21 -0.05 0 -0.09 0.02 -0.10 0.05 -0.01 0.03 -0.08 0.01 -0.16 -0.06z m-9.37 -4.39 c-0.12 -0.01 -0.24 0 -0.27 0.03 -0.02 0.02 0.08 0.03 0.23 0.02 l0.27 -0.03 -0.23 -0.02z"/>
  <path d="M16.25 22.86 c-0.13 -0.09 0.32 -0.42 0.56 -0.42 0.20 0 0.13 0.16 -0.13 0.32 -0.27 0.16 -0.32 0.17 -0.43 0.10z"/>
  <path d="M18.41 22.44 c0.02 -0.03 -0.01 -0.06 -0.05 -0.06 -0.06 0 -0.09 -0.05 -0.09 -0.13 0 -0.18 0.21 -0.27 0.59 -0.27 0.20 0 0.34 -0.03 0.41 -0.10 0.06 -0.05 0.24 -0.10 0.42 -0.12 0.29 -0.02 0.32 -0.02 0.32 0.09 0 0.08 -0.06 0.13 -0.23 0.19 -0.24 0.07 -0.31 0.14 -0.32 0.32 0 0.10 -0.05 0.12 -0.54 0.13 -0.36 0.01 -0.53 -0.01 -0.50 -0.05z"/>
  <path d="M15.81 22.07 c-0.05 -0.13 0.21 -0.22 0.27 -0.09 0.06 0.16 0.05 0.18 -0.09 0.18 -0.08 0 -0.16 -0.04 -0.17 -0.09z"/>
  <path d="M21.28 21.61 c0.13 -0.14 0.17 -0.15 0.61 -0.14 0.26 0 0.56 0.03 0.67 0.08 0.20 0.07 0.18 0.08 -0.38 0.12 -0.32 0.02 -0.68 0.05 -0.81 0.08 l-0.23 0.03 0.14 -0.15z"/>
  <path d="M16.47 20.62 c0 -0.05 0.03 -0.09 0.08 -0.09 0.05 0 0.13 -0.06 0.19 -0.12 0.12 -0.14 0.48 -0.31 0.53 -0.26 0.02 0.02 0 0.03 -0.04 0.03 -0.05 0 -0.06 0.04 -0.04 0.09 0.02 0.06 -0.01 0.09 -0.08 0.09 -0.17 0 -0.30 0.06 -0.30 0.16 0 0.05 -0.02 0.07 -0.05 0.05 -0.03 -0.02 -0.06 0.01 -0.09 0.05 -0.04 0.12 -0.21 0.11 -0.21 0z"/>
  <path d="M17.87 19.69 c-0.01 -0.03 0.12 -0.19 0.27 -0.34 0.21 -0.21 0.32 -0.27 0.46 -0.27 0.24 0 0.30 0.10 0.11 0.17 -0.16 0.06 -0.21 0.13 -0.08 0.10 0.03 -0.01 0.07 0.03 0.07 0.09 0 0.14 -0.31 0.24 -0.59 0.19 -0.11 -0.02 -0.20 -0.01 -0.21 0.03 -0.01 0.04 -0.03 0.04 -0.03 0.01z"/>
  <path d="M19.21 19.29 c-0.03 -0.05 -0.05 -0.10 -0.03 -0.12 0.02 -0.03 -0.02 -0.03 -0.09 -0.01 -0.10 0.02 -0.13 0.01 -0.11 -0.06 0.01 -0.05 0.06 -0.09 0.10 -0.08 0.05 0.01 0.19 0.02 0.33 0.02 0.22 0 0.25 0.02 0.23 0.12 -0.01 0.08 -0.05 0.12 -0.12 0.10 -0.05 -0.01 -0.11 0.01 -0.13 0.05 -0.05 0.08 -0.10 0.07 -0.19 -0.02z"/>
 </g>
 <g fill="#decb74">
  <path d="M23.06 38.92 c-0.07 -0.11 0.14 -0.18 0.51 -0.17 0.26 0.01 0.38 0.03 0.38 0.08 0 0.03 -0.06 0.08 -0.13 0.10 -0.20 0.05 -0.73 0.04 -0.77 -0.02z"/>
  <path d="M24.07 38.80 c-0.12 -0.08 0.01 -0.13 0.30 -0.11 0.20 0.01 0.25 0.03 0.20 0.09 -0.07 0.08 -0.38 0.09 -0.50 0.02z"/>
  <path d="M14 38.67 c-0.23 -0.05 -0.38 -0.18 -0.38 -0.32 0 -0.04 0.04 -0.08 0.09 -0.08 0.08 0 0.12 -0.10 0.09 -0.24 0 -0.03 0.04 -0.05 0.10 -0.05 0.21 -0.02 0.30 0.02 0.44 0.16 0.07 0.07 0.17 0.13 0.21 0.15 0.06 0.03 0.05 0.06 -0.05 0.13 -0.13 0.09 -0.13 0.10 -0.03 0.21 0.09 0.10 0.09 0.11 -0.07 0.10 -0.09 -0.01 -0.27 -0.03 -0.40 -0.06z"/>
  <path d="M25.46 38.71 c0.02 -0.01 0.13 -0.05 0.26 -0.08 0.18 -0.04 0.19 -0.05 0.08 -0.06 -0.09 -0.01 -0.17 -0.05 -0.19 -0.09 -0.02 -0.05 -0.12 -0.10 -0.23 -0.14 -0.16 -0.05 -0.17 -0.05 -0.05 -0.06 0.08 0 0.21 0.03 0.29 0.08 0.08 0.05 0.21 0.08 0.29 0.08 0.13 0 0.13 -0.01 0.05 -0.07 -0.05 -0.04 -0.08 -0.10 -0.07 -0.14 0.02 -0.04 0 -0.08 -0.03 -0.08 -0.03 0 -0.06 -0.02 -0.06 -0.05 0 -0.06 0.53 -0.12 0.61 -0.06 0.10 0.08 0.97 0.02 1.25 -0.09 0.37 -0.13 1.11 -0.19 1.20 -0.08 0.05 0.07 -0.01 0.08 -0.35 0.09 -0.50 0.01 -1.10 0.18 -1.12 0.32 -0.01 0.06 0.03 0.10 0.10 0.10 0.12 0 0.15 0.09 0.05 0.14 -0.03 0.02 -0.20 0.08 -0.37 0.11 -0.24 0.06 -0.31 0.06 -0.37 -0.01 -0.08 -0.09 -0.27 -0.10 -0.22 -0.02 0.05 0.08 -0.09 0.11 -0.26 0.05 -0.09 -0.03 -0.15 -0.03 -0.16 0.01 -0.01 0.03 -0.17 0.06 -0.37 0.06 -0.20 0 -0.34 -0.01 -0.33 -0.03z"/>
  <path d="M27.88 38.21 c0.03 -0.03 0.19 -0.08 0.35 -0.09 l0.28 -0.02 -0.29 0.08 c-0.35 0.10 -0.42 0.11 -0.34 0.03z"/>
  <path d="M28.85 38.06 c0.09 -0.05 0.21 -0.13 0.26 -0.17 0.05 -0.05 0.22 -0.09 0.38 -0.10 l0.29 -0.02 -0.33 -0.01 -0.32 -0.01 0.06 -0.20 c0.07 -0.22 0.18 -0.29 0.33 -0.20 0.06 0.03 0.20 0.05 0.32 0.03 0.11 -0.01 0.20 0 0.18 0.02 -0.02 0.03 -0.01 0.06 0.02 0.08 0.03 0.02 0.04 0.09 0.02 0.16 -0.02 0.10 -0.01 0.12 0.09 0.09 0.09 -0.02 0.11 -0.01 0.09 0.08 -0.02 0.06 -0.05 0.10 -0.08 0.08 -0.03 -0.02 -0.27 -0.01 -0.54 0.01 -0.42 0.03 -0.50 0.06 -0.52 0.14 -0.02 0.08 -0.08 0.11 -0.23 0.11 l-0.19 0 0.17 -0.09z"/>
  <path d="M12.39 37.76 c-0.27 -0.04 -0.39 -0.12 -0.39 -0.28 0 -0.04 -0.02 -0.08 -0.06 -0.08 -0.03 0 -0.06 -0.02 -0.06 -0.05 0 -0.09 0.17 -0.24 0.28 -0.24 0.09 0 0.09 0.01 0.01 0.06 -0.07 0.04 -0.05 0.06 0.09 0.06 0.18 0.01 0.40 0.13 0.34 0.19 -0.02 0.02 0.01 0.10 0.06 0.18 0.10 0.16 0.12 0.21 0.05 0.20 -0.03 -0.01 -0.17 -0.03 -0.32 -0.05z"/>
  <path d="M22.01 37.55 c-0.02 -0.05 -0.07 -0.09 -0.12 -0.09 -0.05 0 -0.09 -0.02 -0.09 -0.06 0 -0.03 -0.16 -0.06 -0.36 -0.06 l-0.37 -0.01 0.35 -0.05 c0.19 -0.02 0.52 -0.06 0.72 -0.09 0.21 -0.03 0.52 -0.04 0.68 -0.03 l0.30 0.02 -0.22 0.15 c-0.12 0.09 -0.28 0.19 -0.35 0.23 -0.18 0.10 -0.52 0.09 -0.56 -0.02z"/>
  <path d="M25.49 36.71 c0.03 -0.05 0.05 -0.17 0.05 -0.27 0 -0.19 0 -0.19 0.26 -0.19 0.22 0 0.26 0.02 0.23 0.09 -0.03 0.08 -0.01 0.09 0.11 0.07 0.08 -0.02 0.14 -0.01 0.14 0.02 0 0.03 0.09 0.05 0.21 0.05 0.11 0 0.19 0.02 0.17 0.05 -0.02 0.03 -0.13 0.05 -0.24 0.05 -0.33 0 -0.81 0.08 -0.89 0.15 -0.07 0.05 -0.08 0.05 -0.03 -0.02z"/>
  <path d="M11.08 35.18 c-0.05 -0.06 -0.05 -0.09 -0.01 -0.12 0.08 -0.05 0.24 0.08 0.20 0.15 -0.05 0.08 -0.12 0.06 -0.19 -0.03z"/>
  <path d="M8.44 34.03 c-0.02 -0.05 -0.03 -0.14 -0.02 -0.19 0.02 -0.08 0.03 -0.08 0.09 0.02 0.03 0.06 0.05 0.14 0.02 0.19 -0.04 0.06 -0.06 0.06 -0.09 -0.02z"/>
  <path d="M10.11 33.49 c-0.19 -0.19 -0.26 -0.45 -0.14 -0.52 0.05 -0.03 0.20 0.27 0.21 0.43 0 0.05 0.05 0.08 0.10 0.08 0.06 -0.01 0.10 0.03 0.10 0.10 0 0.15 -0.06 0.13 -0.27 -0.09z"/>
  <path d="M10.46 30.80 c-0.03 -0.08 -0.06 -0.38 -0.06 -0.66 0 -0.28 -0.02 -0.53 -0.03 -0.55 -0.02 -0.02 0.01 -0.08 0.06 -0.14 0.12 -0.13 0.34 -0.14 0.28 -0.02 -0.02 0.05 0.02 0.18 0.09 0.30 0.06 0.11 0.08 0.19 0.05 0.16 -0.05 -0.03 -0.06 -0.01 -0.03 0.05 0.02 0.05 -0.04 0.30 -0.13 0.55 -0.15 0.43 -0.16 0.45 -0.22 0.31z"/>
  <path d="M20.81 30.55 c-0.12 -0.07 -0.14 -0.34 -0.02 -0.34 0.09 0 0.15 -0.12 0.15 -0.28 0 -0.15 0.20 -0.31 0.36 -0.28 0.10 0.01 0.13 0.05 0.12 0.18 -0.01 0.14 0.03 0.19 0.17 0.16 0.05 -0.01 0.05 0.17 -0.01 0.26 -0.02 0.03 -0.13 0.09 -0.24 0.12 -0.29 0.06 -0.31 0.06 -0.40 0 -0.07 -0.05 -0.08 -0.03 -0.05 0.10 0.02 0.09 0.03 0.16 0.02 0.16 0 0 -0.05 -0.03 -0.10 -0.06z"/>
  <path d="M33.48 28.13 c-0.12 -0.14 -0.12 -0.15 -0.02 -0.37 0.11 -0.25 0.16 -0.27 0.26 -0.12 0.09 0.16 0.08 0.43 -0.02 0.53 -0.09 0.09 -0.10 0.08 -0.21 -0.05z"/>
  <path d="M30.33 24.49 c-0.08 -0.05 -0.16 -0.12 -0.17 -0.13 -0.02 -0.02 -0.12 -0.09 -0.21 -0.17 -0.10 -0.07 -0.19 -0.16 -0.19 -0.19 0 -0.09 0.23 -0.06 0.34 0.06 0.06 0.06 0.12 0.10 0.13 0.09 0.02 -0.01 0.11 0.08 0.21 0.21 0.20 0.24 0.14 0.31 -0.11 0.13z"/>
  <path d="M30.11 23.63 c0.02 -0.16 0.03 -0.17 0.15 -0.10 0.09 0.06 0.03 0.24 -0.08 0.24 -0.05 0 -0.08 -0.05 -0.07 -0.14z"/>
  <path d="M30.57 23.63 c-0.01 -0.13 -0.30 -0.37 -0.30 -0.26 0 0.05 -0.02 0.05 -0.09 -0.01 -0.05 -0.04 -0.09 -0.11 -0.09 -0.15 0 -0.05 0.04 -0.08 0.09 -0.08 0.12 0 0.11 -0.06 -0.01 -0.15 -0.09 -0.07 -0.08 -0.08 0.12 -0.08 0.12 0 0.21 0.02 0.21 0.06 0 0.03 0.10 0.12 0.23 0.19 0.19 0.11 0.23 0.16 0.23 0.31 0 0.12 -0.03 0.20 -0.09 0.22 -0.13 0.05 -0.14 0.05 -0.14 -0.05 0 -0.12 -0.10 -0.11 -0.13 0.02 -0.02 0.08 -0.03 0.08 -0.03 -0.02z"/>
  <path d="M15.81 23.27 c-0.06 -0.01 -0.09 -0.05 -0.08 -0.09 0.03 -0.10 0.20 -0.12 0.23 -0.02 0.04 0.10 -0.01 0.14 -0.15 0.10z"/>
  <path d="M16.10 22.91 c-0.08 -0.02 -0.09 -0.05 -0.05 -0.08 0.04 -0.02 0.07 -0.02 0.07 0 0 0.02 0.05 -0.01 0.11 -0.06 0.12 -0.10 0.35 -0.09 0.35 0.03 0 0.03 -0.01 0.05 -0.02 0.05 -0.01 0 -0.09 0.02 -0.19 0.05 -0.10 0.02 -0.23 0.03 -0.28 0.01z"/>
  <path d="M14.25 22.59 c-0.03 -0.09 0.04 -0.17 0.18 -0.19 0.04 -0.01 0.14 -0.06 0.23 -0.12 0.09 -0.05 0.21 -0.13 0.28 -0.17 0.12 -0.07 0.12 -0.06 0.06 0.08 -0.10 0.24 -0.20 0.34 -0.38 0.38 -0.09 0.02 -0.20 0.05 -0.25 0.07 -0.06 0.02 -0.11 0 -0.13 -0.05z"/>
  <path d="M16.76 22.56 c0 -0.11 0.12 -0.16 0.19 -0.08 0.05 0.04 -0.06 0.19 -0.14 0.19 -0.03 0 -0.05 -0.05 -0.05 -0.12z"/>
  <path d="M18.23 22.34 c-0.04 -0.01 -0.08 -0.06 -0.08 -0.10 0 -0.04 -0.03 -0.09 -0.07 -0.10 -0.04 -0.02 0.01 -0.03 0.12 -0.03 0.19 -0.01 0.27 -0.12 0.09 -0.12 -0.09 0 -0.09 -0.01 0.01 -0.08 0.15 -0.10 0.49 -0.15 0.66 -0.09 0.08 0.03 0.13 0.03 0.13 -0.01 0 -0.03 0.05 -0.05 0.10 -0.05 0.05 0 0.18 -0.01 0.27 -0.03 0.10 -0.01 0.32 -0.04 0.49 -0.06 0.17 -0.02 0.41 -0.05 0.52 -0.07 l0.20 -0.03 -0.20 0.20 c-0.15 0.16 -0.24 0.21 -0.44 0.23 -0.14 0.01 -0.24 -0.01 -0.22 -0.03 0.05 -0.08 -0.29 0.02 -0.39 0.12 -0.05 0.05 -0.22 0.08 -0.41 0.09 -0.17 0.01 -0.38 0.02 -0.46 0.05 l-0.14 0.04 0.17 0.04 c0.30 0.08 0.30 0.08 0 0.08 -0.16 0 -0.32 -0.01 -0.36 -0.03z"/>
  <path d="M15.79 21.35 c0.06 -0.06 0.12 -0.16 0.12 -0.21 0.01 -0.05 0.04 -0.12 0.07 -0.13 0.03 -0.02 0.08 -0.09 0.10 -0.14 0.02 -0.07 0.10 -0.10 0.22 -0.10 0.18 0 0.19 0 0.08 0.12 -0.06 0.06 -0.08 0.12 -0.05 0.12 0.03 0 0.01 0.03 -0.05 0.06 -0.05 0.03 -0.09 0.08 -0.07 0.12 0.02 0.03 -0.01 0.03 -0.05 0.02 -0.05 -0.02 -0.09 -0.01 -0.09 0.03 0 0.03 -0.02 0.05 -0.06 0.03 -0.03 -0.02 -0.06 -0.01 -0.06 0.01 0 0.03 -0.06 0.08 -0.13 0.13 -0.13 0.08 -0.13 0.08 -0.03 -0.04z"/>
  <path d="M19.99 19.42 c0.12 -0.12 0.09 -0.14 -0.19 -0.13 -0.20 0.01 -0.28 -0.02 -0.32 -0.10 -0.05 -0.09 -0.03 -0.12 0.09 -0.17 0.09 -0.03 0.14 -0.09 0.12 -0.13 -0.04 -0.12 0.20 -0.17 0.31 -0.06 0.11 0.11 0.42 0.10 0.54 -0.01 0.09 -0.08 0.10 -0.08 0.17 0 0.06 0.08 0.05 0.09 -0.08 0.09 -0.08 0 -0.17 0.03 -0.19 0.08 -0.02 0.03 -0.02 0.05 0.01 0.03 0.02 -0.02 0.12 0.01 0.20 0.07 0.09 0.06 0.23 0.12 0.31 0.12 0.08 0 0.15 0.03 0.15 0.06 0 0.03 -0.05 0.05 -0.11 0.03 -0.08 -0.02 -0.12 0.01 -0.13 0.06 -0.01 0.06 -0.14 0.09 -0.48 0.11 -0.37 0.02 -0.45 0.02 -0.39 -0.04z"/>
 </g>
 <g fill="#090100">
  <path d="M16.81 39.77 c-0.23 -0.06 -0.28 -0.14 -0.13 -0.20 0.05 -0.02 0.09 -0.09 0.09 -0.15 0 -0.07 0.03 -0.10 0.10 -0.09 0.05 0.01 0.09 -0.02 0.09 -0.05 -0.02 -0.09 0.05 -0.09 1.28 -0.08 0.86 0.01 0.99 0 1.08 -0.09 0.09 -0.08 0.16 -0.09 0.30 -0.06 0.10 0.02 0.69 0.06 1.29 0.07 1.06 0.02 1.10 0.03 0.87 0.12 -0.26 0.10 -0.49 0.10 -0.57 0.02 -0.07 -0.07 -0.34 -0.08 -0.30 -0.01 0.05 0.08 -0.14 0.11 -0.50 0.08 -0.21 -0.02 -0.33 0 -0.33 0.03 0 0.04 -0.24 0.06 -0.70 0.06 -0.38 -0.01 -0.70 -0.03 -0.70 -0.05 0 -0.03 -0.11 -0.04 -0.24 -0.03 -0.14 0.01 -0.36 -0.01 -0.49 -0.04 -0.25 -0.05 -0.61 -0.01 -0.50 0.06 0.14 0.10 0.25 0.32 0.19 0.40 -0.08 0.10 -0.13 0.09 -0.23 -0.01 -0.10 -0.10 -0.37 -0.19 -0.31 -0.10 0.02 0.03 0.08 0.06 0.13 0.06 0.05 0 0.08 0.03 0.08 0.06 0 0.07 -0.19 0.06 -0.48 -0.01z"/>
  <path d="M25.68 38.90 c-0.08 -0.12 -0.08 -0.12 -0.26 -0.01 l-0.17 0.11 0.09 -0.14 c0.12 -0.19 0.56 -0.30 0.97 -0.26 0.19 0.02 0.28 0.06 0.23 0.08 -0.04 0.03 -0.13 0.02 -0.21 -0.01 -0.12 -0.04 -0.16 -0.02 -0.28 0.11 -0.08 0.09 -0.14 0.17 -0.14 0.20 0 0.09 -0.16 0.03 -0.24 -0.09z"/>
  <path d="M13.38 38.53 c-0.01 -0.01 -0.15 -0.02 -0.31 -0.03 -0.19 -0.01 -0.32 -0.05 -0.41 -0.12 -0.07 -0.06 -0.15 -0.10 -0.19 -0.08 -0.03 0.02 -0.06 0.01 -0.06 -0.02 0 -0.03 -0.06 -0.08 -0.14 -0.10 -0.09 -0.02 -0.13 -0.06 -0.11 -0.12 0.02 -0.05 0.01 -0.08 -0.02 -0.08 -0.03 0 -0.10 -0.04 -0.17 -0.09 -0.08 -0.06 0 -0.05 0.24 0.04 0.19 0.07 0.50 0.13 0.70 0.13 0.38 0.01 0.64 0.12 0.55 0.24 -0.06 0.08 0.04 0.08 0.17 0.01 0.05 -0.03 0.07 -0.01 0.07 0.06 0 0.08 -0.05 0.12 -0.14 0.14 -0.08 0.02 -0.15 0.02 -0.16 0.01z"/>
  <path d="M31.21 38.20 c-0.04 -0.04 -0.12 -0.08 -0.17 -0.08 -0.05 0 -0.09 -0.03 -0.08 -0.07 0.01 -0.08 -0.06 -0.10 -0.20 -0.08 -0.14 0.02 -0.08 -0.22 0.10 -0.34 0.10 -0.07 0.17 -0.17 0.17 -0.24 0 -0.06 0.03 -0.12 0.08 -0.13 0.66 -0.21 0.74 -0.23 0.81 -0.16 0.05 0.06 0.05 0.09 -0.03 0.14 -0.13 0.10 -0.17 0.36 -0.07 0.45 0.11 0.09 0.10 0.23 -0.01 0.23 -0.05 0 -0.17 0.08 -0.27 0.17 -0.19 0.20 -0.23 0.20 -0.32 0.10z"/>
  <path d="M29.37 38.16 c-0.02 -0.03 -0.02 -0.06 0.01 -0.06 0.02 0 0.01 -0.03 -0.04 -0.06 -0.06 -0.03 -0.13 -0.02 -0.21 0.03 -0.11 0.07 -0.13 0.07 -0.13 0.01 0 -0.16 0.21 -0.27 0.48 -0.27 0.14 0 0.27 -0.02 0.30 -0.03 0.02 -0.02 0.15 -0.04 0.30 -0.05 0.26 -0.01 0.27 -0.01 0.27 0.15 0 0.17 -0.10 0.22 -0.15 0.08 -0.02 -0.05 -0.11 -0.09 -0.24 -0.09 -0.12 0 -0.19 0.02 -0.16 0.06 0.02 0.03 0 0.04 -0.05 0.02 -0.05 -0.02 -0.12 0.02 -0.16 0.07 -0.05 0.07 -0.06 0.09 -0.01 0.06 0.03 -0.02 0.07 -0.03 0.07 -0.01 0 0.07 -0.23 0.15 -0.26 0.09z"/>
  <path d="M11.37 37.71 c-0.08 -0.02 -0.16 -0.05 -0.17 -0.07 -0.02 -0.02 -0.10 -0.08 -0.20 -0.13 -0.16 -0.09 -0.32 -0.34 -0.21 -0.34 0.11 0 0.73 0.36 0.80 0.46 0.09 0.13 0.08 0.13 -0.21 0.08z"/>
  <path d="M21.75 36.97 c0 -0.12 0.50 -0.23 0.78 -0.16 l0.23 0.05 -0.23 0.01 c-0.13 0.01 -0.28 0.05 -0.34 0.09 -0.14 0.11 -0.44 0.12 -0.44 0.01z"/>
  <path d="M9.39 36.62 c-0.09 -0.10 -0.03 -0.18 0.14 -0.21 0.13 -0.03 0.55 0.16 0.55 0.24 0 0.10 -0.61 0.07 -0.70 -0.03z"/>
  <path d="M13.18 36.30 c-0.18 -0.11 -0.23 -0.28 -0.08 -0.24 0.03 0.01 0.06 -0.03 0.06 -0.08 0 -0.12 0.17 -0.18 0.23 -0.09 0.03 0.05 0.01 0.13 -0.04 0.21 -0.06 0.09 -0.07 0.13 -0.02 0.13 0.04 0 0.06 0.02 0.03 0.05 -0.02 0.03 0.02 0.07 0.07 0.08 0.08 0.02 0.08 0.03 0.02 0.03 -0.05 0 -0.17 -0.05 -0.28 -0.11z"/>
  <path d="M26.99 35.91 c0.01 -0.06 0.02 -0.11 0.02 -0.12 0.01 -0.01 0.06 0.01 0.12 0.05 0.16 0.09 0.14 0.17 -0.02 0.17 -0.10 0 -0.13 -0.03 -0.12 -0.10z"/>
  <path d="M35.22 32.14 c0.13 -0.53 0.24 -0.83 0.32 -0.83 0.06 0 0.07 0.05 0.04 0.25 -0.02 0.13 -0.04 0.30 -0.04 0.36 0.01 0.26 -0.05 0.38 -0.20 0.38 -0.13 0 -0.14 -0.02 -0.12 -0.16z"/>
  <path d="M36.03 30.19 c-0.04 -0.25 0.04 -0.52 0.17 -0.55 0.11 -0.02 0.27 0.32 0.27 0.57 0 0.15 -0.02 0.17 -0.20 0.17 -0.18 0 -0.20 -0.02 -0.24 -0.20z"/>
  <path d="M33.41 24.81 c-0.03 -0.04 -0.07 -0.14 -0.08 -0.22 -0.01 -0.08 -0.08 -0.17 -0.14 -0.20 -0.07 -0.03 -0.16 -0.09 -0.20 -0.13 -0.05 -0.03 -0.16 -0.08 -0.26 -0.09 -0.17 -0.02 -0.17 -0.03 -0.22 -0.41 -0.03 -0.22 -0.03 -0.42 -0.01 -0.43 0.04 -0.04 0.43 0.16 0.52 0.26 0.03 0.04 0.16 0.09 0.28 0.10 0.28 0.03 0.29 0.05 0.21 0.20 -0.05 0.09 -0.05 0.15 0.02 0.26 0.05 0.08 0.10 0.20 0.11 0.28 0.01 0.08 0.06 0.19 0.11 0.24 0.06 0.05 0.09 0.12 0.07 0.15 -0.05 0.08 -0.35 0.06 -0.42 -0.02z"/>
  <path d="M15.29 23.93 c0.03 -0.09 0.27 -0.27 0.35 -0.27 0.06 0 -0.16 0.23 -0.28 0.30 -0.08 0.04 -0.09 0.03 -0.07 -0.03z"/>
  <path d="M30.95 23.80 c-0.20 -0.09 -0.35 -0.31 -0.20 -0.31 0.04 0 -0.02 -0.05 -0.13 -0.12 -0.11 -0.06 -0.27 -0.20 -0.37 -0.29 -0.12 -0.12 -0.20 -0.16 -0.28 -0.13 -0.17 0.05 -0.39 -0.09 -0.39 -0.24 0 -0.12 0.02 -0.13 0.18 -0.11 0.12 0.01 0.19 -0.01 0.21 -0.06 0.03 -0.09 0.23 -0.11 0.28 -0.02 0.02 0.03 0.08 0.06 0.13 0.06 0.06 0 0.17 0.07 0.24 0.15 0.08 0.08 0.23 0.23 0.33 0.32 0.10 0.10 0.17 0.20 0.16 0.23 -0.02 0.02 0.04 0.08 0.13 0.10 0.20 0.08 0.43 0.27 0.39 0.31 -0.02 0.02 0.02 0.03 0.09 0.03 0.08 0 0.12 0.03 0.11 0.08 -0.04 0.10 -0.61 0.11 -0.87 0.01z"/>
  <path d="M27.64 23.28 c-0.11 -0.09 -0.11 -0.09 0.02 -0.21 l0.13 -0.12 0.32 0.16 c0.27 0.13 0.31 0.17 0.21 0.20 -0.20 0.07 -0.57 0.05 -0.68 -0.03z"/>
  <path d="M18.38 22.85 c0.06 -0.04 0.06 -0.05 0 -0.08 -0.05 -0.02 -0.06 -0.06 -0.02 -0.14 0.09 -0.20 0.08 -0.26 -0.03 -0.26 -0.06 0 -0.11 -0.02 -0.11 -0.05 0 -0.02 0.28 -0.05 0.64 -0.05 0.56 0.01 0.64 0.02 0.64 0.10 0 0.06 0.03 0.09 0.09 0.07 0.05 -0.02 0.09 -0.01 0.09 0.02 0 0.03 -0.04 0.08 -0.09 0.09 -0.05 0.02 -0.07 0.06 -0.05 0.10 0.03 0.05 0.01 0.05 -0.06 0.03 -0.06 -0.02 -0.14 -0.04 -0.19 -0.04 -0.05 0 -0.08 -0.03 -0.06 -0.08 0.02 -0.05 -0.01 -0.10 -0.05 -0.12 -0.09 -0.03 -0.26 0.01 -0.26 0.08 0 0.02 -0.07 0.06 -0.16 0.09 l-0.16 0.05 0.14 0.04 c0.08 0.02 0.17 0.02 0.20 -0.01 0.03 -0.02 0.09 -0.05 0.14 -0.05 0.08 0 0.08 0.01 0 0.06 -0.08 0.05 -0.07 0.06 0.03 0.06 0.14 0.01 -0.39 0.10 -0.64 0.10 -0.12 0 -0.15 -0.01 -0.09 -0.05z"/>
  <path d="M23.10 19.62 c-0.10 -0.01 -0.19 -0.05 -0.19 -0.08 0 -0.03 -0.02 -0.09 -0.03 -0.14 -0.02 -0.06 -0.01 -0.09 0.06 -0.09 0.05 0 0.09 -0.02 0.09 -0.05 0 -0.10 0.24 -0.10 0.37 0 0.08 0.06 0.18 0.11 0.23 0.11 0.05 0 0.10 0.02 0.12 0.05 0.02 0.03 -0.01 0.04 -0.07 0.02 -0.06 -0.01 -0.15 0.03 -0.21 0.09 -0.06 0.07 -0.13 0.12 -0.14 0.11 -0.02 0 -0.12 -0.02 -0.22 -0.03z"/>
 </g>
 <g fill="#0d0a00">
  <path d="M19.48 39.68 c0 -0.03 -0.06 -0.09 -0.14 -0.13 -0.08 -0.04 -0.13 -0.10 -0.11 -0.13 0.02 -0.02 -0.01 -0.05 -0.06 -0.05 -0.05 0 -0.09 0.03 -0.09 0.06 0 0.09 -0.27 0.07 -0.37 -0.03 -0.05 -0.05 -0.10 -0.06 -0.13 -0.04 -0.03 0.02 -0.03 0.01 -0.01 -0.03 0.03 -0.06 0.33 -0.08 1.21 -0.07 0.65 0 1.12 0.02 1.06 0.05 -0.06 0.03 -0.26 0.03 -0.43 0.02 -0.34 -0.03 -0.46 0.05 -0.34 0.21 0.06 0.07 0.05 0.08 -0.08 0.05 -0.09 -0.02 -0.22 0 -0.31 0.05 -0.19 0.10 -0.21 0.10 -0.21 0.04z"/>
  <path d="M19.29 39.14 c0.03 -0.03 0.39 -0.03 0.95 -0.01 l0.90 0.05 -0.95 0.01 c-0.61 0 -0.94 -0.01 -0.90 -0.05z"/>
  <path d="M16.09 38.99 c-0.16 -0.04 -0.43 -0.08 -0.61 -0.08 -0.18 0 -0.46 -0.03 -0.64 -0.08 -0.17 -0.04 -0.45 -0.10 -0.61 -0.12 -0.16 -0.02 -0.38 -0.08 -0.48 -0.13 -0.10 -0.05 -0.23 -0.07 -0.28 -0.05 -0.08 0.03 -0.09 0.02 -0.02 -0.05 0.06 -0.08 0.06 -0.10 -0.05 -0.13 -0.14 -0.03 -0.12 -0.13 0.02 -0.13 0.05 0 0.08 0.02 0.05 0.05 -0.02 0.03 -0.01 0.07 0.02 0.09 0.03 0.02 0.07 0.01 0.09 -0.02 0.06 -0.09 0.23 -0.06 0.30 0.05 0.03 0.06 0.17 0.13 0.29 0.15 0.12 0.02 0.25 0.06 0.28 0.09 0.03 0.03 0.26 0.06 0.49 0.09 0.39 0.03 1.55 0.28 1.61 0.34 0.05 0.05 -0.20 0.02 -0.49 -0.06z"/>
  <path d="M11.34 37.69 c-0.12 -0.03 -0.14 -0.05 -0.05 -0.05 0.06 0 0.14 -0.03 0.17 -0.06 0.03 -0.03 0.08 -0.02 0.13 0.06 0.08 0.13 0.05 0.13 -0.25 0.06z"/>
  <path d="M31.65 37.25 c-0.18 -0.05 -0.16 -0.06 0.49 -0.55 0.09 -0.06 0.23 -0.22 0.31 -0.34 0.08 -0.12 0.20 -0.25 0.27 -0.29 0.12 -0.06 0.11 -0.04 -0.04 0.13 -0.09 0.11 0.06 -0.03 0.35 -0.31 0.28 -0.28 0.53 -0.48 0.54 -0.45 0.01 0.03 0.06 0.06 0.10 0.06 0.06 0 0.08 0.04 0.05 0.14 -0.02 0.08 -0.01 0.19 0.03 0.23 0.10 0.12 -0.03 0.23 -0.42 0.36 -0.25 0.09 -0.32 0.14 -0.41 0.31 -0.17 0.36 -0.30 0.53 -0.47 0.61 -0.17 0.09 -0.62 0.14 -0.81 0.10z"/>
  <path d="M10.26 37.01 c-0.01 -0.03 -0.01 -0.09 0 -0.14 0.02 -0.12 -0.06 -0.13 -0.22 -0.03 -0.09 0.05 -0.16 0.04 -0.39 -0.08 -0.39 -0.20 -0.39 -0.27 0.02 -0.24 0.27 0.02 0.40 0.06 0.64 0.24 0.26 0.17 0.29 0.21 0.20 0.25 -0.14 0.06 -0.25 0.06 -0.26 0.01z"/>
  <path d="M15.36 36.75 c0.05 -0.05 0.12 -0.05 0.26 -0.01 l0.19 0.06 -0.26 0.01 c-0.20 0.01 -0.24 -0.01 -0.19 -0.06z"/>
  <path d="M27.95 35.79 c0 -0.19 0.49 -0.31 0.78 -0.19 0.10 0.05 0.10 0.05 -0.04 0.05 -0.09 0.01 -0.21 0.03 -0.29 0.06 -0.24 0.09 -0.45 0.12 -0.45 0.08z"/>
  <path d="M33.98 34.71 c0 -0.04 0.04 -0.10 0.09 -0.14 0.10 -0.08 0.12 -0.20 0.03 -0.14 -0.12 0.07 -0.06 -0.07 0.08 -0.20 0.09 -0.08 0.17 -0.12 0.21 -0.09 0.05 0.03 0.06 0.02 0.03 -0.02 -0.02 -0.04 -0.01 -0.07 0.02 -0.07 0.03 0 0.12 -0.11 0.17 -0.24 0.11 -0.26 0.12 -0.25 0.20 0.05 0.01 0.03 -0.02 0.11 -0.06 0.17 -0.05 0.06 -0.09 0.08 -0.09 0.06 0 -0.08 -0.14 0.09 -0.31 0.37 -0.16 0.26 -0.39 0.42 -0.39 0.26z"/>
  <path d="M10.68 34.05 c-0.06 -0.19 -0.07 -0.26 -0.02 -0.31 0.10 -0.10 0.13 -0.03 0.12 0.28 l-0.02 0.28 -0.08 -0.25z"/>
  <path d="M35.48 31.19 c0 -0.08 0 -0.33 0.01 -0.57 0.01 -0.37 -0.01 -0.46 -0.11 -0.57 -0.14 -0.16 -0.17 -0.61 -0.05 -0.66 0.05 -0.02 0.03 -0.05 -0.04 -0.11 -0.08 -0.06 -0.12 -0.18 -0.13 -0.40 -0.02 -0.30 -0.02 -0.31 0.06 -0.17 0.05 0.08 0.10 0.14 0.12 0.13 0.10 -0.05 0.15 0 0.15 0.13 0 0.08 -0.02 0.13 -0.06 0.11 -0.04 -0.02 -0.05 0.05 -0.02 0.21 0.04 0.28 0.14 0.43 0.14 0.22 0 -0.11 0.01 -0.13 0.08 -0.06 0.04 0.04 0.08 0.25 0.08 0.52 0 0.24 0.02 0.58 0.05 0.74 0.03 0.24 0.02 0.34 -0.06 0.45 -0.12 0.19 -0.20 0.19 -0.21 0.02z"/>
  <path d="M8.30 30.58 c-0.01 -0.04 -0.06 -0.08 -0.13 -0.08 -0.10 0 -0.12 -0.03 -0.10 -0.19 0.02 -0.21 0.09 -0.25 0.23 -0.14 0.08 0.06 0.09 0.12 0.05 0.27 -0.02 0.11 -0.05 0.17 -0.05 0.13z"/>
  <path d="M9.28 27.31 c0.08 -0.05 0.08 -0.06 0.01 -0.11 -0.07 -0.05 -0.06 -0.11 0.05 -0.40 0.08 -0.20 0.12 -0.40 0.09 -0.47 -0.05 -0.15 0.08 -0.39 0.34 -0.64 0.15 -0.15 0.21 -0.17 0.21 -0.10 0 0.06 0.03 0.08 0.09 0.06 0.13 -0.05 0.10 0.05 -0.06 0.27 -0.08 0.11 -0.19 0.30 -0.25 0.43 -0.06 0.13 -0.18 0.32 -0.26 0.43 -0.17 0.23 -0.19 0.32 -0.06 0.27 0.06 -0.02 0.09 0 0.08 0.07 -0.02 0.10 -0.16 0.24 -0.25 0.24 -0.03 0 -0.02 -0.03 0.03 -0.06z"/>
  <path d="M34.52 27.04 c-0.09 -0.19 -0.10 -0.31 -0.02 -0.31 0.05 0 -0.16 -0.43 -0.48 -0.99 -0.08 -0.14 -0.08 -0.16 0.02 -0.25 0.09 -0.09 0.12 -0.08 0.28 0.07 0.10 0.09 0.19 0.20 0.19 0.23 0 0.04 0.02 0.07 0.06 0.07 0.03 0 0.07 0.10 0.09 0.22 0.02 0.12 0.08 0.26 0.13 0.32 0.08 0.09 0.08 0.13 0.02 0.30 -0.04 0.10 -0.07 0.26 -0.07 0.34 0 0.20 -0.12 0.20 -0.21 0z"/>
  <path d="M9.22 26.07 c0 -0.01 0.03 -0.09 0.07 -0.17 0.08 -0.16 0.17 -0.09 0.12 0.09 -0.03 0.09 -0.19 0.16 -0.19 0.08z"/>
  <path d="M33.75 25.49 c0 -0.05 0.03 -0.09 0.06 -0.09 0.03 0 0.06 0.04 0.06 0.09 0 0.05 -0.02 0.09 -0.06 0.09 -0.03 0 -0.06 -0.04 -0.06 -0.09z"/>
  <path d="M33.55 25.30 c-0.01 -0.02 -0.05 -0.21 -0.07 -0.42 -0.04 -0.37 -0.03 -0.38 0.07 -0.28 0.06 0.05 0.14 0.08 0.19 0.07 0.03 -0.02 0.07 -0.01 0.08 0.02 0 0.02 0.01 0.14 0.03 0.27 0.02 0.12 0 0.21 -0.03 0.21 -0.03 0 -0.05 0.04 -0.03 0.09 0.02 0.06 0 0.09 -0.08 0.09 -0.07 0 -0.13 -0.02 -0.15 -0.05z"/>
  <path d="M31.95 23.75 c0 -0.05 0.03 -0.09 0.08 -0.09 0.04 0 0.15 -0.08 0.24 -0.17 0.10 -0.11 0.22 -0.17 0.29 -0.16 0.06 0.01 0.10 0.03 0.09 0.05 -0.02 0.02 0.01 0.08 0.05 0.13 0.07 0.09 0.06 0.10 -0.05 0.10 -0.08 0 -0.12 0.03 -0.12 0.12 0 0.10 -0.04 0.12 -0.29 0.12 -0.22 0 -0.29 -0.02 -0.29 -0.09z"/>
  <path d="M28.48 21.92 c-0.10 -0.06 -0.20 -0.16 -0.22 -0.20 -0.02 -0.05 -0.11 -0.11 -0.20 -0.14 -0.11 -0.03 -0.20 -0.13 -0.26 -0.26 -0.05 -0.12 -0.12 -0.21 -0.14 -0.21 -0.10 0 -0.53 -0.20 -0.53 -0.24 0 -0.09 0.22 -0.04 0.43 0.10 0.12 0.08 0.39 0.32 0.61 0.53 0.22 0.22 0.45 0.42 0.50 0.46 0.18 0.12 0 0.08 -0.20 -0.04z"/>
  <path d="M24.19 19.75 c-0.20 -0.06 -0.22 -0.17 -0.03 -0.20 0.08 -0.01 0.14 0.03 0.19 0.13 0.03 0.08 0.06 0.14 0.05 0.14 -0.01 -0.01 -0.10 -0.04 -0.20 -0.08z"/>
  <path d="M18.15 19.35 c0.37 -0.37 0.47 -0.43 0.68 -0.46 0.19 -0.02 0.24 -0.01 0.24 0.05 0 0.05 0.05 0.08 0.12 0.08 0.27 0 0.08 0.10 -0.37 0.20 -0.35 0.08 -0.53 0.14 -0.62 0.24 -0.07 0.08 -0.16 0.14 -0.20 0.14 -0.03 0 -0.08 0.04 -0.10 0.09 -0.02 0.05 -0.06 0.09 -0.10 0.09 -0.04 0 0.12 -0.19 0.36 -0.43z"/>
  <path d="M22.93 19.63 c-0.02 -0.05 -0.04 -0.13 -0.06 -0.17 -0.01 -0.05 -0.09 -0.09 -0.16 -0.09 -0.08 0 -0.43 -0.10 -0.80 -0.22 -0.58 -0.19 -0.64 -0.22 -0.48 -0.25 0.10 -0.01 0.19 -0.01 0.19 0.02 0 0.08 0.47 0.23 0.72 0.23 0.24 0 0.61 0.14 0.66 0.25 0.01 0.02 0.11 0.04 0.21 0.04 0.25 0 0.30 0.08 0.13 0.20 -0.16 0.12 -0.39 0.12 -0.42 0.01z"/>
  <path d="M19.69 18.90 c-0.05 -0.08 0.02 -0.17 0.12 -0.17 0.10 0 0.27 0.14 0.21 0.20 -0.06 0.06 -0.30 0.04 -0.34 -0.02z"/>
  <path d="M20.72 18.90 l-0.24 -0.03 0.13 -0.16 c0.21 -0.27 0.73 -0.27 0.73 -0.01 0 0.05 -0.06 0.08 -0.12 0.08 -0.07 0 -0.16 0.03 -0.19 0.08 -0.04 0.05 -0.14 0.06 -0.31 0.04z"/>
 </g>
 <g fill="#d3ba7e">
  <path d="M19.32 39.11 c0.06 -0.07 0.13 -0.08 0.28 -0.05 0.12 0.02 0.59 0.06 1.05 0.08 l0.84 0.04 -1.13 0.01 c-1.02 0.01 -1.11 0.01 -1.04 -0.08z"/>
  <path d="M27.55 38.48 c0 -0.05 0.03 -0.09 0.07 -0.09 0.03 0 0.13 -0.06 0.21 -0.13 0.11 -0.11 0.21 -0.13 0.57 -0.14 0.32 -0.01 0.43 0.01 0.43 0.06 0 0.11 -0.23 0.21 -0.50 0.23 -0.13 0.01 -0.23 0.03 -0.22 0.05 0.01 0.02 -0.08 0.05 -0.20 0.08 -0.31 0.05 -0.36 0.05 -0.36 -0.05z"/>
  <path d="M13.14 38.27 c-0.47 -0.15 -0.53 -0.23 -0.16 -0.21 0.30 0.02 0.49 0.12 0.52 0.26 0.01 0.03 0.01 0.07 0 0.06 -0.01 0 -0.17 -0.05 -0.36 -0.11z"/>
  <path d="M21.18 37.04 c0 -0.07 0.11 -0.10 0.48 -0.13 0.26 -0.02 0.51 -0.03 0.56 -0.02 0.15 0.05 -0.16 0.15 -0.60 0.19 -0.37 0.03 -0.44 0.03 -0.44 -0.05z"/>
  <path d="M32.49 36.29 c0.05 -0.07 0.14 -0.17 0.23 -0.21 0.13 -0.08 0.12 -0.08 -0.03 0.12 -0.19 0.23 -0.32 0.30 -0.19 0.09z"/>
  <path d="M33.98 34.71 c0 -0.04 0.04 -0.11 0.09 -0.15 0.10 -0.08 0.12 -0.20 0.03 -0.14 -0.11 0.07 -0.06 -0.07 0.08 -0.19 0.30 -0.27 0.30 -0.25 0.08 0.28 -0.09 0.21 -0.27 0.35 -0.27 0.20z"/>
  <path d="M10.30 33.74 c-0.05 -0.07 -0.09 -0.14 -0.09 -0.17 0 -0.08 0.19 -0.11 0.27 -0.05 0.09 0.08 0.05 0.19 -0.05 0.13 -0.03 -0.02 -0.05 0.01 -0.02 0.09 0.05 0.16 0 0.16 -0.11 -0.01z"/>
  <path d="M33.62 30.70 c-0.04 -0.05 0.02 -0.45 0.08 -0.51 0.07 -0.08 0.09 -0.04 0.14 0.21 0.03 0.17 0.02 0.22 -0.08 0.27 -0.06 0.03 -0.13 0.05 -0.14 0.03z"/>
  <path d="M20.78 30.58 c-0.13 -0.02 -0.16 -0.10 -0.10 -0.27 0.06 -0.16 0.19 -0.10 0.21 0.11 0.01 0.11 0.02 0.20 0.02 0.20 0 -0.01 -0.06 -0.02 -0.13 -0.03z"/>
  <path d="M35.36 30.04 c-0.07 -0.06 -0.12 -0.24 -0.14 -0.50 -0.02 -0.22 -0.06 -0.44 -0.08 -0.49 -0.02 -0.05 -0.08 -0.24 -0.12 -0.43 -0.04 -0.19 -0.10 -0.39 -0.14 -0.46 -0.05 -0.08 -0.06 -0.16 -0.02 -0.26 0.08 -0.21 0.17 -0.09 0.26 0.38 0.05 0.22 0.12 0.45 0.17 0.52 0.07 0.11 0.24 1.28 0.20 1.32 -0.01 0.01 -0.07 -0.02 -0.12 -0.08z"/>
  <path d="M11.07 29.20 c-0.02 -0.18 0.03 -0.37 0.19 -0.61 0.18 -0.30 0.31 -0.40 0.50 -0.40 0.10 0 0.06 0.08 -0.24 0.48 -0.43 0.57 -0.45 0.60 -0.46 0.53z"/>
  <path d="M8.99 27.75 c0.03 -0.03 0.06 -0.10 0.06 -0.16 0 -0.06 0.06 -0.15 0.14 -0.21 0.08 -0.06 0.14 -0.16 0.14 -0.20 0 -0.05 0.04 -0.10 0.09 -0.12 0.07 -0.02 0.09 -0.01 0.06 0.05 -0.02 0.05 0 0.09 0.04 0.09 0.04 0 0.01 0.02 -0.06 0.06 -0.08 0.03 -0.12 0.08 -0.10 0.11 0.05 0.09 -0.23 0.45 -0.35 0.45 -0.06 0 -0.07 -0.02 -0.03 -0.06z"/>
  <path d="M32.80 27.23 c0.02 -0.05 0.06 -0.08 0.09 -0.08 0.09 0.03 0.06 0.13 -0.03 0.15 -0.06 0.01 -0.08 -0.01 -0.06 -0.08z"/>
  <path d="M34.56 27.16 c0 -0.06 -0.04 -0.16 -0.09 -0.21 -0.11 -0.15 -0.11 -0.21 0.01 -0.21 0.08 0 0.08 -0.02 0.02 -0.09 -0.06 -0.07 -0.05 -0.09 0.05 -0.09 0.13 0 0.20 0.13 0.12 0.22 -0.04 0.04 -0.03 0.10 0.01 0.19 0.07 0.13 0.04 0.29 -0.06 0.29 -0.03 0 -0.06 -0.05 -0.06 -0.10z"/>
  <path d="M10.34 25.45 c0.02 -0.07 0.04 -0.17 0.04 -0.20 0 -0.05 0.08 -0.08 0.18 -0.08 0.14 0 0.17 0.02 0.14 0.09 -0.02 0.05 -0.03 0.10 -0.03 0.12 0 0.01 -0.08 0.06 -0.18 0.12 -0.19 0.09 -0.19 0.09 -0.15 -0.05z"/>
  <path d="M33.67 25.53 c-0.06 -0.02 -0.16 -0.08 -0.23 -0.14 -0.07 -0.06 -0.14 -0.11 -0.16 -0.11 -0.02 0 -0.10 -0.12 -0.19 -0.27 -0.11 -0.20 -0.14 -0.34 -0.13 -0.52 0.02 -0.14 -0.01 -0.26 -0.05 -0.28 -0.03 -0.02 -0.08 -0.01 -0.09 0.02 -0.02 0.08 -0.38 -0.05 -0.55 -0.20 -0.08 -0.08 -0.23 -0.10 -0.67 -0.10 -0.61 -0.01 -0.84 -0.09 -0.90 -0.32 -0.03 -0.14 0.03 -0.14 0.48 0.03 0.33 0.12 1.18 0.08 1.12 -0.07 -0.05 -0.12 0.13 -0.10 0.36 0.05 0.22 0.14 0.26 0.21 0.11 0.21 -0.05 0 -0.08 0.03 -0.06 0.08 0.01 0.04 0.09 0.06 0.17 0.05 0.13 -0.02 0.16 0.01 0.16 0.10 0 0.07 0.02 0.12 0.05 0.12 0.08 0 0.38 0.28 0.49 0.47 0.05 0.08 0.10 0.23 0.12 0.32 0.01 0.09 0.05 0.24 0.09 0.33 0.03 0.09 0.06 0.19 0.06 0.22 0 0.05 -0.02 0.06 -0.20 0.01z"/>
  <path d="M11.54 24.59 c0 -0.10 0.36 -0.35 0.50 -0.35 0.14 0 0.14 0 0.03 0.12 -0.12 0.13 -0.53 0.31 -0.53 0.24z"/>
  <path d="M29.47 23.80 c-0.03 -0.05 -0.12 -0.10 -0.19 -0.12 -0.08 -0.01 -0.15 -0.02 -0.16 -0.02 -0.01 -0.01 0.01 -0.05 0.05 -0.09 0.09 -0.10 0.26 -0.03 0.35 0.15 0.08 0.14 0.03 0.22 -0.05 0.08z"/>
  <path d="M13.45 23.24 c0 -0.10 0.18 -0.27 0.27 -0.23 0.06 0.02 0.06 0.06 0.02 0.13 -0.06 0.12 -0.29 0.20 -0.29 0.10z"/>
  <path d="M30.14 22.98 c-0.03 -0.04 -0.10 -0.06 -0.19 -0.03 -0.13 0.03 -0.48 -0.13 -0.41 -0.20 0.02 -0.01 0.01 -0.08 -0.03 -0.13 -0.08 -0.16 0.02 -0.14 0.23 0.04 0.13 0.11 0.20 0.13 0.26 0.09 0.11 -0.09 0.23 0.01 0.20 0.17 -0.01 0.10 -0.03 0.12 -0.06 0.06z"/>
  <path d="M13.89 22.81 c0.05 -0.10 0.13 -0.21 0.17 -0.26 0.14 -0.12 0.09 0.02 -0.09 0.23 l-0.17 0.20 0.09 -0.18z"/>
  <path d="M29.06 22.45 c-0.08 -0.02 -0.15 -0.07 -0.17 -0.11 -0.02 -0.08 0.14 -0.09 0.19 -0.01 0.02 0.03 0.09 0.06 0.15 0.06 0.06 0 0.10 0.03 0.08 0.06 -0.04 0.06 -0.05 0.06 -0.26 0.01z"/>
  <path d="M18.16 22.36 c-0.30 -0.06 -0.31 -0.07 -0.20 -0.17 0.15 -0.13 0.32 -0.13 0.48 0.02 0.09 0.08 0.21 0.12 0.36 0.12 0.14 0 0.21 0.02 0.19 0.06 -0.05 0.08 -0.43 0.06 -0.83 -0.02z"/>
  <path d="M16.08 20.92 c-0.08 -0.13 0.50 -0.48 0.61 -0.36 0.05 0.05 -0.30 0.35 -0.46 0.39 -0.06 0.02 -0.13 0 -0.15 -0.03z"/>
  <path d="M25.78 20.35 c-0.06 -0.03 -0.19 -0.05 -0.27 -0.05 -0.16 -0.01 -0.39 -0.15 -0.34 -0.20 0.04 -0.04 0.58 0.06 0.82 0.15 0.09 0.03 0.14 0.08 0.13 0.11 -0.03 0.06 -0.19 0.06 -0.34 -0.01z"/>
 </g>
 <g fill="#000008">
  <path d="M16.73 40.09 c-0.06 -0.02 -0.17 -0.07 -0.25 -0.12 -0.13 -0.08 -0.13 -0.10 -0.05 -0.16 0.05 -0.04 0.09 -0.10 0.09 -0.13 0 -0.13 0.29 -0.14 0.53 -0.03 0.21 0.10 0.30 0.20 0.17 0.20 -0.03 0 -0.07 0.06 -0.09 0.14 -0.03 0.14 -0.13 0.17 -0.40 0.10z"/>
  <path d="M29.59 38.51 c-0.08 -0.03 -0.13 -0.06 -0.13 -0.07 0 -0.05 0.46 -0.03 0.46 0.01 0 0.04 -0.15 0.13 -0.19 0.12 -0.01 0 -0.07 -0.02 -0.14 -0.05z"/>
  <path d="M30.11 38.44 c0.03 -0.09 0.16 -0.10 0.17 -0.02 0 0.03 -0.04 0.07 -0.10 0.08 -0.06 0.02 -0.09 -0.01 -0.07 -0.06z"/>
  <path d="M31.45 38.12 c-0.09 -0.03 -0.10 -0.13 -0.02 -0.13 0.03 0 0.12 -0.07 0.20 -0.16 0.14 -0.16 0.27 -0.14 0.27 0.04 0 0.08 -0.03 0.10 -0.09 0.08 -0.06 -0.02 -0.13 0.01 -0.19 0.08 -0.05 0.06 -0.13 0.11 -0.16 0.09z"/>
  <path d="M33.33 36.50 c0.03 -0.10 0.14 -0.09 0.18 0.02 0.01 0.04 -0.03 0.07 -0.10 0.07 -0.08 0 -0.11 -0.03 -0.08 -0.09z"/>
  <path d="M27.46 32.47 c-0.02 -0.03 0.01 -0.08 0.06 -0.09 0.11 -0.05 0.17 0 0.12 0.09 -0.05 0.08 -0.13 0.08 -0.17 0.01z"/>
  <path d="M36.12 30.63 c-0.05 -0.05 -0.10 -0.21 -0.10 -0.34 -0.01 -0.21 0.01 -0.25 0.10 -0.25 0.06 0 0.13 0.05 0.14 0.10 0.02 0.06 0.03 0.05 0.02 -0.05 0 -0.08 0.01 -0.21 0.01 -0.29 0.01 -0.13 0.02 -0.12 0.10 0.08 0.05 0.12 0.10 0.21 0.13 0.21 0.02 0 0.02 0.15 0.01 0.33 -0.02 0.29 -0.03 0.32 -0.08 0.19 l-0.06 -0.14 -0.06 0.13 c-0.07 0.15 -0.10 0.16 -0.22 0.02z"/>
  <path d="M8.99 26.19 c0 -0.05 0.05 -0.12 0.12 -0.16 0.06 -0.03 0.13 -0.13 0.15 -0.20 0.04 -0.17 0.12 -0.19 0.15 -0.04 0.04 0.16 -0.01 0.30 -0.11 0.30 -0.05 0 -0.14 0.04 -0.20 0.10 -0.09 0.09 -0.10 0.09 -0.10 0z"/>
  <path d="M30.98 22.70 c-0.13 -0.09 -0.13 -0.10 -0.04 -0.20 0.08 -0.09 0.08 -0.13 0.03 -0.23 -0.06 -0.12 -0.06 -0.13 0.13 -0.10 0.32 0.04 0.56 0.23 0.46 0.37 -0.06 0.09 -0.32 0.26 -0.39 0.26 -0.03 0 -0.12 -0.04 -0.19 -0.09z"/>
  <path d="M20.62 18.21 c0.02 -0.03 -0.06 -0.06 -0.21 -0.06 -0.33 0 -0.22 -0.13 0.12 -0.14 0.30 -0.01 0.41 0.09 0.21 0.19 -0.09 0.04 -0.14 0.05 -0.12 0.01z"/>
  <path d="M20.95 18.17 c-0.04 -0.10 0.03 -0.19 0.16 -0.19 0.08 0 0.11 0.04 0.11 0.14 0 0.11 -0.03 0.14 -0.12 0.13 -0.07 -0.01 -0.13 -0.04 -0.15 -0.08z"/>
  <path d="M8.64 15.69 c0 -0.11 0.01 -0.20 0.02 -0.20 0.01 0 0.06 -0.02 0.12 -0.03 0.07 -0.03 0.09 0 0.09 0.11 0 0.21 -0.06 0.33 -0.15 0.33 -0.05 0 -0.08 -0.07 -0.08 -0.20z"/>
  <path d="M8.67 15.25 c-0.05 -0.08 0.02 -0.17 0.12 -0.17 0.09 0 0.09 0.01 0.05 0.14 -0.04 0.10 -0.12 0.12 -0.17 0.03z"/>
  <path d="M26.24 11.54 c-0.02 -0.03 -0.02 -0.09 0.02 -0.13 0.03 -0.03 0.07 -0.03 0.10 0.01 0.02 0.03 0.02 0.09 -0.02 0.13 -0.03 0.03 -0.07 0.03 -0.10 -0.01z"/>
  <path d="M27.08 10.68 c0 -0.06 -0.05 -0.12 -0.10 -0.13 -0.09 -0.02 -0.08 -0.04 0.06 -0.13 0.14 -0.09 0.17 -0.09 0.21 -0.02 0.03 0.04 0.06 0.06 0.07 0.05 0.01 -0.02 0.07 -0.10 0.12 -0.19 0.06 -0.09 0.20 -0.20 0.31 -0.25 0.29 -0.12 0.30 -0.11 0.12 0.08 l-0.16 0.17 0.21 -0.07 c0.12 -0.04 0.27 -0.15 0.34 -0.24 0.12 -0.14 0.13 -0.15 0.22 -0.06 0.14 0.13 0.20 0.12 0.42 -0.11 0.11 -0.11 0.21 -0.20 0.24 -0.20 0.03 0 0.09 0.08 0.13 0.17 0.08 0.19 0.09 0.16 -0.17 0.48 -0.12 0.14 -0.46 0.28 -0.55 0.22 -0.08 -0.06 -0.24 -0.07 -0.42 -0.03 -0.16 0.03 -0.18 0.14 -0.03 0.14 0.07 0 0.08 0.02 0.03 0.06 -0.10 0.10 -0.20 0 -0.17 -0.15 0.02 -0.08 0.01 -0.15 -0.02 -0.17 -0.09 -0.06 -0.69 0.24 -0.73 0.37 -0.05 0.14 -0.14 0.15 -0.14 0.01z m1.72 -0.44 c0.02 -0.05 0.02 -0.10 0 -0.12 -0.04 -0.05 -0.27 0.09 -0.27 0.15 0 0.09 0.23 0.06 0.27 -0.03z"/>
  <path d="M30.54 10.22 c-0.03 -0.02 -0.14 -0.05 -0.26 -0.05 -0.19 0 -0.21 -0.02 -0.23 -0.16 -0.01 -0.09 -0.05 -0.16 -0.10 -0.16 -0.05 0 -0.08 -0.02 -0.08 -0.04 0 -0.03 0.12 -0.05 0.27 -0.06 0.15 -0.01 0.29 -0.04 0.32 -0.08 0.02 -0.05 0.06 -0.06 0.08 -0.04 0.02 0.02 -0.02 0.09 -0.08 0.16 -0.07 0.07 -0.12 0.16 -0.12 0.21 0 0.13 0.19 0.10 0.31 -0.03 0.12 -0.14 0.24 -0.16 0.16 -0.01 -0.12 0.20 -0.21 0.31 -0.26 0.26z"/>
 </g>
 <g fill="#130900">
  <path d="M26.83 38.68 c-0.05 -0.06 -0.10 -0.13 -0.10 -0.14 0 -0.05 0.74 -0.16 1.05 -0.14 0.23 0.01 0.37 -0.01 0.44 -0.08 0.06 -0.05 0.22 -0.12 0.37 -0.16 0.14 -0.04 0.35 -0.14 0.45 -0.22 0.10 -0.08 0.22 -0.13 0.26 -0.12 0.05 0.02 0.04 0.03 -0.02 0.03 -0.05 0.01 -0.12 0.06 -0.14 0.13 -0.08 0.17 -0.50 0.37 -1.04 0.49 -0.26 0.05 -0.60 0.14 -0.78 0.21 -0.38 0.13 -0.37 0.13 -0.49 -0.01z"/>
  <path d="M30.22 38.02 c-0.12 -0.14 -0.05 -0.27 0.21 -0.41 0.14 -0.08 0.30 -0.17 0.35 -0.22 0.05 -0.05 0.16 -0.10 0.24 -0.12 0.12 -0.03 0.16 -0.01 0.21 0.10 0.06 0.13 0.05 0.17 -0.09 0.31 -0.28 0.31 -0.80 0.49 -0.93 0.34z"/>
  <path d="M33.51 35.68 c-0.14 -0.03 -0.13 -0.14 0.01 -0.27 0.13 -0.12 0.14 -0.11 0.20 0.06 0.04 0.14 -0.06 0.24 -0.21 0.21z"/>
  <path d="M10.32 33.18 c-0.06 -0.06 -0.09 -0.26 -0.10 -0.60 -0.02 -0.46 -0.01 -0.51 0.09 -0.51 0.09 0 0.10 0.06 0.10 0.61 0 0.34 0 0.61 0 0.61 0 -0.01 -0.04 -0.05 -0.09 -0.10z"/>
  <path d="M35.01 32.99 c0.04 -0.05 0.06 -0.10 0.05 -0.12 -0.01 -0.02 0.04 -0.25 0.12 -0.52 0.08 -0.27 0.14 -0.43 0.14 -0.35 0.01 0.12 0.02 0.13 0.06 0.06 0.05 -0.08 0.06 -0.08 0.11 -0.01 0.03 0.06 0.02 0.14 -0.03 0.26 -0.05 0.09 -0.08 0.20 -0.06 0.23 0.04 0.11 -0.06 0.25 -0.26 0.39 -0.10 0.08 -0.16 0.09 -0.12 0.05z"/>
  <path d="M35.37 31.66 c0.02 -0.08 0.07 -0.35 0.09 -0.61 l0.04 -0.46 0.09 0.20 c0.11 0.27 0.06 0.62 -0.13 0.84 -0.14 0.16 -0.14 0.17 -0.09 0.03z"/>
  <path d="M34.46 26.59 c-0.07 -0.12 -0.14 -0.28 -0.16 -0.37 -0.03 -0.15 -0.02 -0.16 0.14 -0.16 0.15 0.01 0.17 0.03 0.17 0.18 0 0.10 0.03 0.24 0.06 0.32 0.05 0.14 0.03 0.23 -0.05 0.23 -0.02 0 -0.09 -0.09 -0.17 -0.20z"/>
  <path d="M33.44 24.83 c-0.12 -0.16 -0.23 -0.30 -0.26 -0.30 -0.05 0 -0.35 -0.47 -0.35 -0.55 0 -0.02 0.05 -0.03 0.12 -0.03 0.06 0 0.12 0.02 0.12 0.06 0 0.03 0.10 0.10 0.22 0.16 0.15 0.08 0.22 0.15 0.23 0.25 0.01 0.08 0.05 0.17 0.07 0.20 0.10 0.12 0.16 0.36 0.12 0.43 -0.03 0.05 -0.12 -0.02 -0.26 -0.22z"/>
  <path d="M32.45 23.75 c-0.18 -0.17 -0.17 -0.28 0.02 -0.31 0.09 -0.02 0.18 0.03 0.27 0.13 0.14 0.15 0.18 0.27 0.09 0.27 -0.03 0 -0.09 0.01 -0.13 0.03 -0.05 0.02 -0.16 -0.03 -0.24 -0.12z"/>
  <path d="M30.56 23.32 c-0.08 -0.05 -0.24 -0.19 -0.35 -0.28 -0.11 -0.10 -0.23 -0.19 -0.25 -0.19 -0.03 0 -0.02 -0.03 0.02 -0.08 0.08 -0.10 0.23 -0.06 0.23 0.05 0 0.04 0.06 0.10 0.13 0.13 0.10 0.05 0.44 0.48 0.37 0.48 -0.01 0 -0.08 -0.05 -0.16 -0.10z"/>
  <path d="M27.90 23.26 c-0.06 -0.04 -0.03 -0.24 0.05 -0.24 0.02 0.01 0.09 0.03 0.17 0.08 l0.13 0.08 -0.14 0.06 c-0.08 0.03 -0.17 0.05 -0.21 0.02z"/>
  <path d="M25.20 22.20 c-0.11 -0.07 -0.23 -0.10 -0.33 -0.09 -0.10 0.02 -0.18 -0.01 -0.23 -0.06 -0.07 -0.09 -0.05 -0.09 0.16 -0.05 0.24 0.05 0.82 0.32 0.67 0.32 -0.05 0 -0.16 -0.05 -0.26 -0.12z"/>
  <path d="M29.05 10.19 c0 -0.05 0.03 -0.11 0.06 -0.13 0.05 -0.03 0.04 -0.06 0 -0.12 -0.03 -0.05 -0.06 -0.14 -0.05 -0.21 0.01 -0.11 0.06 -0.13 0.27 -0.15 0.21 -0.02 0.25 -0.01 0.22 0.07 -0.03 0.07 0.01 0.09 0.15 0.10 0.10 0.01 0.25 0.03 0.33 0.05 0.13 0.05 0.12 0.05 -0.06 0.04 -0.11 0 -0.26 0.03 -0.33 0.06 -0.07 0.04 -0.17 0.07 -0.23 0.07 -0.05 0 -0.16 0.07 -0.23 0.16 -0.10 0.11 -0.13 0.13 -0.13 0.06z"/>
 </g>
</svg>