<?xml version="1.0" encoding="utf-8"?>
<!DOCTYPE svg PUBLIC "-//W3C//DTD SVG 1.0//EN" "http://www.w3.org/TR/2001/REC-SVG-20010904/DTD/svg10.dtd">
<svg version="1.0" xmlns="http://www.w3.org/2000/svg" width="50px" height="47px" viewBox="0 0 50 47" preserveAspectRatio="xMidYMid meet">
 <g fill="#000000">
  <path d="M21.66 40.65 c0 -0.05 -0.09 -0.06 -0.24 -0.04 -0.17 0.02 -0.29 0 -0.41 -0.09 -0.10 -0.06 -0.22 -0.12 -0.28 -0.12 -0.06 0 -0.12 -0.06 -0.14 -0.12 -0.04 -0.15 -0.30 -0.17 -0.42 -0.02 -0.11 0.13 -0.57 0.09 -0.74 -0.07 -0.11 -0.09 -0.15 -0.10 -0.24 -0.04 -0.15 0.09 -0.43 0.10 -0.43 0.01 0 -0.04 -0.06 -0.06 -0.12 -0.04 -0.06 0.02 -0.15 -0.01 -0.19 -0.05 -0.04 -0.04 -0.20 -0.09 -0.36 -0.11 -0.38 -0.04 -0.45 -0.06 -0.63 -0.16 -0.08 -0.04 -0.16 -0.06 -0.19 -0.02 -0.05 0.08 -0.56 0.09 -0.56 0.01 0 -0.04 -0.02 -0.05 -0.04 -0.04 -0.03 0.02 -0.20 0.01 -0.39 -0.02 -0.25 -0.04 -0.37 -0.09 -0.47 -0.22 -0.11 -0.14 -0.16 -0.15 -0.33 -0.12 -0.14 0.03 -0.25 0.01 -0.42 -0.09 -0.12 -0.07 -0.26 -0.12 -0.31 -0.10 -0.05 0.02 -0.19 -0.03 -0.32 -0.12 -0.13 -0.09 -0.32 -0.15 -0.43 -0.15 -0.15 0 -0.20 -0.03 -0.20 -0.10 0 -0.07 -0.04 -0.09 -0.12 -0.07 -0.15 0.04 -0.37 -0.11 -0.45 -0.31 -0.03 -0.08 -0.08 -0.13 -0.12 -0.11 -0.03 0.02 -0.06 0.01 -0.06 -0.03 0 -0.04 -0.05 -0.06 -0.11 -0.04 -0.07 0.02 -0.17 -0.01 -0.25 -0.09 -0.07 -0.07 -0.16 -0.12 -0.19 -0.12 -0.04 0 -0.09 -0.04 -0.11 -0.08 -0.02 -0.04 -0.14 -0.12 -0.25 -0.16 -0.11 -0.04 -0.30 -0.19 -0.41 -0.32 -0.12 -0.13 -0.23 -0.22 -0.25 -0.20 -0.02 0.02 -0.04 0.01 -0.04 -0.03 0 -0.04 -0.06 -0.07 -0.12 -0.07 -0.07 0 -0.12 -0.02 -0.11 -0.04 0.01 -0.03 -0.04 -0.14 -0.11 -0.25 -0.08 -0.13 -0.15 -0.19 -0.21 -0.17 -0.06 0.02 -0.07 0.02 -0.06 -0.01 0.02 -0.02 -0.04 -0.12 -0.14 -0.24 -0.13 -0.14 -0.17 -0.23 -0.15 -0.33 0.02 -0.11 0 -0.15 -0.12 -0.21 -0.10 -0.04 -0.15 -0.11 -0.12 -0.16 0.02 -0.05 0 -0.13 -0.04 -0.19 -0.04 -0.05 -0.07 -0.11 -0.07 -0.13 0.05 -0.11 -0.07 -0.26 -0.17 -0.24 -0.12 0.03 -0.14 -0.02 -0.12 -0.31 0.01 -0.08 -0.02 -0.14 -0.07 -0.14 -0.05 0 -0.06 -0.07 -0.04 -0.22 0.04 -0.25 0 -0.40 -0.11 -0.40 -0.09 0 -0.36 -0.60 -0.31 -0.68 0.02 -0.03 0.01 -0.07 -0.03 -0.09 -0.11 -0.06 -0.08 -0.69 0.03 -0.74 0.12 -0.04 0.12 -0.19 0 -0.28 -0.14 -0.11 -0.14 -1.50 0 -1.61 0.11 -0.09 0.12 -0.28 0.03 -0.34 -0.07 -0.04 -0.09 -0.65 -0.01 -0.65 0.02 0 0.04 -0.11 0.05 -0.25 0 -0.14 0.04 -0.27 0.07 -0.30 0.04 -0.02 0.06 -0.09 0.04 -0.15 -0.02 -0.06 0.01 -0.15 0.07 -0.22 0.06 -0.07 0.09 -0.12 0.07 -0.12 -0.02 0 0 -0.08 0.06 -0.19 0.05 -0.10 0.09 -0.26 0.09 -0.37 0 -0.10 0.03 -0.20 0.07 -0.22 0.04 -0.02 0.14 -0.20 0.22 -0.41 0.09 -0.20 0.20 -0.38 0.27 -0.40 0.07 -0.02 0.12 -0.08 0.12 -0.13 0 -0.11 0.25 -0.60 0.33 -0.63 0.02 -0.01 0.04 -0.05 0.04 -0.08 0 -0.12 0.40 -0.67 0.48 -0.67 0.04 0 0.07 -0.04 0.07 -0.07 -0.01 -0.04 0.05 -0.19 0.14 -0.33 0.08 -0.14 0.15 -0.26 0.15 -0.28 0 -0.07 0.31 -0.53 0.38 -0.58 0.04 -0.03 0.07 -0.07 0.05 -0.10 -0.01 -0.03 0.05 -0.29 0.14 -0.58 0.14 -0.41 0.22 -0.58 0.41 -0.77 0.26 -0.25 0.26 -0.23 0.22 -0.99 -0.01 -0.04 -0.04 -0.08 -0.09 -0.08 -0.06 0 -0.07 -0.04 -0.06 -0.12 0.02 -0.08 -0.01 -0.12 -0.11 -0.15 -0.07 -0.02 -0.12 -0.06 -0.09 -0.10 0.02 -0.04 0.01 -0.07 -0.02 -0.07 -0.04 0 -0.07 -0.04 -0.07 -0.09 0 -0.04 -0.10 -0.35 -0.22 -0.66 -0.12 -0.32 -0.23 -0.74 -0.25 -0.92 -0.02 -0.24 -0.06 -0.36 -0.15 -0.43 -0.07 -0.05 -0.14 -0.17 -0.14 -0.28 -0.01 -0.10 -0.05 -0.22 -0.09 -0.27 -0.04 -0.04 -0.07 -0.18 -0.07 -0.30 0.01 -0.12 -0.02 -0.24 -0.06 -0.26 -0.08 -0.06 -0.14 -0.24 -0.09 -0.29 0.06 -0.06 0.01 -0.48 -0.07 -0.56 -0.09 -0.08 -0.28 -1.22 -0.32 -1.87 -0.01 -0.27 -0.04 -0.53 -0.06 -0.59 -0.07 -0.19 0 -2.56 0.08 -2.66 0.04 -0.05 0.06 -0.10 0.04 -0.12 -0.03 -0.04 0.03 -0.28 0.33 -1.29 0.06 -0.19 0.11 -0.37 0.13 -0.40 0.02 -0.03 0.04 -0.14 0.06 -0.25 0.02 -0.21 0.14 -0.76 0.19 -0.90 0.02 -0.05 0.03 -0.15 0.02 -0.23 -0.01 -0.07 0.02 -0.15 0.05 -0.17 0.04 -0.02 0.07 -0.15 0.07 -0.28 0 -0.23 0.26 -0.83 0.40 -0.93 0.04 -0.03 0.04 -0.05 0 -0.06 -0.03 -0.01 0.02 -0.02 0.12 -0.05 0.11 -0.02 0.19 -0.09 0.20 -0.15 0.03 -0.16 0.32 -0.59 0.40 -0.59 0.03 0 0.04 0.03 0.02 0.06 -0.02 0.04 -0.01 0.06 0.01 0.06 0.03 0 0.11 -0.09 0.17 -0.20 0.15 -0.25 0.53 -0.58 0.64 -0.56 0.04 0.01 0.08 -0.02 0.08 -0.08 0 -0.10 0.01 -0.10 0.24 -0.12 0.08 -0.01 0.17 -0.06 0.20 -0.12 0.09 -0.17 0.37 -0.27 0.75 -0.29 0.28 -0.01 0.40 -0.05 0.52 -0.16 0.09 -0.08 0.19 -0.14 0.24 -0.12 0.04 0.01 0.14 -0.01 0.24 -0.06 0.10 -0.06 0.16 -0.06 0.16 -0.02 0 0.04 0.02 0.04 0.07 0.01 0.09 -0.07 0.17 -0.07 0.28 0.01 0.05 0.03 0.11 0.02 0.15 -0.02 0.09 -0.09 0.50 -0.09 0.75 -0.01 0.88 0.28 1.17 0.40 1.19 0.50 0.03 0.12 0.33 0.30 0.42 0.27 0.04 -0.02 0.13 0.03 0.20 0.10 0.07 0.07 0.14 0.11 0.14 0.09 0 -0.02 0.06 0.01 0.12 0.07 0.07 0.06 0.12 0.17 0.12 0.23 0 0.07 0.03 0.11 0.08 0.09 0.14 -0.05 0.30 0.09 0.43 0.38 0.07 0.16 0.12 0.32 0.12 0.35 -0.01 0.03 0.06 0.13 0.15 0.23 0.09 0.09 0.14 0.20 0.12 0.23 -0.02 0.03 0.01 0.09 0.06 0.14 0.05 0.04 0.07 0.11 0.06 0.14 -0.02 0.03 0.01 0.11 0.07 0.17 0.06 0.06 0.11 0.15 0.12 0.21 0.01 0.05 0.06 0.14 0.12 0.21 0.06 0.06 0.11 0.17 0.12 0.24 0.01 0.06 0.04 0.15 0.07 0.20 0.02 0.04 0.03 0.10 0.01 0.12 -0.02 0.02 0.04 0.12 0.12 0.24 0.09 0.11 0.16 0.28 0.17 0.39 0.01 0.11 0.04 0.22 0.06 0.24 0.07 0.06 0.05 0.39 -0.02 0.39 -0.03 0 -0.06 0.06 -0.06 0.12 0 0.07 0.02 0.12 0.06 0.12 0.02 0 0.07 0.17 0.09 0.37 0.02 0.20 0.07 0.37 0.10 0.37 0.09 0 0.07 0.24 -0.01 0.27 -0.06 0.02 -0.04 0.07 0.06 0.16 0.10 0.10 0.14 0.20 0.14 0.41 0 0.15 -0.02 0.28 -0.05 0.28 -0.03 0 -0.06 0.14 -0.06 0.31 0 0.17 0.02 0.31 0.05 0.31 0.03 0 0.06 0.38 0.06 0.84 0 0.70 -0.01 0.84 -0.09 0.84 -0.11 0 -0.12 0.14 -0.02 0.30 0.04 0.06 0.05 0.16 0.02 0.23 -0.02 0.07 -0.04 0.27 -0.04 0.47 0.01 0.19 -0.02 0.46 -0.06 0.59 -0.09 0.29 -0.04 0.50 0.09 0.39 0.10 -0.08 0.64 -0.11 0.79 -0.05 0.06 0.03 0.14 0.01 0.19 -0.04 0.11 -0.11 1.33 -0.14 1.45 -0.04 0.05 0.04 0.09 0.04 0.12 -0.01 0.06 -0.09 0.26 -0.07 0.30 0.03 0.04 0.11 0.28 0.13 0.28 0.03 0 -0.09 0.25 -0.07 0.45 0.02 0.10 0.06 0.19 0.07 0.20 0.03 0.02 -0.03 0.09 -0.06 0.15 -0.06 0.08 0 0.17 -0.13 0.31 -0.41 0.11 -0.24 0.24 -0.50 0.28 -0.59 0.06 -0.12 0.07 -0.21 0.03 -0.28 -0.06 -0.11 0.12 -0.56 0.28 -0.73 0.04 -0.04 0.06 -0.13 0.04 -0.20 -0.04 -0.16 0.08 -0.51 0.31 -0.90 0.10 -0.17 0.17 -0.32 0.17 -0.33 -0.01 -0.01 0.01 -0.08 0.03 -0.15 0.02 -0.07 0.04 -0.16 0.03 -0.19 -0.01 -0.09 0.49 -1.07 0.59 -1.16 0.04 -0.04 0.07 -0.09 0.05 -0.12 -0.02 -0.03 0.02 -0.13 0.09 -0.22 0.07 -0.09 0.13 -0.22 0.13 -0.28 0 -0.13 0.35 -0.47 0.45 -0.44 0.04 0.01 0.05 -0.02 0.03 -0.07 -0.07 -0.17 0.22 -0.56 0.80 -1.09 0.38 -0.35 0.64 -0.54 0.79 -0.58 0.12 -0.03 0.22 -0.08 0.22 -0.11 0 -0.12 0.26 -0.30 0.44 -0.30 0.14 0 0.20 -0.03 0.22 -0.12 0.04 -0.17 0.48 -0.32 1 -0.35 0.45 -0.02 0.63 -0.09 0.63 -0.25 0 -0.11 1.34 -0.11 1.52 0.01 0.07 0.04 0.28 0.09 0.48 0.12 0.28 0.04 0.45 0.11 0.81 0.35 0.49 0.32 0.80 0.61 0.66 0.61 -0.12 0 0.19 0.29 0.40 0.37 0.09 0.03 0.16 0.10 0.14 0.14 -0.04 0.10 0.11 0.38 0.32 0.61 0.09 0.11 0.16 0.21 0.15 0.24 -0.01 0.03 0.01 0.06 0.04 0.06 0.07 0 0.27 0.49 0.22 0.56 -0.02 0.03 0 0.11 0.05 0.16 0.07 0.09 0.07 0.10 -0.01 0.05 -0.07 -0.04 -0.06 -0.02 0.02 0.07 0.11 0.13 0.15 0.45 0.04 0.45 -0.03 0 -0.06 0.13 -0.06 0.30 0.01 0.16 0.02 0.23 0.04 0.15 0.06 -0.29 0.14 -0.13 0.14 0.26 0 0.22 -0.02 0.40 -0.04 0.40 -0.03 0 -0.04 0.24 -0.03 0.54 0.01 0.41 0 0.52 -0.05 0.45 -0.06 -0.07 -0.07 -0.06 -0.05 0.10 0.01 0.11 -0.01 0.22 -0.06 0.26 -0.04 0.04 -0.06 0.11 -0.04 0.16 0.02 0.05 -0.02 0.12 -0.08 0.17 -0.07 0.06 -0.12 0.19 -0.14 0.33 -0.01 0.14 -0.06 0.32 -0.11 0.42 -0.06 0.11 -0.07 0.17 -0.02 0.17 0.06 0 0.06 0.10 -0.02 0.60 -0.01 0.04 -0.03 0.06 -0.06 0.04 -0.02 -0.02 -0.05 0 -0.05 0.04 0 0.04 -0.05 0.13 -0.11 0.20 -0.07 0.08 -0.09 0.13 -0.04 0.15 0.06 0.02 0.04 0.11 -0.02 0.33 -0.05 0.17 -0.12 0.29 -0.14 0.28 -0.02 -0.02 -0.06 0.02 -0.08 0.07 -0.02 0.06 -0.01 0.12 0.02 0.14 0.08 0.05 -0.04 0.37 -0.14 0.37 -0.03 0 -0.04 0.03 -0.02 0.06 0.02 0.04 -0.01 0.08 -0.06 0.10 -0.06 0.02 -0.09 0.08 -0.07 0.12 0.02 0.05 -0.01 0.17 -0.06 0.28 -0.05 0.11 -0.09 0.18 -0.09 0.14 0 -0.03 -0.04 -0.01 -0.09 0.05 -0.04 0.07 -0.07 0.15 -0.06 0.20 0.02 0.04 -0.02 0.14 -0.09 0.21 -0.07 0.07 -0.13 0.19 -0.13 0.25 0 0.07 -0.05 0.14 -0.11 0.17 -0.18 0.06 -0.45 0.40 -0.45 0.55 0 0.07 -0.04 0.15 -0.08 0.17 -0.04 0.01 -0.08 0.11 -0.09 0.20 -0.01 0.10 -0.07 0.25 -0.13 0.34 -0.14 0.19 -0.06 0.34 0.13 0.24 0.09 -0.05 0.11 -0.04 0.11 0.05 0 0.06 0.09 0.16 0.19 0.22 0.11 0.06 0.19 0.15 0.19 0.20 0 0.09 0.31 0.35 0.43 0.35 0.11 0 0.69 0.27 0.69 0.32 0 0.02 0.04 0.05 0.09 0.05 0.05 0 0.09 0.04 0.09 0.09 0 0.05 0.04 0.09 0.08 0.09 0.04 0 0.17 0.17 0.28 0.37 0.14 0.26 0.25 0.38 0.36 0.41 0.22 0.06 0.49 0.31 0.38 0.36 -0.06 0.03 -0.06 0.04 0 0.07 0.04 0.02 0.07 0.07 0.07 0.11 0 0.11 0.27 0.48 0.35 0.48 0.04 0 0.12 0.10 0.17 0.22 0.05 0.12 0.12 0.22 0.15 0.22 0.04 0 0.07 0.04 0.07 0.09 0 0.05 0.06 0.12 0.12 0.15 0.07 0.04 0.12 0.12 0.12 0.18 0 0.06 0.09 0.24 0.20 0.38 0.11 0.15 0.25 0.44 0.32 0.64 0.07 0.20 0.15 0.41 0.20 0.45 0.04 0.04 0.08 0.11 0.08 0.13 0 0.03 0.04 0.15 0.09 0.28 0.05 0.12 0.09 0.24 0.09 0.26 0 0.02 0.03 0.06 0.07 0.09 0.04 0.02 0.09 0.11 0.10 0.19 0.01 0.08 0.07 0.19 0.12 0.26 0.07 0.07 0.10 0.19 0.09 0.33 -0.01 0.13 0.02 0.25 0.08 0.30 0.13 0.13 0.24 0.57 0.20 0.75 -0.02 0.08 -0.02 0.15 0.01 0.15 0.06 0 0.05 1.99 -0.01 2.10 -0.02 0.04 -0.02 0.16 0 0.28 0.02 0.12 0.01 0.22 -0.02 0.22 -0.03 0 -0.06 0.13 -0.07 0.29 -0.01 0.16 -0.04 0.33 -0.08 0.37 -0.04 0.04 -0.04 0.08 -0.02 0.08 0.02 0 0.01 0.04 -0.02 0.08 -0.04 0.05 -0.05 0.11 -0.03 0.12 0.02 0.02 -0.03 0.12 -0.12 0.23 -0.09 0.11 -0.16 0.24 -0.16 0.28 0 0.05 -0.08 0.25 -0.18 0.45 -0.10 0.20 -0.19 0.43 -0.22 0.53 -0.02 0.09 -0.14 0.24 -0.25 0.33 -0.18 0.14 -0.25 0.24 -0.38 0.59 -0.07 0.17 -0.12 0.25 -0.22 0.28 -0.06 0.02 -0.13 0.11 -0.15 0.19 -0.02 0.11 -0.08 0.15 -0.18 0.15 -0.19 0 -0.30 0.08 -0.41 0.31 -0.06 0.11 -0.18 0.24 -0.28 0.30 -0.23 0.13 -0.34 0.24 -0.34 0.32 0 0.03 -0.10 0.14 -0.22 0.23 -0.12 0.09 -0.22 0.21 -0.22 0.27 0 0.06 -0.04 0.14 -0.09 0.19 -0.05 0.04 -0.09 0.12 -0.09 0.16 0 0.05 -0.04 0.09 -0.08 0.09 -0.04 0 -0.19 0.10 -0.33 0.22 -0.27 0.25 -0.50 0.39 -0.43 0.27 0.03 -0.05 0.01 -0.07 -0.07 -0.05 -0.07 0.01 -0.12 0.06 -0.12 0.10 0 0.11 -0.15 0.20 -0.32 0.20 -0.08 0 -0.14 0.02 -0.14 0.06 0 0.03 -0.07 0.07 -0.15 0.10 -0.09 0.02 -0.14 0.06 -0.12 0.09 0.02 0.03 0 0.06 -0.03 0.06 -0.04 0 -0.07 -0.03 -0.07 -0.07 0 -0.03 -0.03 -0.04 -0.06 -0.02 -0.04 0.02 -0.05 0.06 -0.03 0.09 0.02 0.02 -0.10 0.10 -0.26 0.16 -0.17 0.06 -0.33 0.13 -0.36 0.15 -0.04 0.02 -0.16 0.07 -0.27 0.09 -0.12 0.02 -0.26 0.06 -0.32 0.09 -0.06 0.03 -0.19 0.06 -0.28 0.06 -0.44 0 -0.71 0.09 -0.71 0.23 0 0.06 -0.06 0.07 -0.22 0.04 -0.12 -0.02 -0.22 -0.01 -0.22 0.02 0 0.12 -0.29 0.20 -0.48 0.13 -0.15 -0.06 -0.20 -0.05 -0.36 0.06 -0.10 0.07 -0.25 0.14 -0.35 0.15 -0.09 0.01 -0.16 0.04 -0.15 0.07 0.01 0.03 -0.12 0.08 -0.29 0.11 -0.16 0.02 -0.34 0.07 -0.40 0.09 -0.09 0.04 -0.57 0.09 -1.51 0.18 -0.20 0.02 -0.41 0.01 -0.48 -0.03 -0.07 -0.04 -0.12 -0.04 -0.12 -0.02 0 0.09 -0.69 0.33 -0.95 0.33 -0.09 0 -0.17 0.03 -0.17 0.06 0 0.07 -0.97 0.09 -1 0.01 -0.05 -0.12 -0.28 -0.13 -0.42 -0.01 -0.15 0.13 -0.24 0.13 -0.90 0.02 -0.14 -0.02 -0.17 -0.02 -0.09 0.03 0.07 0.05 0 0.06 -0.27 0.04 -0.28 -0.02 -0.42 0 -0.59 0.09 -0.13 0.07 -0.25 0.10 -0.27 0.08 -0.02 -0.02 -0.04 -0.01 -0.04 0.03 0 0.04 -0.03 0.07 -0.07 0.07 -0.03 0 -0.04 -0.03 -0.02 -0.06 0.07 -0.11 -0.15 -0.14 -0.27 -0.04 -0.09 0.08 -0.25 0.10 -0.80 0.10 -0.48 0 -0.69 -0.02 -0.69 -0.07z m1.52 -1.29 c0.04 0 0.48 0.01 0.99 0.02 0.51 0.01 0.95 0 0.99 -0.02 0.03 -0.03 0.23 -0.07 0.43 -0.09 0.20 -0.02 0.49 -0.06 0.64 -0.07 0.21 -0.03 0.26 -0.02 0.26 0.06 0 0.12 0.16 0.13 0.23 0.02 0.02 -0.04 0.25 -0.12 0.48 -0.15 0.24 -0.04 0.53 -0.09 0.65 -0.11 0.12 -0.02 0.38 -0.04 0.57 -0.06 0.20 -0.01 0.41 -0.06 0.48 -0.09 0.17 -0.10 0.78 -0.15 0.90 -0.09 0.11 0.06 0.69 -0.02 0.92 -0.13 0.06 -0.03 0.15 -0.04 0.20 -0.01 0.05 0.02 0.09 0 0.07 -0.04 -0.01 -0.05 0.14 -0.08 0.48 -0.09 0.27 -0.01 0.51 -0.04 0.53 -0.06 0.03 -0.05 0.53 -0.22 0.65 -0.23 0.04 0 0.09 -0.04 0.13 -0.09 0.04 -0.05 0.20 -0.09 0.38 -0.11 0.17 -0.01 0.41 -0.04 0.52 -0.08 0.11 -0.03 0.35 -0.10 0.51 -0.15 0.17 -0.05 0.30 -0.11 0.30 -0.14 -0.01 -0.09 0.12 -0.21 0.24 -0.21 0.07 0 0.12 -0.02 0.12 -0.06 0 -0.03 0.04 -0.06 0.11 -0.06 0.13 0 0.85 -0.40 1.14 -0.64 0.13 -0.11 0.25 -0.17 0.28 -0.15 0.05 0.06 0.27 -0.14 0.27 -0.23 0 -0.04 0.10 -0.17 0.22 -0.28 0.12 -0.12 0.33 -0.33 0.46 -0.46 0.14 -0.14 0.29 -0.25 0.35 -0.25 0.06 0 0.11 -0.04 0.12 -0.09 0.01 -0.21 0.03 -0.25 0.09 -0.25 0.10 0 0.39 -0.32 0.41 -0.45 0.03 -0.20 0.21 -0.48 0.28 -0.46 0.12 0.04 0.28 -0.22 0.24 -0.36 -0.05 -0.14 -0.02 -0.34 0.05 -0.34 0.03 0 0.07 -0.08 0.09 -0.19 0.02 -0.10 0.10 -0.24 0.17 -0.29 0.07 -0.06 0.12 -0.17 0.12 -0.24 0 -0.07 0.04 -0.20 0.10 -0.31 0.05 -0.10 0.08 -0.24 0.06 -0.31 -0.03 -0.12 0.07 -0.58 0.15 -0.65 0.03 -0.03 0.05 -0.12 0.11 -0.51 0.02 -0.12 0.06 -0.24 0.08 -0.26 0.03 -0.02 0.04 -0.22 0.02 -0.46 -0.02 -0.24 -0.01 -0.44 0.02 -0.46 0.04 -0.02 0.04 -0.17 0.01 -0.37 -0.03 -0.18 -0.06 -0.44 -0.07 -0.57 -0.02 -0.14 -0.07 -0.28 -0.14 -0.33 -0.08 -0.06 -0.09 -0.08 -0.02 -0.09 0.06 0 0.06 -0.01 0.01 -0.04 -0.04 -0.01 -0.08 -0.07 -0.08 -0.12 0 -0.05 -0.03 -0.09 -0.07 -0.09 -0.04 0 -0.06 -0.07 -0.04 -0.17 0.06 -0.28 -0.07 -0.74 -0.25 -0.92 -0.09 -0.09 -0.17 -0.20 -0.17 -0.27 -0.01 -0.06 -0.06 -0.22 -0.12 -0.35 -0.06 -0.14 -0.11 -0.32 -0.12 -0.40 -0.01 -0.09 -0.04 -0.15 -0.08 -0.14 -0.04 0.01 -0.12 -0.06 -0.19 -0.14 -0.08 -0.13 -0.09 -0.20 -0.04 -0.34 0.06 -0.15 0.05 -0.22 -0.05 -0.43 -0.07 -0.14 -0.15 -0.25 -0.18 -0.25 -0.04 0 -0.06 -0.05 -0.06 -0.11 0 -0.17 -0.14 -0.32 -0.31 -0.34 -0.09 -0.01 -0.15 -0.05 -0.14 -0.08 0.01 -0.03 -0.04 -0.08 -0.10 -0.12 -0.18 -0.10 -0.46 -0.46 -0.37 -0.47 0.06 0 0.06 -0.01 0.01 -0.03 -0.04 -0.02 -0.06 -0.07 -0.04 -0.12 0.02 -0.06 -0.02 -0.09 -0.14 -0.11 -0.10 -0.01 -0.17 -0.06 -0.18 -0.11 -0.01 -0.16 -0.10 -0.31 -0.19 -0.31 -0.05 0 -0.07 -0.02 -0.06 -0.05 0.05 -0.08 -0.20 -0.26 -0.36 -0.26 -0.15 0 -0.30 -0.11 -0.37 -0.26 -0.02 -0.06 -0.05 -0.06 -0.07 -0.01 -0.05 0.11 -0.27 0.03 -0.35 -0.11 -0.03 -0.07 -0.17 -0.17 -0.31 -0.24 -0.14 -0.07 -0.23 -0.15 -0.21 -0.19 0.05 -0.07 -0.20 -0.24 -0.45 -0.28 -0.11 -0.02 -0.24 -0.09 -0.28 -0.15 -0.04 -0.06 -0.14 -0.13 -0.23 -0.15 -0.29 -0.09 -0.42 -0.26 -0.39 -0.51 0.01 -0.12 0.03 -0.27 0.03 -0.30 0.01 -0.04 0.03 -0.08 0.06 -0.08 0.02 0 0.04 -0.04 0.03 -0.07 -0.01 -0.04 0.05 -0.09 0.13 -0.10 0.08 -0.01 0.17 -0.09 0.20 -0.17 0.03 -0.08 0.09 -0.15 0.12 -0.15 0.03 0 0.06 -0.07 0.06 -0.15 0 -0.09 0.03 -0.15 0.07 -0.15 0.13 0 0.25 -0.18 0.21 -0.33 -0.04 -0.16 0.17 -0.66 0.28 -0.66 0.03 0 0.15 -0.21 0.28 -0.46 0.12 -0.25 0.25 -0.46 0.28 -0.46 0.04 0 0.04 -0.02 0.02 -0.06 -0.03 -0.05 0.24 -0.74 0.54 -1.42 0.04 -0.09 0.08 -0.20 0.09 -0.27 0.01 -0.06 0.05 -0.17 0.09 -0.25 0.04 -0.07 0.07 -0.16 0.08 -0.20 0.01 -0.12 0.17 -0.53 0.21 -0.53 0.02 0 0.04 -0.05 0.04 -0.11 0.01 -0.15 0.14 -0.80 0.28 -1.42 0.11 -0.45 0.11 -0.59 0.05 -1.10 -0.03 -0.32 -0.11 -0.69 -0.15 -0.80 -0.05 -0.12 -0.09 -0.31 -0.09 -0.43 0 -0.12 -0.03 -0.22 -0.07 -0.24 -0.04 -0.01 -0.09 -0.12 -0.11 -0.24 -0.03 -0.16 -0.07 -0.22 -0.16 -0.22 -0.09 0 -0.14 -0.06 -0.18 -0.24 -0.04 -0.15 -0.09 -0.23 -0.16 -0.23 -0.06 0 -0.24 -0.14 -0.40 -0.31 -0.23 -0.25 -0.32 -0.30 -0.42 -0.27 -0.09 0.02 -0.11 0.02 -0.08 -0.04 0.03 -0.06 0.01 -0.06 -0.08 -0.04 -0.07 0.02 -0.16 0.01 -0.22 -0.06 -0.06 -0.05 -0.14 -0.09 -0.18 -0.09 -0.05 0 -0.12 -0.03 -0.16 -0.07 -0.04 -0.04 -0.07 -0.05 -0.07 -0.02 0 0.09 -1.37 0.04 -1.47 -0.04 -0.06 -0.06 -0.09 -0.04 -0.12 0.07 -0.03 0.12 -0.06 0.14 -0.28 0.10 -0.15 -0.03 -0.23 -0.02 -0.20 0.02 0.02 0.03 -0.01 0.07 -0.06 0.10 -0.05 0.02 -0.09 0.01 -0.09 -0.03 0 -0.04 -0.03 -0.04 -0.06 -0.02 -0.04 0.02 -0.05 0.07 -0.03 0.10 0.02 0.03 -0.04 0.06 -0.14 0.06 -0.09 0 -0.22 0.04 -0.28 0.09 -0.07 0.04 -0.15 0.07 -0.20 0.05 -0.05 -0.02 -0.11 0.03 -0.14 0.12 -0.03 0.08 -0.18 0.22 -0.33 0.31 -0.15 0.09 -0.32 0.24 -0.38 0.32 -0.06 0.09 -0.14 0.15 -0.19 0.15 -0.05 0 -0.16 0.11 -0.25 0.25 -0.09 0.14 -0.19 0.25 -0.24 0.25 -0.04 0 -0.15 0.15 -0.24 0.32 -0.08 0.18 -0.22 0.36 -0.30 0.40 -0.09 0.04 -0.12 0.08 -0.07 0.08 0.07 0 0.06 0.04 -0.04 0.14 -0.07 0.08 -0.14 0.21 -0.15 0.30 -0.01 0.09 -0.06 0.15 -0.10 0.14 -0.04 -0.01 -0.07 0 -0.06 0.03 0.02 0.07 -0.28 0.82 -0.33 0.82 -0.02 0 -0.03 0.04 -0.02 0.08 0.04 0.10 -0.13 0.32 -0.21 0.27 -0.09 -0.06 -0.15 0.09 -0.08 0.16 0.04 0.04 0.04 0.13 -0.02 0.27 -0.05 0.11 -0.09 0.27 -0.09 0.34 0 0.12 -0.27 0.65 -0.37 0.74 -0.05 0.04 -0.08 0.17 -0.13 0.53 -0.04 0.33 -0.16 0.61 -0.24 0.56 -0.03 -0.01 -0.07 0.06 -0.09 0.17 -0.02 0.11 -0.07 0.42 -0.11 0.69 -0.04 0.27 -0.12 0.52 -0.16 0.54 -0.04 0.02 -0.08 0.16 -0.08 0.29 0 0.14 -0.02 0.25 -0.06 0.25 -0.03 0 -0.06 0.06 -0.06 0.14 0 0.07 -0.04 0.19 -0.11 0.25 -0.11 0.12 -0.27 0.15 -0.27 0.04 0 -0.03 0.03 -0.04 0.07 -0.02 0.04 0.02 0.02 -0.03 -0.03 -0.11 -0.14 -0.20 -0.54 -0.42 -0.58 -0.31 -0.02 0.06 -0.06 0.06 -0.15 -0.02 -0.06 -0.06 -0.12 -0.14 -0.12 -0.19 0 -0.11 -0.15 -0.10 -0.25 0.02 -0.08 0.10 -0.28 0.10 -0.67 -0.01 -0.09 -0.02 -0.34 -0.04 -0.57 -0.03 -0.27 0.01 -0.42 -0.01 -0.42 -0.06 0 -0.04 -0.05 -0.06 -0.12 -0.03 -0.06 0.02 -0.17 0.01 -0.24 -0.02 -0.09 -0.05 -0.14 -0.04 -0.22 0.02 -0.05 0.06 -0.17 0.09 -0.27 0.09 -0.27 -0.01 -0.58 0.07 -0.58 0.14 0 0.04 -0.06 0.05 -0.14 0.04 -0.08 -0.01 -0.18 0.01 -0.22 0.06 -0.06 0.06 -0.17 0.08 -0.36 0.06 -0.19 -0.02 -0.30 0 -0.36 0.06 -0.10 0.09 -0.17 0.07 -0.38 -0.12 -0.13 -0.12 -0.13 -0.12 -0.17 0.01 -0.06 0.19 -0.17 0.16 -0.14 -0.04 0.01 -0.10 0.05 -0.17 0.10 -0.16 0.09 0.02 0.10 -0.20 0.01 -0.26 -0.04 -0.03 -0.02 -0.09 0.06 -0.18 0.11 -0.12 0.12 -0.20 0.11 -0.71 -0.01 -0.32 0.01 -0.59 0.03 -0.61 0.07 -0.04 0.06 -0.32 -0.01 -0.36 -0.07 -0.05 0.04 -0.46 0.15 -0.58 0.11 -0.12 0.11 -0.24 -0.01 -0.29 -0.11 -0.04 -0.14 -0.59 -0.04 -0.59 0.12 0 0.15 -0.27 0.04 -0.35 -0.09 -0.06 -0.11 -0.20 -0.09 -1.16 0.01 -0.64 -0.01 -1.07 -0.04 -1.05 -0.03 0.02 -0.04 -0.03 -0.02 -0.10 0.02 -0.07 0.01 -0.15 -0.02 -0.17 -0.04 -0.02 -0.05 -0.15 -0.02 -0.31 0.02 -0.18 0.01 -0.27 -0.03 -0.27 -0.04 0 -0.06 -0.09 -0.04 -0.23 0.02 -0.13 0 -0.30 -0.04 -0.39 -0.08 -0.15 -0.19 -0.67 -0.17 -0.76 0.01 -0.03 -0.04 -0.12 -0.10 -0.22 -0.12 -0.17 -0.28 -0.56 -0.29 -0.66 0 -0.03 -0.04 -0.12 -0.07 -0.19 -0.04 -0.07 -0.06 -0.15 -0.04 -0.17 0.02 -0.01 -0.06 -0.12 -0.16 -0.24 -0.24 -0.25 -0.39 -0.53 -0.34 -0.61 0.02 -0.03 -0.03 -0.07 -0.12 -0.10 -0.09 -0.02 -0.19 -0.08 -0.24 -0.14 -0.06 -0.07 -0.06 -0.09 -0.01 -0.05 0.06 0.03 0.07 0.01 0.04 -0.05 -0.02 -0.06 -0.06 -0.11 -0.09 -0.11 -0.07 -0.01 -0.17 -0.04 -0.22 -0.06 -0.07 -0.02 -0.16 -0.04 -0.24 -0.06 -0.04 0 -0.15 -0.09 -0.25 -0.18 -0.14 -0.13 -0.25 -0.18 -0.46 -0.19 -0.16 -0.01 -0.30 -0.06 -0.33 -0.11 -0.06 -0.10 -0.75 -0.12 -0.82 -0.02 -0.02 0.03 -0.07 0.06 -0.10 0.06 -0.04 0 -0.05 -0.02 -0.03 -0.06 0.05 -0.07 -0.14 -0.14 -0.28 -0.10 -0.07 0.02 -0.12 0.08 -0.12 0.14 0 0.08 -0.06 0.09 -0.29 0.07 -0.32 -0.04 -0.45 -0.01 -0.45 0.08 0 0.04 0.04 0.04 0.08 0.02 0.05 -0.03 0.06 -0.02 0.01 0.02 -0.03 0.04 -0.25 0.17 -0.50 0.29 -0.24 0.12 -0.46 0.25 -0.50 0.28 -0.04 0.03 -0.14 0.07 -0.21 0.09 -0.28 0.06 -0.35 0.10 -0.43 0.25 -0.05 0.11 -0.05 0.14 0 0.11 0.04 -0.02 0.02 0.03 -0.04 0.12 -0.06 0.09 -0.15 0.16 -0.20 0.16 -0.11 0 -0.32 0.17 -0.32 0.26 0 0.03 -0.04 0.11 -0.10 0.15 -0.07 0.07 -0.07 0.11 -0.02 0.14 0.04 0.02 0.01 0.08 -0.09 0.15 -0.13 0.09 -0.15 0.12 -0.09 0.20 0.06 0.07 0.05 0.09 -0.03 0.09 -0.06 0 -0.10 0.04 -0.10 0.09 0 0.09 -0.11 0.33 -0.19 0.40 -0.04 0.04 -0.07 0.17 -0.08 0.32 -0.01 0.06 -0.02 0.11 -0.05 0.11 -0.02 0 -0.03 0.16 -0.03 0.37 0 0.20 -0.02 0.40 -0.06 0.45 -0.04 0.05 -0.09 0.25 -0.11 0.46 -0.06 0.67 -0.11 0.87 -0.21 0.95 -0.09 0.07 -0.11 0.27 -0.13 1.45 -0.02 1.71 0.02 2.52 0.16 2.52 0.08 0 0.09 0.06 0.07 0.28 -0.02 0.17 -0.01 0.28 0.04 0.30 0.04 0.01 0.07 0.22 0.07 0.56 -0.01 0.42 0.01 0.54 0.08 0.54 0.07 0 0.07 0.07 0.04 0.30 -0.03 0.22 -0.01 0.35 0.06 0.49 0.06 0.11 0.12 0.30 0.14 0.43 0.02 0.13 0.11 0.31 0.19 0.40 0.11 0.11 0.16 0.25 0.17 0.42 0.01 0.14 0.04 0.28 0.07 0.30 0.04 0.02 0.09 0.14 0.11 0.25 0.02 0.12 0.11 0.38 0.19 0.57 0.08 0.20 0.15 0.45 0.15 0.58 0 0.15 0.07 0.32 0.21 0.53 0.12 0.17 0.26 0.43 0.32 0.58 0.09 0.25 0.10 0.30 0.02 0.54 -0.10 0.29 -0.33 0.46 -0.46 0.35 -0.06 -0.05 -0.08 -0.02 -0.08 0.13 0 0.13 -0.04 0.20 -0.11 0.23 -0.25 0.08 -0.39 0.17 -0.43 0.30 -0.02 0.07 -0.07 0.15 -0.11 0.17 -0.04 0.02 -0.07 0.07 -0.07 0.11 -0.01 0.03 -0.01 0.09 -0.02 0.13 0 0.03 -0.04 0.04 -0.08 0.02 -0.04 -0.02 -0.05 -0.02 -0.02 0.02 0.06 0.09 -0.26 0.59 -0.33 0.54 -0.04 -0.02 -0.06 -0.02 -0.07 0.01 -0.01 0.16 -0.19 0.65 -0.25 0.70 -0.02 0.02 -0.05 0.08 -0.07 0.14 -0.02 0.06 -0.08 0.11 -0.14 0.11 -0.06 0 -0.09 0.04 -0.08 0.08 0.03 0.12 -0.21 0.60 -0.30 0.60 -0.04 0 -0.09 0.04 -0.09 0.08 -0.03 0.30 -0.19 0.85 -0.25 0.85 -0.03 0 -0.06 0.07 -0.06 0.15 0 0.22 -0.12 0.71 -0.22 0.92 -0.05 0.10 -0.09 0.24 -0.09 0.30 0 0.07 -0.02 0.11 -0.06 0.09 -0.07 -0.04 -0.13 0.34 -0.07 0.45 0.06 0.10 -0.05 0.49 -0.17 0.64 -0.04 0.06 -0.07 0.19 -0.07 0.31 0.01 0.11 -0.01 0.24 -0.03 0.29 -0.03 0.04 -0.02 0.11 0.02 0.15 0.09 0.09 0.09 0.62 -0.01 0.71 -0.06 0.06 -0.06 0.07 0.01 0.07 0.06 0 0.07 0.18 0.07 0.76 -0.01 0.78 0.01 0.99 0.08 1.16 0.02 0.06 0.04 0.14 0.03 0.19 -0.01 0.05 0.09 0.30 0.22 0.56 0.12 0.27 0.24 0.54 0.24 0.61 0.01 0.07 0.04 0.12 0.07 0.12 0.03 0 0.04 0.02 0.02 0.04 -0.02 0.02 0.10 0.18 0.26 0.35 0.21 0.22 0.28 0.33 0.22 0.34 -0.05 0.01 -0.09 0.04 -0.09 0.07 0 0.03 0.04 0.04 0.09 0.02 0.09 -0.03 0.35 0.20 0.35 0.30 0 0.03 0.07 0.12 0.16 0.20 0.09 0.08 0.12 0.15 0.09 0.15 -0.04 0 -0.05 0.03 -0.03 0.06 0.02 0.04 0.11 0.06 0.19 0.06 0.09 0 0.15 0.04 0.15 0.10 0 0.06 0.04 0.09 0.09 0.07 0.11 -0.04 0.49 0.20 0.84 0.53 0.14 0.12 0.25 0.20 0.27 0.16 0.01 -0.04 0.09 -0.01 0.20 0.07 0.11 0.09 0.15 0.15 0.10 0.18 -0.05 0.03 -0.04 0.06 0.02 0.08 0.06 0.02 0.10 0.02 0.10 -0.01 0 -0.07 0.51 0.19 0.58 0.28 0.02 0.04 0.12 0.08 0.22 0.07 0.09 -0.01 0.40 0.07 0.68 0.19 0.28 0.11 0.60 0.19 0.71 0.19 0.11 0 0.24 0.04 0.30 0.09 0.06 0.06 0.17 0.11 0.25 0.12 0.08 0.02 0.22 0.06 0.30 0.09 0.09 0.03 0.39 0.07 0.67 0.09 0.40 0.02 0.54 0.05 0.60 0.13 0.04 0.06 0.12 0.10 0.16 0.09 0.04 -0.02 0.12 0.01 0.16 0.06 0.06 0.06 0.17 0.07 0.33 0.06 0.13 -0.01 0.25 -0.01 0.27 0.02 0.01 0.02 0.22 0.04 0.45 0.03 0.24 -0.01 0.53 0 0.67 0.03 0.19 0.03 2.37 0.04 2.72 0.01z"/>
  <path d="M22.57 36.90 c-0.03 -0.02 -0.23 -0.04 -0.45 -0.03 -0.22 0.01 -0.40 0 -0.40 -0.03 0 -0.02 -0.72 -0.06 -1.60 -0.07 -0.87 -0.01 -1.62 -0.04 -1.65 -0.06 -0.03 -0.02 -0.31 -0.04 -0.62 -0.04 -0.40 0 -0.61 -0.03 -0.76 -0.11 -0.11 -0.06 -0.25 -0.09 -0.30 -0.07 -0.11 0.04 -0.46 -0.09 -0.46 -0.18 0 -0.03 -0.02 -0.04 -0.06 -0.02 -0.03 0.02 -0.06 0.01 -0.06 -0.02 0 -0.04 -0.02 -0.06 -0.04 -0.06 -0.22 0.04 -0.40 -0.04 -0.64 -0.25 -0.15 -0.14 -0.30 -0.25 -0.34 -0.25 -0.03 -0.01 -0.15 -0.01 -0.27 -0.02 -0.11 -0.01 -0.22 -0.04 -0.25 -0.07 -0.06 -0.08 -0.43 -0.34 -0.49 -0.34 -0.02 -0.01 -0.17 -0.12 -0.33 -0.26 -0.25 -0.23 -0.28 -0.27 -0.28 -0.54 0 -0.24 -0.02 -0.30 -0.14 -0.34 -0.07 -0.04 -0.17 -0.15 -0.23 -0.27 -0.06 -0.11 -0.12 -0.20 -0.16 -0.20 -0.03 0 -0.06 -0.05 -0.06 -0.11 0 -0.06 -0.06 -0.17 -0.13 -0.25 -0.07 -0.07 -0.12 -0.19 -0.11 -0.25 0.01 -0.06 -0.01 -0.15 -0.04 -0.22 -0.03 -0.07 -0.02 -0.16 0.02 -0.24 0.05 -0.08 0.06 -0.27 0.03 -0.64 -0.03 -0.38 -0.02 -0.52 0.03 -0.52 0.04 0 0.06 -0.02 0.04 -0.06 -0.02 -0.03 0.01 -0.20 0.06 -0.38 0.27 -0.89 0.36 -1.14 0.44 -1.27 0.05 -0.07 0.09 -0.19 0.09 -0.25 0 -0.06 0.06 -0.22 0.12 -0.35 0.07 -0.14 0.12 -0.29 0.12 -0.35 0 -0.06 0.03 -0.11 0.06 -0.11 0.04 0 0.06 -0.02 0.05 -0.04 -0.01 -0.05 0.42 -0.76 0.50 -0.82 0.22 -0.18 1.24 -1.52 1.34 -1.76 0.04 -0.11 0.11 -0.23 0.15 -0.25 0.04 -0.02 0.13 -0.14 0.21 -0.27 0.23 -0.37 0.45 -0.59 0.53 -0.54 0.04 0.02 0.07 0.01 0.07 -0.02 0 -0.04 0.04 -0.07 0.10 -0.07 0.07 0 0.09 -0.05 0.07 -0.15 -0.01 -0.11 0.04 -0.21 0.17 -0.33 0.11 -0.11 0.24 -0.24 0.29 -0.30 0.06 -0.06 0.14 -0.14 0.17 -0.17 0.31 -0.30 0.63 -0.67 0.66 -0.77 0.02 -0.07 0.12 -0.17 0.22 -0.22 0.10 -0.06 0.18 -0.14 0.18 -0.19 0 -0.10 0.32 -0.34 0.46 -0.34 0.06 0 0.08 -0.04 0.06 -0.08 -0.04 -0.11 0.13 -0.25 0.22 -0.20 0.03 0.02 0.06 0.01 0.06 -0.03 0 -0.04 0.07 -0.10 0.17 -0.14 0.09 -0.04 0.24 -0.12 0.32 -0.18 0.20 -0.12 0.90 -0.37 1.10 -0.37 0.08 0 0.14 0.03 0.14 0.07 0 0.03 0.02 0.05 0.06 0.03 0.03 -0.02 0.07 -0.01 0.08 0.03 0.03 0.09 0.54 0.15 0.54 0.06 0 -0.04 0.04 -0.07 0.09 -0.07 0.05 0 0.09 -0.02 0.09 -0.05 0 -0.05 0.71 -0.32 0.94 -0.35 0.08 -0.01 0.42 -0.11 0.76 -0.22 0.58 -0.18 0.69 -0.19 1.57 -0.20 0.69 -0.01 0.96 0.01 0.98 0.07 0.02 0.04 0.11 0.06 0.24 0.04 0.12 -0.02 0.21 -0.01 0.21 0.02 0 0.03 0.13 0.06 0.30 0.06 0.42 0.02 1.36 0.20 1.71 0.33 0.52 0.19 1.35 0.43 1.58 0.45 0.22 0.02 0.72 0.29 0.84 0.46 0.05 0.07 0.13 0.08 0.30 0.05 0.13 -0.02 0.27 -0.02 0.30 0.01 0.04 0.03 0.27 0.13 0.51 0.22 0.24 0.09 0.46 0.20 0.50 0.24 0.04 0.04 0.17 0.13 0.30 0.20 0.13 0.07 0.29 0.19 0.36 0.28 0.07 0.09 0.25 0.26 0.41 0.40 0.16 0.13 0.28 0.27 0.27 0.29 -0.01 0.03 0.07 0.06 0.17 0.06 0.09 0 0.28 0.07 0.40 0.15 0.12 0.09 0.32 0.22 0.43 0.30 0.20 0.14 0.83 0.79 0.76 0.79 -0.02 0 0.05 0.14 0.15 0.31 0.11 0.17 0.17 0.33 0.15 0.37 -0.02 0.03 -0.01 0.06 0.02 0.06 0.07 0 0.74 0.95 0.82 1.16 0.02 0.07 0.14 0.25 0.24 0.40 0.11 0.16 0.19 0.33 0.19 0.46 0 0.11 0.02 0.22 0.06 0.25 0.12 0.13 0.25 0.71 0.25 1.11 0.01 0.77 0 0.98 -0.05 1.02 -0.02 0.02 -0.04 0.06 -0.04 0.09 -0.02 0.40 -0.68 1.88 -1.03 2.32 -0.37 0.45 -0.46 0.54 -0.50 0.52 -0.03 -0.02 -0.05 0.02 -0.05 0.09 0 0.07 -0.06 0.14 -0.12 0.16 -0.07 0.02 -0.11 0.06 -0.09 0.09 0.02 0.03 -0.05 0.10 -0.15 0.15 -0.11 0.06 -0.18 0.14 -0.17 0.18 0.04 0.09 -0.28 0.30 -0.35 0.24 -0.02 -0.02 -0.04 0.01 -0.04 0.06 0 0.12 -0.44 0.42 -0.63 0.43 -0.07 0.01 -0.11 0.04 -0.09 0.08 0.04 0.12 -0.97 0.60 -1.27 0.61 -0.14 0.01 -0.28 0.02 -0.30 0.04 -0.05 0.05 -0.69 0.24 -0.90 0.25 -0.10 0.01 -0.20 0.04 -0.23 0.07 -0.02 0.03 -0.28 0.07 -0.59 0.07 -0.40 0.02 -0.61 0.06 -0.79 0.15 -0.13 0.07 -0.30 0.12 -0.36 0.12 -0.07 0 -0.28 0.04 -0.48 0.09 -0.20 0.05 -0.52 0.11 -0.72 0.12 -0.20 0.02 -0.51 0.07 -0.69 0.12 -0.18 0.05 -0.43 0.10 -0.56 0.11 -0.12 0.01 -0.28 0.05 -0.35 0.07 -0.44 0.16 -1.10 0.28 -1.52 0.28 -0.15 0 -0.61 0.02 -1.02 0.04 -0.41 0.02 -1 0.05 -1.30 0.06 -0.31 0.01 -0.58 0.01 -0.61 -0.02z m0.02 -1.38 c0 -0.04 0.22 -0.06 0.53 -0.06 0.31 0 0.53 0.02 0.53 0.06 0 0.09 0.10 0.07 0.20 -0.02 0.06 -0.06 0.27 -0.10 0.64 -0.12 0.60 -0.02 1.53 -0.15 1.73 -0.24 0.07 -0.02 0.38 -0.08 0.70 -0.12 0.47 -0.06 0.59 -0.06 0.63 0.01 0.04 0.06 0.06 0.05 0.11 -0.03 0.09 -0.17 0.74 -0.35 1.44 -0.40 0.76 -0.06 1.18 -0.14 1.50 -0.27 0.12 -0.06 0.23 -0.09 0.23 -0.07 0 0.02 0.07 -0.01 0.17 -0.06 0.09 -0.04 0.35 -0.11 0.57 -0.13 1.11 -0.12 1.76 -0.42 2.74 -1.26 0.83 -0.71 1.46 -1.75 1.69 -2.78 0.10 -0.45 0.11 -0.57 0.04 -0.96 -0.10 -0.57 -0.20 -0.92 -0.26 -0.92 -0.07 0 -0.49 -0.77 -0.49 -0.89 0 -0.06 -0.06 -0.12 -0.12 -0.14 -0.12 -0.03 -0.41 -0.59 -0.40 -0.74 0 -0.04 -0.02 -0.06 -0.06 -0.04 -0.04 0.02 -0.05 0 -0.02 -0.07 0.02 -0.06 0.02 -0.09 -0.01 -0.07 -0.09 0.06 -0.19 -0.11 -0.21 -0.36 -0.03 -0.28 -0.19 -0.40 -0.49 -0.35 -0.02 0 -0.13 -0.08 -0.23 -0.19 -0.11 -0.11 -0.22 -0.17 -0.25 -0.15 -0.09 0.06 -0.28 -0.06 -0.78 -0.46 -0.04 -0.03 -0.09 -0.04 -0.11 -0.02 -0.02 0.02 -0.07 -0.04 -0.11 -0.13 -0.04 -0.09 -0.10 -0.16 -0.13 -0.16 -0.02 0 -0.11 -0.06 -0.17 -0.12 -0.07 -0.07 -0.12 -0.11 -0.12 -0.09 0 0.01 -0.07 -0.04 -0.15 -0.12 -0.08 -0.08 -0.30 -0.20 -0.50 -0.26 -0.20 -0.06 -0.42 -0.17 -0.50 -0.25 -0.08 -0.07 -0.16 -0.12 -0.17 -0.11 -0.02 0.01 -0.14 -0.03 -0.27 -0.10 -0.14 -0.06 -0.28 -0.12 -0.33 -0.11 -0.05 0.01 -0.32 -0.07 -0.61 -0.16 -0.29 -0.10 -0.66 -0.19 -0.84 -0.21 -0.17 -0.02 -0.50 -0.13 -0.72 -0.24 -0.23 -0.12 -0.50 -0.21 -0.61 -0.21 -0.10 0 -0.19 -0.02 -0.19 -0.05 0 -0.02 -0.22 -0.04 -0.48 -0.05 -0.27 0 -0.77 -0.02 -1.12 -0.06 -0.43 -0.03 -0.77 -0.02 -1.06 0.02 -0.24 0.04 -0.63 0.11 -0.87 0.15 -0.24 0.04 -0.43 0.09 -0.43 0.12 0 0.07 -0.41 0.24 -0.76 0.31 -0.31 0.06 -1.50 0.61 -1.76 0.80 -0.08 0.06 -0.22 0.12 -0.32 0.15 -0.09 0.02 -0.30 0.15 -0.46 0.28 -0.17 0.14 -0.32 0.25 -0.35 0.25 -0.03 0 -0.12 0.11 -0.21 0.25 -0.09 0.14 -0.22 0.26 -0.30 0.28 -0.09 0.02 -0.14 0.07 -0.12 0.12 0.02 0.04 -0.04 0.13 -0.14 0.20 -0.09 0.06 -0.25 0.20 -0.36 0.30 -0.11 0.11 -0.27 0.24 -0.36 0.28 -0.17 0.09 -0.77 0.65 -0.90 0.84 -0.04 0.07 -0.14 0.22 -0.20 0.34 -0.07 0.12 -0.17 0.26 -0.22 0.30 -0.06 0.05 -0.17 0.21 -0.25 0.37 -0.08 0.15 -0.35 0.51 -0.61 0.77 -0.26 0.27 -0.47 0.51 -0.47 0.54 0 0.03 -0.07 0.15 -0.15 0.28 -0.09 0.12 -0.19 0.36 -0.24 0.52 -0.05 0.16 -0.19 0.51 -0.31 0.77 -0.12 0.27 -0.22 0.55 -0.22 0.64 0 0.09 -0.03 0.32 -0.07 0.50 -0.06 0.27 -0.06 0.43 0.01 0.72 0.05 0.20 0.08 0.46 0.07 0.56 -0.01 0.17 -0.01 0.18 0.07 0.07 0.21 -0.29 0.43 0.06 0.37 0.58 -0.03 0.25 -0.01 0.30 0.14 0.44 0.13 0.12 0.27 0.17 0.54 0.20 0.38 0.04 1.01 0.33 0.98 0.44 -0.01 0.04 -0.04 0.06 -0.07 0.05 -0.02 -0.01 -0.04 0.04 -0.04 0.10 0 0.06 0.03 0.11 0.07 0.11 0.11 -0.01 0.65 0.17 0.65 0.21 0 0.02 0.12 0.02 0.27 0.01 0.15 -0.02 0.37 -0.01 0.47 0.03 0.12 0.04 0.79 0.07 1.73 0.07 0.84 0.01 1.64 0.04 1.78 0.07 0.13 0.03 0.34 0.07 0.46 0.09 0.12 0.02 0.24 0.07 0.27 0.12 0.06 0.10 0.41 0.12 0.41 0.02z"/>
  <path d="M22.59 33.35 c-0.05 -0.03 -0.16 -0.06 -0.24 -0.06 -0.09 0 -0.16 -0.04 -0.18 -0.12 -0.02 -0.08 -0.07 -0.11 -0.15 -0.09 -0.08 0.02 -0.12 0 -0.12 -0.07 0 -0.06 0.03 -0.10 0.07 -0.10 0.04 0 0.05 -0.06 0.02 -0.12 -0.02 -0.08 -0.01 -0.12 0.04 -0.12 0.04 0 0.06 -0.02 0.04 -0.04 -0.08 -0.08 0.17 -0.24 0.38 -0.24 0.15 0 0.24 -0.04 0.28 -0.12 0.04 -0.07 0.09 -0.14 0.12 -0.16 0.07 -0.05 0.02 -0.54 -0.07 -0.63 -0.04 -0.04 -0.07 -0.21 -0.07 -0.37 0 -0.26 0.02 -0.32 0.24 -0.51 0.26 -0.24 0.45 -0.27 0.63 -0.10 0.06 0.06 0.19 0.13 0.27 0.15 0.11 0.02 0.17 0.09 0.20 0.22 0.02 0.11 0.09 0.19 0.16 0.21 0.11 0.03 0.12 0.07 0.10 0.38 l-0.03 0.35 0.35 0.16 c0.60 0.27 0.63 0.29 0.63 0.41 0 0.06 0.04 0.11 0.09 0.11 0.06 0 0.09 0.06 0.09 0.20 l-0.01 0.20 -0.09 -0.17 c-0.11 -0.20 -0.25 -0.23 -0.28 -0.06 -0.04 0.15 0.02 0.35 0.07 0.26 0.03 -0.05 0.06 -0.04 0.08 0.02 0.06 0.14 -0.26 0.18 -1 0.11 -0.04 0 -0.06 -0.04 -0.04 -0.07 0.02 -0.04 0 -0.06 -0.09 -0.03 -0.09 0.03 -0.15 -0.01 -0.25 -0.17 -0.11 -0.17 -0.15 -0.20 -0.28 -0.18 -0.12 0.02 -0.18 0.08 -0.20 0.21 -0.02 0.11 -0.14 0.25 -0.32 0.40 -0.31 0.24 -0.32 0.24 -0.45 0.15z"/>
  <path d="M17.77 32.94 c-0.26 -0.11 -0.38 -1.16 -0.18 -1.57 0.12 -0.24 0.13 -0.35 0.04 -0.38 -0.14 -0.04 0.25 -0.59 0.51 -0.74 0.08 -0.04 0.10 -0.03 0.08 0.06 -0.01 0.06 0.03 0.15 0.10 0.19 0.07 0.05 0.12 0.05 0.12 0.01 0 -0.03 0.05 -0.06 0.12 -0.06 0.12 0 0.58 0.56 0.68 0.82 0.02 0.08 0.06 0.39 0.06 0.69 0.01 0.54 0.01 0.54 -0.16 0.62 -0.09 0.04 -0.17 0.12 -0.19 0.17 -0.01 0.05 -0.05 0.12 -0.08 0.16 -0.06 0.07 -0.95 0.11 -1.10 0.04z"/>
  <path d="M28.24 32.52 c0.02 -0.06 -0.02 -0.10 -0.10 -0.12 -0.20 -0.06 -0.30 -0.04 -0.26 0.02 0.02 0.04 0.01 0.06 -0.03 0.06 -0.04 0 -0.06 -0.04 -0.04 -0.09 0.02 -0.05 -0.01 -0.13 -0.06 -0.18 -0.05 -0.05 -0.09 -0.12 -0.08 -0.14 0.02 -0.14 -0.01 -0.27 -0.07 -0.27 -0.22 0 -0.35 -0.77 -0.15 -0.84 0.05 -0.02 0.08 -0.06 0.06 -0.09 -0.02 -0.04 0.06 -0.27 0.21 -0.56 0.03 -0.06 0.17 -0.09 0.46 -0.09 0.40 0 0.43 0.01 0.59 0.20 0.14 0.15 0.19 0.28 0.22 0.59 0.02 0.22 0.02 0.51 0.01 0.66 -0.01 0.19 0.01 0.28 0.06 0.30 0.04 0.02 0.06 0.06 0.04 0.09 -0.02 0.04 -0.06 0.03 -0.09 -0.02 -0.04 -0.07 -0.07 -0.06 -0.14 0.04 -0.05 0.06 -0.08 0.15 -0.06 0.20 0.02 0.06 0 0.07 -0.06 0.05 -0.06 -0.02 -0.14 0.02 -0.22 0.12 -0.13 0.17 -0.36 0.22 -0.30 0.07z"/>
 </g>
 <g fill="#080000">
  <path d="M18.84 36.70 c0.02 -0.04 0.30 -0.06 0.63 -0.06 0.35 0 0.58 0.02 0.58 0.06 0 0.04 -0.25 0.06 -0.63 0.06 -0.40 0 -0.61 -0.02 -0.58 -0.06z"/>
  <path d="M30.96 35.17 c-0.04 -0.12 0.24 -0.39 0.41 -0.39 0.11 0 0.37 0.22 0.31 0.27 -0.09 0.07 -0.50 0.23 -0.58 0.23 -0.06 0 -0.12 -0.04 -0.14 -0.11z"/>
  <path d="M31.99 34.75 c0 -0.06 0.03 -0.09 0.07 -0.08 0.04 0.01 0.07 0.05 0.07 0.08 0 0.03 -0.03 0.07 -0.07 0.08 -0.04 0.01 -0.07 -0.02 -0.07 -0.08z"/>
  <path d="M14.84 34.11 c-0.27 -0.33 -0.28 -0.36 -0.19 -0.46 0.12 -0.14 0.12 -0.49 -0.01 -0.58 -0.09 -0.07 -0.09 -0.09 0.04 -0.21 l0.14 -0.13 0.02 0.25 c0.01 0.14 0.04 0.25 0.07 0.25 0.03 0 0.07 0.06 0.09 0.12 0.07 0.22 0.35 0.50 0.66 0.66 0.24 0.12 0.30 0.18 0.30 0.31 0 0.12 -0.02 0.15 -0.11 0.12 -0.32 -0.09 -0.51 -0.10 -0.54 -0.04 -0.07 0.13 -0.19 0.06 -0.48 -0.29z"/>
  <path d="M32.92 31.38 c0 -0.04 -0.09 -0.07 -0.20 -0.08 -0.20 -0.02 -0.20 -0.02 -0.22 -0.34 l-0.02 -0.33 0.26 0 c0.16 0 0.31 0.04 0.38 0.11 0.06 0.06 0.17 0.13 0.25 0.17 0.10 0.05 0.14 0.14 0.15 0.30 l0.02 0.23 -0.31 0 c-0.17 0 -0.32 -0.02 -0.32 -0.06z"/>
  <path d="M24.57 20.73 c0.09 -0.06 0.67 -0.09 0.61 -0.04 -0.01 0.01 -0.18 0.04 -0.37 0.06 -0.23 0.02 -0.31 0.02 -0.25 -0.02z"/>
  <path d="M31.71 8.48 c0.06 -0.10 -0.04 -0.25 -0.18 -0.25 -0.11 -0.01 -0.09 -0.02 0.07 -0.09 0.46 -0.20 0.90 -0.14 0.80 0.12 -0.03 0.09 -0.09 0.10 -0.23 0.07 -0.10 -0.02 -0.19 -0.02 -0.19 0.01 0 0.02 -0.07 0.08 -0.15 0.12 -0.09 0.04 -0.14 0.04 -0.12 0.02z"/>
 </g>
 <g fill="#010008">
  <path d="M31.22 34.53 c-0.03 -0.06 0.11 -0.12 0.26 -0.12 0.05 0 0.08 0.04 0.07 0.08 -0.03 0.08 -0.28 0.12 -0.33 0.04z"/>
  <path d="M32.13 8.27 c-0.21 -0.11 -0.15 -0.27 0.10 -0.28 0.37 -0.02 0.56 -0.08 0.58 -0.17 0.02 -0.08 0.04 -0.07 0.16 0.01 0.07 0.06 0.14 0.14 0.14 0.17 -0.01 0.12 -0.41 0.35 -0.48 0.28 -0.04 -0.04 -0.11 -0.04 -0.19 0.01 -0.07 0.04 -0.14 0.06 -0.15 0.06 -0.01 -0.01 -0.08 -0.04 -0.15 -0.07z"/>
 </g>
 <g fill="#f8d2d1">
  <path d="M16.09 34.56 c-0.19 -0.12 -0.47 -0.28 -0.63 -0.37 -0.16 -0.09 -0.36 -0.24 -0.45 -0.35 -0.19 -0.22 -0.38 -0.82 -0.31 -0.98 0.02 -0.06 0.04 -0.12 0.04 -0.14 -0.01 -0.05 0.58 -0.24 0.74 -0.24 0.07 0 0.16 -0.04 0.21 -0.09 0.11 -0.11 0.21 -0.12 0.21 -0.02 0 0.03 0.03 0.04 0.06 0.02 0.04 -0.02 0.10 -0.02 0.14 0.01 0.04 0.02 0.14 0.06 0.23 0.07 0.24 0.03 0.46 0.16 0.46 0.26 0 0.05 0.05 0.14 0.11 0.20 0.08 0.08 0.11 0.21 0.11 0.60 0 0.43 -0.01 0.49 -0.11 0.45 -0.06 -0.02 -0.09 -0.01 -0.06 0.02 0.02 0.04 0.01 0.08 -0.02 0.09 -0.03 0.01 -0.07 0.12 -0.07 0.24 -0.01 0.19 -0.19 0.44 -0.30 0.43 -0.02 -0.01 -0.19 -0.10 -0.37 -0.21z"/>
  <path d="M31.94 33.09 c0.04 -0.11 0.15 -0.12 0.19 -0.02 0.03 0.06 0 0.09 -0.09 0.09 -0.07 0 -0.12 -0.03 -0.11 -0.07z"/>
  <path d="M32.26 33 c-0.07 -0.01 -0.17 -0.06 -0.20 -0.11 -0.04 -0.05 -0.11 -0.07 -0.16 -0.05 -0.05 0.02 -0.13 0 -0.18 -0.04 -0.05 -0.04 -0.11 -0.06 -0.14 -0.04 -0.09 0.06 -0.22 -0.14 -0.18 -0.27 0.02 -0.09 -0.04 -0.21 -0.18 -0.38 -0.16 -0.20 -0.20 -0.28 -0.14 -0.34 0.04 -0.04 0.05 -0.11 0.02 -0.15 -0.02 -0.03 -0.01 -0.06 0.01 -0.06 0.03 0 0.06 -0.09 0.07 -0.19 0.01 -0.11 0.12 -0.37 0.24 -0.56 0.21 -0.34 0.24 -0.37 0.40 -0.33 0.10 0.02 0.23 0 0.30 -0.04 0.09 -0.06 0.16 -0.06 0.34 0.03 0.12 0.06 0.27 0.11 0.34 0.11 0.06 0 0.19 0.07 0.29 0.15 0.09 0.08 0.24 0.16 0.31 0.19 0.07 0.02 0.20 0.14 0.27 0.27 0.13 0.21 0.14 0.25 0.07 0.75 -0.04 0.28 -0.10 0.54 -0.14 0.57 -0.04 0.02 -0.06 0.08 -0.04 0.12 0.02 0.04 0 0.07 -0.07 0.07 -0.06 0 -0.23 0.07 -0.38 0.15 -0.19 0.11 -0.32 0.14 -0.45 0.11 -0.11 -0.02 -0.21 -0.01 -0.24 0.02 -0.02 0.03 -0.10 0.05 -0.17 0.04z m1 -1.94 c-0.08 -0.16 -0.11 -0.18 -0.15 -0.10 -0.08 0.14 -0.01 0.30 0.14 0.30 0.12 0 0.12 -0.01 0.02 -0.20z m-0.40 -0.12 c0 -0.06 -0.04 -0.12 -0.09 -0.12 -0.09 0 -0.13 0.19 -0.06 0.27 0.07 0.06 0.15 -0.02 0.15 -0.15z"/>
 </g>
</svg>